999
"DXF R12 Output" (www.mydxf.blogspot.com)
 0 
SECTION
 2 
HEADER
 9 
$ACADVER
 1 
AC1009
 9 
$EXTMIN
 10 
 0 
 20 
 0 
 9 
$EXTMAX
 10 
 8.5 
 20 
 11 
 0 
ENDSEC
 0 
SECTION
 2 
ENTITIES
0
LINE
8
Layer 1
10
426.000000
20
906.000000
11
0.000000
21
906.000000
0
LINE
8
Layer 1
10
0.000000
20
906.000000
11
0.000000
21
453.000000
0
LINE
8
Layer 1
10
0.000000
20
453.000000
11
426.000000
21
453.000000
0
LINE
8
Layer 1
10
426.000000
20
453.000000
11
426.000000
21
906.000000
0
LINE
8
Layer 1
10
13.875200
20
888.903000
11
13.775500
21
888.908000
0
LINE
8
Layer 1
10
13.775500
20
888.908000
11
13.676000
21
888.917000
0
LINE
8
Layer 1
10
13.676000
20
888.917000
11
13.576800
21
888.929000
0
LINE
8
Layer 1
10
13.576800
20
888.929000
11
13.478100
21
888.944000
0
LINE
8
Layer 1
10
13.478100
20
888.944000
11
13.379900
21
888.963000
0
LINE
8
Layer 1
10
13.379900
20
888.963000
11
13.282400
21
888.984000
0
LINE
8
Layer 1
10
13.282400
20
888.984000
11
13.185600
21
889.009000
0
LINE
8
Layer 1
10
13.185600
20
889.009000
11
13.089700
21
889.037000
0
LINE
8
Layer 1
10
13.089700
20
889.037000
11
12.994700
21
889.068000
0
LINE
8
Layer 1
10
12.994700
20
889.068000
11
12.901000
21
889.102000
0
LINE
8
Layer 1
10
12.901000
20
889.102000
11
12.807900
21
889.138000
0
LINE
8
Layer 1
10
12.807900
20
889.138000
11
12.716400
21
889.178000
0
LINE
8
Layer 1
10
12.716400
20
889.178000
11
12.626100
21
889.221000
0
LINE
8
Layer 1
10
12.626100
20
889.221000
11
12.537300
21
889.267000
0
LINE
8
Layer 1
10
12.537300
20
889.267000
11
12.450000
21
889.315000
0
LINE
8
Layer 1
10
12.450000
20
889.315000
11
12.364400
21
889.367000
0
LINE
8
Layer 1
10
12.364400
20
889.367000
11
12.280400
21
889.421000
0
LINE
8
Layer 1
10
12.280400
20
889.421000
11
12.198600
21
889.478000
0
LINE
8
Layer 1
10
12.198600
20
889.478000
11
12.117800
21
889.537000
0
LINE
8
Layer 1
10
12.117800
20
889.537000
11
12.039500
21
889.599000
0
LINE
8
Layer 1
10
12.039500
20
889.599000
11
11.963600
21
889.664000
0
LINE
8
Layer 1
10
11.963600
20
889.664000
11
11.888900
21
889.730000
0
LINE
8
Layer 1
10
11.888900
20
889.730000
11
11.816900
21
889.799000
0
LINE
8
Layer 1
10
11.816900
20
889.799000
11
11.747600
21
889.871000
0
LINE
8
Layer 1
10
11.747600
20
889.871000
11
11.679700
21
889.944000
0
LINE
8
Layer 1
10
11.679700
20
889.944000
11
11.614700
21
890.020000
0
LINE
8
Layer 1
10
11.614700
20
890.020000
11
11.552700
21
890.099000
0
LINE
8
Layer 1
10
11.552700
20
890.099000
11
11.492100
21
890.178000
0
LINE
8
Layer 1
10
11.492100
20
890.178000
11
11.435300
21
890.260000
0
LINE
8
Layer 1
10
11.435300
20
890.260000
11
11.380000
21
890.343000
0
LINE
8
Layer 1
10
11.380000
20
890.343000
11
11.328600
21
890.429000
0
LINE
8
Layer 1
10
11.328600
20
890.429000
11
11.278700
21
890.515000
0
LINE
8
Layer 1
10
11.278700
20
890.515000
11
11.232300
21
890.604000
0
LINE
8
Layer 1
10
11.232300
20
890.604000
11
11.188800
21
890.694000
0
LINE
8
Layer 1
10
11.188800
20
890.694000
11
11.148100
21
890.785000
0
LINE
8
Layer 1
10
11.148100
20
890.785000
11
11.111200
21
890.878000
0
LINE
8
Layer 1
10
11.111200
20
890.878000
11
11.076500
21
890.971000
0
LINE
8
Layer 1
10
11.076500
20
890.971000
11
11.044200
21
891.066000
0
LINE
8
Layer 1
10
11.044200
20
891.066000
11
11.016300
21
891.162000
0
LINE
8
Layer 1
10
11.016300
20
891.162000
11
10.990200
21
891.258000
0
LINE
8
Layer 1
10
10.990200
20
891.258000
11
10.968500
21
891.356000
0
LINE
8
Layer 1
10
10.968500
20
891.356000
11
10.948600
21
891.453000
0
LINE
8
Layer 1
10
10.948600
20
891.453000
11
10.933300
21
891.552000
0
LINE
8
Layer 1
10
10.933300
20
891.552000
11
10.920500
21
891.651000
0
LINE
8
Layer 1
10
10.920500
20
891.651000
11
10.910900
21
891.751000
0
LINE
8
Layer 1
10
10.910900
20
891.751000
11
10.904400
21
891.850000
0
LINE
8
Layer 1
10
10.904400
20
891.850000
11
10.901200
21
891.950000
0
LINE
8
Layer 1
10
10.901200
20
891.950000
11
10.901200
21
892.050000
0
LINE
8
Layer 1
10
10.901200
20
892.050000
11
10.904400
21
892.150000
0
LINE
8
Layer 1
10
10.904400
20
892.150000
11
10.910900
21
892.249000
0
LINE
8
Layer 1
10
10.910900
20
892.249000
11
10.920500
21
892.349000
0
LINE
8
Layer 1
10
10.920500
20
892.349000
11
10.933300
21
892.448000
0
LINE
8
Layer 1
10
10.933300
20
892.448000
11
10.949300
21
892.546000
0
LINE
8
Layer 1
10
10.949300
20
892.546000
11
10.968500
21
892.644000
0
LINE
8
Layer 1
10
10.968500
20
892.644000
11
10.990900
21
892.742000
0
LINE
8
Layer 1
10
10.990900
20
892.742000
11
11.016300
21
892.838000
0
LINE
8
Layer 1
10
11.016300
20
892.838000
11
11.044900
21
892.934000
0
LINE
8
Layer 1
10
11.044900
20
892.934000
11
11.076500
21
893.029000
0
LINE
8
Layer 1
10
11.076500
20
893.029000
11
11.111200
21
893.122000
0
LINE
8
Layer 1
10
11.111200
20
893.122000
11
11.148800
21
893.215000
0
LINE
8
Layer 1
10
11.148800
20
893.215000
11
11.189400
21
893.306000
0
LINE
8
Layer 1
10
11.189400
20
893.306000
11
11.233000
21
893.396000
0
LINE
8
Layer 1
10
11.233000
20
893.396000
11
11.279400
21
893.484000
0
LINE
8
Layer 1
10
11.279400
20
893.484000
11
11.328600
21
893.571000
0
LINE
8
Layer 1
10
11.328600
20
893.571000
11
11.380600
21
893.656000
0
LINE
8
Layer 1
10
11.380600
20
893.656000
11
11.435300
21
893.740000
0
LINE
8
Layer 1
10
11.435300
20
893.740000
11
11.492700
21
893.822000
0
LINE
8
Layer 1
10
11.492700
20
893.822000
11
11.552700
21
893.901000
0
LINE
8
Layer 1
10
11.552700
20
893.901000
11
11.615200
21
893.979000
0
LINE
8
Layer 1
10
11.615200
20
893.979000
11
11.680200
21
894.055000
0
LINE
8
Layer 1
10
11.680200
20
894.055000
11
11.747600
21
894.129000
0
LINE
8
Layer 1
10
11.747600
20
894.129000
11
11.817400
21
894.200000
0
LINE
8
Layer 1
10
11.817400
20
894.200000
11
11.889400
21
894.269000
0
LINE
8
Layer 1
10
11.889400
20
894.269000
11
11.963600
21
894.336000
0
LINE
8
Layer 1
10
11.963600
20
894.336000
11
12.039900
21
894.401000
0
LINE
8
Layer 1
10
12.039900
20
894.401000
11
12.118300
21
894.463000
0
LINE
8
Layer 1
10
12.118300
20
894.463000
11
12.198600
21
894.522000
0
LINE
8
Layer 1
10
12.198600
20
894.522000
11
12.280800
21
894.579000
0
LINE
8
Layer 1
10
12.280800
20
894.579000
11
12.364700
21
894.633000
0
LINE
8
Layer 1
10
12.364700
20
894.633000
11
12.450400
21
894.684000
0
LINE
8
Layer 1
10
12.450400
20
894.684000
11
12.537700
21
894.733000
0
LINE
8
Layer 1
10
12.537700
20
894.733000
11
12.626500
21
894.778000
0
LINE
8
Layer 1
10
12.626500
20
894.778000
11
12.716700
21
894.821000
0
LINE
8
Layer 1
10
12.716700
20
894.821000
11
12.808200
21
894.861000
0
LINE
8
Layer 1
10
12.808200
20
894.861000
11
12.901000
21
894.898000
0
LINE
8
Layer 1
10
12.901000
20
894.898000
11
12.994900
21
894.932000
0
LINE
8
Layer 1
10
12.994900
20
894.932000
11
13.089900
21
894.963000
0
LINE
8
Layer 1
10
13.089900
20
894.963000
11
13.185800
21
894.990000
0
LINE
8
Layer 1
10
13.185800
20
894.990000
11
13.282600
21
895.015000
0
LINE
8
Layer 1
10
13.282600
20
895.015000
11
13.380100
21
895.037000
0
LINE
8
Layer 1
10
13.380100
20
895.037000
11
13.478200
21
895.055000
0
LINE
8
Layer 1
10
13.478200
20
895.055000
11
13.576900
21
895.070000
0
LINE
8
Layer 1
10
13.576900
20
895.070000
11
13.676000
21
895.082000
0
LINE
8
Layer 1
10
13.676000
20
895.082000
11
13.775500
21
895.091000
0
LINE
8
Layer 1
10
13.775500
20
895.091000
11
13.875200
21
895.097000
0
LINE
8
Layer 1
10
13.875200
20
895.097000
11
13.975000
21
895.099000
0
LINE
8
Layer 1
10
13.975000
20
895.099000
11
14.074900
21
895.098000
0
LINE
8
Layer 1
10
14.074900
20
895.098000
11
14.174700
21
895.094000
0
LINE
8
Layer 1
10
14.174700
20
895.094000
11
14.274300
21
895.087000
0
LINE
8
Layer 1
10
14.274300
20
895.087000
11
14.373600
21
895.077000
0
LINE
8
Layer 1
10
14.373600
20
895.077000
11
14.472500
21
895.063000
0
LINE
8
Layer 1
10
14.472500
20
895.063000
11
14.570900
21
895.046000
0
LINE
8
Layer 1
10
14.570900
20
895.046000
11
14.668800
21
895.026000
0
LINE
8
Layer 1
10
14.668800
20
895.026000
11
14.765900
21
895.003000
0
LINE
8
Layer 1
10
14.765900
20
895.003000
11
14.862200
21
894.977000
0
LINE
8
Layer 1
10
14.862200
20
894.977000
11
14.957700
21
894.948000
0
LINE
8
Layer 1
10
14.957700
20
894.948000
11
15.052400
21
894.916000
0
LINE
8
Layer 1
10
15.052400
20
894.916000
11
15.145500
21
894.880000
0
LINE
8
Layer 1
10
15.145500
20
894.880000
11
15.237700
21
894.841000
0
LINE
8
Layer 1
10
15.237700
20
894.841000
11
15.328700
21
894.800000
0
LINE
8
Layer 1
10
15.328700
20
894.800000
11
15.418200
21
894.756000
0
LINE
8
Layer 1
10
15.418200
20
894.756000
11
15.506500
21
894.709000
0
LINE
8
Layer 1
10
15.506500
20
894.709000
11
15.592600
21
894.659000
0
LINE
8
Layer 1
10
15.592600
20
894.659000
11
15.677900
21
894.607000
0
LINE
8
Layer 1
10
15.677900
20
894.607000
11
15.760500
21
894.551000
0
LINE
8
Layer 1
10
15.760500
20
894.551000
11
15.841800
21
894.493000
0
LINE
8
Layer 1
10
15.841800
20
894.493000
11
15.921100
21
894.432000
0
LINE
8
Layer 1
10
15.921100
20
894.432000
11
15.998500
21
894.369000
0
LINE
8
Layer 1
10
15.998500
20
894.369000
11
16.074100
21
894.303000
0
LINE
8
Layer 1
10
16.074100
20
894.303000
11
16.146900
21
894.235000
0
LINE
8
Layer 1
10
16.146900
20
894.235000
11
16.217800
21
894.165000
0
LINE
8
Layer 1
10
16.217800
20
894.165000
11
16.286400
21
894.092000
0
LINE
8
Layer 1
10
16.286400
20
894.092000
11
16.353100
21
894.018000
0
LINE
8
Layer 1
10
16.353100
20
894.018000
11
16.416900
21
893.941000
0
LINE
8
Layer 1
10
16.416900
20
893.941000
11
16.478200
21
893.862000
0
LINE
8
Layer 1
10
16.478200
20
893.862000
11
16.536300
21
893.781000
0
LINE
8
Layer 1
10
16.536300
20
893.781000
11
16.593000
21
893.699000
0
LINE
8
Layer 1
10
16.593000
20
893.699000
11
16.646400
21
893.614000
0
LINE
8
Layer 1
10
16.646400
20
893.614000
11
16.697000
21
893.528000
0
LINE
8
Layer 1
10
16.697000
20
893.528000
11
16.744800
21
893.441000
0
LINE
8
Layer 1
10
16.744800
20
893.441000
11
16.789800
21
893.351000
0
LINE
8
Layer 1
10
16.789800
20
893.351000
11
16.831900
21
893.261000
0
LINE
8
Layer 1
10
16.831900
20
893.261000
11
16.871100
21
893.169000
0
LINE
8
Layer 1
10
16.871100
20
893.169000
11
16.906600
21
893.076000
0
LINE
8
Layer 1
10
16.906600
20
893.076000
11
16.940400
21
892.982000
0
LINE
8
Layer 1
10
16.940400
20
892.982000
11
16.970500
21
892.886000
0
LINE
8
Layer 1
10
16.970500
20
892.886000
11
16.997500
21
892.790000
0
LINE
8
Layer 1
10
16.997500
20
892.790000
11
17.021400
21
892.693000
0
LINE
8
Layer 1
10
17.021400
20
892.693000
11
17.042200
21
892.596000
0
LINE
8
Layer 1
10
17.042200
20
892.596000
11
17.059800
21
892.497000
0
LINE
8
Layer 1
10
17.059800
20
892.497000
11
17.074200
21
892.398000
0
LINE
8
Layer 1
10
17.074200
20
892.398000
11
17.085400
21
892.299000
0
LINE
8
Layer 1
10
17.085400
20
892.299000
11
17.093500
21
892.200000
0
LINE
8
Layer 1
10
17.093500
20
892.200000
11
17.098300
21
892.100000
0
LINE
8
Layer 1
10
17.098300
20
892.100000
11
17.099900
21
892.000000
0
LINE
8
Layer 1
10
17.099900
20
892.000000
11
17.098300
21
891.900000
0
LINE
8
Layer 1
10
17.098300
20
891.900000
11
17.093500
21
891.800000
0
LINE
8
Layer 1
10
17.093500
20
891.800000
11
17.085400
21
891.701000
0
LINE
8
Layer 1
10
17.085400
20
891.701000
11
17.074200
21
891.602000
0
LINE
8
Layer 1
10
17.074200
20
891.602000
11
17.059800
21
891.503000
0
LINE
8
Layer 1
10
17.059800
20
891.503000
11
17.042200
21
891.404000
0
LINE
8
Layer 1
10
17.042200
20
891.404000
11
17.021400
21
891.307000
0
LINE
8
Layer 1
10
17.021400
20
891.307000
11
16.997500
21
891.210000
0
LINE
8
Layer 1
10
16.997500
20
891.210000
11
16.970500
21
891.114000
0
LINE
8
Layer 1
10
16.970500
20
891.114000
11
16.940400
21
891.018000
0
LINE
8
Layer 1
10
16.940400
20
891.018000
11
16.907200
21
890.924000
0
LINE
8
Layer 1
10
16.907200
20
890.924000
11
16.871100
21
890.831000
0
LINE
8
Layer 1
10
16.871100
20
890.831000
11
16.831900
21
890.739000
0
LINE
8
Layer 1
10
16.831900
20
890.739000
11
16.789800
21
890.649000
0
LINE
8
Layer 1
10
16.789800
20
890.649000
11
16.744800
21
890.559000
0
LINE
8
Layer 1
10
16.744800
20
890.559000
11
16.697000
21
890.472000
0
LINE
8
Layer 1
10
16.697000
20
890.472000
11
16.646400
21
890.386000
0
LINE
8
Layer 1
10
16.646400
20
890.386000
11
16.593000
21
890.301000
0
LINE
8
Layer 1
10
16.593000
20
890.301000
11
16.536900
21
890.219000
0
LINE
8
Layer 1
10
16.536900
20
890.219000
11
16.478200
21
890.138000
0
LINE
8
Layer 1
10
16.478200
20
890.138000
11
16.416900
21
890.059000
0
LINE
8
Layer 1
10
16.416900
20
890.059000
11
16.353100
21
889.982000
0
LINE
8
Layer 1
10
16.353100
20
889.982000
11
16.286900
21
889.907000
0
LINE
8
Layer 1
10
16.286900
20
889.907000
11
16.218300
21
889.835000
0
LINE
8
Layer 1
10
16.218300
20
889.835000
11
16.147400
21
889.764000
0
LINE
8
Layer 1
10
16.147400
20
889.764000
11
16.074200
21
889.696000
0
LINE
8
Layer 1
10
16.074200
20
889.696000
11
15.999000
21
889.631000
0
LINE
8
Layer 1
10
15.999000
20
889.631000
11
15.921600
21
889.568000
0
LINE
8
Layer 1
10
15.921600
20
889.568000
11
15.842200
21
889.507000
0
LINE
8
Layer 1
10
15.842200
20
889.507000
11
15.761000
21
889.449000
0
LINE
8
Layer 1
10
15.761000
20
889.449000
11
15.677900
21
889.393000
0
LINE
8
Layer 1
10
15.677900
20
889.393000
11
15.593000
21
889.341000
0
LINE
8
Layer 1
10
15.593000
20
889.341000
11
15.506500
21
889.291000
0
LINE
8
Layer 1
10
15.506500
20
889.291000
11
15.418400
21
889.244000
0
LINE
8
Layer 1
10
15.418400
20
889.244000
11
15.328900
21
889.199000
0
LINE
8
Layer 1
10
15.328900
20
889.199000
11
15.238000
21
889.158000
0
LINE
8
Layer 1
10
15.238000
20
889.158000
11
15.145800
21
889.120000
0
LINE
8
Layer 1
10
15.145800
20
889.120000
11
15.052400
21
889.084000
0
LINE
8
Layer 1
10
15.052400
20
889.084000
11
14.957900
21
889.052000
0
LINE
8
Layer 1
10
14.957900
20
889.052000
11
14.862500
21
889.022000
0
LINE
8
Layer 1
10
14.862500
20
889.022000
11
14.766100
21
888.996000
0
LINE
8
Layer 1
10
14.766100
20
888.996000
11
14.668900
21
888.973000
0
LINE
8
Layer 1
10
14.668900
20
888.973000
11
14.571100
21
888.953000
0
LINE
8
Layer 1
10
14.571100
20
888.953000
11
14.472600
21
888.936000
0
LINE
8
Layer 1
10
14.472600
20
888.936000
11
14.373700
21
888.923000
0
LINE
8
Layer 1
10
14.373700
20
888.923000
11
14.274300
21
888.912000
0
LINE
8
Layer 1
10
14.274300
20
888.912000
11
14.174700
21
888.905000
0
LINE
8
Layer 1
10
14.174700
20
888.905000
11
14.074900
21
888.901000
0
LINE
8
Layer 1
10
14.074900
20
888.901000
11
13.975000
21
888.900000
0
LINE
8
Layer 1
10
13.975000
20
888.900000
11
13.875200
21
888.903000
0
LINE
8
Layer 1
10
411.875000
20
888.903000
11
411.775000
21
888.908000
0
LINE
8
Layer 1
10
411.775000
20
888.908000
11
411.676000
21
888.917000
0
LINE
8
Layer 1
10
411.676000
20
888.917000
11
411.577000
21
888.929000
0
LINE
8
Layer 1
10
411.577000
20
888.929000
11
411.478000
21
888.944000
0
LINE
8
Layer 1
10
411.478000
20
888.944000
11
411.380000
21
888.963000
0
LINE
8
Layer 1
10
411.380000
20
888.963000
11
411.282000
21
888.984000
0
LINE
8
Layer 1
10
411.282000
20
888.984000
11
411.186000
21
889.009000
0
LINE
8
Layer 1
10
411.186000
20
889.009000
11
411.090000
21
889.037000
0
LINE
8
Layer 1
10
411.090000
20
889.037000
11
410.995000
21
889.068000
0
LINE
8
Layer 1
10
410.995000
20
889.068000
11
410.901000
21
889.102000
0
LINE
8
Layer 1
10
410.901000
20
889.102000
11
410.808000
21
889.138000
0
LINE
8
Layer 1
10
410.808000
20
889.138000
11
410.716000
21
889.178000
0
LINE
8
Layer 1
10
410.716000
20
889.178000
11
410.626000
21
889.221000
0
LINE
8
Layer 1
10
410.626000
20
889.221000
11
410.537000
21
889.267000
0
LINE
8
Layer 1
10
410.537000
20
889.267000
11
410.450000
21
889.315000
0
LINE
8
Layer 1
10
410.450000
20
889.315000
11
410.364000
21
889.367000
0
LINE
8
Layer 1
10
410.364000
20
889.367000
11
410.280000
21
889.421000
0
LINE
8
Layer 1
10
410.280000
20
889.421000
11
410.199000
21
889.478000
0
LINE
8
Layer 1
10
410.199000
20
889.478000
11
410.118000
21
889.537000
0
LINE
8
Layer 1
10
410.118000
20
889.537000
11
410.039000
21
889.599000
0
LINE
8
Layer 1
10
410.039000
20
889.599000
11
409.964000
21
889.664000
0
LINE
8
Layer 1
10
409.964000
20
889.664000
11
409.889000
21
889.730000
0
LINE
8
Layer 1
10
409.889000
20
889.730000
11
409.817000
21
889.799000
0
LINE
8
Layer 1
10
409.817000
20
889.799000
11
409.748000
21
889.871000
0
LINE
8
Layer 1
10
409.748000
20
889.871000
11
409.680000
21
889.944000
0
LINE
8
Layer 1
10
409.680000
20
889.944000
11
409.615000
21
890.020000
0
LINE
8
Layer 1
10
409.615000
20
890.020000
11
409.553000
21
890.099000
0
LINE
8
Layer 1
10
409.553000
20
890.099000
11
409.492000
21
890.178000
0
LINE
8
Layer 1
10
409.492000
20
890.178000
11
409.435000
21
890.260000
0
LINE
8
Layer 1
10
409.435000
20
890.260000
11
409.380000
21
890.343000
0
LINE
8
Layer 1
10
409.380000
20
890.343000
11
409.329000
21
890.429000
0
LINE
8
Layer 1
10
409.329000
20
890.429000
11
409.279000
21
890.515000
0
LINE
8
Layer 1
10
409.279000
20
890.515000
11
409.232000
21
890.604000
0
LINE
8
Layer 1
10
409.232000
20
890.604000
11
409.189000
21
890.694000
0
LINE
8
Layer 1
10
409.189000
20
890.694000
11
409.148000
21
890.785000
0
LINE
8
Layer 1
10
409.148000
20
890.785000
11
409.111000
21
890.878000
0
LINE
8
Layer 1
10
409.111000
20
890.878000
11
409.077000
21
890.971000
0
LINE
8
Layer 1
10
409.077000
20
890.971000
11
409.044000
21
891.066000
0
LINE
8
Layer 1
10
409.044000
20
891.066000
11
409.016000
21
891.162000
0
LINE
8
Layer 1
10
409.016000
20
891.162000
11
408.990000
21
891.258000
0
LINE
8
Layer 1
10
408.990000
20
891.258000
11
408.969000
21
891.356000
0
LINE
8
Layer 1
10
408.969000
20
891.356000
11
408.949000
21
891.453000
0
LINE
8
Layer 1
10
408.949000
20
891.453000
11
408.933000
21
891.552000
0
LINE
8
Layer 1
10
408.933000
20
891.552000
11
408.921000
21
891.651000
0
LINE
8
Layer 1
10
408.921000
20
891.651000
11
408.911000
21
891.751000
0
LINE
8
Layer 1
10
408.911000
20
891.751000
11
408.904000
21
891.850000
0
LINE
8
Layer 1
10
408.904000
20
891.850000
11
408.901000
21
891.950000
0
LINE
8
Layer 1
10
408.901000
20
891.950000
11
408.901000
21
892.050000
0
LINE
8
Layer 1
10
408.901000
20
892.050000
11
408.904000
21
892.150000
0
LINE
8
Layer 1
10
408.904000
20
892.150000
11
408.911000
21
892.249000
0
LINE
8
Layer 1
10
408.911000
20
892.249000
11
408.921000
21
892.349000
0
LINE
8
Layer 1
10
408.921000
20
892.349000
11
408.933000
21
892.448000
0
LINE
8
Layer 1
10
408.933000
20
892.448000
11
408.949000
21
892.546000
0
LINE
8
Layer 1
10
408.949000
20
892.546000
11
408.969000
21
892.644000
0
LINE
8
Layer 1
10
408.969000
20
892.644000
11
408.991000
21
892.742000
0
LINE
8
Layer 1
10
408.991000
20
892.742000
11
409.016000
21
892.838000
0
LINE
8
Layer 1
10
409.016000
20
892.838000
11
409.045000
21
892.934000
0
LINE
8
Layer 1
10
409.045000
20
892.934000
11
409.077000
21
893.029000
0
LINE
8
Layer 1
10
409.077000
20
893.029000
11
409.111000
21
893.122000
0
LINE
8
Layer 1
10
409.111000
20
893.122000
11
409.149000
21
893.215000
0
LINE
8
Layer 1
10
409.149000
20
893.215000
11
409.189000
21
893.306000
0
LINE
8
Layer 1
10
409.189000
20
893.306000
11
409.233000
21
893.396000
0
LINE
8
Layer 1
10
409.233000
20
893.396000
11
409.279000
21
893.484000
0
LINE
8
Layer 1
10
409.279000
20
893.484000
11
409.329000
21
893.571000
0
LINE
8
Layer 1
10
409.329000
20
893.571000
11
409.381000
21
893.656000
0
LINE
8
Layer 1
10
409.381000
20
893.656000
11
409.435000
21
893.740000
0
LINE
8
Layer 1
10
409.435000
20
893.740000
11
409.493000
21
893.822000
0
LINE
8
Layer 1
10
409.493000
20
893.822000
11
409.553000
21
893.901000
0
LINE
8
Layer 1
10
409.553000
20
893.901000
11
409.615000
21
893.979000
0
LINE
8
Layer 1
10
409.615000
20
893.979000
11
409.680000
21
894.055000
0
LINE
8
Layer 1
10
409.680000
20
894.055000
11
409.748000
21
894.129000
0
LINE
8
Layer 1
10
409.748000
20
894.129000
11
409.817000
21
894.200000
0
LINE
8
Layer 1
10
409.817000
20
894.200000
11
409.889000
21
894.269000
0
LINE
8
Layer 1
10
409.889000
20
894.269000
11
409.964000
21
894.336000
0
LINE
8
Layer 1
10
409.964000
20
894.336000
11
410.040000
21
894.401000
0
LINE
8
Layer 1
10
410.040000
20
894.401000
11
410.118000
21
894.463000
0
LINE
8
Layer 1
10
410.118000
20
894.463000
11
410.199000
21
894.522000
0
LINE
8
Layer 1
10
410.199000
20
894.522000
11
410.281000
21
894.579000
0
LINE
8
Layer 1
10
410.281000
20
894.579000
11
410.365000
21
894.633000
0
LINE
8
Layer 1
10
410.365000
20
894.633000
11
410.450000
21
894.684000
0
LINE
8
Layer 1
10
410.450000
20
894.684000
11
410.538000
21
894.733000
0
LINE
8
Layer 1
10
410.538000
20
894.733000
11
410.626000
21
894.778000
0
LINE
8
Layer 1
10
410.626000
20
894.778000
11
410.717000
21
894.821000
0
LINE
8
Layer 1
10
410.717000
20
894.821000
11
410.808000
21
894.861000
0
LINE
8
Layer 1
10
410.808000
20
894.861000
11
410.901000
21
894.898000
0
LINE
8
Layer 1
10
410.901000
20
894.898000
11
410.995000
21
894.932000
0
LINE
8
Layer 1
10
410.995000
20
894.932000
11
411.090000
21
894.963000
0
LINE
8
Layer 1
10
411.090000
20
894.963000
11
411.186000
21
894.990000
0
LINE
8
Layer 1
10
411.186000
20
894.990000
11
411.283000
21
895.015000
0
LINE
8
Layer 1
10
411.283000
20
895.015000
11
411.380000
21
895.037000
0
LINE
8
Layer 1
10
411.380000
20
895.037000
11
411.478000
21
895.055000
0
LINE
8
Layer 1
10
411.478000
20
895.055000
11
411.577000
21
895.070000
0
LINE
8
Layer 1
10
411.577000
20
895.070000
11
411.676000
21
895.082000
0
LINE
8
Layer 1
10
411.676000
20
895.082000
11
411.776000
21
895.091000
0
LINE
8
Layer 1
10
411.776000
20
895.091000
11
411.875000
21
895.097000
0
LINE
8
Layer 1
10
411.875000
20
895.097000
11
411.975000
21
895.099000
0
LINE
8
Layer 1
10
411.975000
20
895.099000
11
412.075000
21
895.098000
0
LINE
8
Layer 1
10
412.075000
20
895.098000
11
412.175000
21
895.094000
0
LINE
8
Layer 1
10
412.175000
20
895.094000
11
412.274000
21
895.087000
0
LINE
8
Layer 1
10
412.274000
20
895.087000
11
412.374000
21
895.077000
0
LINE
8
Layer 1
10
412.374000
20
895.077000
11
412.473000
21
895.063000
0
LINE
8
Layer 1
10
412.473000
20
895.063000
11
412.571000
21
895.046000
0
LINE
8
Layer 1
10
412.571000
20
895.046000
11
412.669000
21
895.026000
0
LINE
8
Layer 1
10
412.669000
20
895.026000
11
412.766000
21
895.003000
0
LINE
8
Layer 1
10
412.766000
20
895.003000
11
412.862000
21
894.977000
0
LINE
8
Layer 1
10
412.862000
20
894.977000
11
412.958000
21
894.948000
0
LINE
8
Layer 1
10
412.958000
20
894.948000
11
413.052000
21
894.916000
0
LINE
8
Layer 1
10
413.052000
20
894.916000
11
413.146000
21
894.880000
0
LINE
8
Layer 1
10
413.146000
20
894.880000
11
413.238000
21
894.841000
0
LINE
8
Layer 1
10
413.238000
20
894.841000
11
413.329000
21
894.800000
0
LINE
8
Layer 1
10
413.329000
20
894.800000
11
413.418000
21
894.756000
0
LINE
8
Layer 1
10
413.418000
20
894.756000
11
413.507000
21
894.709000
0
LINE
8
Layer 1
10
413.507000
20
894.709000
11
413.593000
21
894.659000
0
LINE
8
Layer 1
10
413.593000
20
894.659000
11
413.678000
21
894.607000
0
LINE
8
Layer 1
10
413.678000
20
894.607000
11
413.761000
21
894.551000
0
LINE
8
Layer 1
10
413.761000
20
894.551000
11
413.842000
21
894.493000
0
LINE
8
Layer 1
10
413.842000
20
894.493000
11
413.921000
21
894.432000
0
LINE
8
Layer 1
10
413.921000
20
894.432000
11
413.999000
21
894.369000
0
LINE
8
Layer 1
10
413.999000
20
894.369000
11
414.074000
21
894.303000
0
LINE
8
Layer 1
10
414.074000
20
894.303000
11
414.147000
21
894.235000
0
LINE
8
Layer 1
10
414.147000
20
894.235000
11
414.218000
21
894.165000
0
LINE
8
Layer 1
10
414.218000
20
894.165000
11
414.286000
21
894.092000
0
LINE
8
Layer 1
10
414.286000
20
894.092000
11
414.353000
21
894.018000
0
LINE
8
Layer 1
10
414.353000
20
894.018000
11
414.417000
21
893.941000
0
LINE
8
Layer 1
10
414.417000
20
893.941000
11
414.478000
21
893.862000
0
LINE
8
Layer 1
10
414.478000
20
893.862000
11
414.536000
21
893.781000
0
LINE
8
Layer 1
10
414.536000
20
893.781000
11
414.593000
21
893.699000
0
LINE
8
Layer 1
10
414.593000
20
893.699000
11
414.646000
21
893.614000
0
LINE
8
Layer 1
10
414.646000
20
893.614000
11
414.697000
21
893.528000
0
LINE
8
Layer 1
10
414.697000
20
893.528000
11
414.745000
21
893.441000
0
LINE
8
Layer 1
10
414.745000
20
893.441000
11
414.790000
21
893.351000
0
LINE
8
Layer 1
10
414.790000
20
893.351000
11
414.832000
21
893.261000
0
LINE
8
Layer 1
10
414.832000
20
893.261000
11
414.871000
21
893.169000
0
LINE
8
Layer 1
10
414.871000
20
893.169000
11
414.907000
21
893.076000
0
LINE
8
Layer 1
10
414.907000
20
893.076000
11
414.940000
21
892.982000
0
LINE
8
Layer 1
10
414.940000
20
892.982000
11
414.970000
21
892.886000
0
LINE
8
Layer 1
10
414.970000
20
892.886000
11
414.997000
21
892.790000
0
LINE
8
Layer 1
10
414.997000
20
892.790000
11
415.021000
21
892.693000
0
LINE
8
Layer 1
10
415.021000
20
892.693000
11
415.042000
21
892.596000
0
LINE
8
Layer 1
10
415.042000
20
892.596000
11
415.060000
21
892.497000
0
LINE
8
Layer 1
10
415.060000
20
892.497000
11
415.074000
21
892.398000
0
LINE
8
Layer 1
10
415.074000
20
892.398000
11
415.085000
21
892.299000
0
LINE
8
Layer 1
10
415.085000
20
892.299000
11
415.093000
21
892.200000
0
LINE
8
Layer 1
10
415.093000
20
892.200000
11
415.098000
21
892.100000
0
LINE
8
Layer 1
10
415.098000
20
892.100000
11
415.100000
21
892.000000
0
LINE
8
Layer 1
10
415.100000
20
892.000000
11
415.098000
21
891.900000
0
LINE
8
Layer 1
10
415.098000
20
891.900000
11
415.093000
21
891.800000
0
LINE
8
Layer 1
10
415.093000
20
891.800000
11
415.085000
21
891.701000
0
LINE
8
Layer 1
10
415.085000
20
891.701000
11
415.074000
21
891.602000
0
LINE
8
Layer 1
10
415.074000
20
891.602000
11
415.060000
21
891.503000
0
LINE
8
Layer 1
10
415.060000
20
891.503000
11
415.042000
21
891.404000
0
LINE
8
Layer 1
10
415.042000
20
891.404000
11
415.021000
21
891.307000
0
LINE
8
Layer 1
10
415.021000
20
891.307000
11
414.997000
21
891.210000
0
LINE
8
Layer 1
10
414.997000
20
891.210000
11
414.970000
21
891.114000
0
LINE
8
Layer 1
10
414.970000
20
891.114000
11
414.940000
21
891.018000
0
LINE
8
Layer 1
10
414.940000
20
891.018000
11
414.907000
21
890.924000
0
LINE
8
Layer 1
10
414.907000
20
890.924000
11
414.871000
21
890.831000
0
LINE
8
Layer 1
10
414.871000
20
890.831000
11
414.832000
21
890.739000
0
LINE
8
Layer 1
10
414.832000
20
890.739000
11
414.790000
21
890.649000
0
LINE
8
Layer 1
10
414.790000
20
890.649000
11
414.745000
21
890.559000
0
LINE
8
Layer 1
10
414.745000
20
890.559000
11
414.697000
21
890.472000
0
LINE
8
Layer 1
10
414.697000
20
890.472000
11
414.646000
21
890.386000
0
LINE
8
Layer 1
10
414.646000
20
890.386000
11
414.593000
21
890.301000
0
LINE
8
Layer 1
10
414.593000
20
890.301000
11
414.537000
21
890.219000
0
LINE
8
Layer 1
10
414.537000
20
890.219000
11
414.478000
21
890.138000
0
LINE
8
Layer 1
10
414.478000
20
890.138000
11
414.417000
21
890.059000
0
LINE
8
Layer 1
10
414.417000
20
890.059000
11
414.353000
21
889.982000
0
LINE
8
Layer 1
10
414.353000
20
889.982000
11
414.287000
21
889.907000
0
LINE
8
Layer 1
10
414.287000
20
889.907000
11
414.218000
21
889.835000
0
LINE
8
Layer 1
10
414.218000
20
889.835000
11
414.147000
21
889.764000
0
LINE
8
Layer 1
10
414.147000
20
889.764000
11
414.074000
21
889.696000
0
LINE
8
Layer 1
10
414.074000
20
889.696000
11
413.999000
21
889.631000
0
LINE
8
Layer 1
10
413.999000
20
889.631000
11
413.922000
21
889.568000
0
LINE
8
Layer 1
10
413.922000
20
889.568000
11
413.842000
21
889.507000
0
LINE
8
Layer 1
10
413.842000
20
889.507000
11
413.761000
21
889.449000
0
LINE
8
Layer 1
10
413.761000
20
889.449000
11
413.678000
21
889.393000
0
LINE
8
Layer 1
10
413.678000
20
889.393000
11
413.593000
21
889.341000
0
LINE
8
Layer 1
10
413.593000
20
889.341000
11
413.507000
21
889.291000
0
LINE
8
Layer 1
10
413.507000
20
889.291000
11
413.418000
21
889.244000
0
LINE
8
Layer 1
10
413.418000
20
889.244000
11
413.329000
21
889.199000
0
LINE
8
Layer 1
10
413.329000
20
889.199000
11
413.238000
21
889.158000
0
LINE
8
Layer 1
10
413.238000
20
889.158000
11
413.146000
21
889.120000
0
LINE
8
Layer 1
10
413.146000
20
889.120000
11
413.052000
21
889.084000
0
LINE
8
Layer 1
10
413.052000
20
889.084000
11
412.958000
21
889.052000
0
LINE
8
Layer 1
10
412.958000
20
889.052000
11
412.862000
21
889.022000
0
LINE
8
Layer 1
10
412.862000
20
889.022000
11
412.766000
21
888.996000
0
LINE
8
Layer 1
10
412.766000
20
888.996000
11
412.669000
21
888.973000
0
LINE
8
Layer 1
10
412.669000
20
888.973000
11
412.571000
21
888.953000
0
LINE
8
Layer 1
10
412.571000
20
888.953000
11
412.473000
21
888.936000
0
LINE
8
Layer 1
10
412.473000
20
888.936000
11
412.374000
21
888.923000
0
LINE
8
Layer 1
10
412.374000
20
888.923000
11
412.274000
21
888.912000
0
LINE
8
Layer 1
10
412.274000
20
888.912000
11
412.175000
21
888.905000
0
LINE
8
Layer 1
10
412.175000
20
888.905000
11
412.075000
21
888.901000
0
LINE
8
Layer 1
10
412.075000
20
888.901000
11
411.975000
21
888.900000
0
LINE
8
Layer 1
10
411.975000
20
888.900000
11
411.875000
21
888.903000
0
LINE
8
Layer 1
10
415.600000
20
734.250000
11
415.500000
21
734.254000
0
LINE
8
Layer 1
10
415.500000
20
734.254000
11
415.401000
21
734.261000
0
LINE
8
Layer 1
10
415.401000
20
734.261000
11
415.301000
21
734.272000
0
LINE
8
Layer 1
10
415.301000
20
734.272000
11
415.202000
21
734.286000
0
LINE
8
Layer 1
10
415.202000
20
734.286000
11
415.104000
21
734.304000
0
LINE
8
Layer 1
10
415.104000
20
734.304000
11
415.006000
21
734.326000
0
LINE
8
Layer 1
10
415.006000
20
734.326000
11
414.910000
21
734.351000
0
LINE
8
Layer 1
10
414.910000
20
734.351000
11
414.863000
21
734.365000
0
LINE
8
Layer 1
10
414.863000
20
734.365000
11
414.814000
21
734.380000
0
LINE
8
Layer 1
10
414.814000
20
734.380000
11
414.720000
21
734.412000
0
LINE
8
Layer 1
10
414.720000
20
734.412000
11
414.626000
21
734.447000
0
LINE
8
Layer 1
10
414.626000
20
734.447000
11
414.534000
21
734.486000
0
LINE
8
Layer 1
10
414.534000
20
734.486000
11
414.443000
21
734.528000
0
LINE
8
Layer 1
10
414.443000
20
734.528000
11
414.355000
21
734.574000
0
LINE
8
Layer 1
10
414.355000
20
734.574000
11
414.268000
21
734.622000
0
LINE
8
Layer 1
10
414.268000
20
734.622000
11
414.182000
21
734.674000
0
LINE
8
Layer 1
10
414.182000
20
734.674000
11
414.103000
21
734.726000
0
LINE
8
Layer 1
10
414.103000
20
734.726000
11
414.099000
21
734.729000
0
LINE
8
Layer 1
10
414.099000
20
734.729000
11
414.017000
21
734.787000
0
LINE
8
Layer 1
10
414.017000
20
734.787000
11
413.938000
21
734.847000
0
LINE
8
Layer 1
10
413.938000
20
734.847000
11
413.861000
21
734.911000
0
LINE
8
Layer 1
10
413.861000
20
734.911000
11
413.786000
21
734.977000
0
LINE
8
Layer 1
10
413.786000
20
734.977000
11
413.714000
21
735.046000
0
LINE
8
Layer 1
10
413.714000
20
735.046000
11
413.644000
21
735.118000
0
LINE
8
Layer 1
10
413.644000
20
735.118000
11
413.577000
21
735.192000
0
LINE
8
Layer 1
10
413.577000
20
735.192000
11
413.513000
21
735.268000
0
LINE
8
Layer 1
10
413.513000
20
735.268000
11
413.452000
21
735.347000
0
LINE
8
Layer 1
10
413.452000
20
735.347000
11
413.408000
21
735.407000
0
LINE
8
Layer 1
10
413.408000
20
735.407000
11
413.393000
21
735.428000
0
LINE
8
Layer 1
10
413.393000
20
735.428000
11
413.337000
21
735.511000
0
LINE
8
Layer 1
10
413.337000
20
735.511000
11
413.285000
21
735.596000
0
LINE
8
Layer 1
10
413.285000
20
735.596000
11
413.235000
21
735.683000
0
LINE
8
Layer 1
10
413.235000
20
735.683000
11
413.189000
21
735.771000
0
LINE
8
Layer 1
10
413.189000
20
735.771000
11
413.146000
21
735.861000
0
LINE
8
Layer 1
10
413.146000
20
735.861000
11
413.106000
21
735.954000
0
LINE
8
Layer 1
10
413.106000
20
735.954000
11
413.070000
21
736.046000
0
LINE
8
Layer 1
10
413.070000
20
736.046000
11
413.037000
21
736.141000
0
LINE
8
Layer 1
10
413.037000
20
736.141000
11
413.008000
21
736.236000
0
LINE
8
Layer 1
10
413.008000
20
736.236000
11
412.996000
21
736.278000
0
LINE
8
Layer 1
10
412.996000
20
736.278000
11
412.982000
21
736.332000
0
LINE
8
Layer 1
10
412.982000
20
736.332000
11
412.970000
21
736.385000
0
LINE
8
Layer 1
10
412.970000
20
736.385000
11
412.959000
21
736.430000
0
LINE
8
Layer 1
10
412.959000
20
736.430000
11
412.940000
21
736.528000
0
LINE
8
Layer 1
10
412.940000
20
736.528000
11
412.925000
21
736.627000
0
LINE
8
Layer 1
10
412.925000
20
736.627000
11
412.913000
21
736.726000
0
LINE
8
Layer 1
10
412.913000
20
736.726000
11
412.911000
21
736.756000
0
LINE
8
Layer 1
10
412.911000
20
736.756000
11
412.905000
21
736.825000
0
LINE
8
Layer 1
10
412.905000
20
736.825000
11
412.902000
21
736.889000
0
LINE
8
Layer 1
10
412.902000
20
736.889000
11
412.901000
21
736.925000
0
LINE
8
Layer 1
10
412.901000
20
736.925000
11
412.900000
21
737.025000
0
LINE
8
Layer 1
10
412.900000
20
737.025000
11
412.902000
21
737.125000
0
LINE
8
Layer 1
10
412.902000
20
737.125000
11
412.909000
21
737.225000
0
LINE
8
Layer 1
10
412.909000
20
737.225000
11
412.919000
21
737.324000
0
LINE
8
Layer 1
10
412.919000
20
737.324000
11
412.932000
21
737.423000
0
LINE
8
Layer 1
10
412.932000
20
737.423000
11
412.949000
21
737.521000
0
LINE
8
Layer 1
10
412.949000
20
737.521000
11
412.970000
21
737.619000
0
LINE
8
Layer 1
10
412.970000
20
737.619000
11
412.994000
21
737.716000
0
LINE
8
Layer 1
10
412.994000
20
737.716000
11
413.004000
21
737.749000
0
LINE
8
Layer 1
10
413.004000
20
737.749000
11
413.022000
21
737.812000
0
LINE
8
Layer 1
10
413.022000
20
737.812000
11
413.053000
21
737.907000
0
LINE
8
Layer 1
10
413.053000
20
737.907000
11
413.088000
21
738.000000
0
LINE
8
Layer 1
10
413.088000
20
738.000000
11
413.126000
21
738.093000
0
LINE
8
Layer 1
10
413.126000
20
738.093000
11
413.167000
21
738.184000
0
LINE
8
Layer 1
10
413.167000
20
738.184000
11
413.212000
21
738.273000
0
LINE
8
Layer 1
10
413.212000
20
738.273000
11
413.260000
21
738.361000
0
LINE
8
Layer 1
10
413.260000
20
738.361000
11
413.311000
21
738.447000
0
LINE
8
Layer 1
10
413.311000
20
738.447000
11
413.365000
21
738.531000
0
LINE
8
Layer 1
10
413.365000
20
738.531000
11
413.422000
21
738.613000
0
LINE
8
Layer 1
10
413.422000
20
738.613000
11
413.482000
21
738.693000
0
LINE
8
Layer 1
10
413.482000
20
738.693000
11
413.545000
21
738.770000
0
LINE
8
Layer 1
10
413.545000
20
738.770000
11
413.610000
21
738.845000
0
LINE
8
Layer 1
10
413.610000
20
738.845000
11
413.679000
21
738.918000
0
LINE
8
Layer 1
10
413.679000
20
738.918000
11
413.750000
21
738.988000
0
LINE
8
Layer 1
10
413.750000
20
738.988000
11
413.824000
21
739.056000
0
LINE
8
Layer 1
10
413.824000
20
739.056000
11
413.899000
21
739.121000
0
LINE
8
Layer 1
10
413.899000
20
739.121000
11
413.977000
21
739.183000
0
LINE
8
Layer 1
10
413.977000
20
739.183000
11
414.028000
21
739.221000
0
LINE
8
Layer 1
10
414.028000
20
739.221000
11
414.058000
21
739.243000
0
LINE
8
Layer 1
10
414.058000
20
739.243000
11
414.140000
21
739.299000
0
LINE
8
Layer 1
10
414.140000
20
739.299000
11
414.225000
21
739.352000
0
LINE
8
Layer 1
10
414.225000
20
739.352000
11
414.311000
21
739.402000
0
LINE
8
Layer 1
10
414.311000
20
739.402000
11
414.399000
21
739.450000
0
LINE
8
Layer 1
10
414.399000
20
739.450000
11
414.489000
21
739.493000
0
LINE
8
Layer 1
10
414.489000
20
739.493000
11
414.581000
21
739.534000
0
LINE
8
Layer 1
10
414.581000
20
739.534000
11
414.673000
21
739.571000
0
LINE
8
Layer 1
10
414.673000
20
739.571000
11
414.767000
21
739.605000
0
LINE
8
Layer 1
10
414.767000
20
739.605000
11
414.862000
21
739.635000
0
LINE
8
Layer 1
10
414.862000
20
739.635000
11
414.958000
21
739.662000
0
LINE
8
Layer 1
10
414.958000
20
739.662000
11
415.056000
21
739.685000
0
LINE
8
Layer 1
10
415.056000
20
739.685000
11
415.153000
21
739.705000
0
LINE
8
Layer 1
10
415.153000
20
739.705000
11
415.252000
21
739.722000
0
LINE
8
Layer 1
10
415.252000
20
739.722000
11
415.351000
21
739.734000
0
LINE
8
Layer 1
10
415.351000
20
739.734000
11
415.451000
21
739.743000
0
LINE
8
Layer 1
10
415.451000
20
739.743000
11
415.495000
21
739.746000
0
LINE
8
Layer 1
10
415.495000
20
739.746000
11
415.550000
21
739.749000
0
LINE
8
Layer 1
10
415.550000
20
739.749000
11
415.650000
21
739.750000
0
LINE
8
Layer 1
10
415.650000
20
739.750000
11
415.750000
21
739.749000
0
LINE
8
Layer 1
10
415.750000
20
739.749000
11
415.850000
21
739.743000
0
LINE
8
Layer 1
10
415.850000
20
739.743000
11
415.949000
21
739.734000
0
LINE
8
Layer 1
10
415.949000
20
739.734000
11
416.048000
21
739.721000
0
LINE
8
Layer 1
10
416.048000
20
739.721000
11
416.147000
21
739.705000
0
LINE
8
Layer 1
10
416.147000
20
739.705000
11
416.245000
21
739.685000
0
LINE
8
Layer 1
10
416.245000
20
739.685000
11
416.342000
21
739.662000
0
LINE
8
Layer 1
10
416.342000
20
739.662000
11
416.438000
21
739.635000
0
LINE
8
Layer 1
10
416.438000
20
739.635000
11
416.513000
21
739.611000
0
LINE
8
Layer 1
10
416.513000
20
739.611000
11
416.533000
21
739.605000
0
LINE
8
Layer 1
10
416.533000
20
739.605000
11
416.627000
21
739.571000
0
LINE
8
Layer 1
10
416.627000
20
739.571000
11
416.720000
21
739.534000
0
LINE
8
Layer 1
10
416.720000
20
739.534000
11
416.811000
21
739.493000
0
LINE
8
Layer 1
10
416.811000
20
739.493000
11
416.901000
21
739.449000
0
LINE
8
Layer 1
10
416.901000
20
739.449000
11
416.922000
21
739.438000
0
LINE
8
Layer 1
10
416.922000
20
739.438000
11
416.989000
21
739.402000
0
LINE
8
Layer 1
10
416.989000
20
739.402000
11
417.075000
21
739.352000
0
LINE
8
Layer 1
10
417.075000
20
739.352000
11
417.160000
21
739.299000
0
LINE
8
Layer 1
10
417.160000
20
739.299000
11
417.173000
21
739.290000
0
LINE
8
Layer 1
10
417.173000
20
739.290000
11
417.243000
21
739.242000
0
LINE
8
Layer 1
10
417.243000
20
739.242000
11
417.323000
21
739.183000
0
LINE
8
Layer 1
10
417.323000
20
739.183000
11
417.401000
21
739.121000
0
LINE
8
Layer 1
10
417.401000
20
739.121000
11
417.477000
21
739.056000
0
LINE
8
Layer 1
10
417.477000
20
739.056000
11
417.550000
21
738.989000
0
LINE
8
Layer 1
10
417.550000
20
738.989000
11
417.621000
21
738.918000
0
LINE
8
Layer 1
10
417.621000
20
738.918000
11
417.689000
21
738.845000
0
LINE
8
Layer 1
10
417.689000
20
738.845000
11
417.755000
21
738.770000
0
LINE
8
Layer 1
10
417.755000
20
738.770000
11
417.818000
21
738.692000
0
LINE
8
Layer 1
10
417.818000
20
738.692000
11
417.878000
21
738.613000
0
LINE
8
Layer 1
10
417.878000
20
738.613000
11
417.935000
21
738.531000
0
LINE
8
Layer 1
10
417.935000
20
738.531000
11
417.989000
21
738.447000
0
LINE
8
Layer 1
10
417.989000
20
738.447000
11
418.040000
21
738.360000
0
LINE
8
Layer 1
10
418.040000
20
738.360000
11
418.088000
21
738.273000
0
LINE
8
Layer 1
10
418.088000
20
738.273000
11
418.133000
21
738.184000
0
LINE
8
Layer 1
10
418.133000
20
738.184000
11
418.174000
21
738.093000
0
LINE
8
Layer 1
10
418.174000
20
738.093000
11
418.212000
21
738.000000
0
LINE
8
Layer 1
10
418.212000
20
738.000000
11
418.247000
21
737.907000
0
LINE
8
Layer 1
10
418.247000
20
737.907000
11
418.278000
21
737.812000
0
LINE
8
Layer 1
10
418.278000
20
737.812000
11
418.306000
21
737.716000
0
LINE
8
Layer 1
10
418.306000
20
737.716000
11
418.330000
21
737.619000
0
LINE
8
Layer 1
10
418.330000
20
737.619000
11
418.351000
21
737.521000
0
LINE
8
Layer 1
10
418.351000
20
737.521000
11
418.368000
21
737.423000
0
LINE
8
Layer 1
10
418.368000
20
737.423000
11
418.381000
21
737.324000
0
LINE
8
Layer 1
10
418.381000
20
737.324000
11
418.391000
21
737.224000
0
LINE
8
Layer 1
10
418.391000
20
737.224000
11
418.395000
21
737.171000
0
LINE
8
Layer 1
10
418.395000
20
737.171000
11
418.398000
21
737.125000
0
LINE
8
Layer 1
10
418.398000
20
737.125000
11
418.398000
21
737.117000
0
LINE
8
Layer 1
10
418.398000
20
737.117000
11
418.400000
21
737.024000
0
LINE
8
Layer 1
10
418.400000
20
737.024000
11
418.395000
21
736.825000
0
LINE
8
Layer 1
10
418.395000
20
736.825000
11
418.387000
21
736.726000
0
LINE
8
Layer 1
10
418.387000
20
736.726000
11
418.375000
21
736.626000
0
LINE
8
Layer 1
10
418.375000
20
736.626000
11
418.360000
21
736.528000
0
LINE
8
Layer 1
10
418.360000
20
736.528000
11
418.341000
21
736.430000
0
LINE
8
Layer 1
10
418.341000
20
736.430000
11
418.318000
21
736.332000
0
LINE
8
Layer 1
10
418.318000
20
736.332000
11
418.292000
21
736.236000
0
LINE
8
Layer 1
10
418.292000
20
736.236000
11
418.263000
21
736.140000
0
LINE
8
Layer 1
10
418.263000
20
736.140000
11
418.230000
21
736.046000
0
LINE
8
Layer 1
10
418.230000
20
736.046000
11
418.193000
21
735.953000
0
LINE
8
Layer 1
10
418.193000
20
735.953000
11
418.154000
21
735.861000
0
LINE
8
Layer 1
10
418.154000
20
735.861000
11
418.111000
21
735.771000
0
LINE
8
Layer 1
10
418.111000
20
735.771000
11
418.064000
21
735.683000
0
LINE
8
Layer 1
10
418.064000
20
735.683000
11
418.015000
21
735.596000
0
LINE
8
Layer 1
10
418.015000
20
735.596000
11
417.962000
21
735.511000
0
LINE
8
Layer 1
10
417.962000
20
735.511000
11
417.907000
21
735.428000
0
LINE
8
Layer 1
10
417.907000
20
735.428000
11
417.848000
21
735.347000
0
LINE
8
Layer 1
10
417.848000
20
735.347000
11
417.787000
21
735.269000
0
LINE
8
Layer 1
10
417.787000
20
735.269000
11
417.722000
21
735.192000
0
LINE
8
Layer 1
10
417.722000
20
735.192000
11
417.656000
21
735.118000
0
LINE
8
Layer 1
10
417.656000
20
735.118000
11
417.586000
21
735.046000
0
LINE
8
Layer 1
10
417.586000
20
735.046000
11
417.514000
21
734.977000
0
LINE
8
Layer 1
10
417.514000
20
734.977000
11
417.439000
21
734.911000
0
LINE
8
Layer 1
10
417.439000
20
734.911000
11
417.362000
21
734.847000
0
LINE
8
Layer 1
10
417.362000
20
734.847000
11
417.283000
21
734.787000
0
LINE
8
Layer 1
10
417.283000
20
734.787000
11
417.201000
21
734.729000
0
LINE
8
Layer 1
10
417.201000
20
734.729000
11
417.118000
21
734.674000
0
LINE
8
Layer 1
10
417.118000
20
734.674000
11
417.032000
21
734.622000
0
LINE
8
Layer 1
10
417.032000
20
734.622000
11
416.976000
21
734.591000
0
LINE
8
Layer 1
10
416.976000
20
734.591000
11
416.945000
21
734.574000
0
LINE
8
Layer 1
10
416.945000
20
734.574000
11
416.856000
21
734.528000
0
LINE
8
Layer 1
10
416.856000
20
734.528000
11
416.766000
21
734.486000
0
LINE
8
Layer 1
10
416.766000
20
734.486000
11
416.673000
21
734.447000
0
LINE
8
Layer 1
10
416.673000
20
734.447000
11
416.580000
21
734.412000
0
LINE
8
Layer 1
10
416.580000
20
734.412000
11
416.486000
21
734.380000
0
LINE
8
Layer 1
10
416.486000
20
734.380000
11
416.390000
21
734.351000
0
LINE
8
Layer 1
10
416.390000
20
734.351000
11
416.293000
21
734.326000
0
LINE
8
Layer 1
10
416.293000
20
734.326000
11
416.196000
21
734.304000
0
LINE
8
Layer 1
10
416.196000
20
734.304000
11
416.098000
21
734.286000
0
LINE
8
Layer 1
10
416.098000
20
734.286000
11
415.999000
21
734.272000
0
LINE
8
Layer 1
10
415.999000
20
734.272000
11
415.899000
21
734.261000
0
LINE
8
Layer 1
10
415.899000
20
734.261000
11
415.884000
21
734.260000
0
LINE
8
Layer 1
10
415.884000
20
734.260000
11
415.799000
21
734.254000
0
LINE
8
Layer 1
10
415.799000
20
734.254000
11
415.700000
21
734.250000
0
LINE
8
Layer 1
10
415.700000
20
734.250000
11
415.600000
21
734.250000
0
LINE
8
Layer 1
10
10.300100
20
734.250000
11
10.200300
21
734.254000
0
LINE
8
Layer 1
10
10.200300
20
734.254000
11
10.100600
21
734.261000
0
LINE
8
Layer 1
10
10.100600
20
734.261000
11
10.001000
21
734.272000
0
LINE
8
Layer 1
10
10.001000
20
734.272000
11
9.902480
21
734.286000
0
LINE
8
Layer 1
10
9.902480
20
734.286000
11
9.804230
21
734.304000
0
LINE
8
Layer 1
10
9.804230
20
734.304000
11
9.706370
21
734.326000
0
LINE
8
Layer 1
10
9.706370
20
734.326000
11
9.609970
21
734.351000
0
LINE
8
Layer 1
10
9.609970
20
734.351000
11
9.578020
21
734.361000
0
LINE
8
Layer 1
10
9.578020
20
734.361000
11
9.514000
21
734.380000
0
LINE
8
Layer 1
10
9.514000
20
734.380000
11
9.419840
21
734.412000
0
LINE
8
Layer 1
10
9.419840
20
734.412000
11
9.326360
21
734.447000
0
LINE
8
Layer 1
10
9.326360
20
734.447000
11
9.234020
21
734.486000
0
LINE
8
Layer 1
10
9.234020
20
734.486000
11
9.143470
21
734.528000
0
LINE
8
Layer 1
10
9.143470
20
734.528000
11
9.054820
21
734.574000
0
LINE
8
Layer 1
10
9.054820
20
734.574000
11
8.967570
21
734.622000
0
LINE
8
Layer 1
10
8.967570
20
734.622000
11
8.882000
21
734.674000
0
LINE
8
Layer 1
10
8.882000
20
734.674000
11
8.798750
21
734.729000
0
LINE
8
Layer 1
10
8.798750
20
734.729000
11
8.716930
21
734.787000
0
LINE
8
Layer 1
10
8.716930
20
734.787000
11
8.638000
21
734.847000
0
LINE
8
Layer 1
10
8.638000
20
734.847000
11
8.560970
21
734.911000
0
LINE
8
Layer 1
10
8.560970
20
734.911000
11
8.486200
21
734.977000
0
LINE
8
Layer 1
10
8.486200
20
734.977000
11
8.413810
21
735.047000
0
LINE
8
Layer 1
10
8.413810
20
735.047000
11
8.388290
21
735.073000
0
LINE
8
Layer 1
10
8.388290
20
735.073000
11
8.344320
21
735.118000
0
LINE
8
Layer 1
10
8.344320
20
735.118000
11
8.277300
21
735.192000
0
LINE
8
Layer 1
10
8.277300
20
735.192000
11
8.213020
21
735.268000
0
LINE
8
Layer 1
10
8.213020
20
735.268000
11
8.151410
21
735.347000
0
LINE
8
Layer 1
10
8.151410
20
735.347000
11
8.093060
21
735.428000
0
LINE
8
Layer 1
10
8.093060
20
735.428000
11
8.037400
21
735.511000
0
LINE
8
Layer 1
10
8.037400
20
735.511000
11
7.984860
21
735.596000
0
LINE
8
Layer 1
10
7.984860
20
735.596000
11
7.935300
21
735.683000
0
LINE
8
Layer 1
10
7.935300
20
735.683000
11
7.924710
21
735.703000
0
LINE
8
Layer 1
10
7.924710
20
735.703000
11
7.889210
21
735.771000
0
LINE
8
Layer 1
10
7.889210
20
735.771000
11
7.846270
21
735.861000
0
LINE
8
Layer 1
10
7.846270
20
735.861000
11
7.806400
21
735.954000
0
LINE
8
Layer 1
10
7.806400
20
735.954000
11
7.770200
21
736.046000
0
LINE
8
Layer 1
10
7.770200
20
736.046000
11
7.737270
21
736.141000
0
LINE
8
Layer 1
10
7.737270
20
736.141000
11
7.707690
21
736.236000
0
LINE
8
Layer 1
10
7.707690
20
736.236000
11
7.681720
21
736.333000
0
LINE
8
Layer 1
10
7.681720
20
736.333000
11
7.678260
21
736.348000
0
LINE
8
Layer 1
10
7.678260
20
736.348000
11
7.659260
21
736.430000
0
LINE
8
Layer 1
10
7.659260
20
736.430000
11
7.646190
21
736.498000
0
LINE
8
Layer 1
10
7.646190
20
736.498000
11
7.640390
21
736.528000
0
LINE
8
Layer 1
10
7.640390
20
736.528000
11
7.625020
21
736.627000
0
LINE
8
Layer 1
10
7.625020
20
736.627000
11
7.613230
21
736.726000
0
LINE
8
Layer 1
10
7.613230
20
736.726000
11
7.612820
21
736.731000
0
LINE
8
Layer 1
10
7.612820
20
736.731000
11
7.605090
21
736.826000
0
LINE
8
Layer 1
10
7.605090
20
736.826000
11
7.600860
21
736.919000
0
LINE
8
Layer 1
10
7.600860
20
736.919000
11
7.600570
21
736.925000
0
LINE
8
Layer 1
10
7.600570
20
736.925000
11
7.599670
21
737.025000
0
LINE
8
Layer 1
10
7.599670
20
737.025000
11
7.602380
21
737.125000
0
LINE
8
Layer 1
10
7.602380
20
737.125000
11
7.608730
21
737.225000
0
LINE
8
Layer 1
10
7.608730
20
737.225000
11
7.618730
21
737.324000
0
LINE
8
Layer 1
10
7.618730
20
737.324000
11
7.632290
21
737.423000
0
LINE
8
Layer 1
10
7.632290
20
737.423000
11
7.649370
21
737.521000
0
LINE
8
Layer 1
10
7.649370
20
737.521000
11
7.670190
21
737.619000
0
LINE
8
Layer 1
10
7.670190
20
737.619000
11
7.694390
21
737.716000
0
LINE
8
Layer 1
10
7.694390
20
737.716000
11
7.708380
21
737.764000
0
LINE
8
Layer 1
10
7.708380
20
737.764000
11
7.722130
21
737.812000
0
LINE
8
Layer 1
10
7.722130
20
737.812000
11
7.753270
21
737.907000
0
LINE
8
Layer 1
10
7.753270
20
737.907000
11
7.787940
21
738.000000
0
LINE
8
Layer 1
10
7.787940
20
738.000000
11
7.826100
21
738.093000
0
LINE
8
Layer 1
10
7.826100
20
738.093000
11
7.867460
21
738.184000
0
LINE
8
Layer 1
10
7.867460
20
738.184000
11
7.911920
21
738.273000
0
LINE
8
Layer 1
10
7.911920
20
738.273000
11
7.959890
21
738.361000
0
LINE
8
Layer 1
10
7.959890
20
738.361000
11
7.983670
21
738.401000
0
LINE
8
Layer 1
10
7.983670
20
738.401000
11
8.010750
21
738.447000
0
LINE
8
Layer 1
10
8.010750
20
738.447000
11
8.065020
21
738.531000
0
LINE
8
Layer 1
10
8.065020
20
738.531000
11
8.121870
21
738.613000
0
LINE
8
Layer 1
10
8.121870
20
738.613000
11
8.182100
21
738.693000
0
LINE
8
Layer 1
10
8.182100
20
738.693000
11
8.244740
21
738.770000
0
LINE
8
Layer 1
10
8.244740
20
738.770000
11
8.310480
21
738.845000
0
LINE
8
Layer 1
10
8.310480
20
738.845000
11
8.379070
21
738.918000
0
LINE
8
Layer 1
10
8.379070
20
738.918000
11
8.449700
21
738.988000
0
LINE
8
Layer 1
10
8.449700
20
738.988000
11
8.523500
21
739.056000
0
LINE
8
Layer 1
10
8.523500
20
739.056000
11
8.599110
21
739.121000
0
LINE
8
Layer 1
10
8.599110
20
739.121000
11
8.677430
21
739.183000
0
LINE
8
Layer 1
10
8.677430
20
739.183000
11
8.716450
21
739.212000
0
LINE
8
Layer 1
10
8.716450
20
739.212000
11
8.757660
21
739.243000
0
LINE
8
Layer 1
10
8.757660
20
739.243000
11
8.840150
21
739.299000
0
LINE
8
Layer 1
10
8.840150
20
739.299000
11
8.924740
21
739.352000
0
LINE
8
Layer 1
10
8.924740
20
739.352000
11
9.010880
21
739.402000
0
LINE
8
Layer 1
10
9.010880
20
739.402000
11
9.099400
21
739.450000
0
LINE
8
Layer 1
10
9.099400
20
739.450000
11
9.188760
21
739.493000
0
LINE
8
Layer 1
10
9.188760
20
739.493000
11
9.280490
21
739.534000
0
LINE
8
Layer 1
10
9.280490
20
739.534000
11
9.372880
21
739.571000
0
LINE
8
Layer 1
10
9.372880
20
739.571000
11
9.466880
21
739.605000
0
LINE
8
Layer 1
10
9.466880
20
739.605000
11
9.562380
21
739.635000
0
LINE
8
Layer 1
10
9.562380
20
739.635000
11
9.658160
21
739.662000
0
LINE
8
Layer 1
10
9.658160
20
739.662000
11
9.755710
21
739.685000
0
LINE
8
Layer 1
10
9.755710
20
739.685000
11
9.853160
21
739.705000
0
LINE
8
Layer 1
10
9.853160
20
739.705000
11
9.952170
21
739.722000
0
LINE
8
Layer 1
10
9.952170
20
739.722000
11
10.051300
21
739.734000
0
LINE
8
Layer 1
10
10.051300
20
739.734000
11
10.150600
21
739.743000
0
LINE
8
Layer 1
10
10.150600
20
739.743000
11
10.195800
21
739.746000
0
LINE
8
Layer 1
10
10.195800
20
739.746000
11
10.250100
21
739.749000
0
LINE
8
Layer 1
10
10.250100
20
739.749000
11
10.350200
21
739.750000
0
LINE
8
Layer 1
10
10.350200
20
739.750000
11
10.449800
21
739.749000
0
LINE
8
Layer 1
10
10.449800
20
739.749000
11
10.549900
21
739.743000
0
LINE
8
Layer 1
10
10.549900
20
739.743000
11
10.649000
21
739.734000
0
LINE
8
Layer 1
10
10.649000
20
739.734000
11
10.748500
21
739.721000
0
LINE
8
Layer 1
10
10.748500
20
739.721000
11
10.846700
21
739.705000
0
LINE
8
Layer 1
10
10.846700
20
739.705000
11
10.944600
21
739.685000
0
LINE
8
Layer 1
10
10.944600
20
739.685000
11
11.042000
21
739.662000
0
LINE
8
Layer 1
10
11.042000
20
739.662000
11
11.137800
21
739.635000
0
LINE
8
Layer 1
10
11.137800
20
739.635000
11
11.193200
21
739.618000
0
LINE
8
Layer 1
10
11.193200
20
739.618000
11
11.233300
21
739.605000
0
LINE
8
Layer 1
10
11.233300
20
739.605000
11
11.327000
21
739.571000
0
LINE
8
Layer 1
10
11.327000
20
739.571000
11
11.420100
21
739.534000
0
LINE
8
Layer 1
10
11.420100
20
739.534000
11
11.511100
21
739.493000
0
LINE
8
Layer 1
10
11.511100
20
739.493000
11
11.601000
21
739.449000
0
LINE
8
Layer 1
10
11.601000
20
739.449000
11
11.624500
21
739.437000
0
LINE
8
Layer 1
10
11.624500
20
739.437000
11
11.689300
21
739.402000
0
LINE
8
Layer 1
10
11.689300
20
739.402000
11
11.775300
21
739.352000
0
LINE
8
Layer 1
10
11.775300
20
739.352000
11
11.859900
21
739.299000
0
LINE
8
Layer 1
10
11.859900
20
739.299000
11
11.892900
21
739.276000
0
LINE
8
Layer 1
10
11.892900
20
739.276000
11
11.942600
21
739.242000
0
LINE
8
Layer 1
10
11.942600
20
739.242000
11
11.963300
21
739.227000
0
LINE
8
Layer 1
10
11.963300
20
739.227000
11
12.022700
21
739.183000
0
LINE
8
Layer 1
10
12.022700
20
739.183000
11
12.100800
21
739.121000
0
LINE
8
Layer 1
10
12.100800
20
739.121000
11
12.177000
21
739.056000
0
LINE
8
Layer 1
10
12.177000
20
739.056000
11
12.250200
21
738.989000
0
LINE
8
Layer 1
10
12.250200
20
738.989000
11
12.321300
21
738.918000
0
LINE
8
Layer 1
10
12.321300
20
738.918000
11
12.359400
21
738.878000
0
LINE
8
Layer 1
10
12.359400
20
738.878000
11
12.389500
21
738.845000
0
LINE
8
Layer 1
10
12.389500
20
738.845000
11
12.455400
21
738.770000
0
LINE
8
Layer 1
10
12.455400
20
738.770000
11
12.518200
21
738.692000
0
LINE
8
Layer 1
10
12.518200
20
738.692000
11
12.578000
21
738.613000
0
LINE
8
Layer 1
10
12.578000
20
738.613000
11
12.635200
21
738.531000
0
LINE
8
Layer 1
10
12.635200
20
738.531000
11
12.689300
21
738.447000
0
LINE
8
Layer 1
10
12.689300
20
738.447000
11
12.740400
21
738.360000
0
LINE
8
Layer 1
10
12.740400
20
738.360000
11
12.788100
21
738.273000
0
LINE
8
Layer 1
10
12.788100
20
738.273000
11
12.824900
21
738.199000
0
LINE
8
Layer 1
10
12.824900
20
738.199000
11
12.832700
21
738.184000
0
LINE
8
Layer 1
10
12.832700
20
738.184000
11
12.874000
21
738.093000
0
LINE
8
Layer 1
10
12.874000
20
738.093000
11
12.912200
21
738.000000
0
LINE
8
Layer 1
10
12.912200
20
738.000000
11
12.946700
21
737.907000
0
LINE
8
Layer 1
10
12.946700
20
737.907000
11
12.977900
21
737.812000
0
LINE
8
Layer 1
10
12.977900
20
737.812000
11
13.005700
21
737.716000
0
LINE
8
Layer 1
10
13.005700
20
737.716000
11
13.030000
21
737.619000
0
LINE
8
Layer 1
10
13.030000
20
737.619000
11
13.030500
21
737.616000
0
LINE
8
Layer 1
10
13.030500
20
737.616000
11
13.050600
21
737.521000
0
LINE
8
Layer 1
10
13.050600
20
737.521000
11
13.054000
21
737.502000
0
LINE
8
Layer 1
10
13.054000
20
737.502000
11
13.067800
21
737.423000
0
LINE
8
Layer 1
10
13.067800
20
737.423000
11
13.077700
21
737.351000
0
LINE
8
Layer 1
10
13.077700
20
737.351000
11
13.081300
21
737.324000
0
LINE
8
Layer 1
10
13.081300
20
737.324000
11
13.091300
21
737.224000
0
LINE
8
Layer 1
10
13.091300
20
737.224000
11
13.096400
21
737.144000
0
LINE
8
Layer 1
10
13.096400
20
737.144000
11
13.097600
21
737.125000
0
LINE
8
Layer 1
10
13.097600
20
737.125000
11
13.100300
21
737.025000
0
LINE
8
Layer 1
10
13.100300
20
737.025000
11
13.099400
21
736.925000
0
LINE
8
Layer 1
10
13.099400
20
736.925000
11
13.094900
21
736.825000
0
LINE
8
Layer 1
10
13.094900
20
736.825000
11
13.086800
21
736.726000
0
LINE
8
Layer 1
10
13.086800
20
736.726000
11
13.074900
21
736.626000
0
LINE
8
Layer 1
10
13.074900
20
736.626000
11
13.059600
21
736.528000
0
LINE
8
Layer 1
10
13.059600
20
736.528000
11
13.040700
21
736.430000
0
LINE
8
Layer 1
10
13.040700
20
736.430000
11
13.018100
21
736.332000
0
LINE
8
Layer 1
10
13.018100
20
736.332000
11
12.992200
21
736.236000
0
LINE
8
Layer 1
10
12.992200
20
736.236000
11
12.962600
21
736.140000
0
LINE
8
Layer 1
10
12.962600
20
736.140000
11
12.949400
21
736.102000
0
LINE
8
Layer 1
10
12.949400
20
736.102000
11
12.929800
21
736.046000
0
LINE
8
Layer 1
10
12.929800
20
736.046000
11
12.893500
21
735.953000
0
LINE
8
Layer 1
10
12.893500
20
735.953000
11
12.853600
21
735.861000
0
LINE
8
Layer 1
10
12.853600
20
735.861000
11
12.810800
21
735.771000
0
LINE
8
Layer 1
10
12.810800
20
735.771000
11
12.764400
21
735.683000
0
LINE
8
Layer 1
10
12.764400
20
735.683000
11
12.750400
21
735.658000
0
LINE
8
Layer 1
10
12.750400
20
735.658000
11
12.715100
21
735.596000
0
LINE
8
Layer 1
10
12.715100
20
735.596000
11
12.662400
21
735.511000
0
LINE
8
Layer 1
10
12.662400
20
735.511000
11
12.607000
21
735.428000
0
LINE
8
Layer 1
10
12.607000
20
735.428000
11
12.548200
21
735.347000
0
LINE
8
Layer 1
10
12.548200
20
735.347000
11
12.490800
21
735.273000
0
LINE
8
Layer 1
10
12.490800
20
735.273000
11
12.487100
21
735.269000
0
LINE
8
Layer 1
10
12.487100
20
735.269000
11
12.422500
21
735.192000
0
LINE
8
Layer 1
10
12.422500
20
735.192000
11
12.355800
21
735.118000
0
LINE
8
Layer 1
10
12.355800
20
735.118000
11
12.286000
21
735.046000
0
LINE
8
Layer 1
10
12.286000
20
735.046000
11
12.213800
21
734.977000
0
LINE
8
Layer 1
10
12.213800
20
734.977000
11
12.138900
21
734.911000
0
LINE
8
Layer 1
10
12.138900
20
734.911000
11
12.061800
21
734.847000
0
LINE
8
Layer 1
10
12.061800
20
734.847000
11
11.982800
21
734.787000
0
LINE
8
Layer 1
10
11.982800
20
734.787000
11
11.901100
21
734.729000
0
LINE
8
Layer 1
10
11.901100
20
734.729000
11
11.817900
21
734.674000
0
LINE
8
Layer 1
10
11.817900
20
734.674000
11
11.732400
21
734.622000
0
LINE
8
Layer 1
10
11.732400
20
734.622000
11
11.689500
21
734.598000
0
LINE
8
Layer 1
10
11.689500
20
734.598000
11
11.645000
21
734.573000
0
LINE
8
Layer 1
10
11.645000
20
734.573000
11
11.556300
21
734.528000
0
LINE
8
Layer 1
10
11.556300
20
734.528000
11
11.465800
21
734.486000
0
LINE
8
Layer 1
10
11.465800
20
734.486000
11
11.373300
21
734.447000
0
LINE
8
Layer 1
10
11.373300
20
734.447000
11
11.280300
21
734.412000
0
LINE
8
Layer 1
10
11.280300
20
734.412000
11
11.185700
21
734.380000
0
LINE
8
Layer 1
10
11.185700
20
734.380000
11
11.090000
21
734.351000
0
LINE
8
Layer 1
10
11.090000
20
734.351000
11
10.993000
21
734.326000
0
LINE
8
Layer 1
10
10.993000
20
734.326000
11
10.895600
21
734.304000
0
LINE
8
Layer 1
10
10.895600
20
734.304000
11
10.797600
21
734.286000
0
LINE
8
Layer 1
10
10.797600
20
734.286000
11
10.698700
21
734.272000
0
LINE
8
Layer 1
10
10.698700
20
734.272000
11
10.599200
21
734.261000
0
LINE
8
Layer 1
10
10.599200
20
734.261000
11
10.585300
21
734.260000
0
LINE
8
Layer 1
10
10.585300
20
734.260000
11
10.499400
21
734.254000
0
LINE
8
Layer 1
10
10.499400
20
734.254000
11
10.399900
21
734.250000
0
LINE
8
Layer 1
10
10.399900
20
734.250000
11
10.300100
21
734.250000
0
LINE
8
Layer 1
10
415.600000
20
619.250000
11
415.500000
21
619.254000
0
LINE
8
Layer 1
10
415.500000
20
619.254000
11
415.401000
21
619.261000
0
LINE
8
Layer 1
10
415.401000
20
619.261000
11
415.301000
21
619.272000
0
LINE
8
Layer 1
10
415.301000
20
619.272000
11
415.203000
21
619.286000
0
LINE
8
Layer 1
10
415.203000
20
619.286000
11
415.104000
21
619.304000
0
LINE
8
Layer 1
10
415.104000
20
619.304000
11
415.006000
21
619.326000
0
LINE
8
Layer 1
10
415.006000
20
619.326000
11
414.910000
21
619.351000
0
LINE
8
Layer 1
10
414.910000
20
619.351000
11
414.814000
21
619.380000
0
LINE
8
Layer 1
10
414.814000
20
619.380000
11
414.720000
21
619.412000
0
LINE
8
Layer 1
10
414.720000
20
619.412000
11
414.626000
21
619.447000
0
LINE
8
Layer 1
10
414.626000
20
619.447000
11
414.534000
21
619.486000
0
LINE
8
Layer 1
10
414.534000
20
619.486000
11
414.444000
21
619.528000
0
LINE
8
Layer 1
10
414.444000
20
619.528000
11
414.355000
21
619.574000
0
LINE
8
Layer 1
10
414.355000
20
619.574000
11
414.268000
21
619.622000
0
LINE
8
Layer 1
10
414.268000
20
619.622000
11
414.182000
21
619.674000
0
LINE
8
Layer 1
10
414.182000
20
619.674000
11
414.103000
21
619.726000
0
LINE
8
Layer 1
10
414.103000
20
619.726000
11
414.099000
21
619.729000
0
LINE
8
Layer 1
10
414.099000
20
619.729000
11
414.017000
21
619.787000
0
LINE
8
Layer 1
10
414.017000
20
619.787000
11
413.938000
21
619.847000
0
LINE
8
Layer 1
10
413.938000
20
619.847000
11
413.865000
21
619.908000
0
LINE
8
Layer 1
10
413.865000
20
619.908000
11
413.861000
21
619.911000
0
LINE
8
Layer 1
10
413.861000
20
619.911000
11
413.786000
21
619.977000
0
LINE
8
Layer 1
10
413.786000
20
619.977000
11
413.714000
21
620.046000
0
LINE
8
Layer 1
10
413.714000
20
620.046000
11
413.644000
21
620.118000
0
LINE
8
Layer 1
10
413.644000
20
620.118000
11
413.577000
21
620.192000
0
LINE
8
Layer 1
10
413.577000
20
620.192000
11
413.513000
21
620.268000
0
LINE
8
Layer 1
10
413.513000
20
620.268000
11
413.452000
21
620.347000
0
LINE
8
Layer 1
10
413.452000
20
620.347000
11
413.408000
21
620.407000
0
LINE
8
Layer 1
10
413.408000
20
620.407000
11
413.393000
21
620.428000
0
LINE
8
Layer 1
10
413.393000
20
620.428000
11
413.337000
21
620.511000
0
LINE
8
Layer 1
10
413.337000
20
620.511000
11
413.285000
21
620.596000
0
LINE
8
Layer 1
10
413.285000
20
620.596000
11
413.235000
21
620.683000
0
LINE
8
Layer 1
10
413.235000
20
620.683000
11
413.189000
21
620.771000
0
LINE
8
Layer 1
10
413.189000
20
620.771000
11
413.146000
21
620.861000
0
LINE
8
Layer 1
10
413.146000
20
620.861000
11
413.106000
21
620.954000
0
LINE
8
Layer 1
10
413.106000
20
620.954000
11
413.070000
21
621.046000
0
LINE
8
Layer 1
10
413.070000
20
621.046000
11
413.037000
21
621.141000
0
LINE
8
Layer 1
10
413.037000
20
621.141000
11
413.008000
21
621.236000
0
LINE
8
Layer 1
10
413.008000
20
621.236000
11
412.982000
21
621.332000
0
LINE
8
Layer 1
10
412.982000
20
621.332000
11
412.967000
21
621.396000
0
LINE
8
Layer 1
10
412.967000
20
621.396000
11
412.959000
21
621.430000
0
LINE
8
Layer 1
10
412.959000
20
621.430000
11
412.940000
21
621.528000
0
LINE
8
Layer 1
10
412.940000
20
621.528000
11
412.925000
21
621.627000
0
LINE
8
Layer 1
10
412.925000
20
621.627000
11
412.913000
21
621.726000
0
LINE
8
Layer 1
10
412.913000
20
621.726000
11
412.912000
21
621.744000
0
LINE
8
Layer 1
10
412.912000
20
621.744000
11
412.905000
21
621.825000
0
LINE
8
Layer 1
10
412.905000
20
621.825000
11
412.902000
21
621.888000
0
LINE
8
Layer 1
10
412.902000
20
621.888000
11
412.901000
21
621.925000
0
LINE
8
Layer 1
10
412.901000
20
621.925000
11
412.900000
21
622.025000
0
LINE
8
Layer 1
10
412.900000
20
622.025000
11
412.902000
21
622.125000
0
LINE
8
Layer 1
10
412.902000
20
622.125000
11
412.909000
21
622.225000
0
LINE
8
Layer 1
10
412.909000
20
622.225000
11
412.919000
21
622.324000
0
LINE
8
Layer 1
10
412.919000
20
622.324000
11
412.932000
21
622.423000
0
LINE
8
Layer 1
10
412.932000
20
622.423000
11
412.949000
21
622.521000
0
LINE
8
Layer 1
10
412.949000
20
622.521000
11
412.970000
21
622.619000
0
LINE
8
Layer 1
10
412.970000
20
622.619000
11
412.994000
21
622.716000
0
LINE
8
Layer 1
10
412.994000
20
622.716000
11
413.000000
21
622.735000
0
LINE
8
Layer 1
10
413.000000
20
622.735000
11
413.022000
21
622.812000
0
LINE
8
Layer 1
10
413.022000
20
622.812000
11
413.053000
21
622.907000
0
LINE
8
Layer 1
10
413.053000
20
622.907000
11
413.088000
21
623.000000
0
LINE
8
Layer 1
10
413.088000
20
623.000000
11
413.126000
21
623.093000
0
LINE
8
Layer 1
10
413.126000
20
623.093000
11
413.167000
21
623.184000
0
LINE
8
Layer 1
10
413.167000
20
623.184000
11
413.212000
21
623.273000
0
LINE
8
Layer 1
10
413.212000
20
623.273000
11
413.260000
21
623.361000
0
LINE
8
Layer 1
10
413.260000
20
623.361000
11
413.311000
21
623.447000
0
LINE
8
Layer 1
10
413.311000
20
623.447000
11
413.365000
21
623.531000
0
LINE
8
Layer 1
10
413.365000
20
623.531000
11
413.422000
21
623.613000
0
LINE
8
Layer 1
10
413.422000
20
623.613000
11
413.482000
21
623.693000
0
LINE
8
Layer 1
10
413.482000
20
623.693000
11
413.545000
21
623.770000
0
LINE
8
Layer 1
10
413.545000
20
623.770000
11
413.610000
21
623.845000
0
LINE
8
Layer 1
10
413.610000
20
623.845000
11
413.679000
21
623.918000
0
LINE
8
Layer 1
10
413.679000
20
623.918000
11
413.688000
21
623.928000
0
LINE
8
Layer 1
10
413.688000
20
623.928000
11
413.750000
21
623.989000
0
LINE
8
Layer 1
10
413.750000
20
623.989000
11
413.824000
21
624.056000
0
LINE
8
Layer 1
10
413.824000
20
624.056000
11
413.899000
21
624.121000
0
LINE
8
Layer 1
10
413.899000
20
624.121000
11
413.978000
21
624.184000
0
LINE
8
Layer 1
10
413.978000
20
624.184000
11
414.058000
21
624.243000
0
LINE
8
Layer 1
10
414.058000
20
624.243000
11
414.140000
21
624.299000
0
LINE
8
Layer 1
10
414.140000
20
624.299000
11
414.225000
21
624.352000
0
LINE
8
Layer 1
10
414.225000
20
624.352000
11
414.311000
21
624.402000
0
LINE
8
Layer 1
10
414.311000
20
624.402000
11
414.399000
21
624.450000
0
LINE
8
Layer 1
10
414.399000
20
624.450000
11
414.489000
21
624.493000
0
LINE
8
Layer 1
10
414.489000
20
624.493000
11
414.581000
21
624.534000
0
LINE
8
Layer 1
10
414.581000
20
624.534000
11
414.673000
21
624.571000
0
LINE
8
Layer 1
10
414.673000
20
624.571000
11
414.767000
21
624.605000
0
LINE
8
Layer 1
10
414.767000
20
624.605000
11
414.862000
21
624.635000
0
LINE
8
Layer 1
10
414.862000
20
624.635000
11
414.958000
21
624.662000
0
LINE
8
Layer 1
10
414.958000
20
624.662000
11
415.055000
21
624.685000
0
LINE
8
Layer 1
10
415.055000
20
624.685000
11
415.153000
21
624.705000
0
LINE
8
Layer 1
10
415.153000
20
624.705000
11
415.252000
21
624.722000
0
LINE
8
Layer 1
10
415.252000
20
624.722000
11
415.270000
21
624.724000
0
LINE
8
Layer 1
10
415.270000
20
624.724000
11
415.351000
21
624.734000
0
LINE
8
Layer 1
10
415.351000
20
624.734000
11
415.378000
21
624.737000
0
LINE
8
Layer 1
10
415.378000
20
624.737000
11
415.451000
21
624.743000
0
LINE
8
Layer 1
10
415.451000
20
624.743000
11
415.495000
21
624.746000
0
LINE
8
Layer 1
10
415.495000
20
624.746000
11
415.550000
21
624.749000
0
LINE
8
Layer 1
10
415.550000
20
624.749000
11
415.650000
21
624.750000
0
LINE
8
Layer 1
10
415.650000
20
624.750000
11
415.750000
21
624.749000
0
LINE
8
Layer 1
10
415.750000
20
624.749000
11
415.850000
21
624.743000
0
LINE
8
Layer 1
10
415.850000
20
624.743000
11
415.949000
21
624.734000
0
LINE
8
Layer 1
10
415.949000
20
624.734000
11
416.048000
21
624.721000
0
LINE
8
Layer 1
10
416.048000
20
624.721000
11
416.147000
21
624.705000
0
LINE
8
Layer 1
10
416.147000
20
624.705000
11
416.245000
21
624.685000
0
LINE
8
Layer 1
10
416.245000
20
624.685000
11
416.342000
21
624.662000
0
LINE
8
Layer 1
10
416.342000
20
624.662000
11
416.361000
21
624.657000
0
LINE
8
Layer 1
10
416.361000
20
624.657000
11
416.438000
21
624.635000
0
LINE
8
Layer 1
10
416.438000
20
624.635000
11
416.492000
21
624.618000
0
LINE
8
Layer 1
10
416.492000
20
624.618000
11
416.533000
21
624.605000
0
LINE
8
Layer 1
10
416.533000
20
624.605000
11
416.614000
21
624.576000
0
LINE
8
Layer 1
10
416.614000
20
624.576000
11
416.627000
21
624.571000
0
LINE
8
Layer 1
10
416.627000
20
624.571000
11
416.720000
21
624.534000
0
LINE
8
Layer 1
10
416.720000
20
624.534000
11
416.811000
21
624.493000
0
LINE
8
Layer 1
10
416.811000
20
624.493000
11
416.901000
21
624.449000
0
LINE
8
Layer 1
10
416.901000
20
624.449000
11
416.989000
21
624.402000
0
LINE
8
Layer 1
10
416.989000
20
624.402000
11
417.005000
21
624.393000
0
LINE
8
Layer 1
10
417.005000
20
624.393000
11
417.075000
21
624.352000
0
LINE
8
Layer 1
10
417.075000
20
624.352000
11
417.160000
21
624.299000
0
LINE
8
Layer 1
10
417.160000
20
624.299000
11
417.242000
21
624.243000
0
LINE
8
Layer 1
10
417.242000
20
624.243000
11
417.299000
21
624.201000
0
LINE
8
Layer 1
10
417.299000
20
624.201000
11
417.323000
21
624.183000
0
LINE
8
Layer 1
10
417.323000
20
624.183000
11
417.387000
21
624.132000
0
LINE
8
Layer 1
10
417.387000
20
624.132000
11
417.401000
21
624.121000
0
LINE
8
Layer 1
10
417.401000
20
624.121000
11
417.477000
21
624.056000
0
LINE
8
Layer 1
10
417.477000
20
624.056000
11
417.550000
21
623.989000
0
LINE
8
Layer 1
10
417.550000
20
623.989000
11
417.621000
21
623.918000
0
LINE
8
Layer 1
10
417.621000
20
623.918000
11
417.689000
21
623.845000
0
LINE
8
Layer 1
10
417.689000
20
623.845000
11
417.755000
21
623.770000
0
LINE
8
Layer 1
10
417.755000
20
623.770000
11
417.818000
21
623.692000
0
LINE
8
Layer 1
10
417.818000
20
623.692000
11
417.878000
21
623.613000
0
LINE
8
Layer 1
10
417.878000
20
623.613000
11
417.935000
21
623.531000
0
LINE
8
Layer 1
10
417.935000
20
623.531000
11
417.989000
21
623.447000
0
LINE
8
Layer 1
10
417.989000
20
623.447000
11
418.040000
21
623.360000
0
LINE
8
Layer 1
10
418.040000
20
623.360000
11
418.088000
21
623.273000
0
LINE
8
Layer 1
10
418.088000
20
623.273000
11
418.133000
21
623.184000
0
LINE
8
Layer 1
10
418.133000
20
623.184000
11
418.174000
21
623.093000
0
LINE
8
Layer 1
10
418.174000
20
623.093000
11
418.212000
21
623.000000
0
LINE
8
Layer 1
10
418.212000
20
623.000000
11
418.222000
21
622.974000
0
LINE
8
Layer 1
10
418.222000
20
622.974000
11
418.247000
21
622.907000
0
LINE
8
Layer 1
10
418.247000
20
622.907000
11
418.278000
21
622.812000
0
LINE
8
Layer 1
10
418.278000
20
622.812000
11
418.306000
21
622.716000
0
LINE
8
Layer 1
10
418.306000
20
622.716000
11
418.330000
21
622.619000
0
LINE
8
Layer 1
10
418.330000
20
622.619000
11
418.351000
21
622.521000
0
LINE
8
Layer 1
10
418.351000
20
622.521000
11
418.368000
21
622.423000
0
LINE
8
Layer 1
10
418.368000
20
622.423000
11
418.381000
21
622.324000
0
LINE
8
Layer 1
10
418.381000
20
622.324000
11
418.391000
21
622.224000
0
LINE
8
Layer 1
10
418.391000
20
622.224000
11
418.395000
21
622.173000
0
LINE
8
Layer 1
10
418.395000
20
622.173000
11
418.398000
21
622.125000
0
LINE
8
Layer 1
10
418.398000
20
622.125000
11
418.400000
21
622.025000
0
LINE
8
Layer 1
10
418.400000
20
622.025000
11
418.399000
21
621.925000
0
LINE
8
Layer 1
10
418.399000
20
621.925000
11
418.395000
21
621.825000
0
LINE
8
Layer 1
10
418.395000
20
621.825000
11
418.387000
21
621.726000
0
LINE
8
Layer 1
10
418.387000
20
621.726000
11
418.375000
21
621.626000
0
LINE
8
Layer 1
10
418.375000
20
621.626000
11
418.360000
21
621.528000
0
LINE
8
Layer 1
10
418.360000
20
621.528000
11
418.341000
21
621.430000
0
LINE
8
Layer 1
10
418.341000
20
621.430000
11
418.318000
21
621.332000
0
LINE
8
Layer 1
10
418.318000
20
621.332000
11
418.292000
21
621.236000
0
LINE
8
Layer 1
10
418.292000
20
621.236000
11
418.263000
21
621.140000
0
LINE
8
Layer 1
10
418.263000
20
621.140000
11
418.230000
21
621.046000
0
LINE
8
Layer 1
10
418.230000
20
621.046000
11
418.193000
21
620.953000
0
LINE
8
Layer 1
10
418.193000
20
620.953000
11
418.154000
21
620.861000
0
LINE
8
Layer 1
10
418.154000
20
620.861000
11
418.153000
21
620.860000
0
LINE
8
Layer 1
10
418.153000
20
620.860000
11
418.111000
21
620.771000
0
LINE
8
Layer 1
10
418.111000
20
620.771000
11
418.064000
21
620.683000
0
LINE
8
Layer 1
10
418.064000
20
620.683000
11
418.015000
21
620.596000
0
LINE
8
Layer 1
10
418.015000
20
620.596000
11
417.963000
21
620.511000
0
LINE
8
Layer 1
10
417.963000
20
620.511000
11
417.947000
21
620.488000
0
LINE
8
Layer 1
10
417.947000
20
620.488000
11
417.907000
21
620.428000
0
LINE
8
Layer 1
10
417.907000
20
620.428000
11
417.849000
21
620.347000
0
LINE
8
Layer 1
10
417.849000
20
620.347000
11
417.787000
21
620.268000
0
LINE
8
Layer 1
10
417.787000
20
620.268000
11
417.766000
21
620.244000
0
LINE
8
Layer 1
10
417.766000
20
620.244000
11
417.723000
21
620.192000
0
LINE
8
Layer 1
10
417.723000
20
620.192000
11
417.684000
21
620.149000
0
LINE
8
Layer 1
10
417.684000
20
620.149000
11
417.656000
21
620.118000
0
LINE
8
Layer 1
10
417.656000
20
620.118000
11
417.586000
21
620.046000
0
LINE
8
Layer 1
10
417.586000
20
620.046000
11
417.514000
21
619.977000
0
LINE
8
Layer 1
10
417.514000
20
619.977000
11
417.439000
21
619.911000
0
LINE
8
Layer 1
10
417.439000
20
619.911000
11
417.362000
21
619.847000
0
LINE
8
Layer 1
10
417.362000
20
619.847000
11
417.283000
21
619.786000
0
LINE
8
Layer 1
10
417.283000
20
619.786000
11
417.246000
21
619.761000
0
LINE
8
Layer 1
10
417.246000
20
619.761000
11
417.201000
21
619.729000
0
LINE
8
Layer 1
10
417.201000
20
619.729000
11
417.118000
21
619.674000
0
LINE
8
Layer 1
10
417.118000
20
619.674000
11
417.032000
21
619.622000
0
LINE
8
Layer 1
10
417.032000
20
619.622000
11
416.988000
21
619.597000
0
LINE
8
Layer 1
10
416.988000
20
619.597000
11
416.945000
21
619.574000
0
LINE
8
Layer 1
10
416.945000
20
619.574000
11
416.881000
21
619.541000
0
LINE
8
Layer 1
10
416.881000
20
619.541000
11
416.856000
21
619.528000
0
LINE
8
Layer 1
10
416.856000
20
619.528000
11
416.766000
21
619.486000
0
LINE
8
Layer 1
10
416.766000
20
619.486000
11
416.673000
21
619.447000
0
LINE
8
Layer 1
10
416.673000
20
619.447000
11
416.580000
21
619.412000
0
LINE
8
Layer 1
10
416.580000
20
619.412000
11
416.486000
21
619.380000
0
LINE
8
Layer 1
10
416.486000
20
619.380000
11
416.390000
21
619.351000
0
LINE
8
Layer 1
10
416.390000
20
619.351000
11
416.293000
21
619.326000
0
LINE
8
Layer 1
10
416.293000
20
619.326000
11
416.277000
21
619.322000
0
LINE
8
Layer 1
10
416.277000
20
619.322000
11
416.196000
21
619.304000
0
LINE
8
Layer 1
10
416.196000
20
619.304000
11
416.146000
21
619.295000
0
LINE
8
Layer 1
10
416.146000
20
619.295000
11
416.098000
21
619.286000
0
LINE
8
Layer 1
10
416.098000
20
619.286000
11
415.999000
21
619.272000
0
LINE
8
Layer 1
10
415.999000
20
619.272000
11
415.899000
21
619.261000
0
LINE
8
Layer 1
10
415.899000
20
619.261000
11
415.800000
21
619.254000
0
LINE
8
Layer 1
10
415.800000
20
619.254000
11
415.700000
21
619.250000
0
LINE
8
Layer 1
10
415.700000
20
619.250000
11
415.600000
21
619.250000
0
LINE
8
Layer 1
10
10.299700
20
619.250000
11
10.200300
21
619.254000
0
LINE
8
Layer 1
10
10.200300
20
619.254000
11
10.100600
21
619.261000
0
LINE
8
Layer 1
10
10.100600
20
619.261000
11
10.001100
21
619.272000
0
LINE
8
Layer 1
10
10.001100
20
619.272000
11
9.902590
21
619.286000
0
LINE
8
Layer 1
10
9.902590
20
619.286000
11
9.804230
21
619.304000
0
LINE
8
Layer 1
10
9.804230
20
619.304000
11
9.706370
21
619.326000
0
LINE
8
Layer 1
10
9.706370
20
619.326000
11
9.609700
21
619.351000
0
LINE
8
Layer 1
10
9.609700
20
619.351000
11
9.514280
21
619.380000
0
LINE
8
Layer 1
10
9.514280
20
619.380000
11
9.419840
21
619.412000
0
LINE
8
Layer 1
10
9.419840
20
619.412000
11
9.326360
21
619.447000
0
LINE
8
Layer 1
10
9.326360
20
619.447000
11
9.234020
21
619.486000
0
LINE
8
Layer 1
10
9.234020
20
619.486000
11
9.143760
21
619.528000
0
LINE
8
Layer 1
10
9.143760
20
619.528000
11
9.054930
21
619.574000
0
LINE
8
Layer 1
10
9.054930
20
619.574000
11
8.967570
21
619.622000
0
LINE
8
Layer 1
10
8.967570
20
619.622000
11
8.882000
21
619.674000
0
LINE
8
Layer 1
10
8.882000
20
619.674000
11
8.798750
21
619.729000
0
LINE
8
Layer 1
10
8.798750
20
619.729000
11
8.716930
21
619.787000
0
LINE
8
Layer 1
10
8.716930
20
619.787000
11
8.637750
21
619.848000
0
LINE
8
Layer 1
10
8.637750
20
619.848000
11
8.586560
21
619.890000
0
LINE
8
Layer 1
10
8.586560
20
619.890000
11
8.560920
21
619.911000
0
LINE
8
Layer 1
10
8.560920
20
619.911000
11
8.486200
21
619.977000
0
LINE
8
Layer 1
10
8.486200
20
619.977000
11
8.413810
21
620.047000
0
LINE
8
Layer 1
10
8.413810
20
620.047000
11
8.344400
21
620.118000
0
LINE
8
Layer 1
10
8.344400
20
620.118000
11
8.277300
21
620.192000
0
LINE
8
Layer 1
10
8.277300
20
620.192000
11
8.213020
21
620.268000
0
LINE
8
Layer 1
10
8.213020
20
620.268000
11
8.151410
21
620.347000
0
LINE
8
Layer 1
10
8.151410
20
620.347000
11
8.093060
21
620.428000
0
LINE
8
Layer 1
10
8.093060
20
620.428000
11
8.037400
21
620.511000
0
LINE
8
Layer 1
10
8.037400
20
620.511000
11
7.984860
21
620.596000
0
LINE
8
Layer 1
10
7.984860
20
620.596000
11
7.935300
21
620.683000
0
LINE
8
Layer 1
10
7.935300
20
620.683000
11
7.932440
21
620.689000
0
LINE
8
Layer 1
10
7.932440
20
620.689000
11
7.889060
21
620.772000
0
LINE
8
Layer 1
10
7.889060
20
620.772000
11
7.846250
21
620.861000
0
LINE
8
Layer 1
10
7.846250
20
620.861000
11
7.806420
21
620.954000
0
LINE
8
Layer 1
10
7.806420
20
620.954000
11
7.770240
21
621.046000
0
LINE
8
Layer 1
10
7.770240
20
621.046000
11
7.737270
21
621.141000
0
LINE
8
Layer 1
10
7.737270
20
621.141000
11
7.707690
21
621.236000
0
LINE
8
Layer 1
10
7.707690
20
621.236000
11
7.681750
21
621.333000
0
LINE
8
Layer 1
10
7.681750
20
621.333000
11
7.673380
21
621.369000
0
LINE
8
Layer 1
10
7.673380
20
621.369000
11
7.659280
21
621.430000
0
LINE
8
Layer 1
10
7.659280
20
621.430000
11
7.640400
21
621.528000
0
LINE
8
Layer 1
10
7.640400
20
621.528000
11
7.625020
21
621.627000
0
LINE
8
Layer 1
10
7.625020
20
621.627000
11
7.613230
21
621.726000
0
LINE
8
Layer 1
10
7.613230
20
621.726000
11
7.605090
21
621.826000
0
LINE
8
Layer 1
10
7.605090
20
621.826000
11
7.600910
21
621.918000
0
LINE
8
Layer 1
10
7.600910
20
621.918000
11
7.600570
21
621.925000
0
LINE
8
Layer 1
10
7.600570
20
621.925000
11
7.599670
21
622.025000
0
LINE
8
Layer 1
10
7.599670
20
622.025000
11
7.601600
21
622.096000
0
LINE
8
Layer 1
10
7.601600
20
622.096000
11
7.602380
21
622.125000
0
LINE
8
Layer 1
10
7.602380
20
622.125000
11
7.608730
21
622.225000
0
LINE
8
Layer 1
10
7.608730
20
622.225000
11
7.618730
21
622.324000
0
LINE
8
Layer 1
10
7.618730
20
622.324000
11
7.619630
21
622.331000
0
LINE
8
Layer 1
10
7.619630
20
622.331000
11
7.632290
21
622.423000
0
LINE
8
Layer 1
10
7.632290
20
622.423000
11
7.645220
21
622.497000
0
LINE
8
Layer 1
10
7.645220
20
622.497000
11
7.649380
21
622.521000
0
LINE
8
Layer 1
10
7.649380
20
622.521000
11
7.670190
21
622.619000
0
LINE
8
Layer 1
10
7.670190
20
622.619000
11
7.694420
21
622.716000
0
LINE
8
Layer 1
10
7.694420
20
622.716000
11
7.700560
21
622.737000
0
LINE
8
Layer 1
10
7.700560
20
622.737000
11
7.722160
21
622.812000
0
LINE
8
Layer 1
10
7.722160
20
622.812000
11
7.747940
21
622.890000
0
LINE
8
Layer 1
10
7.747940
20
622.890000
11
7.753280
21
622.907000
0
LINE
8
Layer 1
10
7.753280
20
622.907000
11
7.787940
21
623.000000
0
LINE
8
Layer 1
10
7.787940
20
623.000000
11
7.826080
21
623.093000
0
LINE
8
Layer 1
10
7.826080
20
623.093000
11
7.831190
21
623.104000
0
LINE
8
Layer 1
10
7.831190
20
623.104000
11
7.867430
21
623.184000
0
LINE
8
Layer 1
10
7.867430
20
623.184000
11
7.911870
21
623.273000
0
LINE
8
Layer 1
10
7.911870
20
623.273000
11
7.959890
21
623.361000
0
LINE
8
Layer 1
10
7.959890
20
623.361000
11
8.010690
21
623.447000
0
LINE
8
Layer 1
10
8.010690
20
623.447000
11
8.064970
21
623.531000
0
LINE
8
Layer 1
10
8.064970
20
623.531000
11
8.101280
21
623.583000
0
LINE
8
Layer 1
10
8.101280
20
623.583000
11
8.121870
21
623.613000
0
LINE
8
Layer 1
10
8.121870
20
623.613000
11
8.182100
21
623.693000
0
LINE
8
Layer 1
10
8.182100
20
623.693000
11
8.244740
21
623.770000
0
LINE
8
Layer 1
10
8.244740
20
623.770000
11
8.310480
21
623.845000
0
LINE
8
Layer 1
10
8.310480
20
623.845000
11
8.379070
21
623.918000
0
LINE
8
Layer 1
10
8.379070
20
623.918000
11
8.383020
21
623.922000
0
LINE
8
Layer 1
10
8.383020
20
623.922000
11
8.449770
21
623.988000
0
LINE
8
Layer 1
10
8.449770
20
623.988000
11
8.523450
21
624.056000
0
LINE
8
Layer 1
10
8.523450
20
624.056000
11
8.599020
21
624.121000
0
LINE
8
Layer 1
10
8.599020
20
624.121000
11
8.677560
21
624.184000
0
LINE
8
Layer 1
10
8.677560
20
624.184000
11
8.757660
21
624.243000
0
LINE
8
Layer 1
10
8.757660
20
624.243000
11
8.840150
21
624.299000
0
LINE
8
Layer 1
10
8.840150
20
624.299000
11
8.924920
21
624.352000
0
LINE
8
Layer 1
10
8.924920
20
624.352000
11
9.010880
21
624.402000
0
LINE
8
Layer 1
10
9.010880
20
624.402000
11
9.099400
21
624.450000
0
LINE
8
Layer 1
10
9.099400
20
624.450000
11
9.105880
21
624.453000
0
LINE
8
Layer 1
10
9.105880
20
624.453000
11
9.188870
21
624.493000
0
LINE
8
Layer 1
10
9.188870
20
624.493000
11
9.280490
21
624.534000
0
LINE
8
Layer 1
10
9.280490
20
624.534000
11
9.372770
21
624.571000
0
LINE
8
Layer 1
10
9.372770
20
624.571000
11
9.466880
21
624.605000
0
LINE
8
Layer 1
10
9.466880
20
624.605000
11
9.562380
21
624.635000
0
LINE
8
Layer 1
10
9.562380
20
624.635000
11
9.658160
21
624.662000
0
LINE
8
Layer 1
10
9.658160
20
624.662000
11
9.755510
21
624.685000
0
LINE
8
Layer 1
10
9.755510
20
624.685000
11
9.853160
21
624.705000
0
LINE
8
Layer 1
10
9.853160
20
624.705000
11
9.952130
21
624.722000
0
LINE
8
Layer 1
10
9.952130
20
624.722000
11
9.964080
21
624.723000
0
LINE
8
Layer 1
10
9.964080
20
624.723000
11
10.051100
21
624.734000
0
LINE
8
Layer 1
10
10.051100
20
624.734000
11
10.076800
21
624.736000
0
LINE
8
Layer 1
10
10.076800
20
624.736000
11
10.150600
21
624.743000
0
LINE
8
Layer 1
10
10.150600
20
624.743000
11
10.195800
21
624.746000
0
LINE
8
Layer 1
10
10.195800
20
624.746000
11
10.250100
21
624.749000
0
LINE
8
Layer 1
10
10.250100
20
624.749000
11
10.350200
21
624.750000
0
LINE
8
Layer 1
10
10.350200
20
624.750000
11
10.449800
21
624.749000
0
LINE
8
Layer 1
10
10.449800
20
624.749000
11
10.549900
21
624.743000
0
LINE
8
Layer 1
10
10.549900
20
624.743000
11
10.565200
21
624.742000
0
LINE
8
Layer 1
10
10.565200
20
624.742000
11
10.649100
21
624.734000
0
LINE
8
Layer 1
10
10.649100
20
624.734000
11
10.748500
21
624.721000
0
LINE
8
Layer 1
10
10.748500
20
624.721000
11
10.846600
21
624.705000
0
LINE
8
Layer 1
10
10.846600
20
624.705000
11
10.944600
21
624.685000
0
LINE
8
Layer 1
10
10.944600
20
624.685000
11
11.042000
21
624.662000
0
LINE
8
Layer 1
10
11.042000
20
624.662000
11
11.052700
21
624.659000
0
LINE
8
Layer 1
10
11.052700
20
624.659000
11
11.138200
21
624.635000
0
LINE
8
Layer 1
10
11.138200
20
624.635000
11
11.157300
21
624.629000
0
LINE
8
Layer 1
10
11.157300
20
624.629000
11
11.233300
21
624.605000
0
LINE
8
Layer 1
10
11.233300
20
624.605000
11
11.268700
21
624.592000
0
LINE
8
Layer 1
10
11.268700
20
624.592000
11
11.327100
21
624.571000
0
LINE
8
Layer 1
10
11.327100
20
624.571000
11
11.420100
21
624.534000
0
LINE
8
Layer 1
10
11.420100
20
624.534000
11
11.511000
21
624.493000
0
LINE
8
Layer 1
10
11.511000
20
624.493000
11
11.601200
21
624.449000
0
LINE
8
Layer 1
10
11.601200
20
624.449000
11
11.689200
21
624.402000
0
LINE
8
Layer 1
10
11.689200
20
624.402000
11
11.742300
21
624.372000
0
LINE
8
Layer 1
10
11.742300
20
624.372000
11
11.775300
21
624.352000
0
LINE
8
Layer 1
10
11.775300
20
624.352000
11
11.860100
21
624.299000
0
LINE
8
Layer 1
10
11.860100
20
624.299000
11
11.942300
21
624.243000
0
LINE
8
Layer 1
10
11.942300
20
624.243000
11
12.004200
21
624.197000
0
LINE
8
Layer 1
10
12.004200
20
624.197000
11
12.022700
21
624.183000
0
LINE
8
Layer 1
10
12.022700
20
624.183000
11
12.084300
21
624.134000
0
LINE
8
Layer 1
10
12.084300
20
624.134000
11
12.100900
21
624.121000
0
LINE
8
Layer 1
10
12.100900
20
624.121000
11
12.176900
21
624.056000
0
LINE
8
Layer 1
10
12.176900
20
624.056000
11
12.250100
21
623.989000
0
LINE
8
Layer 1
10
12.250100
20
623.989000
11
12.321400
21
623.918000
0
LINE
8
Layer 1
10
12.321400
20
623.918000
11
12.389500
21
623.845000
0
LINE
8
Layer 1
10
12.389500
20
623.845000
11
12.455400
21
623.770000
0
LINE
8
Layer 1
10
12.455400
20
623.770000
11
12.518200
21
623.692000
0
LINE
8
Layer 1
10
12.518200
20
623.692000
11
12.578000
21
623.613000
0
LINE
8
Layer 1
10
12.578000
20
623.613000
11
12.635200
21
623.531000
0
LINE
8
Layer 1
10
12.635200
20
623.531000
11
12.689300
21
623.447000
0
LINE
8
Layer 1
10
12.689300
20
623.447000
11
12.740400
21
623.360000
0
LINE
8
Layer 1
10
12.740400
20
623.360000
11
12.788200
21
623.273000
0
LINE
8
Layer 1
10
12.788200
20
623.273000
11
12.796500
21
623.256000
0
LINE
8
Layer 1
10
12.796500
20
623.256000
11
12.832800
21
623.183000
0
LINE
8
Layer 1
10
12.832800
20
623.183000
11
12.857000
21
623.130000
0
LINE
8
Layer 1
10
12.857000
20
623.130000
11
12.874000
21
623.093000
0
LINE
8
Layer 1
10
12.874000
20
623.093000
11
12.912200
21
623.000000
0
LINE
8
Layer 1
10
12.912200
20
623.000000
11
12.946700
21
622.907000
0
LINE
8
Layer 1
10
12.946700
20
622.907000
11
12.977900
21
622.812000
0
LINE
8
Layer 1
10
12.977900
20
622.812000
11
13.005700
21
622.716000
0
LINE
8
Layer 1
10
13.005700
20
622.716000
11
13.030000
21
622.619000
0
LINE
8
Layer 1
10
13.030000
20
622.619000
11
13.030700
21
622.615000
0
LINE
8
Layer 1
10
13.030700
20
622.615000
11
13.050600
21
622.521000
0
LINE
8
Layer 1
10
13.050600
20
622.521000
11
13.056000
21
622.490000
0
LINE
8
Layer 1
10
13.056000
20
622.490000
11
13.067800
21
622.423000
0
LINE
8
Layer 1
10
13.067800
20
622.423000
11
13.077700
21
622.351000
0
LINE
8
Layer 1
10
13.077700
20
622.351000
11
13.081300
21
622.324000
0
LINE
8
Layer 1
10
13.081300
20
622.324000
11
13.091300
21
622.224000
0
LINE
8
Layer 1
10
13.091300
20
622.224000
11
13.097600
21
622.125000
0
LINE
8
Layer 1
10
13.097600
20
622.125000
11
13.100300
21
622.025000
0
LINE
8
Layer 1
10
13.100300
20
622.025000
11
13.099400
21
621.925000
0
LINE
8
Layer 1
10
13.099400
20
621.925000
11
13.094900
21
621.825000
0
LINE
8
Layer 1
10
13.094900
20
621.825000
11
13.086800
21
621.726000
0
LINE
8
Layer 1
10
13.086800
20
621.726000
11
13.074900
21
621.626000
0
LINE
8
Layer 1
10
13.074900
20
621.626000
11
13.059600
21
621.528000
0
LINE
8
Layer 1
10
13.059600
20
621.528000
11
13.040700
21
621.430000
0
LINE
8
Layer 1
10
13.040700
20
621.430000
11
13.018100
21
621.332000
0
LINE
8
Layer 1
10
13.018100
20
621.332000
11
12.992200
21
621.236000
0
LINE
8
Layer 1
10
12.992200
20
621.236000
11
12.962600
21
621.140000
0
LINE
8
Layer 1
10
12.962600
20
621.140000
11
12.929700
21
621.046000
0
LINE
8
Layer 1
10
12.929700
20
621.046000
11
12.896600
21
620.961000
0
LINE
8
Layer 1
10
12.896600
20
620.961000
11
12.893500
21
620.953000
0
LINE
8
Layer 1
10
12.893500
20
620.953000
11
12.853700
21
620.861000
0
LINE
8
Layer 1
10
12.853700
20
620.861000
11
12.810800
21
620.771000
0
LINE
8
Layer 1
10
12.810800
20
620.771000
11
12.764400
21
620.683000
0
LINE
8
Layer 1
10
12.764400
20
620.683000
11
12.715200
21
620.596000
0
LINE
8
Layer 1
10
12.715200
20
620.596000
11
12.662400
21
620.511000
0
LINE
8
Layer 1
10
12.662400
20
620.511000
11
12.658600
21
620.505000
0
LINE
8
Layer 1
10
12.658600
20
620.505000
11
12.606800
21
620.428000
0
LINE
8
Layer 1
10
12.606800
20
620.428000
11
12.548500
21
620.347000
0
LINE
8
Layer 1
10
12.548500
20
620.347000
11
12.486800
21
620.268000
0
LINE
8
Layer 1
10
12.486800
20
620.268000
11
12.422600
21
620.192000
0
LINE
8
Layer 1
10
12.422600
20
620.192000
11
12.355800
21
620.118000
0
LINE
8
Layer 1
10
12.355800
20
620.118000
11
12.286000
21
620.046000
0
LINE
8
Layer 1
10
12.286000
20
620.046000
11
12.213800
21
619.977000
0
LINE
8
Layer 1
10
12.213800
20
619.977000
11
12.138900
21
619.911000
0
LINE
8
Layer 1
10
12.138900
20
619.911000
11
12.062200
21
619.847000
0
LINE
8
Layer 1
10
12.062200
20
619.847000
11
11.982500
21
619.786000
0
LINE
8
Layer 1
10
11.982500
20
619.786000
11
11.901400
21
619.729000
0
LINE
8
Layer 1
10
11.901400
20
619.729000
11
11.817600
21
619.674000
0
LINE
8
Layer 1
10
11.817600
20
619.674000
11
11.801900
21
619.664000
0
LINE
8
Layer 1
10
11.801900
20
619.664000
11
11.732200
21
619.622000
0
LINE
8
Layer 1
10
11.732200
20
619.622000
11
11.711700
21
619.611000
0
LINE
8
Layer 1
10
11.711700
20
619.611000
11
11.645000
21
619.573000
0
LINE
8
Layer 1
10
11.645000
20
619.573000
11
11.625600
21
619.564000
0
LINE
8
Layer 1
10
11.625600
20
619.564000
11
11.556000
21
619.528000
0
LINE
8
Layer 1
10
11.556000
20
619.528000
11
11.506100
21
619.505000
0
LINE
8
Layer 1
10
11.506100
20
619.505000
11
11.465700
21
619.486000
0
LINE
8
Layer 1
10
11.465700
20
619.486000
11
11.373300
21
619.447000
0
LINE
8
Layer 1
10
11.373300
20
619.447000
11
11.280400
21
619.412000
0
LINE
8
Layer 1
10
11.280400
20
619.412000
11
11.185700
21
619.380000
0
LINE
8
Layer 1
10
11.185700
20
619.380000
11
11.090000
21
619.351000
0
LINE
8
Layer 1
10
11.090000
20
619.351000
11
10.993000
21
619.326000
0
LINE
8
Layer 1
10
10.993000
20
619.326000
11
10.980000
21
619.323000
0
LINE
8
Layer 1
10
10.980000
20
619.323000
11
10.895600
21
619.304000
0
LINE
8
Layer 1
10
10.895600
20
619.304000
11
10.837700
21
619.294000
0
LINE
8
Layer 1
10
10.837700
20
619.294000
11
10.797500
21
619.286000
0
LINE
8
Layer 1
10
10.797500
20
619.286000
11
10.698700
21
619.272000
0
LINE
8
Layer 1
10
10.698700
20
619.272000
11
10.599200
21
619.261000
0
LINE
8
Layer 1
10
10.599200
20
619.261000
11
10.499900
21
619.254000
0
LINE
8
Layer 1
10
10.499900
20
619.254000
11
10.399900
21
619.250000
0
LINE
8
Layer 1
10
10.399900
20
619.250000
11
10.299700
21
619.250000
0
LINE
8
Layer 1
10
411.875000
20
463.902600
11
411.775000
21
463.908200
0
LINE
8
Layer 1
10
411.775000
20
463.908200
11
411.676000
21
463.917100
0
LINE
8
Layer 1
10
411.676000
20
463.917100
11
411.577000
21
463.929100
0
LINE
8
Layer 1
10
411.577000
20
463.929100
11
411.478000
21
463.944300
0
LINE
8
Layer 1
10
411.478000
20
463.944300
11
411.380000
21
463.962700
0
LINE
8
Layer 1
10
411.380000
20
463.962700
11
411.282000
21
463.984300
0
LINE
8
Layer 1
10
411.282000
20
463.984300
11
411.186000
21
464.009000
0
LINE
8
Layer 1
10
411.186000
20
464.009000
11
411.090000
21
464.036800
0
LINE
8
Layer 1
10
411.090000
20
464.036800
11
410.995000
21
464.067600
0
LINE
8
Layer 1
10
410.995000
20
464.067600
11
410.901000
21
464.102200
0
LINE
8
Layer 1
10
410.901000
20
464.102200
11
410.808000
21
464.138400
0
LINE
8
Layer 1
10
410.808000
20
464.138400
11
410.716000
21
464.178300
0
LINE
8
Layer 1
10
410.716000
20
464.178300
11
410.626000
21
464.221200
0
LINE
8
Layer 1
10
410.626000
20
464.221200
11
410.537000
21
464.266900
0
LINE
8
Layer 1
10
410.537000
20
464.266900
11
410.450000
21
464.315400
0
LINE
8
Layer 1
10
410.450000
20
464.315400
11
410.364000
21
464.366700
0
LINE
8
Layer 1
10
410.364000
20
464.366700
11
410.280000
21
464.420800
0
LINE
8
Layer 1
10
410.280000
20
464.420800
11
410.199000
21
464.478100
0
LINE
8
Layer 1
10
410.199000
20
464.478100
11
410.118000
21
464.536900
0
LINE
8
Layer 1
10
410.118000
20
464.536900
11
410.039000
21
464.598800
0
LINE
8
Layer 1
10
410.039000
20
464.598800
11
409.964000
21
464.663700
0
LINE
8
Layer 1
10
409.964000
20
464.663700
11
409.889000
21
464.730000
0
LINE
8
Layer 1
10
409.889000
20
464.730000
11
409.817000
21
464.799200
0
LINE
8
Layer 1
10
409.817000
20
464.799200
11
409.748000
21
464.871200
0
LINE
8
Layer 1
10
409.748000
20
464.871200
11
409.680000
21
464.944400
0
LINE
8
Layer 1
10
409.680000
20
464.944400
11
409.615000
21
465.020200
0
LINE
8
Layer 1
10
409.615000
20
465.020200
11
409.553000
21
465.098500
0
LINE
8
Layer 1
10
409.553000
20
465.098500
11
409.492000
21
465.177900
0
LINE
8
Layer 1
10
409.492000
20
465.177900
11
409.435000
21
465.260100
0
LINE
8
Layer 1
10
409.435000
20
465.260100
11
409.380000
21
465.343200
0
LINE
8
Layer 1
10
409.380000
20
465.343200
11
409.329000
21
465.428800
0
LINE
8
Layer 1
10
409.329000
20
465.428800
11
409.279000
21
465.515400
0
LINE
8
Layer 1
10
409.279000
20
465.515400
11
409.232000
21
465.603800
0
LINE
8
Layer 1
10
409.232000
20
465.603800
11
409.189000
21
465.693700
0
LINE
8
Layer 1
10
409.189000
20
465.693700
11
409.148000
21
465.784900
0
LINE
8
Layer 1
10
409.148000
20
465.784900
11
409.111000
21
465.877700
0
LINE
8
Layer 1
10
409.111000
20
465.877700
11
409.077000
21
465.971400
0
LINE
8
Layer 1
10
409.077000
20
465.971400
11
409.044000
21
466.065900
0
LINE
8
Layer 1
10
409.044000
20
466.065900
11
409.016000
21
466.161800
0
LINE
8
Layer 1
10
409.016000
20
466.161800
11
408.990000
21
466.258100
0
LINE
8
Layer 1
10
408.990000
20
466.258100
11
408.969000
21
466.355600
0
LINE
8
Layer 1
10
408.969000
20
466.355600
11
408.949000
21
466.453500
0
LINE
8
Layer 1
10
408.949000
20
466.453500
11
408.933000
21
466.552200
0
LINE
8
Layer 1
10
408.933000
20
466.552200
11
408.921000
21
466.651200
0
LINE
8
Layer 1
10
408.921000
20
466.651200
11
408.911000
21
466.750600
0
LINE
8
Layer 1
10
408.911000
20
466.750600
11
408.904000
21
466.850300
0
LINE
8
Layer 1
10
408.904000
20
466.850300
11
408.901000
21
466.950100
0
LINE
8
Layer 1
10
408.901000
20
466.950100
11
408.901000
21
467.049900
0
LINE
8
Layer 1
10
408.901000
20
467.049900
11
408.904000
21
467.149700
0
LINE
8
Layer 1
10
408.904000
20
467.149700
11
408.911000
21
467.249400
0
LINE
8
Layer 1
10
408.911000
20
467.249400
11
408.921000
21
467.348800
0
LINE
8
Layer 1
10
408.921000
20
467.348800
11
408.933000
21
467.447800
0
LINE
8
Layer 1
10
408.933000
20
467.447800
11
408.949000
21
467.546400
0
LINE
8
Layer 1
10
408.949000
20
467.546400
11
408.969000
21
467.644400
0
LINE
8
Layer 1
10
408.969000
20
467.644400
11
408.991000
21
467.741700
0
LINE
8
Layer 1
10
408.991000
20
467.741700
11
409.016000
21
467.838200
0
LINE
8
Layer 1
10
409.016000
20
467.838200
11
409.045000
21
467.933900
0
LINE
8
Layer 1
10
409.045000
20
467.933900
11
409.077000
21
468.028600
0
LINE
8
Layer 1
10
409.077000
20
468.028600
11
409.111000
21
468.122300
0
LINE
8
Layer 1
10
409.111000
20
468.122300
11
409.149000
21
468.214800
0
LINE
8
Layer 1
10
409.149000
20
468.214800
11
409.189000
21
468.306000
0
LINE
8
Layer 1
10
409.189000
20
468.306000
11
409.233000
21
468.395900
0
LINE
8
Layer 1
10
409.233000
20
468.395900
11
409.279000
21
468.484300
0
LINE
8
Layer 1
10
409.279000
20
468.484300
11
409.329000
21
468.571200
0
LINE
8
Layer 1
10
409.329000
20
468.571200
11
409.381000
21
468.656400
0
LINE
8
Layer 1
10
409.381000
20
468.656400
11
409.435000
21
468.739900
0
LINE
8
Layer 1
10
409.435000
20
468.739900
11
409.493000
21
468.821700
0
LINE
8
Layer 1
10
409.493000
20
468.821700
11
409.553000
21
468.901500
0
LINE
8
Layer 1
10
409.553000
20
468.901500
11
409.615000
21
468.979300
0
LINE
8
Layer 1
10
409.615000
20
468.979300
11
409.680000
21
469.055100
0
LINE
8
Layer 1
10
409.680000
20
469.055100
11
409.748000
21
469.128800
0
LINE
8
Layer 1
10
409.748000
20
469.128800
11
409.817000
21
469.200300
0
LINE
8
Layer 1
10
409.817000
20
469.200300
11
409.889000
21
469.269400
0
LINE
8
Layer 1
10
409.889000
20
469.269400
11
409.964000
21
469.336300
0
LINE
8
Layer 1
10
409.964000
20
469.336300
11
410.040000
21
469.400700
0
LINE
8
Layer 1
10
410.040000
20
469.400700
11
410.118000
21
469.462600
0
LINE
8
Layer 1
10
410.118000
20
469.462600
11
410.199000
21
469.521900
0
LINE
8
Layer 1
10
410.199000
20
469.521900
11
410.281000
21
469.578600
0
LINE
8
Layer 1
10
410.281000
20
469.578600
11
410.365000
21
469.632700
0
LINE
8
Layer 1
10
410.365000
20
469.632700
11
410.450000
21
469.684000
0
LINE
8
Layer 1
10
410.450000
20
469.684000
11
410.538000
21
469.732500
0
LINE
8
Layer 1
10
410.538000
20
469.732500
11
410.626000
21
469.778200
0
LINE
8
Layer 1
10
410.626000
20
469.778200
11
410.717000
21
469.821000
0
LINE
8
Layer 1
10
410.717000
20
469.821000
11
410.808000
21
469.860900
0
LINE
8
Layer 1
10
410.808000
20
469.860900
11
410.901000
21
469.897800
0
LINE
8
Layer 1
10
410.901000
20
469.897800
11
410.995000
21
469.931700
0
LINE
8
Layer 1
10
410.995000
20
469.931700
11
411.090000
21
469.962500
0
LINE
8
Layer 1
10
411.090000
20
469.962500
11
411.186000
21
469.990300
0
LINE
8
Layer 1
10
411.186000
20
469.990300
11
411.283000
21
470.015000
0
LINE
8
Layer 1
10
411.283000
20
470.015000
11
411.380000
21
470.036600
0
LINE
8
Layer 1
10
411.380000
20
470.036600
11
411.478000
21
470.055000
0
LINE
8
Layer 1
10
411.478000
20
470.055000
11
411.577000
21
470.070200
0
LINE
8
Layer 1
10
411.577000
20
470.070200
11
411.676000
21
470.082200
0
LINE
8
Layer 1
10
411.676000
20
470.082200
11
411.776000
21
470.091100
0
LINE
8
Layer 1
10
411.776000
20
470.091100
11
411.875000
21
470.096700
0
LINE
8
Layer 1
10
411.875000
20
470.096700
11
411.975000
21
470.099100
0
LINE
8
Layer 1
10
411.975000
20
470.099100
11
412.075000
21
470.098300
0
LINE
8
Layer 1
10
412.075000
20
470.098300
11
412.175000
21
470.094300
0
LINE
8
Layer 1
10
412.175000
20
470.094300
11
412.274000
21
470.087000
0
LINE
8
Layer 1
10
412.274000
20
470.087000
11
412.374000
21
470.076600
0
LINE
8
Layer 1
10
412.374000
20
470.076600
11
412.473000
21
470.063000
0
LINE
8
Layer 1
10
412.473000
20
470.063000
11
412.571000
21
470.046200
0
LINE
8
Layer 1
10
412.571000
20
470.046200
11
412.669000
21
470.026200
0
LINE
8
Layer 1
10
412.669000
20
470.026200
11
412.766000
21
470.003100
0
LINE
8
Layer 1
10
412.766000
20
470.003100
11
412.862000
21
469.976800
0
LINE
8
Layer 1
10
412.862000
20
469.976800
11
412.958000
21
469.947500
0
LINE
8
Layer 1
10
412.958000
20
469.947500
11
413.052000
21
469.915800
0
LINE
8
Layer 1
10
413.052000
20
469.915800
11
413.146000
21
469.879700
0
LINE
8
Layer 1
10
413.146000
20
469.879700
11
413.238000
21
469.841300
0
LINE
8
Layer 1
10
413.238000
20
469.841300
11
413.329000
21
469.800200
0
LINE
8
Layer 1
10
413.329000
20
469.800200
11
413.418000
21
469.755700
0
LINE
8
Layer 1
10
413.418000
20
469.755700
11
413.507000
21
469.709200
0
LINE
8
Layer 1
10
413.507000
20
469.709200
11
413.593000
21
469.658700
0
LINE
8
Layer 1
10
413.593000
20
469.658700
11
413.678000
21
469.606600
0
LINE
8
Layer 1
10
413.678000
20
469.606600
11
413.761000
21
469.550600
0
LINE
8
Layer 1
10
413.761000
20
469.550600
11
413.842000
21
469.492500
0
LINE
8
Layer 1
10
413.842000
20
469.492500
11
413.921000
21
469.431900
0
LINE
8
Layer 1
10
413.921000
20
469.431900
11
413.999000
21
469.368800
0
LINE
8
Layer 1
10
413.999000
20
469.368800
11
414.074000
21
469.303500
0
LINE
8
Layer 1
10
414.074000
20
469.303500
11
414.147000
21
469.235100
0
LINE
8
Layer 1
10
414.147000
20
469.235100
11
414.218000
21
469.164800
0
LINE
8
Layer 1
10
414.218000
20
469.164800
11
414.286000
21
469.092300
0
LINE
8
Layer 1
10
414.286000
20
469.092300
11
414.353000
21
469.018000
0
LINE
8
Layer 1
10
414.353000
20
469.018000
11
414.417000
21
468.941100
0
LINE
8
Layer 1
10
414.417000
20
468.941100
11
414.478000
21
468.862300
0
LINE
8
Layer 1
10
414.478000
20
468.862300
11
414.536000
21
468.781000
0
LINE
8
Layer 1
10
414.536000
20
468.781000
11
414.593000
21
468.698800
0
LINE
8
Layer 1
10
414.593000
20
468.698800
11
414.646000
21
468.614400
0
LINE
8
Layer 1
10
414.646000
20
468.614400
11
414.697000
21
468.528300
0
LINE
8
Layer 1
10
414.697000
20
468.528300
11
414.745000
21
468.440600
0
LINE
8
Layer 1
10
414.745000
20
468.440600
11
414.790000
21
468.351400
0
LINE
8
Layer 1
10
414.790000
20
468.351400
11
414.832000
21
468.260800
0
LINE
8
Layer 1
10
414.832000
20
468.260800
11
414.871000
21
468.169000
0
LINE
8
Layer 1
10
414.871000
20
468.169000
11
414.907000
21
468.075600
0
LINE
8
Layer 1
10
414.907000
20
468.075600
11
414.940000
21
467.981600
0
LINE
8
Layer 1
10
414.940000
20
467.981600
11
414.970000
21
467.886400
0
LINE
8
Layer 1
10
414.970000
20
467.886400
11
414.997000
21
467.790300
0
LINE
8
Layer 1
10
414.997000
20
467.790300
11
415.021000
21
467.693300
0
LINE
8
Layer 1
10
415.021000
20
467.693300
11
415.042000
21
467.595600
0
LINE
8
Layer 1
10
415.042000
20
467.595600
11
415.060000
21
467.497300
0
LINE
8
Layer 1
10
415.060000
20
467.497300
11
415.074000
21
467.398400
0
LINE
8
Layer 1
10
415.074000
20
467.398400
11
415.085000
21
467.299200
0
LINE
8
Layer 1
10
415.085000
20
467.299200
11
415.093000
21
467.199600
0
LINE
8
Layer 1
10
415.093000
20
467.199600
11
415.098000
21
467.099900
0
LINE
8
Layer 1
10
415.098000
20
467.099900
11
415.100000
21
467.000000
0
LINE
8
Layer 1
10
415.100000
20
467.000000
11
415.098000
21
466.900100
0
LINE
8
Layer 1
10
415.098000
20
466.900100
11
415.093000
21
466.800400
0
LINE
8
Layer 1
10
415.093000
20
466.800400
11
415.085000
21
466.700800
0
LINE
8
Layer 1
10
415.085000
20
466.700800
11
415.074000
21
466.601600
0
LINE
8
Layer 1
10
415.074000
20
466.601600
11
415.060000
21
466.502700
0
LINE
8
Layer 1
10
415.060000
20
466.502700
11
415.042000
21
466.404400
0
LINE
8
Layer 1
10
415.042000
20
466.404400
11
415.021000
21
466.306700
0
LINE
8
Layer 1
10
415.021000
20
466.306700
11
414.997000
21
466.209700
0
LINE
8
Layer 1
10
414.997000
20
466.209700
11
414.970000
21
466.113600
0
LINE
8
Layer 1
10
414.970000
20
466.113600
11
414.940000
21
466.018400
0
LINE
8
Layer 1
10
414.940000
20
466.018400
11
414.907000
21
465.924100
0
LINE
8
Layer 1
10
414.907000
20
465.924100
11
414.871000
21
465.831000
0
LINE
8
Layer 1
10
414.871000
20
465.831000
11
414.832000
21
465.739200
0
LINE
8
Layer 1
10
414.832000
20
465.739200
11
414.790000
21
465.648600
0
LINE
8
Layer 1
10
414.790000
20
465.648600
11
414.745000
21
465.559400
0
LINE
8
Layer 1
10
414.745000
20
465.559400
11
414.697000
21
465.471700
0
LINE
8
Layer 1
10
414.697000
20
465.471700
11
414.646000
21
465.385600
0
LINE
8
Layer 1
10
414.646000
20
465.385600
11
414.593000
21
465.301200
0
LINE
8
Layer 1
10
414.593000
20
465.301200
11
414.537000
21
465.218600
0
LINE
8
Layer 1
10
414.537000
20
465.218600
11
414.478000
21
465.137700
0
LINE
8
Layer 1
10
414.478000
20
465.137700
11
414.417000
21
465.058900
0
LINE
8
Layer 1
10
414.417000
20
465.058900
11
414.353000
21
464.982000
0
LINE
8
Layer 1
10
414.353000
20
464.982000
11
414.287000
21
464.907300
0
LINE
8
Layer 1
10
414.287000
20
464.907300
11
414.218000
21
464.834700
0
LINE
8
Layer 1
10
414.218000
20
464.834700
11
414.147000
21
464.764300
0
LINE
8
Layer 1
10
414.147000
20
464.764300
11
414.074000
21
464.696300
0
LINE
8
Layer 1
10
414.074000
20
464.696300
11
413.999000
21
464.630700
0
LINE
8
Layer 1
10
413.999000
20
464.630700
11
413.922000
21
464.567500
0
LINE
8
Layer 1
10
413.922000
20
464.567500
11
413.842000
21
464.506900
0
LINE
8
Layer 1
10
413.842000
20
464.506900
11
413.761000
21
464.448800
0
LINE
8
Layer 1
10
413.761000
20
464.448800
11
413.678000
21
464.393400
0
LINE
8
Layer 1
10
413.678000
20
464.393400
11
413.593000
21
464.340700
0
LINE
8
Layer 1
10
413.593000
20
464.340700
11
413.507000
21
464.290800
0
LINE
8
Layer 1
10
413.507000
20
464.290800
11
413.418000
21
464.243600
0
LINE
8
Layer 1
10
413.418000
20
464.243600
11
413.329000
21
464.199400
0
LINE
8
Layer 1
10
413.329000
20
464.199400
11
413.238000
21
464.158000
0
LINE
8
Layer 1
10
413.238000
20
464.158000
11
413.146000
21
464.119600
0
LINE
8
Layer 1
10
413.146000
20
464.119600
11
413.052000
21
464.084200
0
LINE
8
Layer 1
10
413.052000
20
464.084200
11
412.958000
21
464.051800
0
LINE
8
Layer 1
10
412.958000
20
464.051800
11
412.862000
21
464.022500
0
LINE
8
Layer 1
10
412.862000
20
464.022500
11
412.766000
21
463.996200
0
LINE
8
Layer 1
10
412.766000
20
463.996200
11
412.669000
21
463.973100
0
LINE
8
Layer 1
10
412.669000
20
463.973100
11
412.571000
21
463.953100
0
LINE
8
Layer 1
10
412.571000
20
463.953100
11
412.473000
21
463.936300
0
LINE
8
Layer 1
10
412.473000
20
463.936300
11
412.374000
21
463.922700
0
LINE
8
Layer 1
10
412.374000
20
463.922700
11
412.274000
21
463.912200
0
LINE
8
Layer 1
10
412.274000
20
463.912200
11
412.175000
21
463.905000
0
LINE
8
Layer 1
10
412.175000
20
463.905000
11
412.075000
21
463.901000
0
LINE
8
Layer 1
10
412.075000
20
463.901000
11
411.975000
21
463.900200
0
LINE
8
Layer 1
10
411.975000
20
463.900200
11
411.875000
21
463.902600
0
LINE
8
Layer 1
10
13.875200
20
463.902600
11
13.775500
21
463.908200
0
LINE
8
Layer 1
10
13.775500
20
463.908200
11
13.676000
21
463.917100
0
LINE
8
Layer 1
10
13.676000
20
463.917100
11
13.576800
21
463.929100
0
LINE
8
Layer 1
10
13.576800
20
463.929100
11
13.478100
21
463.944300
0
LINE
8
Layer 1
10
13.478100
20
463.944300
11
13.379900
21
463.962700
0
LINE
8
Layer 1
10
13.379900
20
463.962700
11
13.282400
21
463.984300
0
LINE
8
Layer 1
10
13.282400
20
463.984300
11
13.185600
21
464.009000
0
LINE
8
Layer 1
10
13.185600
20
464.009000
11
13.089700
21
464.036800
0
LINE
8
Layer 1
10
13.089700
20
464.036800
11
12.994700
21
464.067600
0
LINE
8
Layer 1
10
12.994700
20
464.067600
11
12.901000
21
464.102200
0
LINE
8
Layer 1
10
12.901000
20
464.102200
11
12.807900
21
464.138400
0
LINE
8
Layer 1
10
12.807900
20
464.138400
11
12.716400
21
464.178300
0
LINE
8
Layer 1
10
12.716400
20
464.178300
11
12.626100
21
464.221200
0
LINE
8
Layer 1
10
12.626100
20
464.221200
11
12.537300
21
464.266900
0
LINE
8
Layer 1
10
12.537300
20
464.266900
11
12.450000
21
464.315400
0
LINE
8
Layer 1
10
12.450000
20
464.315400
11
12.364400
21
464.366700
0
LINE
8
Layer 1
10
12.364400
20
464.366700
11
12.280400
21
464.420800
0
LINE
8
Layer 1
10
12.280400
20
464.420800
11
12.198600
21
464.478100
0
LINE
8
Layer 1
10
12.198600
20
464.478100
11
12.117800
21
464.536900
0
LINE
8
Layer 1
10
12.117800
20
464.536900
11
12.039500
21
464.598800
0
LINE
8
Layer 1
10
12.039500
20
464.598800
11
11.963600
21
464.663700
0
LINE
8
Layer 1
10
11.963600
20
464.663700
11
11.888900
21
464.730000
0
LINE
8
Layer 1
10
11.888900
20
464.730000
11
11.816900
21
464.799200
0
LINE
8
Layer 1
10
11.816900
20
464.799200
11
11.747600
21
464.871200
0
LINE
8
Layer 1
10
11.747600
20
464.871200
11
11.679700
21
464.944400
0
LINE
8
Layer 1
10
11.679700
20
464.944400
11
11.614700
21
465.020200
0
LINE
8
Layer 1
10
11.614700
20
465.020200
11
11.552700
21
465.098500
0
LINE
8
Layer 1
10
11.552700
20
465.098500
11
11.492100
21
465.177900
0
LINE
8
Layer 1
10
11.492100
20
465.177900
11
11.435300
21
465.260100
0
LINE
8
Layer 1
10
11.435300
20
465.260100
11
11.380000
21
465.343200
0
LINE
8
Layer 1
10
11.380000
20
465.343200
11
11.328600
21
465.428800
0
LINE
8
Layer 1
10
11.328600
20
465.428800
11
11.278700
21
465.515400
0
LINE
8
Layer 1
10
11.278700
20
465.515400
11
11.232300
21
465.603800
0
LINE
8
Layer 1
10
11.232300
20
465.603800
11
11.188800
21
465.693700
0
LINE
8
Layer 1
10
11.188800
20
465.693700
11
11.148100
21
465.784900
0
LINE
8
Layer 1
10
11.148100
20
465.784900
11
11.111200
21
465.877700
0
LINE
8
Layer 1
10
11.111200
20
465.877700
11
11.076500
21
465.971400
0
LINE
8
Layer 1
10
11.076500
20
465.971400
11
11.044200
21
466.065900
0
LINE
8
Layer 1
10
11.044200
20
466.065900
11
11.016300
21
466.161800
0
LINE
8
Layer 1
10
11.016300
20
466.161800
11
10.990200
21
466.258100
0
LINE
8
Layer 1
10
10.990200
20
466.258100
11
10.968500
21
466.355600
0
LINE
8
Layer 1
10
10.968500
20
466.355600
11
10.948600
21
466.453500
0
LINE
8
Layer 1
10
10.948600
20
466.453500
11
10.933300
21
466.552200
0
LINE
8
Layer 1
10
10.933300
20
466.552200
11
10.920500
21
466.651200
0
LINE
8
Layer 1
10
10.920500
20
466.651200
11
10.910900
21
466.750600
0
LINE
8
Layer 1
10
10.910900
20
466.750600
11
10.904400
21
466.850300
0
LINE
8
Layer 1
10
10.904400
20
466.850300
11
10.901200
21
466.950100
0
LINE
8
Layer 1
10
10.901200
20
466.950100
11
10.901200
21
467.049900
0
LINE
8
Layer 1
10
10.901200
20
467.049900
11
10.904400
21
467.149700
0
LINE
8
Layer 1
10
10.904400
20
467.149700
11
10.910900
21
467.249400
0
LINE
8
Layer 1
10
10.910900
20
467.249400
11
10.920500
21
467.348800
0
LINE
8
Layer 1
10
10.920500
20
467.348800
11
10.933300
21
467.447800
0
LINE
8
Layer 1
10
10.933300
20
467.447800
11
10.949300
21
467.546400
0
LINE
8
Layer 1
10
10.949300
20
467.546400
11
10.968500
21
467.644400
0
LINE
8
Layer 1
10
10.968500
20
467.644400
11
10.990900
21
467.741700
0
LINE
8
Layer 1
10
10.990900
20
467.741700
11
11.016300
21
467.838200
0
LINE
8
Layer 1
10
11.016300
20
467.838200
11
11.044900
21
467.933900
0
LINE
8
Layer 1
10
11.044900
20
467.933900
11
11.076500
21
468.028600
0
LINE
8
Layer 1
10
11.076500
20
468.028600
11
11.111200
21
468.122300
0
LINE
8
Layer 1
10
11.111200
20
468.122300
11
11.148800
21
468.214800
0
LINE
8
Layer 1
10
11.148800
20
468.214800
11
11.189400
21
468.306000
0
LINE
8
Layer 1
10
11.189400
20
468.306000
11
11.233000
21
468.395900
0
LINE
8
Layer 1
10
11.233000
20
468.395900
11
11.279400
21
468.484300
0
LINE
8
Layer 1
10
11.279400
20
468.484300
11
11.328600
21
468.571200
0
LINE
8
Layer 1
10
11.328600
20
468.571200
11
11.380600
21
468.656400
0
LINE
8
Layer 1
10
11.380600
20
468.656400
11
11.435300
21
468.739900
0
LINE
8
Layer 1
10
11.435300
20
468.739900
11
11.492700
21
468.821700
0
LINE
8
Layer 1
10
11.492700
20
468.821700
11
11.552700
21
468.901500
0
LINE
8
Layer 1
10
11.552700
20
468.901500
11
11.615200
21
468.979300
0
LINE
8
Layer 1
10
11.615200
20
468.979300
11
11.680200
21
469.055100
0
LINE
8
Layer 1
10
11.680200
20
469.055100
11
11.747600
21
469.128800
0
LINE
8
Layer 1
10
11.747600
20
469.128800
11
11.817400
21
469.200300
0
LINE
8
Layer 1
10
11.817400
20
469.200300
11
11.889400
21
469.269400
0
LINE
8
Layer 1
10
11.889400
20
469.269400
11
11.963600
21
469.336300
0
LINE
8
Layer 1
10
11.963600
20
469.336300
11
12.039900
21
469.400700
0
LINE
8
Layer 1
10
12.039900
20
469.400700
11
12.118300
21
469.462600
0
LINE
8
Layer 1
10
12.118300
20
469.462600
11
12.198600
21
469.521900
0
LINE
8
Layer 1
10
12.198600
20
469.521900
11
12.280800
21
469.578600
0
LINE
8
Layer 1
10
12.280800
20
469.578600
11
12.364700
21
469.632700
0
LINE
8
Layer 1
10
12.364700
20
469.632700
11
12.450400
21
469.684000
0
LINE
8
Layer 1
10
12.450400
20
469.684000
11
12.537700
21
469.732500
0
LINE
8
Layer 1
10
12.537700
20
469.732500
11
12.626500
21
469.778200
0
LINE
8
Layer 1
10
12.626500
20
469.778200
11
12.716700
21
469.821000
0
LINE
8
Layer 1
10
12.716700
20
469.821000
11
12.808200
21
469.860900
0
LINE
8
Layer 1
10
12.808200
20
469.860900
11
12.901000
21
469.897800
0
LINE
8
Layer 1
10
12.901000
20
469.897800
11
12.994900
21
469.931700
0
LINE
8
Layer 1
10
12.994900
20
469.931700
11
13.089900
21
469.962500
0
LINE
8
Layer 1
10
13.089900
20
469.962500
11
13.185800
21
469.990300
0
LINE
8
Layer 1
10
13.185800
20
469.990300
11
13.282600
21
470.015000
0
LINE
8
Layer 1
10
13.282600
20
470.015000
11
13.380100
21
470.036600
0
LINE
8
Layer 1
10
13.380100
20
470.036600
11
13.478200
21
470.055000
0
LINE
8
Layer 1
10
13.478200
20
470.055000
11
13.576900
21
470.070200
0
LINE
8
Layer 1
10
13.576900
20
470.070200
11
13.676000
21
470.082200
0
LINE
8
Layer 1
10
13.676000
20
470.082200
11
13.775500
21
470.091100
0
LINE
8
Layer 1
10
13.775500
20
470.091100
11
13.875200
21
470.096700
0
LINE
8
Layer 1
10
13.875200
20
470.096700
11
13.975000
21
470.099100
0
LINE
8
Layer 1
10
13.975000
20
470.099100
11
14.074900
21
470.098300
0
LINE
8
Layer 1
10
14.074900
20
470.098300
11
14.174700
21
470.094300
0
LINE
8
Layer 1
10
14.174700
20
470.094300
11
14.274300
21
470.087000
0
LINE
8
Layer 1
10
14.274300
20
470.087000
11
14.373600
21
470.076600
0
LINE
8
Layer 1
10
14.373600
20
470.076600
11
14.472500
21
470.063000
0
LINE
8
Layer 1
10
14.472500
20
470.063000
11
14.570900
21
470.046200
0
LINE
8
Layer 1
10
14.570900
20
470.046200
11
14.668800
21
470.026200
0
LINE
8
Layer 1
10
14.668800
20
470.026200
11
14.765900
21
470.003100
0
LINE
8
Layer 1
10
14.765900
20
470.003100
11
14.862200
21
469.976800
0
LINE
8
Layer 1
10
14.862200
20
469.976800
11
14.957700
21
469.947500
0
LINE
8
Layer 1
10
14.957700
20
469.947500
11
15.052400
21
469.915800
0
LINE
8
Layer 1
10
15.052400
20
469.915800
11
15.145500
21
469.879700
0
LINE
8
Layer 1
10
15.145500
20
469.879700
11
15.237700
21
469.841300
0
LINE
8
Layer 1
10
15.237700
20
469.841300
11
15.328700
21
469.800200
0
LINE
8
Layer 1
10
15.328700
20
469.800200
11
15.418200
21
469.755700
0
LINE
8
Layer 1
10
15.418200
20
469.755700
11
15.506500
21
469.709200
0
LINE
8
Layer 1
10
15.506500
20
469.709200
11
15.592600
21
469.658700
0
LINE
8
Layer 1
10
15.592600
20
469.658700
11
15.677900
21
469.606600
0
LINE
8
Layer 1
10
15.677900
20
469.606600
11
15.760500
21
469.550600
0
LINE
8
Layer 1
10
15.760500
20
469.550600
11
15.841800
21
469.492500
0
LINE
8
Layer 1
10
15.841800
20
469.492500
11
15.921100
21
469.431900
0
LINE
8
Layer 1
10
15.921100
20
469.431900
11
15.998500
21
469.368800
0
LINE
8
Layer 1
10
15.998500
20
469.368800
11
16.074100
21
469.303500
0
LINE
8
Layer 1
10
16.074100
20
469.303500
11
16.146900
21
469.235100
0
LINE
8
Layer 1
10
16.146900
20
469.235100
11
16.217800
21
469.164800
0
LINE
8
Layer 1
10
16.217800
20
469.164800
11
16.286400
21
469.092300
0
LINE
8
Layer 1
10
16.286400
20
469.092300
11
16.353100
21
469.018000
0
LINE
8
Layer 1
10
16.353100
20
469.018000
11
16.416900
21
468.941100
0
LINE
8
Layer 1
10
16.416900
20
468.941100
11
16.478200
21
468.862300
0
LINE
8
Layer 1
10
16.478200
20
468.862300
11
16.536300
21
468.781000
0
LINE
8
Layer 1
10
16.536300
20
468.781000
11
16.593000
21
468.698800
0
LINE
8
Layer 1
10
16.593000
20
468.698800
11
16.646400
21
468.614400
0
LINE
8
Layer 1
10
16.646400
20
468.614400
11
16.697000
21
468.528300
0
LINE
8
Layer 1
10
16.697000
20
468.528300
11
16.744800
21
468.440600
0
LINE
8
Layer 1
10
16.744800
20
468.440600
11
16.789800
21
468.351400
0
LINE
8
Layer 1
10
16.789800
20
468.351400
11
16.831900
21
468.260800
0
LINE
8
Layer 1
10
16.831900
20
468.260800
11
16.871100
21
468.169000
0
LINE
8
Layer 1
10
16.871100
20
468.169000
11
16.906600
21
468.075600
0
LINE
8
Layer 1
10
16.906600
20
468.075600
11
16.940400
21
467.981600
0
LINE
8
Layer 1
10
16.940400
20
467.981600
11
16.970500
21
467.886400
0
LINE
8
Layer 1
10
16.970500
20
467.886400
11
16.997500
21
467.790300
0
LINE
8
Layer 1
10
16.997500
20
467.790300
11
17.021400
21
467.693300
0
LINE
8
Layer 1
10
17.021400
20
467.693300
11
17.042200
21
467.595600
0
LINE
8
Layer 1
10
17.042200
20
467.595600
11
17.059800
21
467.497300
0
LINE
8
Layer 1
10
17.059800
20
467.497300
11
17.074200
21
467.398400
0
LINE
8
Layer 1
10
17.074200
20
467.398400
11
17.085400
21
467.299200
0
LINE
8
Layer 1
10
17.085400
20
467.299200
11
17.093500
21
467.199600
0
LINE
8
Layer 1
10
17.093500
20
467.199600
11
17.098300
21
467.099900
0
LINE
8
Layer 1
10
17.098300
20
467.099900
11
17.099900
21
467.000000
0
LINE
8
Layer 1
10
17.099900
20
467.000000
11
17.098300
21
466.900100
0
LINE
8
Layer 1
10
17.098300
20
466.900100
11
17.093500
21
466.800400
0
LINE
8
Layer 1
10
17.093500
20
466.800400
11
17.085400
21
466.700800
0
LINE
8
Layer 1
10
17.085400
20
466.700800
11
17.074200
21
466.601600
0
LINE
8
Layer 1
10
17.074200
20
466.601600
11
17.059800
21
466.502700
0
LINE
8
Layer 1
10
17.059800
20
466.502700
11
17.042200
21
466.404400
0
LINE
8
Layer 1
10
17.042200
20
466.404400
11
17.021400
21
466.306700
0
LINE
8
Layer 1
10
17.021400
20
466.306700
11
16.997500
21
466.209700
0
LINE
8
Layer 1
10
16.997500
20
466.209700
11
16.970500
21
466.113600
0
LINE
8
Layer 1
10
16.970500
20
466.113600
11
16.940400
21
466.018400
0
LINE
8
Layer 1
10
16.940400
20
466.018400
11
16.907200
21
465.924100
0
LINE
8
Layer 1
10
16.907200
20
465.924100
11
16.871100
21
465.831000
0
LINE
8
Layer 1
10
16.871100
20
465.831000
11
16.831900
21
465.739200
0
LINE
8
Layer 1
10
16.831900
20
465.739200
11
16.789800
21
465.648600
0
LINE
8
Layer 1
10
16.789800
20
465.648600
11
16.744800
21
465.559400
0
LINE
8
Layer 1
10
16.744800
20
465.559400
11
16.697000
21
465.471700
0
LINE
8
Layer 1
10
16.697000
20
465.471700
11
16.646400
21
465.385600
0
LINE
8
Layer 1
10
16.646400
20
465.385600
11
16.593000
21
465.301200
0
LINE
8
Layer 1
10
16.593000
20
465.301200
11
16.536900
21
465.218600
0
LINE
8
Layer 1
10
16.536900
20
465.218600
11
16.478200
21
465.137700
0
LINE
8
Layer 1
10
16.478200
20
465.137700
11
16.416900
21
465.058900
0
LINE
8
Layer 1
10
16.416900
20
465.058900
11
16.353100
21
464.982000
0
LINE
8
Layer 1
10
16.353100
20
464.982000
11
16.286900
21
464.907300
0
LINE
8
Layer 1
10
16.286900
20
464.907300
11
16.218300
21
464.834700
0
LINE
8
Layer 1
10
16.218300
20
464.834700
11
16.147400
21
464.764300
0
LINE
8
Layer 1
10
16.147400
20
464.764300
11
16.074200
21
464.696300
0
LINE
8
Layer 1
10
16.074200
20
464.696300
11
15.999000
21
464.630700
0
LINE
8
Layer 1
10
15.999000
20
464.630700
11
15.921600
21
464.567500
0
LINE
8
Layer 1
10
15.921600
20
464.567500
11
15.842200
21
464.506900
0
LINE
8
Layer 1
10
15.842200
20
464.506900
11
15.761000
21
464.448800
0
LINE
8
Layer 1
10
15.761000
20
464.448800
11
15.677900
21
464.393400
0
LINE
8
Layer 1
10
15.677900
20
464.393400
11
15.593000
21
464.340700
0
LINE
8
Layer 1
10
15.593000
20
464.340700
11
15.506500
21
464.290800
0
LINE
8
Layer 1
10
15.506500
20
464.290800
11
15.418400
21
464.243600
0
LINE
8
Layer 1
10
15.418400
20
464.243600
11
15.328900
21
464.199400
0
LINE
8
Layer 1
10
15.328900
20
464.199400
11
15.238000
21
464.158000
0
LINE
8
Layer 1
10
15.238000
20
464.158000
11
15.145800
21
464.119600
0
LINE
8
Layer 1
10
15.145800
20
464.119600
11
15.052400
21
464.084200
0
LINE
8
Layer 1
10
15.052400
20
464.084200
11
14.957900
21
464.051800
0
LINE
8
Layer 1
10
14.957900
20
464.051800
11
14.862500
21
464.022500
0
LINE
8
Layer 1
10
14.862500
20
464.022500
11
14.766100
21
463.996200
0
LINE
8
Layer 1
10
14.766100
20
463.996200
11
14.668900
21
463.973100
0
LINE
8
Layer 1
10
14.668900
20
463.973100
11
14.571100
21
463.953100
0
LINE
8
Layer 1
10
14.571100
20
463.953100
11
14.472600
21
463.936300
0
LINE
8
Layer 1
10
14.472600
20
463.936300
11
14.373700
21
463.922700
0
LINE
8
Layer 1
10
14.373700
20
463.922700
11
14.274300
21
463.912200
0
LINE
8
Layer 1
10
14.274300
20
463.912200
11
14.174700
21
463.905000
0
LINE
8
Layer 1
10
14.174700
20
463.905000
11
14.074900
21
463.901000
0
LINE
8
Layer 1
10
14.074900
20
463.901000
11
13.975000
21
463.900200
0
LINE
8
Layer 1
10
13.975000
20
463.900200
11
13.875200
21
463.902600
0
LINE
8
Layer 1
10
49.850400
20
460.454440
11
49.751300
21
460.463240
0
LINE
8
Layer 1
10
49.751300
20
460.463240
11
49.653000
21
460.476370
0
LINE
8
Layer 1
10
49.653000
20
460.476370
11
49.554800
21
460.493920
0
LINE
8
Layer 1
10
49.554800
20
460.493920
11
49.457400
21
460.515860
0
LINE
8
Layer 1
10
49.457400
20
460.515860
11
49.361400
21
460.541970
0
LINE
8
Layer 1
10
49.361400
20
460.541970
11
49.338700
21
460.549230
0
LINE
8
Layer 1
10
49.338700
20
460.549230
11
49.266600
21
460.572330
0
LINE
8
Layer 1
10
49.266600
20
460.572330
11
49.182100
21
460.603550
0
LINE
8
Layer 1
10
49.182100
20
460.603550
11
49.173500
21
460.606720
0
LINE
8
Layer 1
10
49.173500
20
460.606720
11
49.081300
21
460.645520
0
LINE
8
Layer 1
10
49.081300
20
460.645520
11
49.031800
21
460.668950
0
LINE
8
Layer 1
10
49.031800
20
460.668950
11
48.991700
21
460.687960
0
LINE
8
Layer 1
10
48.991700
20
460.687960
11
48.903600
21
460.734580
0
LINE
8
Layer 1
10
48.903600
20
460.734580
11
48.817400
21
460.785190
0
LINE
8
Layer 1
10
48.817400
20
460.785190
11
48.817000
21
460.785460
0
LINE
8
Layer 1
10
48.817000
20
460.785460
11
48.734000
21
460.839310
0
LINE
8
Layer 1
10
48.734000
20
460.839310
11
48.653200
21
460.896920
0
LINE
8
Layer 1
10
48.653200
20
460.896920
11
48.574400
21
460.958550
0
LINE
8
Layer 1
10
48.574400
20
460.958550
11
48.573600
21
460.959280
0
LINE
8
Layer 1
10
48.573600
20
460.959280
11
48.498800
21
461.023250
0
LINE
8
Layer 1
10
48.498800
20
461.023250
11
48.433400
21
461.084490
0
LINE
8
Layer 1
10
48.433400
20
461.084490
11
48.426400
21
461.091040
0
LINE
8
Layer 1
10
48.426400
20
461.091040
11
48.356700
21
461.162300
0
LINE
8
Layer 1
10
48.356700
20
461.162300
11
48.290100
21
461.236760
0
LINE
8
Layer 1
10
48.290100
20
461.236760
11
48.227300
21
461.313470
0
LINE
8
Layer 1
10
48.227300
20
461.313470
11
48.167400
21
461.393610
0
LINE
8
Layer 1
10
48.167400
20
461.393610
11
48.111700
21
461.475560
0
LINE
8
Layer 1
10
48.111700
20
461.475560
11
48.059200
21
461.560680
0
LINE
8
Layer 1
10
48.059200
20
461.560680
11
48.010700
21
461.647510
0
LINE
8
Layer 1
10
48.010700
20
461.647510
11
47.966200
21
461.736260
0
LINE
8
Layer 1
10
47.966200
20
461.736260
11
47.925400
21
461.827590
0
LINE
8
Layer 1
10
47.925400
20
461.827590
11
47.889000
21
461.919780
0
LINE
8
Layer 1
10
47.889000
20
461.919780
11
47.856500
21
462.014020
0
LINE
8
Layer 1
10
47.856500
20
462.014020
11
47.828300
21
462.109500
0
LINE
8
Layer 1
10
47.828300
20
462.109500
11
47.804200
21
462.206470
0
LINE
8
Layer 1
10
47.804200
20
462.206470
11
47.803800
21
462.208590
0
LINE
8
Layer 1
10
47.803800
20
462.208590
11
47.784600
21
462.303970
0
LINE
8
Layer 1
10
47.784600
20
462.303970
11
47.769300
21
462.402020
0
LINE
8
Layer 1
10
47.769300
20
462.402020
11
47.758200
21
462.501440
0
LINE
8
Layer 1
10
47.758200
20
462.501440
11
47.751700
21
462.600340
0
LINE
8
Layer 1
10
47.751700
20
462.600340
11
47.749500
21
462.700350
0
LINE
8
Layer 1
10
47.749500
20
462.700350
11
47.751600
21
462.799460
0
LINE
8
Layer 1
10
47.751600
20
462.799460
11
47.758300
21
462.898900
0
LINE
8
Layer 1
10
47.758300
20
462.898900
11
47.769300
21
462.998210
0
LINE
8
Layer 1
10
47.769300
20
462.998210
11
47.784600
21
463.096200
0
LINE
8
Layer 1
10
47.784600
20
463.096200
11
47.804400
21
463.194200
0
LINE
8
Layer 1
10
47.804400
20
463.194200
11
47.828400
21
463.290700
0
LINE
8
Layer 1
10
47.828400
20
463.290700
11
47.834500
21
463.311300
0
LINE
8
Layer 1
10
47.834500
20
463.311300
11
47.856600
21
463.386300
0
LINE
8
Layer 1
10
47.856600
20
463.386300
11
47.880900
21
463.456500
0
LINE
8
Layer 1
10
47.880900
20
463.456500
11
47.889000
21
463.480000
0
LINE
8
Layer 1
10
47.889000
20
463.480000
11
47.925600
21
463.572700
0
LINE
8
Layer 1
10
47.925600
20
463.572700
11
47.966400
21
463.663900
0
LINE
8
Layer 1
10
47.966400
20
463.663900
11
48.010800
21
463.752600
0
LINE
8
Layer 1
10
48.010800
20
463.752600
11
48.059500
21
463.839900
0
LINE
8
Layer 1
10
48.059500
20
463.839900
11
48.111600
21
463.924300
0
LINE
8
Layer 1
10
48.111600
20
463.924300
11
48.167800
21
464.006900
0
LINE
8
Layer 1
10
48.167800
20
464.006900
11
48.169900
21
464.009700
0
LINE
8
Layer 1
10
48.169900
20
464.009700
11
48.227300
21
464.086600
0
LINE
8
Layer 1
10
48.227300
20
464.086600
11
48.290200
21
464.163400
0
LINE
8
Layer 1
10
48.290200
20
464.163400
11
48.356900
21
464.237900
0
LINE
8
Layer 1
10
48.356900
20
464.237900
11
48.426200
21
464.308800
0
LINE
8
Layer 1
10
48.426200
20
464.308800
11
48.499000
21
464.376900
0
LINE
8
Layer 1
10
48.499000
20
464.376900
11
48.574700
21
464.441700
0
LINE
8
Layer 1
10
48.574700
20
464.441700
11
48.653400
21
464.503200
0
LINE
8
Layer 1
10
48.653400
20
464.503200
11
48.734100
21
464.560800
0
LINE
8
Layer 1
10
48.734100
20
464.560800
11
48.818000
21
464.615200
0
LINE
8
Layer 1
10
48.818000
20
464.615200
11
48.821600
21
464.617300
0
LINE
8
Layer 1
10
48.821600
20
464.617300
11
48.903800
21
464.665500
0
LINE
8
Layer 1
10
48.903800
20
464.665500
11
48.989500
21
464.710900
0
LINE
8
Layer 1
10
48.989500
20
464.710900
11
48.991500
21
464.711900
0
LINE
8
Layer 1
10
48.991500
20
464.711900
11
49.081900
21
464.754800
0
LINE
8
Layer 1
10
49.081900
20
464.754800
11
49.173300
21
464.793200
0
LINE
8
Layer 1
10
49.173300
20
464.793200
11
49.266800
21
464.827800
0
LINE
8
Layer 1
10
49.266800
20
464.827800
11
49.361900
21
464.858200
0
LINE
8
Layer 1
10
49.361900
20
464.858200
11
49.457600
21
464.884200
0
LINE
8
Layer 1
10
49.457600
20
464.884200
11
49.555200
21
464.906100
0
LINE
8
Layer 1
10
49.555200
20
464.906100
11
49.595400
21
464.913300
0
LINE
8
Layer 1
10
49.595400
20
464.913300
11
49.652800
21
464.923600
0
LINE
8
Layer 1
10
49.652800
20
464.923600
11
49.751900
21
464.936800
0
LINE
8
Layer 1
10
49.751900
20
464.936800
11
49.850600
21
464.945600
0
LINE
8
Layer 1
10
49.850600
20
464.945600
11
49.950600
21
464.950000
0
LINE
8
Layer 1
10
49.950600
20
464.950000
11
50.049700
21
464.950000
0
LINE
8
Layer 1
10
50.049700
20
464.950000
11
50.149300
21
464.945600
0
LINE
8
Layer 1
10
50.149300
20
464.945600
11
50.248800
21
464.936700
0
LINE
8
Layer 1
10
50.248800
20
464.936700
11
50.347000
21
464.923600
0
LINE
8
Layer 1
10
50.347000
20
464.923600
11
50.445200
21
464.906100
0
LINE
8
Layer 1
10
50.445200
20
464.906100
11
50.542600
21
464.884100
0
LINE
8
Layer 1
10
50.542600
20
464.884100
11
50.638600
21
464.858000
0
LINE
8
Layer 1
10
50.638600
20
464.858000
11
50.733100
21
464.827800
0
LINE
8
Layer 1
10
50.733100
20
464.827800
11
50.826600
21
464.793200
0
LINE
8
Layer 1
10
50.826600
20
464.793200
11
50.918700
21
464.754500
0
LINE
8
Layer 1
10
50.918700
20
464.754500
11
50.948100
21
464.740600
0
LINE
8
Layer 1
10
50.948100
20
464.740600
11
51.008300
21
464.712000
0
LINE
8
Layer 1
10
51.008300
20
464.712000
11
51.096400
21
464.665400
0
LINE
8
Layer 1
10
51.096400
20
464.665400
11
51.182600
21
464.614800
0
LINE
8
Layer 1
10
51.182600
20
464.614800
11
51.188900
21
464.610700
0
LINE
8
Layer 1
10
51.188900
20
464.610700
11
51.265700
21
464.560900
0
LINE
8
Layer 1
10
51.265700
20
464.560900
11
51.347200
21
464.502800
0
LINE
8
Layer 1
10
51.347200
20
464.502800
11
51.425500
21
464.441500
0
LINE
8
Layer 1
10
51.425500
20
464.441500
11
51.498700
21
464.378900
0
LINE
8
Layer 1
10
51.498700
20
464.378900
11
51.500900
21
464.377000
0
LINE
8
Layer 1
10
51.500900
20
464.377000
11
51.573900
21
464.308600
0
LINE
8
Layer 1
10
51.573900
20
464.308600
11
51.643200
21
464.237800
0
LINE
8
Layer 1
10
51.643200
20
464.237800
11
51.709700
21
464.163500
0
LINE
8
Layer 1
10
51.709700
20
464.163500
11
51.773000
21
464.086200
0
LINE
8
Layer 1
10
51.773000
20
464.086200
11
51.832300
21
464.006800
0
LINE
8
Layer 1
10
51.832300
20
464.006800
11
51.888500
21
463.924100
0
LINE
8
Layer 1
10
51.888500
20
463.924100
11
51.940600
21
463.839700
0
LINE
8
Layer 1
10
51.940600
20
463.839700
11
51.989300
21
463.752400
0
LINE
8
Layer 1
10
51.989300
20
463.752400
11
52.033800
21
463.663700
0
LINE
8
Layer 1
10
52.033800
20
463.663700
11
52.074600
21
463.572400
0
LINE
8
Layer 1
10
52.074600
20
463.572400
11
52.111000
21
463.480200
0
LINE
8
Layer 1
10
52.111000
20
463.480200
11
52.143500
21
463.386000
0
LINE
8
Layer 1
10
52.143500
20
463.386000
11
52.171700
21
463.290500
0
LINE
8
Layer 1
10
52.171700
20
463.290500
11
52.195800
21
463.193500
0
LINE
8
Layer 1
10
52.195800
20
463.193500
11
52.196200
21
463.191400
0
LINE
8
Layer 1
10
52.196200
20
463.191400
11
52.215400
21
463.096000
0
LINE
8
Layer 1
10
52.215400
20
463.096000
11
52.230700
21
462.997980
0
LINE
8
Layer 1
10
52.230700
20
462.997980
11
52.241800
21
462.898560
0
LINE
8
Layer 1
10
52.241800
20
462.898560
11
52.248300
21
462.799660
0
LINE
8
Layer 1
10
52.248300
20
462.799660
11
52.250500
21
462.699650
0
LINE
8
Layer 1
10
52.250500
20
462.699650
11
52.248400
21
462.600540
0
LINE
8
Layer 1
10
52.248400
20
462.600540
11
52.241700
21
462.500750
0
LINE
8
Layer 1
10
52.241700
20
462.500750
11
52.230800
21
462.402250
0
LINE
8
Layer 1
10
52.230800
20
462.402250
11
52.215300
21
462.303410
0
LINE
8
Layer 1
10
52.215300
20
462.303410
11
52.195700
21
462.206250
0
LINE
8
Layer 1
10
52.195700
20
462.206250
11
52.171700
21
462.109500
0
LINE
8
Layer 1
10
52.171700
20
462.109500
11
52.143300
21
462.013690
0
LINE
8
Layer 1
10
52.143300
20
462.013690
11
52.111000
21
461.919970
0
LINE
8
Layer 1
10
52.111000
20
461.919970
11
52.074300
21
461.826950
0
LINE
8
Layer 1
10
52.074300
20
461.826950
11
52.033700
21
461.736150
0
LINE
8
Layer 1
10
52.033700
20
461.736150
11
52.000600
21
461.670100
0
LINE
8
Layer 1
10
52.000600
20
461.670100
11
51.989200
21
461.647410
0
LINE
8
Layer 1
10
51.989200
20
461.647410
11
51.940500
21
461.560090
0
LINE
8
Layer 1
10
51.940500
20
461.560090
11
51.888400
21
461.475750
0
LINE
8
Layer 1
10
51.888400
20
461.475750
11
51.832200
21
461.393060
0
LINE
8
Layer 1
10
51.832200
20
461.393060
11
51.772800
21
461.313640
0
LINE
8
Layer 1
10
51.772800
20
461.313640
11
51.709500
21
461.236260
0
LINE
8
Layer 1
10
51.709500
20
461.236260
11
51.643400
21
461.162380
0
LINE
8
Layer 1
10
51.643400
20
461.162380
11
51.573400
21
461.090890
0
LINE
8
Layer 1
10
51.573400
20
461.090890
11
51.501100
21
461.023160
0
LINE
8
Layer 1
10
51.501100
20
461.023160
11
51.425100
21
460.958130
0
LINE
8
Layer 1
10
51.425100
20
460.958130
11
51.370000
21
460.915050
0
LINE
8
Layer 1
10
51.370000
20
460.915050
11
51.347000
21
460.897050
0
LINE
8
Layer 1
10
51.347000
20
460.897050
11
51.265500
21
460.838990
0
LINE
8
Layer 1
10
51.265500
20
460.838990
11
51.182400
21
460.785070
0
LINE
8
Layer 1
10
51.182400
20
460.785070
11
51.096100
21
460.734420
0
LINE
8
Layer 1
10
51.096100
20
460.734420
11
51.095400
21
460.734050
0
LINE
8
Layer 1
10
51.095400
20
460.734050
11
51.008200
21
460.687900
0
LINE
8
Layer 1
10
51.008200
20
460.687900
11
50.918500
21
460.645420
0
LINE
8
Layer 1
10
50.918500
20
460.645420
11
50.826300
21
460.606640
0
LINE
8
Layer 1
10
50.826300
20
460.606640
11
50.733000
21
460.572180
0
LINE
8
Layer 1
10
50.733000
20
460.572180
11
50.640200
21
460.542480
0
LINE
8
Layer 1
10
50.640200
20
460.542480
11
50.638500
21
460.541930
0
LINE
8
Layer 1
10
50.638500
20
460.541930
11
50.542300
21
460.515770
0
LINE
8
Layer 1
10
50.542300
20
460.515770
11
50.444800
21
460.493860
0
LINE
8
Layer 1
10
50.444800
20
460.493860
11
50.347300
21
460.476400
0
LINE
8
Layer 1
10
50.347300
20
460.476400
11
50.248100
21
460.463170
0
LINE
8
Layer 1
10
50.248100
20
460.463170
11
50.247800
21
460.463140
0
LINE
8
Layer 1
10
50.247800
20
460.463140
11
50.149000
21
460.454400
0
LINE
8
Layer 1
10
50.149000
20
460.454400
11
50.049900
21
460.450010
0
LINE
8
Layer 1
10
50.049900
20
460.450010
11
49.950200
21
460.450000
0
LINE
8
Layer 1
10
49.950200
20
460.450000
11
49.850400
21
460.454440
0
LINE
8
Layer 1
10
338.550000
20
460.454440
11
338.451000
21
460.463240
0
LINE
8
Layer 1
10
338.451000
20
460.463240
11
338.353000
21
460.476370
0
LINE
8
Layer 1
10
338.353000
20
460.476370
11
338.255000
21
460.493920
0
LINE
8
Layer 1
10
338.255000
20
460.493920
11
338.157000
21
460.515850
0
LINE
8
Layer 1
10
338.157000
20
460.515850
11
338.152000
21
460.517370
0
LINE
8
Layer 1
10
338.152000
20
460.517370
11
338.062000
21
460.541930
0
LINE
8
Layer 1
10
338.062000
20
460.541930
11
338.008000
21
460.559210
0
LINE
8
Layer 1
10
338.008000
20
460.559210
11
337.967000
21
460.572270
0
LINE
8
Layer 1
10
337.967000
20
460.572270
11
337.874000
21
460.606720
0
LINE
8
Layer 1
10
337.874000
20
460.606720
11
337.781000
21
460.645520
0
LINE
8
Layer 1
10
337.781000
20
460.645520
11
337.692000
21
460.688010
0
LINE
8
Layer 1
10
337.692000
20
460.688010
11
337.604000
21
460.734580
0
LINE
8
Layer 1
10
337.604000
20
460.734580
11
337.518000
21
460.785100
0
LINE
8
Layer 1
10
337.518000
20
460.785100
11
337.494000
21
460.800390
0
LINE
8
Layer 1
10
337.494000
20
460.800390
11
337.434000
21
460.839370
0
LINE
8
Layer 1
10
337.434000
20
460.839370
11
337.353000
21
460.896940
0
LINE
8
Layer 1
10
337.353000
20
460.896940
11
337.275000
21
460.958450
0
LINE
8
Layer 1
10
337.275000
20
460.958450
11
337.252000
21
460.977350
0
LINE
8
Layer 1
10
337.252000
20
460.977350
11
337.199000
21
461.023290
0
LINE
8
Layer 1
10
337.199000
20
461.023290
11
337.126000
21
461.091040
0
LINE
8
Layer 1
10
337.126000
20
461.091040
11
337.057000
21
461.162300
0
LINE
8
Layer 1
10
337.057000
20
461.162300
11
336.990000
21
461.236760
0
LINE
8
Layer 1
10
336.990000
20
461.236760
11
336.927000
21
461.313550
0
LINE
8
Layer 1
10
336.927000
20
461.313550
11
336.867000
21
461.393610
0
LINE
8
Layer 1
10
336.867000
20
461.393610
11
336.812000
21
461.475620
0
LINE
8
Layer 1
10
336.812000
20
461.475620
11
336.759000
21
461.560440
0
LINE
8
Layer 1
10
336.759000
20
461.560440
11
336.736000
21
461.603070
0
LINE
8
Layer 1
10
336.736000
20
461.603070
11
336.711000
21
461.647510
0
LINE
8
Layer 1
10
336.711000
20
461.647510
11
336.666000
21
461.736260
0
LINE
8
Layer 1
10
336.666000
20
461.736260
11
336.625000
21
461.827590
0
LINE
8
Layer 1
10
336.625000
20
461.827590
11
336.589000
21
461.919880
0
LINE
8
Layer 1
10
336.589000
20
461.919880
11
336.557000
21
462.014020
0
LINE
8
Layer 1
10
336.557000
20
462.014020
11
336.528000
21
462.109500
0
LINE
8
Layer 1
10
336.528000
20
462.109500
11
336.504000
21
462.206480
0
LINE
8
Layer 1
10
336.504000
20
462.206480
11
336.485000
21
462.303640
0
LINE
8
Layer 1
10
336.485000
20
462.303640
11
336.469000
21
462.402020
0
LINE
8
Layer 1
10
336.469000
20
462.402020
11
336.458000
21
462.501270
0
LINE
8
Layer 1
10
336.458000
20
462.501270
11
336.455000
21
462.550230
0
LINE
8
Layer 1
10
336.455000
20
462.550230
11
336.452000
21
462.600450
0
LINE
8
Layer 1
10
336.452000
20
462.600450
11
336.449000
21
462.700170
0
LINE
8
Layer 1
10
336.449000
20
462.700170
11
336.452000
21
462.799430
0
LINE
8
Layer 1
10
336.452000
20
462.799430
11
336.458000
21
462.898900
0
LINE
8
Layer 1
10
336.458000
20
462.898900
11
336.469000
21
462.998210
0
LINE
8
Layer 1
10
336.469000
20
462.998210
11
336.485000
21
463.096300
0
LINE
8
Layer 1
10
336.485000
20
463.096300
11
336.504000
21
463.194200
0
LINE
8
Layer 1
10
336.504000
20
463.194200
11
336.528000
21
463.290600
0
LINE
8
Layer 1
10
336.528000
20
463.290600
11
336.536000
21
463.317600
0
LINE
8
Layer 1
10
336.536000
20
463.317600
11
336.557000
21
463.386300
0
LINE
8
Layer 1
10
336.557000
20
463.386300
11
336.589000
21
463.480000
0
LINE
8
Layer 1
10
336.589000
20
463.480000
11
336.626000
21
463.572700
0
LINE
8
Layer 1
10
336.626000
20
463.572700
11
336.666000
21
463.663900
0
LINE
8
Layer 1
10
336.666000
20
463.663900
11
336.675000
21
463.681000
0
LINE
8
Layer 1
10
336.675000
20
463.681000
11
336.711000
21
463.752700
0
LINE
8
Layer 1
10
336.711000
20
463.752700
11
336.760000
21
463.839900
0
LINE
8
Layer 1
10
336.760000
20
463.839900
11
336.812000
21
463.924300
0
LINE
8
Layer 1
10
336.812000
20
463.924300
11
336.868000
21
464.007000
0
LINE
8
Layer 1
10
336.868000
20
464.007000
11
336.927000
21
464.086400
0
LINE
8
Layer 1
10
336.927000
20
464.086400
11
336.990000
21
464.163400
0
LINE
8
Layer 1
10
336.990000
20
464.163400
11
337.057000
21
464.237900
0
LINE
8
Layer 1
10
337.057000
20
464.237900
11
337.126000
21
464.308900
0
LINE
8
Layer 1
10
337.126000
20
464.308900
11
337.199000
21
464.376900
0
LINE
8
Layer 1
10
337.199000
20
464.376900
11
337.275000
21
464.441700
0
LINE
8
Layer 1
10
337.275000
20
464.441700
11
337.353000
21
464.503200
0
LINE
8
Layer 1
10
337.353000
20
464.503200
11
337.434000
21
464.560800
0
LINE
8
Layer 1
10
337.434000
20
464.560800
11
337.518000
21
464.615200
0
LINE
8
Layer 1
10
337.518000
20
464.615200
11
337.604000
21
464.665500
0
LINE
8
Layer 1
10
337.604000
20
464.665500
11
337.692000
21
464.711900
0
LINE
8
Layer 1
10
337.692000
20
464.711900
11
337.782000
21
464.754700
0
LINE
8
Layer 1
10
337.782000
20
464.754700
11
337.873000
21
464.793200
0
LINE
8
Layer 1
10
337.873000
20
464.793200
11
337.967000
21
464.827800
0
LINE
8
Layer 1
10
337.967000
20
464.827800
11
338.062000
21
464.858200
0
LINE
8
Layer 1
10
338.062000
20
464.858200
11
338.158000
21
464.884200
0
LINE
8
Layer 1
10
338.158000
20
464.884200
11
338.255000
21
464.906100
0
LINE
8
Layer 1
10
338.255000
20
464.906100
11
338.290000
21
464.912300
0
LINE
8
Layer 1
10
338.290000
20
464.912300
11
338.353000
21
464.923600
0
LINE
8
Layer 1
10
338.353000
20
464.923600
11
338.452000
21
464.936800
0
LINE
8
Layer 1
10
338.452000
20
464.936800
11
338.519000
21
464.942800
0
LINE
8
Layer 1
10
338.519000
20
464.942800
11
338.551000
21
464.945600
0
LINE
8
Layer 1
10
338.551000
20
464.945600
11
338.651000
21
464.950000
0
LINE
8
Layer 1
10
338.651000
20
464.950000
11
338.750000
21
464.950000
0
LINE
8
Layer 1
10
338.750000
20
464.950000
11
338.849000
21
464.945600
0
LINE
8
Layer 1
10
338.849000
20
464.945600
11
338.949000
21
464.936700
0
LINE
8
Layer 1
10
338.949000
20
464.936700
11
339.047000
21
464.923600
0
LINE
8
Layer 1
10
339.047000
20
464.923600
11
339.145000
21
464.906100
0
LINE
8
Layer 1
10
339.145000
20
464.906100
11
339.243000
21
464.884100
0
LINE
8
Layer 1
10
339.243000
20
464.884100
11
339.248000
21
464.882700
0
LINE
8
Layer 1
10
339.248000
20
464.882700
11
339.339000
21
464.858100
0
LINE
8
Layer 1
10
339.339000
20
464.858100
11
339.433000
21
464.827800
0
LINE
8
Layer 1
10
339.433000
20
464.827800
11
339.527000
21
464.793200
0
LINE
8
Layer 1
10
339.527000
20
464.793200
11
339.619000
21
464.754500
0
LINE
8
Layer 1
10
339.619000
20
464.754500
11
339.708000
21
464.712000
0
LINE
8
Layer 1
10
339.708000
20
464.712000
11
339.796000
21
464.665400
0
LINE
8
Layer 1
10
339.796000
20
464.665400
11
339.882000
21
464.614900
0
LINE
8
Layer 1
10
339.882000
20
464.614900
11
339.944000
21
464.575000
0
LINE
8
Layer 1
10
339.944000
20
464.575000
11
339.966000
21
464.560800
0
LINE
8
Layer 1
10
339.966000
20
464.560800
11
340.047000
21
464.502800
0
LINE
8
Layer 1
10
340.047000
20
464.502800
11
340.062000
21
464.491200
0
LINE
8
Layer 1
10
340.062000
20
464.491200
11
340.125000
21
464.441600
0
LINE
8
Layer 1
10
340.125000
20
464.441600
11
340.201000
21
464.377000
0
LINE
8
Layer 1
10
340.201000
20
464.377000
11
340.274000
21
464.308700
0
LINE
8
Layer 1
10
340.274000
20
464.308700
11
340.343000
21
464.237800
0
LINE
8
Layer 1
10
340.343000
20
464.237800
11
340.410000
21
464.163500
0
LINE
8
Layer 1
10
340.410000
20
464.163500
11
340.473000
21
464.086300
0
LINE
8
Layer 1
10
340.473000
20
464.086300
11
340.500000
21
464.049400
0
LINE
8
Layer 1
10
340.500000
20
464.049400
11
340.532000
21
464.006700
0
LINE
8
Layer 1
10
340.532000
20
464.006700
11
340.589000
21
463.924100
0
LINE
8
Layer 1
10
340.589000
20
463.924100
11
340.641000
21
463.839700
0
LINE
8
Layer 1
10
340.641000
20
463.839700
11
340.689000
21
463.752300
0
LINE
8
Layer 1
10
340.689000
20
463.752300
11
340.734000
21
463.663700
0
LINE
8
Layer 1
10
340.734000
20
463.663700
11
340.775000
21
463.572400
0
LINE
8
Layer 1
10
340.775000
20
463.572400
11
340.811000
21
463.480100
0
LINE
8
Layer 1
10
340.811000
20
463.480100
11
340.843000
21
463.386000
0
LINE
8
Layer 1
10
340.843000
20
463.386000
11
340.872000
21
463.290500
0
LINE
8
Layer 1
10
340.872000
20
463.290500
11
340.896000
21
463.193500
0
LINE
8
Layer 1
10
340.896000
20
463.193500
11
340.915000
21
463.096400
0
LINE
8
Layer 1
10
340.915000
20
463.096400
11
340.931000
21
462.997980
0
LINE
8
Layer 1
10
340.931000
20
462.997980
11
340.942000
21
462.898730
0
LINE
8
Layer 1
10
340.942000
20
462.898730
11
340.945000
21
462.849770
0
LINE
8
Layer 1
10
340.945000
20
462.849770
11
340.948000
21
462.799550
0
LINE
8
Layer 1
10
340.948000
20
462.799550
11
340.951000
21
462.699830
0
LINE
8
Layer 1
10
340.951000
20
462.699830
11
340.948000
21
462.600570
0
LINE
8
Layer 1
10
340.948000
20
462.600570
11
340.942000
21
462.500930
0
LINE
8
Layer 1
10
340.942000
20
462.500930
11
340.931000
21
462.402250
0
LINE
8
Layer 1
10
340.931000
20
462.402250
11
340.915000
21
462.303570
0
LINE
8
Layer 1
10
340.915000
20
462.303570
11
340.906000
21
462.256780
0
LINE
8
Layer 1
10
340.906000
20
462.256780
11
340.896000
21
462.206140
0
LINE
8
Layer 1
10
340.896000
20
462.206140
11
340.872000
21
462.109500
0
LINE
8
Layer 1
10
340.872000
20
462.109500
11
340.843000
21
462.013690
0
LINE
8
Layer 1
10
340.843000
20
462.013690
11
340.811000
21
461.919990
0
LINE
8
Layer 1
10
340.811000
20
461.919990
11
340.774000
21
461.826950
0
LINE
8
Layer 1
10
340.774000
20
461.826950
11
340.734000
21
461.736050
0
LINE
8
Layer 1
10
340.734000
20
461.736050
11
340.689000
21
461.647340
0
LINE
8
Layer 1
10
340.689000
20
461.647340
11
340.641000
21
461.560090
0
LINE
8
Layer 1
10
340.641000
20
461.560090
11
340.588000
21
461.475750
0
LINE
8
Layer 1
10
340.588000
20
461.475750
11
340.532000
21
461.393050
0
LINE
8
Layer 1
10
340.532000
20
461.393050
11
340.473000
21
461.313640
0
LINE
8
Layer 1
10
340.473000
20
461.313640
11
340.409000
21
461.236230
0
LINE
8
Layer 1
10
340.409000
20
461.236230
11
340.343000
21
461.162300
0
LINE
8
Layer 1
10
340.343000
20
461.162300
11
340.274000
21
461.090970
0
LINE
8
Layer 1
10
340.274000
20
461.090970
11
340.234000
21
461.053590
0
LINE
8
Layer 1
10
340.234000
20
461.053590
11
340.201000
21
461.023090
0
LINE
8
Layer 1
10
340.201000
20
461.023090
11
340.125000
21
460.958120
0
LINE
8
Layer 1
10
340.125000
20
460.958120
11
340.047000
21
460.897050
0
LINE
8
Layer 1
10
340.047000
20
460.897050
11
339.966000
21
460.838990
0
LINE
8
Layer 1
10
339.966000
20
460.838990
11
339.882000
21
460.785070
0
LINE
8
Layer 1
10
339.882000
20
460.785070
11
339.796000
21
460.734420
0
LINE
8
Layer 1
10
339.796000
20
460.734420
11
339.794000
21
460.733460
0
LINE
8
Layer 1
10
339.794000
20
460.733460
11
339.708000
21
460.687990
0
LINE
8
Layer 1
10
339.708000
20
460.687990
11
339.619000
21
460.645420
0
LINE
8
Layer 1
10
339.619000
20
460.645420
11
339.526000
21
460.606640
0
LINE
8
Layer 1
10
339.526000
20
460.606640
11
339.433000
21
460.572140
0
LINE
8
Layer 1
10
339.433000
20
460.572140
11
339.338000
21
460.541910
0
LINE
8
Layer 1
10
339.338000
20
460.541910
11
339.242000
21
460.515770
0
LINE
8
Layer 1
10
339.242000
20
460.515770
11
339.145000
21
460.493860
0
LINE
8
Layer 1
10
339.145000
20
460.493860
11
339.103000
21
460.486390
0
LINE
8
Layer 1
10
339.103000
20
460.486390
11
339.047000
21
460.476400
0
LINE
8
Layer 1
10
339.047000
20
460.476400
11
338.948000
21
460.463180
0
LINE
8
Layer 1
10
338.948000
20
460.463180
11
338.944000
21
460.462780
0
LINE
8
Layer 1
10
338.944000
20
460.462780
11
338.849000
21
460.454400
0
LINE
8
Layer 1
10
338.849000
20
460.454400
11
338.753000
21
460.450140
0
LINE
8
Layer 1
10
338.753000
20
460.450140
11
338.750000
21
460.450010
0
LINE
8
Layer 1
10
338.750000
20
460.450010
11
338.650000
21
460.450000
0
LINE
8
Layer 1
10
338.650000
20
460.450000
11
338.550000
21
460.454440
0
LINE
8
Layer 1
10
83.850400
20
460.454440
11
83.751300
21
460.463240
0
LINE
8
Layer 1
10
83.751300
20
460.463240
11
83.653000
21
460.476370
0
LINE
8
Layer 1
10
83.653000
20
460.476370
11
83.554800
21
460.493920
0
LINE
8
Layer 1
10
83.554800
20
460.493920
11
83.457400
21
460.515850
0
LINE
8
Layer 1
10
83.457400
20
460.515850
11
83.453200
21
460.516990
0
LINE
8
Layer 1
10
83.453200
20
460.516990
11
83.361400
21
460.541960
0
LINE
8
Layer 1
10
83.361400
20
460.541960
11
83.334700
21
460.550510
0
LINE
8
Layer 1
10
83.334700
20
460.550510
11
83.266600
21
460.572330
0
LINE
8
Layer 1
10
83.266600
20
460.572330
11
83.182000
21
460.603560
0
LINE
8
Layer 1
10
83.182000
20
460.603560
11
83.173500
21
460.606720
0
LINE
8
Layer 1
10
83.173500
20
460.606720
11
83.081300
21
460.645520
0
LINE
8
Layer 1
10
83.081300
20
460.645520
11
82.991700
21
460.687960
0
LINE
8
Layer 1
10
82.991700
20
460.687960
11
82.903600
21
460.734580
0
LINE
8
Layer 1
10
82.903600
20
460.734580
11
82.817400
21
460.785190
0
LINE
8
Layer 1
10
82.817400
20
460.785190
11
82.816900
21
460.785540
0
LINE
8
Layer 1
10
82.816900
20
460.785540
11
82.734000
21
460.839290
0
LINE
8
Layer 1
10
82.734000
20
460.839290
11
82.664800
21
460.888670
0
LINE
8
Layer 1
10
82.664800
20
460.888670
11
82.653200
21
460.896940
0
LINE
8
Layer 1
10
82.653200
20
460.896940
11
82.574400
21
460.958550
0
LINE
8
Layer 1
10
82.574400
20
460.958550
11
82.498800
21
461.023290
0
LINE
8
Layer 1
10
82.498800
20
461.023290
11
82.441800
21
461.076600
0
LINE
8
Layer 1
10
82.441800
20
461.076600
11
82.426400
21
461.091040
0
LINE
8
Layer 1
10
82.426400
20
461.091040
11
82.356700
21
461.162300
0
LINE
8
Layer 1
10
82.356700
20
461.162300
11
82.290100
21
461.236730
0
LINE
8
Layer 1
10
82.290100
20
461.236730
11
82.227300
21
461.313460
0
LINE
8
Layer 1
10
82.227300
20
461.313460
11
82.167400
21
461.393610
0
LINE
8
Layer 1
10
82.167400
20
461.393610
11
82.111600
21
461.475620
0
LINE
8
Layer 1
10
82.111600
20
461.475620
11
82.059200
21
461.560680
0
LINE
8
Layer 1
10
82.059200
20
461.560680
11
82.010700
21
461.647640
0
LINE
8
Layer 1
10
82.010700
20
461.647640
11
81.966200
21
461.736260
0
LINE
8
Layer 1
10
81.966200
20
461.736260
11
81.925400
21
461.827530
0
LINE
8
Layer 1
10
81.925400
20
461.827530
11
81.889000
21
461.919770
0
LINE
8
Layer 1
10
81.889000
20
461.919770
11
81.856500
21
462.014020
0
LINE
8
Layer 1
10
81.856500
20
462.014020
11
81.828300
21
462.109500
0
LINE
8
Layer 1
10
81.828300
20
462.109500
11
81.804200
21
462.206470
0
LINE
8
Layer 1
10
81.804200
20
462.206470
11
81.803800
21
462.208590
0
LINE
8
Layer 1
10
81.803800
20
462.208590
11
81.784600
21
462.303970
0
LINE
8
Layer 1
10
81.784600
20
462.303970
11
81.774100
21
462.371370
0
LINE
8
Layer 1
10
81.774100
20
462.371370
11
81.769300
21
462.402070
0
LINE
8
Layer 1
10
81.769300
20
462.402070
11
81.758200
21
462.501440
0
LINE
8
Layer 1
10
81.758200
20
462.501440
11
81.751700
21
462.600340
0
LINE
8
Layer 1
10
81.751700
20
462.600340
11
81.749500
21
462.700350
0
LINE
8
Layer 1
10
81.749500
20
462.700350
11
81.751600
21
462.799430
0
LINE
8
Layer 1
10
81.751600
20
462.799430
11
81.758300
21
462.898900
0
LINE
8
Layer 1
10
81.758300
20
462.898900
11
81.769300
21
462.998210
0
LINE
8
Layer 1
10
81.769300
20
462.998210
11
81.784600
21
463.096100
0
LINE
8
Layer 1
10
81.784600
20
463.096100
11
81.804400
21
463.194200
0
LINE
8
Layer 1
10
81.804400
20
463.194200
11
81.828400
21
463.290800
0
LINE
8
Layer 1
10
81.828400
20
463.290800
11
81.830900
21
463.299300
0
LINE
8
Layer 1
10
81.830900
20
463.299300
11
81.856600
21
463.386200
0
LINE
8
Layer 1
10
81.856600
20
463.386200
11
81.885600
21
463.470200
0
LINE
8
Layer 1
10
81.885600
20
463.470200
11
81.889000
21
463.480000
0
LINE
8
Layer 1
10
81.889000
20
463.480000
11
81.925600
21
463.572700
0
LINE
8
Layer 1
10
81.925600
20
463.572700
11
81.966300
21
463.663900
0
LINE
8
Layer 1
10
81.966300
20
463.663900
11
81.991200
21
463.713600
0
LINE
8
Layer 1
10
81.991200
20
463.713600
11
82.010800
21
463.752600
0
LINE
8
Layer 1
10
82.010800
20
463.752600
11
82.059500
21
463.839900
0
LINE
8
Layer 1
10
82.059500
20
463.839900
11
82.111600
21
463.924300
0
LINE
8
Layer 1
10
82.111600
20
463.924300
11
82.167800
21
464.006900
0
LINE
8
Layer 1
10
82.167800
20
464.006900
11
82.169500
21
464.009200
0
LINE
8
Layer 1
10
82.169500
20
464.009200
11
82.227400
21
464.086600
0
LINE
8
Layer 1
10
82.227400
20
464.086600
11
82.267200
21
464.135300
0
LINE
8
Layer 1
10
82.267200
20
464.135300
11
82.290200
21
464.163500
0
LINE
8
Layer 1
10
82.290200
20
464.163500
11
82.356900
21
464.237900
0
LINE
8
Layer 1
10
82.356900
20
464.237900
11
82.426300
21
464.308800
0
LINE
8
Layer 1
10
82.426300
20
464.308800
11
82.499000
21
464.376900
0
LINE
8
Layer 1
10
82.499000
20
464.376900
11
82.574700
21
464.441700
0
LINE
8
Layer 1
10
82.574700
20
464.441700
11
82.653400
21
464.503200
0
LINE
8
Layer 1
10
82.653400
20
464.503200
11
82.734100
21
464.560800
0
LINE
8
Layer 1
10
82.734100
20
464.560800
11
82.818000
21
464.615200
0
LINE
8
Layer 1
10
82.818000
20
464.615200
11
82.821700
21
464.617300
0
LINE
8
Layer 1
10
82.821700
20
464.617300
11
82.903800
21
464.665500
0
LINE
8
Layer 1
10
82.903800
20
464.665500
11
82.991500
21
464.711900
0
LINE
8
Layer 1
10
82.991500
20
464.711900
11
83.081900
21
464.754800
0
LINE
8
Layer 1
10
83.081900
20
464.754800
11
83.173300
21
464.793200
0
LINE
8
Layer 1
10
83.173300
20
464.793200
11
83.266800
21
464.827800
0
LINE
8
Layer 1
10
83.266800
20
464.827800
11
83.361900
21
464.858200
0
LINE
8
Layer 1
10
83.361900
20
464.858200
11
83.457600
21
464.884200
0
LINE
8
Layer 1
10
83.457600
20
464.884200
11
83.555200
21
464.906100
0
LINE
8
Layer 1
10
83.555200
20
464.906100
11
83.652800
21
464.923600
0
LINE
8
Layer 1
10
83.652800
20
464.923600
11
83.751600
21
464.936800
0
LINE
8
Layer 1
10
83.751600
20
464.936800
11
83.851100
21
464.945600
0
LINE
8
Layer 1
10
83.851100
20
464.945600
11
83.866200
21
464.946300
0
LINE
8
Layer 1
10
83.866200
20
464.946300
11
83.950100
21
464.950000
0
LINE
8
Layer 1
10
83.950100
20
464.950000
11
84.050100
21
464.950000
0
LINE
8
Layer 1
10
84.050100
20
464.950000
11
84.149100
21
464.945600
0
LINE
8
Layer 1
10
84.149100
20
464.945600
11
84.248400
21
464.936800
0
LINE
8
Layer 1
10
84.248400
20
464.936800
11
84.347500
21
464.923600
0
LINE
8
Layer 1
10
84.347500
20
464.923600
11
84.349800
21
464.923100
0
LINE
8
Layer 1
10
84.349800
20
464.923100
11
84.445400
21
464.906000
0
LINE
8
Layer 1
10
84.445400
20
464.906000
11
84.542000
21
464.884300
0
LINE
8
Layer 1
10
84.542000
20
464.884300
11
84.542200
21
464.884300
0
LINE
8
Layer 1
10
84.542200
20
464.884300
11
84.638700
21
464.858000
0
LINE
8
Layer 1
10
84.638700
20
464.858000
11
84.733100
21
464.827800
0
LINE
8
Layer 1
10
84.733100
20
464.827800
11
84.826900
21
464.793100
0
LINE
8
Layer 1
10
84.826900
20
464.793100
11
84.918300
21
464.754700
0
LINE
8
Layer 1
10
84.918300
20
464.754700
11
85.008400
21
464.712000
0
LINE
8
Layer 1
10
85.008400
20
464.712000
11
85.096400
21
464.665400
0
LINE
8
Layer 1
10
85.096400
20
464.665400
11
85.182600
21
464.614800
0
LINE
8
Layer 1
10
85.182600
20
464.614800
11
85.183000
21
464.614500
0
LINE
8
Layer 1
10
85.183000
20
464.614500
11
85.266000
21
464.560700
0
LINE
8
Layer 1
10
85.266000
20
464.560700
11
85.335200
21
464.511300
0
LINE
8
Layer 1
10
85.335200
20
464.511300
11
85.346800
21
464.503100
0
LINE
8
Layer 1
10
85.346800
20
464.503100
11
85.425600
21
464.441400
0
LINE
8
Layer 1
10
85.425600
20
464.441400
11
85.501200
21
464.376700
0
LINE
8
Layer 1
10
85.501200
20
464.376700
11
85.558200
21
464.323400
0
LINE
8
Layer 1
10
85.558200
20
464.323400
11
85.573600
21
464.309000
0
LINE
8
Layer 1
10
85.573600
20
464.309000
11
85.643500
21
464.237400
0
LINE
8
Layer 1
10
85.643500
20
464.237400
11
85.709800
21
464.163300
0
LINE
8
Layer 1
10
85.709800
20
464.163300
11
85.772700
21
464.086500
0
LINE
8
Layer 1
10
85.772700
20
464.086500
11
85.832400
21
464.006700
0
LINE
8
Layer 1
10
85.832400
20
464.006700
11
85.888500
21
463.924100
0
LINE
8
Layer 1
10
85.888500
20
463.924100
11
85.893100
21
463.916600
0
LINE
8
Layer 1
10
85.893100
20
463.916600
11
85.940800
21
463.839400
0
LINE
8
Layer 1
10
85.940800
20
463.839400
11
85.971900
21
463.783700
0
LINE
8
Layer 1
10
85.971900
20
463.783700
11
85.989200
21
463.752700
0
LINE
8
Layer 1
10
85.989200
20
463.752700
11
86.033900
21
463.663300
0
LINE
8
Layer 1
10
86.033900
20
463.663300
11
86.074400
21
463.572800
0
LINE
8
Layer 1
10
86.074400
20
463.572800
11
86.111100
21
463.479800
0
LINE
8
Layer 1
10
86.111100
20
463.479800
11
86.143400
21
463.386100
0
LINE
8
Layer 1
10
86.143400
20
463.386100
11
86.171700
21
463.290500
0
LINE
8
Layer 1
10
86.171700
20
463.290500
11
86.195800
21
463.193500
0
LINE
8
Layer 1
10
86.195800
20
463.193500
11
86.215400
21
463.096400
0
LINE
8
Layer 1
10
86.215400
20
463.096400
11
86.230800
21
462.997530
0
LINE
8
Layer 1
10
86.230800
20
462.997530
11
86.230800
21
462.997400
0
LINE
8
Layer 1
10
86.230800
20
462.997400
11
86.241700
21
462.898730
0
LINE
8
Layer 1
10
86.241700
20
462.898730
11
86.248300
21
462.800240
0
LINE
8
Layer 1
10
86.248300
20
462.800240
11
86.248300
21
462.799660
0
LINE
8
Layer 1
10
86.248300
20
462.799660
11
86.250500
21
462.699650
0
LINE
8
Layer 1
10
86.250500
20
462.699650
11
86.248400
21
462.600570
0
LINE
8
Layer 1
10
86.248400
20
462.600570
11
86.241700
21
462.500750
0
LINE
8
Layer 1
10
86.241700
20
462.500750
11
86.230800
21
462.402190
0
LINE
8
Layer 1
10
86.230800
20
462.402190
11
86.215300
21
462.303410
0
LINE
8
Layer 1
10
86.215300
20
462.303410
11
86.195700
21
462.206250
0
LINE
8
Layer 1
10
86.195700
20
462.206250
11
86.171700
21
462.109500
0
LINE
8
Layer 1
10
86.171700
20
462.109500
11
86.143300
21
462.013690
0
LINE
8
Layer 1
10
86.143300
20
462.013690
11
86.111000
21
461.919970
0
LINE
8
Layer 1
10
86.111000
20
461.919970
11
86.074300
21
461.827020
0
LINE
8
Layer 1
10
86.074300
20
461.827020
11
86.065300
21
461.806910
0
LINE
8
Layer 1
10
86.065300
20
461.806910
11
86.033700
21
461.736220
0
LINE
8
Layer 1
10
86.033700
20
461.736220
11
85.996600
21
461.662130
0
LINE
8
Layer 1
10
85.996600
20
461.662130
11
85.989200
21
461.647410
0
LINE
8
Layer 1
10
85.989200
20
461.647410
11
85.940500
21
461.560090
0
LINE
8
Layer 1
10
85.940500
20
461.560090
11
85.888400
21
461.475750
0
LINE
8
Layer 1
10
85.888400
20
461.475750
11
85.832200
21
461.393060
0
LINE
8
Layer 1
10
85.832200
20
461.393060
11
85.772900
21
461.313640
0
LINE
8
Layer 1
10
85.772900
20
461.313640
11
85.709500
21
461.236260
0
LINE
8
Layer 1
10
85.709500
20
461.236260
11
85.643400
21
461.162380
0
LINE
8
Layer 1
10
85.643400
20
461.162380
11
85.573400
21
461.090890
0
LINE
8
Layer 1
10
85.573400
20
461.090890
11
85.501100
21
461.023160
0
LINE
8
Layer 1
10
85.501100
20
461.023160
11
85.425000
21
460.958120
0
LINE
8
Layer 1
10
85.425000
20
460.958120
11
85.347000
21
460.897050
0
LINE
8
Layer 1
10
85.347000
20
460.897050
11
85.265500
21
460.838990
0
LINE
8
Layer 1
10
85.265500
20
460.838990
11
85.182300
21
460.785050
0
LINE
8
Layer 1
10
85.182300
20
460.785050
11
85.096100
21
460.734420
0
LINE
8
Layer 1
10
85.096100
20
460.734420
11
85.095200
21
460.733970
0
LINE
8
Layer 1
10
85.095200
20
460.733970
11
85.008200
21
460.687920
0
LINE
8
Layer 1
10
85.008200
20
460.687920
11
84.935400
21
460.653410
0
LINE
8
Layer 1
10
84.935400
20
460.653410
11
84.918500
21
460.645410
0
LINE
8
Layer 1
10
84.918500
20
460.645410
11
84.826300
21
460.606640
0
LINE
8
Layer 1
10
84.826300
20
460.606640
11
84.733000
21
460.572180
0
LINE
8
Layer 1
10
84.733000
20
460.572180
11
84.638500
21
460.541930
0
LINE
8
Layer 1
10
84.638500
20
460.541930
11
84.542300
21
460.515770
0
LINE
8
Layer 1
10
84.542300
20
460.515770
11
84.444800
21
460.493850
0
LINE
8
Layer 1
10
84.444800
20
460.493850
11
84.347300
21
460.476400
0
LINE
8
Layer 1
10
84.347300
20
460.476400
11
84.248100
21
460.463170
0
LINE
8
Layer 1
10
84.248100
20
460.463170
11
84.247800
21
460.463140
0
LINE
8
Layer 1
10
84.247800
20
460.463140
11
84.149000
21
460.454400
0
LINE
8
Layer 1
10
84.149000
20
460.454400
11
84.049900
21
460.450010
0
LINE
8
Layer 1
10
84.049900
20
460.450010
11
83.950200
21
460.450000
0
LINE
8
Layer 1
10
83.950200
20
460.450000
11
83.850400
21
460.454440
0
LINE
8
Layer 1
10
66.850400
20
460.454440
11
66.751300
21
460.463240
0
LINE
8
Layer 1
10
66.751300
20
460.463240
11
66.653000
21
460.476370
0
LINE
8
Layer 1
10
66.653000
20
460.476370
11
66.554800
21
460.493920
0
LINE
8
Layer 1
10
66.554800
20
460.493920
11
66.457400
21
460.515850
0
LINE
8
Layer 1
10
66.457400
20
460.515850
11
66.453200
21
460.516990
0
LINE
8
Layer 1
10
66.453200
20
460.516990
11
66.361400
21
460.541960
0
LINE
8
Layer 1
10
66.361400
20
460.541960
11
66.334700
21
460.550510
0
LINE
8
Layer 1
10
66.334700
20
460.550510
11
66.266600
21
460.572330
0
LINE
8
Layer 1
10
66.266600
20
460.572330
11
66.182000
21
460.603560
0
LINE
8
Layer 1
10
66.182000
20
460.603560
11
66.173500
21
460.606720
0
LINE
8
Layer 1
10
66.173500
20
460.606720
11
66.081300
21
460.645520
0
LINE
8
Layer 1
10
66.081300
20
460.645520
11
65.991700
21
460.687960
0
LINE
8
Layer 1
10
65.991700
20
460.687960
11
65.903600
21
460.734580
0
LINE
8
Layer 1
10
65.903600
20
460.734580
11
65.817400
21
460.785190
0
LINE
8
Layer 1
10
65.817400
20
460.785190
11
65.816900
21
460.785540
0
LINE
8
Layer 1
10
65.816900
20
460.785540
11
65.734000
21
460.839290
0
LINE
8
Layer 1
10
65.734000
20
460.839290
11
65.664800
21
460.888670
0
LINE
8
Layer 1
10
65.664800
20
460.888670
11
65.653200
21
460.896940
0
LINE
8
Layer 1
10
65.653200
20
460.896940
11
65.574400
21
460.958550
0
LINE
8
Layer 1
10
65.574400
20
460.958550
11
65.498800
21
461.023290
0
LINE
8
Layer 1
10
65.498800
20
461.023290
11
65.441800
21
461.076600
0
LINE
8
Layer 1
10
65.441800
20
461.076600
11
65.426400
21
461.091040
0
LINE
8
Layer 1
10
65.426400
20
461.091040
11
65.356700
21
461.162300
0
LINE
8
Layer 1
10
65.356700
20
461.162300
11
65.290100
21
461.236730
0
LINE
8
Layer 1
10
65.290100
20
461.236730
11
65.227300
21
461.313460
0
LINE
8
Layer 1
10
65.227300
20
461.313460
11
65.167400
21
461.393610
0
LINE
8
Layer 1
10
65.167400
20
461.393610
11
65.111600
21
461.475620
0
LINE
8
Layer 1
10
65.111600
20
461.475620
11
65.059200
21
461.560680
0
LINE
8
Layer 1
10
65.059200
20
461.560680
11
65.010700
21
461.647640
0
LINE
8
Layer 1
10
65.010700
20
461.647640
11
64.966200
21
461.736260
0
LINE
8
Layer 1
10
64.966200
20
461.736260
11
64.925500
21
461.827530
0
LINE
8
Layer 1
10
64.925500
20
461.827530
11
64.889000
21
461.919770
0
LINE
8
Layer 1
10
64.889000
20
461.919770
11
64.856500
21
462.014020
0
LINE
8
Layer 1
10
64.856500
20
462.014020
11
64.828300
21
462.109500
0
LINE
8
Layer 1
10
64.828300
20
462.109500
11
64.804200
21
462.206470
0
LINE
8
Layer 1
10
64.804200
20
462.206470
11
64.803800
21
462.208590
0
LINE
8
Layer 1
10
64.803800
20
462.208590
11
64.784600
21
462.303970
0
LINE
8
Layer 1
10
64.784600
20
462.303970
11
64.774100
21
462.371370
0
LINE
8
Layer 1
10
64.774100
20
462.371370
11
64.769300
21
462.402070
0
LINE
8
Layer 1
10
64.769300
20
462.402070
11
64.758200
21
462.501440
0
LINE
8
Layer 1
10
64.758200
20
462.501440
11
64.751700
21
462.600340
0
LINE
8
Layer 1
10
64.751700
20
462.600340
11
64.749500
21
462.700350
0
LINE
8
Layer 1
10
64.749500
20
462.700350
11
64.751600
21
462.799430
0
LINE
8
Layer 1
10
64.751600
20
462.799430
11
64.758300
21
462.898900
0
LINE
8
Layer 1
10
64.758300
20
462.898900
11
64.769300
21
462.998210
0
LINE
8
Layer 1
10
64.769300
20
462.998210
11
64.784600
21
463.096100
0
LINE
8
Layer 1
10
64.784600
20
463.096100
11
64.804400
21
463.194200
0
LINE
8
Layer 1
10
64.804400
20
463.194200
11
64.828400
21
463.290800
0
LINE
8
Layer 1
10
64.828400
20
463.290800
11
64.830900
21
463.299300
0
LINE
8
Layer 1
10
64.830900
20
463.299300
11
64.856600
21
463.386200
0
LINE
8
Layer 1
10
64.856600
20
463.386200
11
64.885600
21
463.470200
0
LINE
8
Layer 1
10
64.885600
20
463.470200
11
64.889000
21
463.480000
0
LINE
8
Layer 1
10
64.889000
20
463.480000
11
64.925600
21
463.572700
0
LINE
8
Layer 1
10
64.925600
20
463.572700
11
64.966300
21
463.663900
0
LINE
8
Layer 1
10
64.966300
20
463.663900
11
64.991100
21
463.713300
0
LINE
8
Layer 1
10
64.991100
20
463.713300
11
65.010800
21
463.752600
0
LINE
8
Layer 1
10
65.010800
20
463.752600
11
65.059500
21
463.839900
0
LINE
8
Layer 1
10
65.059500
20
463.839900
11
65.111600
21
463.924300
0
LINE
8
Layer 1
10
65.111600
20
463.924300
11
65.167800
21
464.006900
0
LINE
8
Layer 1
10
65.167800
20
464.006900
11
65.169500
21
464.009200
0
LINE
8
Layer 1
10
65.169500
20
464.009200
11
65.227400
21
464.086600
0
LINE
8
Layer 1
10
65.227400
20
464.086600
11
65.267200
21
464.135300
0
LINE
8
Layer 1
10
65.267200
20
464.135300
11
65.290200
21
464.163500
0
LINE
8
Layer 1
10
65.290200
20
464.163500
11
65.356900
21
464.237900
0
LINE
8
Layer 1
10
65.356900
20
464.237900
11
65.426300
21
464.308800
0
LINE
8
Layer 1
10
65.426300
20
464.308800
11
65.499000
21
464.376900
0
LINE
8
Layer 1
10
65.499000
20
464.376900
11
65.574700
21
464.441700
0
LINE
8
Layer 1
10
65.574700
20
464.441700
11
65.653400
21
464.503200
0
LINE
8
Layer 1
10
65.653400
20
464.503200
11
65.734100
21
464.560800
0
LINE
8
Layer 1
10
65.734100
20
464.560800
11
65.818000
21
464.615200
0
LINE
8
Layer 1
10
65.818000
20
464.615200
11
65.821700
21
464.617300
0
LINE
8
Layer 1
10
65.821700
20
464.617300
11
65.903800
21
464.665500
0
LINE
8
Layer 1
10
65.903800
20
464.665500
11
65.991500
21
464.711900
0
LINE
8
Layer 1
10
65.991500
20
464.711900
11
66.081900
21
464.754800
0
LINE
8
Layer 1
10
66.081900
20
464.754800
11
66.173300
21
464.793200
0
LINE
8
Layer 1
10
66.173300
20
464.793200
11
66.266800
21
464.827800
0
LINE
8
Layer 1
10
66.266800
20
464.827800
11
66.361900
21
464.858200
0
LINE
8
Layer 1
10
66.361900
20
464.858200
11
66.457600
21
464.884200
0
LINE
8
Layer 1
10
66.457600
20
464.884200
11
66.555200
21
464.906100
0
LINE
8
Layer 1
10
66.555200
20
464.906100
11
66.652800
21
464.923600
0
LINE
8
Layer 1
10
66.652800
20
464.923600
11
66.751600
21
464.936800
0
LINE
8
Layer 1
10
66.751600
20
464.936800
11
66.851100
21
464.945600
0
LINE
8
Layer 1
10
66.851100
20
464.945600
11
66.866200
21
464.946300
0
LINE
8
Layer 1
10
66.866200
20
464.946300
11
66.950100
21
464.950000
0
LINE
8
Layer 1
10
66.950100
20
464.950000
11
67.050100
21
464.950000
0
LINE
8
Layer 1
10
67.050100
20
464.950000
11
67.149100
21
464.945600
0
LINE
8
Layer 1
10
67.149100
20
464.945600
11
67.248400
21
464.936800
0
LINE
8
Layer 1
10
67.248400
20
464.936800
11
67.347500
21
464.923600
0
LINE
8
Layer 1
10
67.347500
20
464.923600
11
67.349800
21
464.923100
0
LINE
8
Layer 1
10
67.349800
20
464.923100
11
67.445400
21
464.906000
0
LINE
8
Layer 1
10
67.445400
20
464.906000
11
67.542000
21
464.884300
0
LINE
8
Layer 1
10
67.542000
20
464.884300
11
67.542200
21
464.884300
0
LINE
8
Layer 1
10
67.542200
20
464.884300
11
67.638700
21
464.858000
0
LINE
8
Layer 1
10
67.638700
20
464.858000
11
67.733100
21
464.827800
0
LINE
8
Layer 1
10
67.733100
20
464.827800
11
67.826900
21
464.793100
0
LINE
8
Layer 1
10
67.826900
20
464.793100
11
67.918300
21
464.754700
0
LINE
8
Layer 1
10
67.918300
20
464.754700
11
68.008400
21
464.712000
0
LINE
8
Layer 1
10
68.008400
20
464.712000
11
68.096400
21
464.665400
0
LINE
8
Layer 1
10
68.096400
20
464.665400
11
68.182600
21
464.614800
0
LINE
8
Layer 1
10
68.182600
20
464.614800
11
68.183000
21
464.614500
0
LINE
8
Layer 1
10
68.183000
20
464.614500
11
68.266000
21
464.560700
0
LINE
8
Layer 1
10
68.266000
20
464.560700
11
68.335200
21
464.511300
0
LINE
8
Layer 1
10
68.335200
20
464.511300
11
68.346800
21
464.503100
0
LINE
8
Layer 1
10
68.346800
20
464.503100
11
68.425600
21
464.441400
0
LINE
8
Layer 1
10
68.425600
20
464.441400
11
68.501200
21
464.376700
0
LINE
8
Layer 1
10
68.501200
20
464.376700
11
68.558200
21
464.323400
0
LINE
8
Layer 1
10
68.558200
20
464.323400
11
68.573600
21
464.309000
0
LINE
8
Layer 1
10
68.573600
20
464.309000
11
68.643500
21
464.237400
0
LINE
8
Layer 1
10
68.643500
20
464.237400
11
68.709800
21
464.163300
0
LINE
8
Layer 1
10
68.709800
20
464.163300
11
68.772700
21
464.086500
0
LINE
8
Layer 1
10
68.772700
20
464.086500
11
68.832400
21
464.006700
0
LINE
8
Layer 1
10
68.832400
20
464.006700
11
68.888500
21
463.924100
0
LINE
8
Layer 1
10
68.888500
20
463.924100
11
68.893100
21
463.916600
0
LINE
8
Layer 1
10
68.893100
20
463.916600
11
68.940800
21
463.839400
0
LINE
8
Layer 1
10
68.940800
20
463.839400
11
68.971900
21
463.783700
0
LINE
8
Layer 1
10
68.971900
20
463.783700
11
68.989200
21
463.752700
0
LINE
8
Layer 1
10
68.989200
20
463.752700
11
69.033900
21
463.663300
0
LINE
8
Layer 1
10
69.033900
20
463.663300
11
69.074400
21
463.572800
0
LINE
8
Layer 1
10
69.074400
20
463.572800
11
69.111100
21
463.479800
0
LINE
8
Layer 1
10
69.111100
20
463.479800
11
69.143400
21
463.386100
0
LINE
8
Layer 1
10
69.143400
20
463.386100
11
69.171700
21
463.290500
0
LINE
8
Layer 1
10
69.171700
20
463.290500
11
69.195800
21
463.193500
0
LINE
8
Layer 1
10
69.195800
20
463.193500
11
69.215400
21
463.096400
0
LINE
8
Layer 1
10
69.215400
20
463.096400
11
69.230800
21
462.997530
0
LINE
8
Layer 1
10
69.230800
20
462.997530
11
69.230800
21
462.997400
0
LINE
8
Layer 1
10
69.230800
20
462.997400
11
69.241700
21
462.898730
0
LINE
8
Layer 1
10
69.241700
20
462.898730
11
69.248300
21
462.800240
0
LINE
8
Layer 1
10
69.248300
20
462.800240
11
69.248300
21
462.799660
0
LINE
8
Layer 1
10
69.248300
20
462.799660
11
69.250500
21
462.699650
0
LINE
8
Layer 1
10
69.250500
20
462.699650
11
69.248400
21
462.600570
0
LINE
8
Layer 1
10
69.248400
20
462.600570
11
69.241700
21
462.500750
0
LINE
8
Layer 1
10
69.241700
20
462.500750
11
69.230800
21
462.402190
0
LINE
8
Layer 1
10
69.230800
20
462.402190
11
69.215300
21
462.303410
0
LINE
8
Layer 1
10
69.215300
20
462.303410
11
69.195700
21
462.206250
0
LINE
8
Layer 1
10
69.195700
20
462.206250
11
69.171700
21
462.109500
0
LINE
8
Layer 1
10
69.171700
20
462.109500
11
69.143300
21
462.013690
0
LINE
8
Layer 1
10
69.143300
20
462.013690
11
69.111000
21
461.919970
0
LINE
8
Layer 1
10
69.111000
20
461.919970
11
69.074300
21
461.827020
0
LINE
8
Layer 1
10
69.074300
20
461.827020
11
69.065300
21
461.806910
0
LINE
8
Layer 1
10
69.065300
20
461.806910
11
69.033700
21
461.736220
0
LINE
8
Layer 1
10
69.033700
20
461.736220
11
68.996600
21
461.662130
0
LINE
8
Layer 1
10
68.996600
20
461.662130
11
68.989200
21
461.647410
0
LINE
8
Layer 1
10
68.989200
20
461.647410
11
68.940500
21
461.560090
0
LINE
8
Layer 1
10
68.940500
20
461.560090
11
68.888400
21
461.475750
0
LINE
8
Layer 1
10
68.888400
20
461.475750
11
68.832200
21
461.393060
0
LINE
8
Layer 1
10
68.832200
20
461.393060
11
68.772900
21
461.313640
0
LINE
8
Layer 1
10
68.772900
20
461.313640
11
68.709500
21
461.236260
0
LINE
8
Layer 1
10
68.709500
20
461.236260
11
68.643400
21
461.162380
0
LINE
8
Layer 1
10
68.643400
20
461.162380
11
68.573400
21
461.090890
0
LINE
8
Layer 1
10
68.573400
20
461.090890
11
68.501100
21
461.023160
0
LINE
8
Layer 1
10
68.501100
20
461.023160
11
68.425000
21
460.958120
0
LINE
8
Layer 1
10
68.425000
20
460.958120
11
68.347000
21
460.897050
0
LINE
8
Layer 1
10
68.347000
20
460.897050
11
68.265500
21
460.838990
0
LINE
8
Layer 1
10
68.265500
20
460.838990
11
68.182300
21
460.785050
0
LINE
8
Layer 1
10
68.182300
20
460.785050
11
68.096100
21
460.734420
0
LINE
8
Layer 1
10
68.096100
20
460.734420
11
68.095200
21
460.733970
0
LINE
8
Layer 1
10
68.095200
20
460.733970
11
68.008200
21
460.687920
0
LINE
8
Layer 1
10
68.008200
20
460.687920
11
67.935400
21
460.653410
0
LINE
8
Layer 1
10
67.935400
20
460.653410
11
67.918500
21
460.645410
0
LINE
8
Layer 1
10
67.918500
20
460.645410
11
67.826300
21
460.606640
0
LINE
8
Layer 1
10
67.826300
20
460.606640
11
67.733000
21
460.572180
0
LINE
8
Layer 1
10
67.733000
20
460.572180
11
67.638500
21
460.541930
0
LINE
8
Layer 1
10
67.638500
20
460.541930
11
67.542300
21
460.515770
0
LINE
8
Layer 1
10
67.542300
20
460.515770
11
67.444800
21
460.493850
0
LINE
8
Layer 1
10
67.444800
20
460.493850
11
67.347300
21
460.476400
0
LINE
8
Layer 1
10
67.347300
20
460.476400
11
67.248100
21
460.463170
0
LINE
8
Layer 1
10
67.248100
20
460.463170
11
67.247800
21
460.463140
0
LINE
8
Layer 1
10
67.247800
20
460.463140
11
67.149000
21
460.454400
0
LINE
8
Layer 1
10
67.149000
20
460.454400
11
67.049900
21
460.450010
0
LINE
8
Layer 1
10
67.049900
20
460.450010
11
66.950200
21
460.450000
0
LINE
8
Layer 1
10
66.950200
20
460.450000
11
66.850400
21
460.454440
0
LINE
8
Layer 1
10
355.550000
20
460.454440
11
355.451000
21
460.463240
0
LINE
8
Layer 1
10
355.451000
20
460.463240
11
355.353000
21
460.476370
0
LINE
8
Layer 1
10
355.353000
20
460.476370
11
355.255000
21
460.493920
0
LINE
8
Layer 1
10
355.255000
20
460.493920
11
355.157000
21
460.515850
0
LINE
8
Layer 1
10
355.157000
20
460.515850
11
355.152000
21
460.517370
0
LINE
8
Layer 1
10
355.152000
20
460.517370
11
355.062000
21
460.541930
0
LINE
8
Layer 1
10
355.062000
20
460.541930
11
355.008000
21
460.559210
0
LINE
8
Layer 1
10
355.008000
20
460.559210
11
354.967000
21
460.572270
0
LINE
8
Layer 1
10
354.967000
20
460.572270
11
354.874000
21
460.606720
0
LINE
8
Layer 1
10
354.874000
20
460.606720
11
354.781000
21
460.645520
0
LINE
8
Layer 1
10
354.781000
20
460.645520
11
354.692000
21
460.688010
0
LINE
8
Layer 1
10
354.692000
20
460.688010
11
354.604000
21
460.734580
0
LINE
8
Layer 1
10
354.604000
20
460.734580
11
354.518000
21
460.785100
0
LINE
8
Layer 1
10
354.518000
20
460.785100
11
354.494000
21
460.800390
0
LINE
8
Layer 1
10
354.494000
20
460.800390
11
354.434000
21
460.839370
0
LINE
8
Layer 1
10
354.434000
20
460.839370
11
354.353000
21
460.896940
0
LINE
8
Layer 1
10
354.353000
20
460.896940
11
354.275000
21
460.958450
0
LINE
8
Layer 1
10
354.275000
20
460.958450
11
354.252000
21
460.977350
0
LINE
8
Layer 1
10
354.252000
20
460.977350
11
354.199000
21
461.023290
0
LINE
8
Layer 1
10
354.199000
20
461.023290
11
354.126000
21
461.091040
0
LINE
8
Layer 1
10
354.126000
20
461.091040
11
354.057000
21
461.162300
0
LINE
8
Layer 1
10
354.057000
20
461.162300
11
353.990000
21
461.236760
0
LINE
8
Layer 1
10
353.990000
20
461.236760
11
353.927000
21
461.313550
0
LINE
8
Layer 1
10
353.927000
20
461.313550
11
353.867000
21
461.393610
0
LINE
8
Layer 1
10
353.867000
20
461.393610
11
353.812000
21
461.475620
0
LINE
8
Layer 1
10
353.812000
20
461.475620
11
353.759000
21
461.560440
0
LINE
8
Layer 1
10
353.759000
20
461.560440
11
353.736000
21
461.603070
0
LINE
8
Layer 1
10
353.736000
20
461.603070
11
353.711000
21
461.647510
0
LINE
8
Layer 1
10
353.711000
20
461.647510
11
353.666000
21
461.736260
0
LINE
8
Layer 1
10
353.666000
20
461.736260
11
353.625000
21
461.827590
0
LINE
8
Layer 1
10
353.625000
20
461.827590
11
353.589000
21
461.919880
0
LINE
8
Layer 1
10
353.589000
20
461.919880
11
353.557000
21
462.014020
0
LINE
8
Layer 1
10
353.557000
20
462.014020
11
353.528000
21
462.109500
0
LINE
8
Layer 1
10
353.528000
20
462.109500
11
353.504000
21
462.206480
0
LINE
8
Layer 1
10
353.504000
20
462.206480
11
353.485000
21
462.303640
0
LINE
8
Layer 1
10
353.485000
20
462.303640
11
353.469000
21
462.402020
0
LINE
8
Layer 1
10
353.469000
20
462.402020
11
353.458000
21
462.501270
0
LINE
8
Layer 1
10
353.458000
20
462.501270
11
353.455000
21
462.550230
0
LINE
8
Layer 1
10
353.455000
20
462.550230
11
353.452000
21
462.600450
0
LINE
8
Layer 1
10
353.452000
20
462.600450
11
353.449000
21
462.700170
0
LINE
8
Layer 1
10
353.449000
20
462.700170
11
353.452000
21
462.799430
0
LINE
8
Layer 1
10
353.452000
20
462.799430
11
353.458000
21
462.898900
0
LINE
8
Layer 1
10
353.458000
20
462.898900
11
353.469000
21
462.998210
0
LINE
8
Layer 1
10
353.469000
20
462.998210
11
353.485000
21
463.096300
0
LINE
8
Layer 1
10
353.485000
20
463.096300
11
353.504000
21
463.194200
0
LINE
8
Layer 1
10
353.504000
20
463.194200
11
353.528000
21
463.290600
0
LINE
8
Layer 1
10
353.528000
20
463.290600
11
353.536000
21
463.317600
0
LINE
8
Layer 1
10
353.536000
20
463.317600
11
353.557000
21
463.386300
0
LINE
8
Layer 1
10
353.557000
20
463.386300
11
353.589000
21
463.480000
0
LINE
8
Layer 1
10
353.589000
20
463.480000
11
353.626000
21
463.572700
0
LINE
8
Layer 1
10
353.626000
20
463.572700
11
353.666000
21
463.663900
0
LINE
8
Layer 1
10
353.666000
20
463.663900
11
353.675000
21
463.681000
0
LINE
8
Layer 1
10
353.675000
20
463.681000
11
353.711000
21
463.752700
0
LINE
8
Layer 1
10
353.711000
20
463.752700
11
353.760000
21
463.839900
0
LINE
8
Layer 1
10
353.760000
20
463.839900
11
353.812000
21
463.924300
0
LINE
8
Layer 1
10
353.812000
20
463.924300
11
353.868000
21
464.007000
0
LINE
8
Layer 1
10
353.868000
20
464.007000
11
353.927000
21
464.086400
0
LINE
8
Layer 1
10
353.927000
20
464.086400
11
353.990000
21
464.163400
0
LINE
8
Layer 1
10
353.990000
20
464.163400
11
354.057000
21
464.237900
0
LINE
8
Layer 1
10
354.057000
20
464.237900
11
354.126000
21
464.308900
0
LINE
8
Layer 1
10
354.126000
20
464.308900
11
354.199000
21
464.376900
0
LINE
8
Layer 1
10
354.199000
20
464.376900
11
354.275000
21
464.441700
0
LINE
8
Layer 1
10
354.275000
20
464.441700
11
354.353000
21
464.503200
0
LINE
8
Layer 1
10
354.353000
20
464.503200
11
354.434000
21
464.560800
0
LINE
8
Layer 1
10
354.434000
20
464.560800
11
354.518000
21
464.615200
0
LINE
8
Layer 1
10
354.518000
20
464.615200
11
354.604000
21
464.665500
0
LINE
8
Layer 1
10
354.604000
20
464.665500
11
354.692000
21
464.711900
0
LINE
8
Layer 1
10
354.692000
20
464.711900
11
354.782000
21
464.754700
0
LINE
8
Layer 1
10
354.782000
20
464.754700
11
354.873000
21
464.793200
0
LINE
8
Layer 1
10
354.873000
20
464.793200
11
354.967000
21
464.827800
0
LINE
8
Layer 1
10
354.967000
20
464.827800
11
355.062000
21
464.858200
0
LINE
8
Layer 1
10
355.062000
20
464.858200
11
355.158000
21
464.884200
0
LINE
8
Layer 1
10
355.158000
20
464.884200
11
355.255000
21
464.906100
0
LINE
8
Layer 1
10
355.255000
20
464.906100
11
355.290000
21
464.912300
0
LINE
8
Layer 1
10
355.290000
20
464.912300
11
355.353000
21
464.923600
0
LINE
8
Layer 1
10
355.353000
20
464.923600
11
355.452000
21
464.936800
0
LINE
8
Layer 1
10
355.452000
20
464.936800
11
355.551000
21
464.945600
0
LINE
8
Layer 1
10
355.551000
20
464.945600
11
355.589000
21
464.947300
0
LINE
8
Layer 1
10
355.589000
20
464.947300
11
355.650000
21
464.950000
0
LINE
8
Layer 1
10
355.650000
20
464.950000
11
355.750000
21
464.950000
0
LINE
8
Layer 1
10
355.750000
20
464.950000
11
355.849000
21
464.945600
0
LINE
8
Layer 1
10
355.849000
20
464.945600
11
355.948000
21
464.936800
0
LINE
8
Layer 1
10
355.948000
20
464.936800
11
356.047000
21
464.923600
0
LINE
8
Layer 1
10
356.047000
20
464.923600
11
356.145000
21
464.906000
0
LINE
8
Layer 1
10
356.145000
20
464.906000
11
356.242000
21
464.884300
0
LINE
8
Layer 1
10
356.242000
20
464.884300
11
356.339000
21
464.858000
0
LINE
8
Layer 1
10
356.339000
20
464.858000
11
356.433000
21
464.827800
0
LINE
8
Layer 1
10
356.433000
20
464.827800
11
356.527000
21
464.793100
0
LINE
8
Layer 1
10
356.527000
20
464.793100
11
356.618000
21
464.754600
0
LINE
8
Layer 1
10
356.618000
20
464.754600
11
356.708000
21
464.712000
0
LINE
8
Layer 1
10
356.708000
20
464.712000
11
356.796000
21
464.665400
0
LINE
8
Layer 1
10
356.796000
20
464.665400
11
356.882000
21
464.614900
0
LINE
8
Layer 1
10
356.882000
20
464.614900
11
356.906000
21
464.599600
0
LINE
8
Layer 1
10
356.906000
20
464.599600
11
356.966000
21
464.560600
0
LINE
8
Layer 1
10
356.966000
20
464.560600
11
357.047000
21
464.503100
0
LINE
8
Layer 1
10
357.047000
20
464.503100
11
357.125000
21
464.441600
0
LINE
8
Layer 1
10
357.125000
20
464.441600
11
357.148000
21
464.422700
0
LINE
8
Layer 1
10
357.148000
20
464.422700
11
357.201000
21
464.376700
0
LINE
8
Layer 1
10
357.201000
20
464.376700
11
357.274000
21
464.309000
0
LINE
8
Layer 1
10
357.274000
20
464.309000
11
357.343000
21
464.237600
0
LINE
8
Layer 1
10
357.343000
20
464.237600
11
357.380000
21
464.197000
0
LINE
8
Layer 1
10
357.380000
20
464.197000
11
357.410000
21
464.163400
0
LINE
8
Layer 1
10
357.410000
20
464.163400
11
357.445000
21
464.120500
0
LINE
8
Layer 1
10
357.445000
20
464.120500
11
357.473000
21
464.086400
0
LINE
8
Layer 1
10
357.473000
20
464.086400
11
357.532000
21
464.006700
0
LINE
8
Layer 1
10
357.532000
20
464.006700
11
357.589000
21
463.924100
0
LINE
8
Layer 1
10
357.589000
20
463.924100
11
357.607000
21
463.893500
0
LINE
8
Layer 1
10
357.607000
20
463.893500
11
357.641000
21
463.839700
0
LINE
8
Layer 1
10
357.641000
20
463.839700
11
357.689000
21
463.752800
0
LINE
8
Layer 1
10
357.689000
20
463.752800
11
357.734000
21
463.663500
0
LINE
8
Layer 1
10
357.734000
20
463.663500
11
357.774000
21
463.572800
0
LINE
8
Layer 1
10
357.774000
20
463.572800
11
357.811000
21
463.480000
0
LINE
8
Layer 1
10
357.811000
20
463.480000
11
357.830000
21
463.426100
0
LINE
8
Layer 1
10
357.830000
20
463.426100
11
357.843000
21
463.386000
0
LINE
8
Layer 1
10
357.843000
20
463.386000
11
357.872000
21
463.290500
0
LINE
8
Layer 1
10
357.872000
20
463.290500
11
357.896000
21
463.193500
0
LINE
8
Layer 1
10
357.896000
20
463.193500
11
357.915000
21
463.096400
0
LINE
8
Layer 1
10
357.915000
20
463.096400
11
357.931000
21
462.997530
0
LINE
8
Layer 1
10
357.931000
20
462.997530
11
357.942000
21
462.898560
0
LINE
8
Layer 1
10
357.942000
20
462.898560
11
357.948000
21
462.799550
0
LINE
8
Layer 1
10
357.948000
20
462.799550
11
357.951000
21
462.699830
0
LINE
8
Layer 1
10
357.951000
20
462.699830
11
357.948000
21
462.600570
0
LINE
8
Layer 1
10
357.948000
20
462.600570
11
357.942000
21
462.500930
0
LINE
8
Layer 1
10
357.942000
20
462.500930
11
357.931000
21
462.402250
0
LINE
8
Layer 1
10
357.931000
20
462.402250
11
357.915000
21
462.303570
0
LINE
8
Layer 1
10
357.915000
20
462.303570
11
357.906000
21
462.256780
0
LINE
8
Layer 1
10
357.906000
20
462.256780
11
357.896000
21
462.206140
0
LINE
8
Layer 1
10
357.896000
20
462.206140
11
357.872000
21
462.109500
0
LINE
8
Layer 1
10
357.872000
20
462.109500
11
357.843000
21
462.013690
0
LINE
8
Layer 1
10
357.843000
20
462.013690
11
357.811000
21
461.919990
0
LINE
8
Layer 1
10
357.811000
20
461.919990
11
357.774000
21
461.826950
0
LINE
8
Layer 1
10
357.774000
20
461.826950
11
357.734000
21
461.736050
0
LINE
8
Layer 1
10
357.734000
20
461.736050
11
357.689000
21
461.647340
0
LINE
8
Layer 1
10
357.689000
20
461.647340
11
357.641000
21
461.560090
0
LINE
8
Layer 1
10
357.641000
20
461.560090
11
357.588000
21
461.475750
0
LINE
8
Layer 1
10
357.588000
20
461.475750
11
357.532000
21
461.393050
0
LINE
8
Layer 1
10
357.532000
20
461.393050
11
357.473000
21
461.313640
0
LINE
8
Layer 1
10
357.473000
20
461.313640
11
357.409000
21
461.236230
0
LINE
8
Layer 1
10
357.409000
20
461.236230
11
357.343000
21
461.162300
0
LINE
8
Layer 1
10
357.343000
20
461.162300
11
357.274000
21
461.090970
0
LINE
8
Layer 1
10
357.274000
20
461.090970
11
357.234000
21
461.053590
0
LINE
8
Layer 1
10
357.234000
20
461.053590
11
357.201000
21
461.023090
0
LINE
8
Layer 1
10
357.201000
20
461.023090
11
357.125000
21
460.958120
0
LINE
8
Layer 1
10
357.125000
20
460.958120
11
357.047000
21
460.897050
0
LINE
8
Layer 1
10
357.047000
20
460.897050
11
356.966000
21
460.838990
0
LINE
8
Layer 1
10
356.966000
20
460.838990
11
356.882000
21
460.785070
0
LINE
8
Layer 1
10
356.882000
20
460.785070
11
356.796000
21
460.734420
0
LINE
8
Layer 1
10
356.796000
20
460.734420
11
356.794000
21
460.733460
0
LINE
8
Layer 1
10
356.794000
20
460.733460
11
356.708000
21
460.687990
0
LINE
8
Layer 1
10
356.708000
20
460.687990
11
356.618000
21
460.645420
0
LINE
8
Layer 1
10
356.618000
20
460.645420
11
356.526000
21
460.606640
0
LINE
8
Layer 1
10
356.526000
20
460.606640
11
356.433000
21
460.572140
0
LINE
8
Layer 1
10
356.433000
20
460.572140
11
356.338000
21
460.541910
0
LINE
8
Layer 1
10
356.338000
20
460.541910
11
356.242000
21
460.515770
0
LINE
8
Layer 1
10
356.242000
20
460.515770
11
356.145000
21
460.493860
0
LINE
8
Layer 1
10
356.145000
20
460.493860
11
356.103000
21
460.486390
0
LINE
8
Layer 1
10
356.103000
20
460.486390
11
356.047000
21
460.476400
0
LINE
8
Layer 1
10
356.047000
20
460.476400
11
355.948000
21
460.463180
0
LINE
8
Layer 1
10
355.948000
20
460.463180
11
355.944000
21
460.462780
0
LINE
8
Layer 1
10
355.944000
20
460.462780
11
355.849000
21
460.454400
0
LINE
8
Layer 1
10
355.849000
20
460.454400
11
355.753000
21
460.450140
0
LINE
8
Layer 1
10
355.753000
20
460.450140
11
355.750000
21
460.450010
0
LINE
8
Layer 1
10
355.750000
20
460.450010
11
355.650000
21
460.450000
0
LINE
8
Layer 1
10
355.650000
20
460.450000
11
355.550000
21
460.454440
0
LINE
8
Layer 1
10
372.550000
20
460.454440
11
372.451000
21
460.463240
0
LINE
8
Layer 1
10
372.451000
20
460.463240
11
372.353000
21
460.476370
0
LINE
8
Layer 1
10
372.353000
20
460.476370
11
372.255000
21
460.493920
0
LINE
8
Layer 1
10
372.255000
20
460.493920
11
372.157000
21
460.515850
0
LINE
8
Layer 1
10
372.157000
20
460.515850
11
372.152000
21
460.517370
0
LINE
8
Layer 1
10
372.152000
20
460.517370
11
372.062000
21
460.541930
0
LINE
8
Layer 1
10
372.062000
20
460.541930
11
372.008000
21
460.559210
0
LINE
8
Layer 1
10
372.008000
20
460.559210
11
371.967000
21
460.572270
0
LINE
8
Layer 1
10
371.967000
20
460.572270
11
371.874000
21
460.606720
0
LINE
8
Layer 1
10
371.874000
20
460.606720
11
371.781000
21
460.645520
0
LINE
8
Layer 1
10
371.781000
20
460.645520
11
371.692000
21
460.688010
0
LINE
8
Layer 1
10
371.692000
20
460.688010
11
371.604000
21
460.734580
0
LINE
8
Layer 1
10
371.604000
20
460.734580
11
371.518000
21
460.785100
0
LINE
8
Layer 1
10
371.518000
20
460.785100
11
371.494000
21
460.800390
0
LINE
8
Layer 1
10
371.494000
20
460.800390
11
371.434000
21
460.839370
0
LINE
8
Layer 1
10
371.434000
20
460.839370
11
371.353000
21
460.896940
0
LINE
8
Layer 1
10
371.353000
20
460.896940
11
371.275000
21
460.958450
0
LINE
8
Layer 1
10
371.275000
20
460.958450
11
371.252000
21
460.977350
0
LINE
8
Layer 1
10
371.252000
20
460.977350
11
371.199000
21
461.023290
0
LINE
8
Layer 1
10
371.199000
20
461.023290
11
371.126000
21
461.091040
0
LINE
8
Layer 1
10
371.126000
20
461.091040
11
371.057000
21
461.162300
0
LINE
8
Layer 1
10
371.057000
20
461.162300
11
370.990000
21
461.236760
0
LINE
8
Layer 1
10
370.990000
20
461.236760
11
370.927000
21
461.313550
0
LINE
8
Layer 1
10
370.927000
20
461.313550
11
370.867000
21
461.393610
0
LINE
8
Layer 1
10
370.867000
20
461.393610
11
370.812000
21
461.475620
0
LINE
8
Layer 1
10
370.812000
20
461.475620
11
370.759000
21
461.560440
0
LINE
8
Layer 1
10
370.759000
20
461.560440
11
370.736000
21
461.603070
0
LINE
8
Layer 1
10
370.736000
20
461.603070
11
370.711000
21
461.647510
0
LINE
8
Layer 1
10
370.711000
20
461.647510
11
370.666000
21
461.736260
0
LINE
8
Layer 1
10
370.666000
20
461.736260
11
370.625000
21
461.827590
0
LINE
8
Layer 1
10
370.625000
20
461.827590
11
370.589000
21
461.919880
0
LINE
8
Layer 1
10
370.589000
20
461.919880
11
370.557000
21
462.014020
0
LINE
8
Layer 1
10
370.557000
20
462.014020
11
370.528000
21
462.109500
0
LINE
8
Layer 1
10
370.528000
20
462.109500
11
370.504000
21
462.206480
0
LINE
8
Layer 1
10
370.504000
20
462.206480
11
370.485000
21
462.303640
0
LINE
8
Layer 1
10
370.485000
20
462.303640
11
370.469000
21
462.402020
0
LINE
8
Layer 1
10
370.469000
20
462.402020
11
370.458000
21
462.501270
0
LINE
8
Layer 1
10
370.458000
20
462.501270
11
370.455000
21
462.550690
0
LINE
8
Layer 1
10
370.455000
20
462.550690
11
370.452000
21
462.600450
0
LINE
8
Layer 1
10
370.452000
20
462.600450
11
370.449000
21
462.700170
0
LINE
8
Layer 1
10
370.449000
20
462.700170
11
370.452000
21
462.799430
0
LINE
8
Layer 1
10
370.452000
20
462.799430
11
370.458000
21
462.898900
0
LINE
8
Layer 1
10
370.458000
20
462.898900
11
370.469000
21
462.998210
0
LINE
8
Layer 1
10
370.469000
20
462.998210
11
370.485000
21
463.096300
0
LINE
8
Layer 1
10
370.485000
20
463.096300
11
370.504000
21
463.194200
0
LINE
8
Layer 1
10
370.504000
20
463.194200
11
370.528000
21
463.290600
0
LINE
8
Layer 1
10
370.528000
20
463.290600
11
370.536000
21
463.317600
0
LINE
8
Layer 1
10
370.536000
20
463.317600
11
370.557000
21
463.386300
0
LINE
8
Layer 1
10
370.557000
20
463.386300
11
370.589000
21
463.480000
0
LINE
8
Layer 1
10
370.589000
20
463.480000
11
370.626000
21
463.572700
0
LINE
8
Layer 1
10
370.626000
20
463.572700
11
370.666000
21
463.663900
0
LINE
8
Layer 1
10
370.666000
20
463.663900
11
370.675000
21
463.681000
0
LINE
8
Layer 1
10
370.675000
20
463.681000
11
370.711000
21
463.752700
0
LINE
8
Layer 1
10
370.711000
20
463.752700
11
370.760000
21
463.839900
0
LINE
8
Layer 1
10
370.760000
20
463.839900
11
370.812000
21
463.924300
0
LINE
8
Layer 1
10
370.812000
20
463.924300
11
370.868000
21
464.007000
0
LINE
8
Layer 1
10
370.868000
20
464.007000
11
370.927000
21
464.086400
0
LINE
8
Layer 1
10
370.927000
20
464.086400
11
370.990000
21
464.163400
0
LINE
8
Layer 1
10
370.990000
20
464.163400
11
371.057000
21
464.237900
0
LINE
8
Layer 1
10
371.057000
20
464.237900
11
371.126000
21
464.308900
0
LINE
8
Layer 1
10
371.126000
20
464.308900
11
371.199000
21
464.376900
0
LINE
8
Layer 1
10
371.199000
20
464.376900
11
371.275000
21
464.441700
0
LINE
8
Layer 1
10
371.275000
20
464.441700
11
371.353000
21
464.503200
0
LINE
8
Layer 1
10
371.353000
20
464.503200
11
371.434000
21
464.560800
0
LINE
8
Layer 1
10
371.434000
20
464.560800
11
371.518000
21
464.615200
0
LINE
8
Layer 1
10
371.518000
20
464.615200
11
371.604000
21
464.665500
0
LINE
8
Layer 1
10
371.604000
20
464.665500
11
371.692000
21
464.711900
0
LINE
8
Layer 1
10
371.692000
20
464.711900
11
371.782000
21
464.754700
0
LINE
8
Layer 1
10
371.782000
20
464.754700
11
371.873000
21
464.793200
0
LINE
8
Layer 1
10
371.873000
20
464.793200
11
371.967000
21
464.827800
0
LINE
8
Layer 1
10
371.967000
20
464.827800
11
372.062000
21
464.858200
0
LINE
8
Layer 1
10
372.062000
20
464.858200
11
372.158000
21
464.884200
0
LINE
8
Layer 1
10
372.158000
20
464.884200
11
372.255000
21
464.906100
0
LINE
8
Layer 1
10
372.255000
20
464.906100
11
372.290000
21
464.912300
0
LINE
8
Layer 1
10
372.290000
20
464.912300
11
372.353000
21
464.923600
0
LINE
8
Layer 1
10
372.353000
20
464.923600
11
372.452000
21
464.936800
0
LINE
8
Layer 1
10
372.452000
20
464.936800
11
372.551000
21
464.945600
0
LINE
8
Layer 1
10
372.551000
20
464.945600
11
372.589000
21
464.947300
0
LINE
8
Layer 1
10
372.589000
20
464.947300
11
372.646000
21
464.949800
0
LINE
8
Layer 1
10
372.646000
20
464.949800
11
372.750000
21
464.950000
0
LINE
8
Layer 1
10
372.750000
20
464.950000
11
372.849000
21
464.945600
0
LINE
8
Layer 1
10
372.849000
20
464.945600
11
372.948000
21
464.936800
0
LINE
8
Layer 1
10
372.948000
20
464.936800
11
373.047000
21
464.923600
0
LINE
8
Layer 1
10
373.047000
20
464.923600
11
373.145000
21
464.906000
0
LINE
8
Layer 1
10
373.145000
20
464.906000
11
373.242000
21
464.884300
0
LINE
8
Layer 1
10
373.242000
20
464.884300
11
373.339000
21
464.858000
0
LINE
8
Layer 1
10
373.339000
20
464.858000
11
373.433000
21
464.827800
0
LINE
8
Layer 1
10
373.433000
20
464.827800
11
373.527000
21
464.793100
0
LINE
8
Layer 1
10
373.527000
20
464.793100
11
373.618000
21
464.754600
0
LINE
8
Layer 1
10
373.618000
20
464.754600
11
373.708000
21
464.712000
0
LINE
8
Layer 1
10
373.708000
20
464.712000
11
373.796000
21
464.665400
0
LINE
8
Layer 1
10
373.796000
20
464.665400
11
373.882000
21
464.614900
0
LINE
8
Layer 1
10
373.882000
20
464.614900
11
373.906000
21
464.599600
0
LINE
8
Layer 1
10
373.906000
20
464.599600
11
373.966000
21
464.560600
0
LINE
8
Layer 1
10
373.966000
20
464.560600
11
374.047000
21
464.503100
0
LINE
8
Layer 1
10
374.047000
20
464.503100
11
374.125000
21
464.441600
0
LINE
8
Layer 1
10
374.125000
20
464.441600
11
374.148000
21
464.422700
0
LINE
8
Layer 1
10
374.148000
20
464.422700
11
374.201000
21
464.376700
0
LINE
8
Layer 1
10
374.201000
20
464.376700
11
374.274000
21
464.309000
0
LINE
8
Layer 1
10
374.274000
20
464.309000
11
374.343000
21
464.237600
0
LINE
8
Layer 1
10
374.343000
20
464.237600
11
374.380000
21
464.197000
0
LINE
8
Layer 1
10
374.380000
20
464.197000
11
374.410000
21
464.163400
0
LINE
8
Layer 1
10
374.410000
20
464.163400
11
374.445000
21
464.120500
0
LINE
8
Layer 1
10
374.445000
20
464.120500
11
374.473000
21
464.086400
0
LINE
8
Layer 1
10
374.473000
20
464.086400
11
374.532000
21
464.006700
0
LINE
8
Layer 1
10
374.532000
20
464.006700
11
374.589000
21
463.924100
0
LINE
8
Layer 1
10
374.589000
20
463.924100
11
374.607000
21
463.893500
0
LINE
8
Layer 1
10
374.607000
20
463.893500
11
374.641000
21
463.839700
0
LINE
8
Layer 1
10
374.641000
20
463.839700
11
374.689000
21
463.752800
0
LINE
8
Layer 1
10
374.689000
20
463.752800
11
374.734000
21
463.663500
0
LINE
8
Layer 1
10
374.734000
20
463.663500
11
374.774000
21
463.572800
0
LINE
8
Layer 1
10
374.774000
20
463.572800
11
374.811000
21
463.480000
0
LINE
8
Layer 1
10
374.811000
20
463.480000
11
374.830000
21
463.426100
0
LINE
8
Layer 1
10
374.830000
20
463.426100
11
374.843000
21
463.386000
0
LINE
8
Layer 1
10
374.843000
20
463.386000
11
374.872000
21
463.290500
0
LINE
8
Layer 1
10
374.872000
20
463.290500
11
374.896000
21
463.193500
0
LINE
8
Layer 1
10
374.896000
20
463.193500
11
374.915000
21
463.096400
0
LINE
8
Layer 1
10
374.915000
20
463.096400
11
374.931000
21
462.997530
0
LINE
8
Layer 1
10
374.931000
20
462.997530
11
374.942000
21
462.898560
0
LINE
8
Layer 1
10
374.942000
20
462.898560
11
374.942000
21
462.898300
0
LINE
8
Layer 1
10
374.942000
20
462.898300
11
374.948000
21
462.799550
0
LINE
8
Layer 1
10
374.948000
20
462.799550
11
374.951000
21
462.699830
0
LINE
8
Layer 1
10
374.951000
20
462.699830
11
374.948000
21
462.600570
0
LINE
8
Layer 1
10
374.948000
20
462.600570
11
374.942000
21
462.500930
0
LINE
8
Layer 1
10
374.942000
20
462.500930
11
374.931000
21
462.402250
0
LINE
8
Layer 1
10
374.931000
20
462.402250
11
374.915000
21
462.303570
0
LINE
8
Layer 1
10
374.915000
20
462.303570
11
374.906000
21
462.256320
0
LINE
8
Layer 1
10
374.906000
20
462.256320
11
374.896000
21
462.206140
0
LINE
8
Layer 1
10
374.896000
20
462.206140
11
374.872000
21
462.109500
0
LINE
8
Layer 1
10
374.872000
20
462.109500
11
374.843000
21
462.013690
0
LINE
8
Layer 1
10
374.843000
20
462.013690
11
374.811000
21
461.919990
0
LINE
8
Layer 1
10
374.811000
20
461.919990
11
374.774000
21
461.826950
0
LINE
8
Layer 1
10
374.774000
20
461.826950
11
374.734000
21
461.736050
0
LINE
8
Layer 1
10
374.734000
20
461.736050
11
374.689000
21
461.647340
0
LINE
8
Layer 1
10
374.689000
20
461.647340
11
374.641000
21
461.560090
0
LINE
8
Layer 1
10
374.641000
20
461.560090
11
374.588000
21
461.475750
0
LINE
8
Layer 1
10
374.588000
20
461.475750
11
374.532000
21
461.393050
0
LINE
8
Layer 1
10
374.532000
20
461.393050
11
374.473000
21
461.313640
0
LINE
8
Layer 1
10
374.473000
20
461.313640
11
374.409000
21
461.236230
0
LINE
8
Layer 1
10
374.409000
20
461.236230
11
374.343000
21
461.162300
0
LINE
8
Layer 1
10
374.343000
20
461.162300
11
374.274000
21
461.090970
0
LINE
8
Layer 1
10
374.274000
20
461.090970
11
374.234000
21
461.053590
0
LINE
8
Layer 1
10
374.234000
20
461.053590
11
374.201000
21
461.023090
0
LINE
8
Layer 1
10
374.201000
20
461.023090
11
374.125000
21
460.958120
0
LINE
8
Layer 1
10
374.125000
20
460.958120
11
374.047000
21
460.897050
0
LINE
8
Layer 1
10
374.047000
20
460.897050
11
373.966000
21
460.838990
0
LINE
8
Layer 1
10
373.966000
20
460.838990
11
373.882000
21
460.785070
0
LINE
8
Layer 1
10
373.882000
20
460.785070
11
373.796000
21
460.734420
0
LINE
8
Layer 1
10
373.796000
20
460.734420
11
373.794000
21
460.733460
0
LINE
8
Layer 1
10
373.794000
20
460.733460
11
373.708000
21
460.687990
0
LINE
8
Layer 1
10
373.708000
20
460.687990
11
373.618000
21
460.645420
0
LINE
8
Layer 1
10
373.618000
20
460.645420
11
373.526000
21
460.606640
0
LINE
8
Layer 1
10
373.526000
20
460.606640
11
373.433000
21
460.572140
0
LINE
8
Layer 1
10
373.433000
20
460.572140
11
373.338000
21
460.541910
0
LINE
8
Layer 1
10
373.338000
20
460.541910
11
373.242000
21
460.515770
0
LINE
8
Layer 1
10
373.242000
20
460.515770
11
373.145000
21
460.493860
0
LINE
8
Layer 1
10
373.145000
20
460.493860
11
373.103000
21
460.486390
0
LINE
8
Layer 1
10
373.103000
20
460.486390
11
373.047000
21
460.476400
0
LINE
8
Layer 1
10
373.047000
20
460.476400
11
372.948000
21
460.463180
0
LINE
8
Layer 1
10
372.948000
20
460.463180
11
372.944000
21
460.462780
0
LINE
8
Layer 1
10
372.944000
20
460.462780
11
372.849000
21
460.454400
0
LINE
8
Layer 1
10
372.849000
20
460.454400
11
372.753000
21
460.450140
0
LINE
8
Layer 1
10
372.753000
20
460.450140
11
372.750000
21
460.450010
0
LINE
8
Layer 1
10
372.750000
20
460.450010
11
372.650000
21
460.450000
0
LINE
8
Layer 1
10
372.650000
20
460.450000
11
372.550000
21
460.454440
 0 
ENDSEC
 0 
EOF