999
"DXF R12 Output" (www.mydxf.blogspot.com)
 0 
SECTION
 2 
HEADER
 9 
$ACADVER
 1 
AC1009
 9 
$EXTMIN
 10 
 0 
 20 
 0 
 9 
$EXTMAX
 10 
 8.5 
 20 
 11 
 0 
ENDSEC
 0 
SECTION
 2 
ENTITIES
0
LINE
8
Layer 1
10
254.300000
20
874.000000
11
0.000000
21
874.000000
0
LINE
8
Layer 1
10
0.000000
20
874.000000
11
0.000000
21
862.100000
0
LINE
8
Layer 1
10
0.000000
20
862.100000
11
7.995000
21
862.100000
0
LINE
8
Layer 1
10
7.995000
20
862.100000
11
7.995000
21
857.900000
0
LINE
8
Layer 1
10
7.995000
20
857.900000
11
0.000000
21
857.900000
0
LINE
8
Layer 1
10
0.000000
20
857.900000
11
0.002141
21
655.547000
0
LINE
8
Layer 1
10
0.002141
20
655.547000
11
0.000000
21
453.100000
0
LINE
8
Layer 1
10
0.000000
20
453.100000
11
7.995000
21
453.100000
0
LINE
8
Layer 1
10
7.995000
20
453.100000
11
7.995000
21
448.900000
0
LINE
8
Layer 1
10
7.995000
20
448.900000
11
0.000000
21
448.900000
0
LINE
8
Layer 1
10
0.000000
20
448.900000
11
0.000000
21
437.000000
0
LINE
8
Layer 1
10
0.000000
20
437.000000
11
254.300000
21
437.000000
0
LINE
8
Layer 1
10
254.300000
20
437.000000
11
254.300000
21
874.000000
0
LINE
8
Layer 1
10
239.900000
20
700.250000
11
239.800000
21
700.254000
0
LINE
8
Layer 1
10
239.800000
20
700.254000
11
239.701000
21
700.261000
0
LINE
8
Layer 1
10
239.701000
20
700.261000
11
239.601000
21
700.272000
0
LINE
8
Layer 1
10
239.601000
20
700.272000
11
239.502000
21
700.286000
0
LINE
8
Layer 1
10
239.502000
20
700.286000
11
239.404000
21
700.304000
0
LINE
8
Layer 1
10
239.404000
20
700.304000
11
239.306000
21
700.326000
0
LINE
8
Layer 1
10
239.306000
20
700.326000
11
239.210000
21
700.351000
0
LINE
8
Layer 1
10
239.210000
20
700.351000
11
239.177000
21
700.361000
0
LINE
8
Layer 1
10
239.177000
20
700.361000
11
239.114000
21
700.380000
0
LINE
8
Layer 1
10
239.114000
20
700.380000
11
239.020000
21
700.412000
0
LINE
8
Layer 1
10
239.020000
20
700.412000
11
238.926000
21
700.447000
0
LINE
8
Layer 1
10
238.926000
20
700.447000
11
238.834000
21
700.486000
0
LINE
8
Layer 1
10
238.834000
20
700.486000
11
238.743000
21
700.528000
0
LINE
8
Layer 1
10
238.743000
20
700.528000
11
238.655000
21
700.574000
0
LINE
8
Layer 1
10
238.655000
20
700.574000
11
238.568000
21
700.622000
0
LINE
8
Layer 1
10
238.568000
20
700.622000
11
238.482000
21
700.674000
0
LINE
8
Layer 1
10
238.482000
20
700.674000
11
238.408000
21
700.723000
0
LINE
8
Layer 1
10
238.408000
20
700.723000
11
238.399000
21
700.729000
0
LINE
8
Layer 1
10
238.399000
20
700.729000
11
238.317000
21
700.787000
0
LINE
8
Layer 1
10
238.317000
20
700.787000
11
238.238000
21
700.847000
0
LINE
8
Layer 1
10
238.238000
20
700.847000
11
238.161000
21
700.911000
0
LINE
8
Layer 1
10
238.161000
20
700.911000
11
238.086000
21
700.977000
0
LINE
8
Layer 1
10
238.086000
20
700.977000
11
238.014000
21
701.046000
0
LINE
8
Layer 1
10
238.014000
20
701.046000
11
237.990000
21
701.071000
0
LINE
8
Layer 1
10
237.990000
20
701.071000
11
237.944000
21
701.118000
0
LINE
8
Layer 1
10
237.944000
20
701.118000
11
237.877000
21
701.192000
0
LINE
8
Layer 1
10
237.877000
20
701.192000
11
237.813000
21
701.268000
0
LINE
8
Layer 1
10
237.813000
20
701.268000
11
237.751000
21
701.347000
0
LINE
8
Layer 1
10
237.751000
20
701.347000
11
237.693000
21
701.428000
0
LINE
8
Layer 1
10
237.693000
20
701.428000
11
237.637000
21
701.511000
0
LINE
8
Layer 1
10
237.637000
20
701.511000
11
237.585000
21
701.596000
0
LINE
8
Layer 1
10
237.585000
20
701.596000
11
237.535000
21
701.683000
0
LINE
8
Layer 1
10
237.535000
20
701.683000
11
237.489000
21
701.771000
0
LINE
8
Layer 1
10
237.489000
20
701.771000
11
237.446000
21
701.861000
0
LINE
8
Layer 1
10
237.446000
20
701.861000
11
237.406000
21
701.954000
0
LINE
8
Layer 1
10
237.406000
20
701.954000
11
237.370000
21
702.046000
0
LINE
8
Layer 1
10
237.370000
20
702.046000
11
237.337000
21
702.141000
0
LINE
8
Layer 1
10
237.337000
20
702.141000
11
237.308000
21
702.236000
0
LINE
8
Layer 1
10
237.308000
20
702.236000
11
237.306000
21
702.242000
0
LINE
8
Layer 1
10
237.306000
20
702.242000
11
237.282000
21
702.333000
0
LINE
8
Layer 1
10
237.282000
20
702.333000
11
237.280000
21
702.340000
0
LINE
8
Layer 1
10
237.280000
20
702.340000
11
237.259000
21
702.430000
0
LINE
8
Layer 1
10
237.259000
20
702.430000
11
237.254000
21
702.457000
0
LINE
8
Layer 1
10
237.254000
20
702.457000
11
237.240000
21
702.528000
0
LINE
8
Layer 1
10
237.240000
20
702.528000
11
237.225000
21
702.627000
0
LINE
8
Layer 1
10
237.225000
20
702.627000
11
237.213000
21
702.726000
0
LINE
8
Layer 1
10
237.213000
20
702.726000
11
237.211000
21
702.756000
0
LINE
8
Layer 1
10
237.211000
20
702.756000
11
237.205000
21
702.825000
0
LINE
8
Layer 1
10
237.205000
20
702.825000
11
237.202000
21
702.889000
0
LINE
8
Layer 1
10
237.202000
20
702.889000
11
237.201000
21
702.925000
0
LINE
8
Layer 1
10
237.201000
20
702.925000
11
237.200000
21
703.025000
0
LINE
8
Layer 1
10
237.200000
20
703.025000
11
237.202000
21
703.125000
0
LINE
8
Layer 1
10
237.202000
20
703.125000
11
237.209000
21
703.225000
0
LINE
8
Layer 1
10
237.209000
20
703.225000
11
237.219000
21
703.324000
0
LINE
8
Layer 1
10
237.219000
20
703.324000
11
237.219000
21
703.326000
0
LINE
8
Layer 1
10
237.219000
20
703.326000
11
237.232000
21
703.423000
0
LINE
8
Layer 1
10
237.232000
20
703.423000
11
237.249000
21
703.521000
0
LINE
8
Layer 1
10
237.249000
20
703.521000
11
237.270000
21
703.619000
0
LINE
8
Layer 1
10
237.270000
20
703.619000
11
237.294000
21
703.716000
0
LINE
8
Layer 1
10
237.294000
20
703.716000
11
237.313000
21
703.781000
0
LINE
8
Layer 1
10
237.313000
20
703.781000
11
237.322000
21
703.812000
0
LINE
8
Layer 1
10
237.322000
20
703.812000
11
237.353000
21
703.907000
0
LINE
8
Layer 1
10
237.353000
20
703.907000
11
237.388000
21
704.000000
0
LINE
8
Layer 1
10
237.388000
20
704.000000
11
237.426000
21
704.093000
0
LINE
8
Layer 1
10
237.426000
20
704.093000
11
237.429000
21
704.100000
0
LINE
8
Layer 1
10
237.429000
20
704.100000
11
237.467000
21
704.184000
0
LINE
8
Layer 1
10
237.467000
20
704.184000
11
237.512000
21
704.273000
0
LINE
8
Layer 1
10
237.512000
20
704.273000
11
237.560000
21
704.361000
0
LINE
8
Layer 1
10
237.560000
20
704.361000
11
237.611000
21
704.447000
0
LINE
8
Layer 1
10
237.611000
20
704.447000
11
237.665000
21
704.531000
0
LINE
8
Layer 1
10
237.665000
20
704.531000
11
237.722000
21
704.613000
0
LINE
8
Layer 1
10
237.722000
20
704.613000
11
237.782000
21
704.693000
0
LINE
8
Layer 1
10
237.782000
20
704.693000
11
237.833000
21
704.755000
0
LINE
8
Layer 1
10
237.833000
20
704.755000
11
237.845000
21
704.770000
0
LINE
8
Layer 1
10
237.845000
20
704.770000
11
237.910000
21
704.845000
0
LINE
8
Layer 1
10
237.910000
20
704.845000
11
237.979000
21
704.918000
0
LINE
8
Layer 1
10
237.979000
20
704.918000
11
238.050000
21
704.988000
0
LINE
8
Layer 1
10
238.050000
20
704.988000
11
238.123000
21
705.056000
0
LINE
8
Layer 1
10
238.123000
20
705.056000
11
238.199000
21
705.121000
0
LINE
8
Layer 1
10
238.199000
20
705.121000
11
238.277000
21
705.183000
0
LINE
8
Layer 1
10
238.277000
20
705.183000
11
238.328000
21
705.221000
0
LINE
8
Layer 1
10
238.328000
20
705.221000
11
238.358000
21
705.243000
0
LINE
8
Layer 1
10
238.358000
20
705.243000
11
238.440000
21
705.299000
0
LINE
8
Layer 1
10
238.440000
20
705.299000
11
238.525000
21
705.352000
0
LINE
8
Layer 1
10
238.525000
20
705.352000
11
238.598000
21
705.395000
0
LINE
8
Layer 1
10
238.598000
20
705.395000
11
238.611000
21
705.402000
0
LINE
8
Layer 1
10
238.611000
20
705.402000
11
238.699000
21
705.450000
0
LINE
8
Layer 1
10
238.699000
20
705.450000
11
238.789000
21
705.493000
0
LINE
8
Layer 1
10
238.789000
20
705.493000
11
238.880000
21
705.534000
0
LINE
8
Layer 1
10
238.880000
20
705.534000
11
238.973000
21
705.571000
0
LINE
8
Layer 1
10
238.973000
20
705.571000
11
239.067000
21
705.605000
0
LINE
8
Layer 1
10
239.067000
20
705.605000
11
239.162000
21
705.635000
0
LINE
8
Layer 1
10
239.162000
20
705.635000
11
239.258000
21
705.662000
0
LINE
8
Layer 1
10
239.258000
20
705.662000
11
239.356000
21
705.685000
0
LINE
8
Layer 1
10
239.356000
20
705.685000
11
239.453000
21
705.705000
0
LINE
8
Layer 1
10
239.453000
20
705.705000
11
239.552000
21
705.722000
0
LINE
8
Layer 1
10
239.552000
20
705.722000
11
239.651000
21
705.734000
0
LINE
8
Layer 1
10
239.651000
20
705.734000
11
239.751000
21
705.743000
0
LINE
8
Layer 1
10
239.751000
20
705.743000
11
239.791000
21
705.745000
0
LINE
8
Layer 1
10
239.791000
20
705.745000
11
239.850000
21
705.749000
0
LINE
8
Layer 1
10
239.850000
20
705.749000
11
239.950000
21
705.750000
0
LINE
8
Layer 1
10
239.950000
20
705.750000
11
240.050000
21
705.749000
0
LINE
8
Layer 1
10
240.050000
20
705.749000
11
240.150000
21
705.743000
0
LINE
8
Layer 1
10
240.150000
20
705.743000
11
240.249000
21
705.734000
0
LINE
8
Layer 1
10
240.249000
20
705.734000
11
240.349000
21
705.721000
0
LINE
8
Layer 1
10
240.349000
20
705.721000
11
240.447000
21
705.705000
0
LINE
8
Layer 1
10
240.447000
20
705.705000
11
240.545000
21
705.685000
0
LINE
8
Layer 1
10
240.545000
20
705.685000
11
240.642000
21
705.662000
0
LINE
8
Layer 1
10
240.642000
20
705.662000
11
240.738000
21
705.635000
0
LINE
8
Layer 1
10
240.738000
20
705.635000
11
240.789000
21
705.619000
0
LINE
8
Layer 1
10
240.789000
20
705.619000
11
240.833000
21
705.605000
0
LINE
8
Layer 1
10
240.833000
20
705.605000
11
240.927000
21
705.571000
0
LINE
8
Layer 1
10
240.927000
20
705.571000
11
241.020000
21
705.534000
0
LINE
8
Layer 1
10
241.020000
20
705.534000
11
241.111000
21
705.493000
0
LINE
8
Layer 1
10
241.111000
20
705.493000
11
241.201000
21
705.449000
0
LINE
8
Layer 1
10
241.201000
20
705.449000
11
241.227000
21
705.435000
0
LINE
8
Layer 1
10
241.227000
20
705.435000
11
241.289000
21
705.402000
0
LINE
8
Layer 1
10
241.289000
20
705.402000
11
241.375000
21
705.352000
0
LINE
8
Layer 1
10
241.375000
20
705.352000
11
241.460000
21
705.299000
0
LINE
8
Layer 1
10
241.460000
20
705.299000
11
241.491000
21
705.277000
0
LINE
8
Layer 1
10
241.491000
20
705.277000
11
241.543000
21
705.242000
0
LINE
8
Layer 1
10
241.543000
20
705.242000
11
241.623000
21
705.183000
0
LINE
8
Layer 1
10
241.623000
20
705.183000
11
241.701000
21
705.121000
0
LINE
8
Layer 1
10
241.701000
20
705.121000
11
241.777000
21
705.056000
0
LINE
8
Layer 1
10
241.777000
20
705.056000
11
241.850000
21
704.989000
0
LINE
8
Layer 1
10
241.850000
20
704.989000
11
241.921000
21
704.918000
0
LINE
8
Layer 1
10
241.921000
20
704.918000
11
241.963000
21
704.873000
0
LINE
8
Layer 1
10
241.963000
20
704.873000
11
241.990000
21
704.845000
0
LINE
8
Layer 1
10
241.990000
20
704.845000
11
242.055000
21
704.770000
0
LINE
8
Layer 1
10
242.055000
20
704.770000
11
242.118000
21
704.692000
0
LINE
8
Layer 1
10
242.118000
20
704.692000
11
242.178000
21
704.613000
0
LINE
8
Layer 1
10
242.178000
20
704.613000
11
242.235000
21
704.531000
0
LINE
8
Layer 1
10
242.235000
20
704.531000
11
242.289000
21
704.447000
0
LINE
8
Layer 1
10
242.289000
20
704.447000
11
242.340000
21
704.361000
0
LINE
8
Layer 1
10
242.340000
20
704.361000
11
242.356000
21
704.331000
0
LINE
8
Layer 1
10
242.356000
20
704.331000
11
242.388000
21
704.273000
0
LINE
8
Layer 1
10
242.388000
20
704.273000
11
242.411000
21
704.227000
0
LINE
8
Layer 1
10
242.411000
20
704.227000
11
242.433000
21
704.183000
0
LINE
8
Layer 1
10
242.433000
20
704.183000
11
242.474000
21
704.093000
0
LINE
8
Layer 1
10
242.474000
20
704.093000
11
242.512000
21
704.000000
0
LINE
8
Layer 1
10
242.512000
20
704.000000
11
242.547000
21
703.907000
0
LINE
8
Layer 1
10
242.547000
20
703.907000
11
242.578000
21
703.812000
0
LINE
8
Layer 1
10
242.578000
20
703.812000
11
242.606000
21
703.716000
0
LINE
8
Layer 1
10
242.606000
20
703.716000
11
242.630000
21
703.619000
0
LINE
8
Layer 1
10
242.630000
20
703.619000
11
242.640000
21
703.571000
0
LINE
8
Layer 1
10
242.640000
20
703.571000
11
242.651000
21
703.521000
0
LINE
8
Layer 1
10
242.651000
20
703.521000
11
242.657000
21
703.483000
0
LINE
8
Layer 1
10
242.657000
20
703.483000
11
242.668000
21
703.423000
0
LINE
8
Layer 1
10
242.668000
20
703.423000
11
242.681000
21
703.324000
0
LINE
8
Layer 1
10
242.681000
20
703.324000
11
242.691000
21
703.224000
0
LINE
8
Layer 1
10
242.691000
20
703.224000
11
242.698000
21
703.125000
0
LINE
8
Layer 1
10
242.698000
20
703.125000
11
242.700000
21
703.025000
0
LINE
8
Layer 1
10
242.700000
20
703.025000
11
242.699000
21
702.925000
0
LINE
8
Layer 1
10
242.699000
20
702.925000
11
242.695000
21
702.825000
0
LINE
8
Layer 1
10
242.695000
20
702.825000
11
242.687000
21
702.726000
0
LINE
8
Layer 1
10
242.687000
20
702.726000
11
242.675000
21
702.626000
0
LINE
8
Layer 1
10
242.675000
20
702.626000
11
242.660000
21
702.528000
0
LINE
8
Layer 1
10
242.660000
20
702.528000
11
242.641000
21
702.430000
0
LINE
8
Layer 1
10
242.641000
20
702.430000
11
242.618000
21
702.332000
0
LINE
8
Layer 1
10
242.618000
20
702.332000
11
242.592000
21
702.236000
0
LINE
8
Layer 1
10
242.592000
20
702.236000
11
242.563000
21
702.140000
0
LINE
8
Layer 1
10
242.563000
20
702.140000
11
242.530000
21
702.046000
0
LINE
8
Layer 1
10
242.530000
20
702.046000
11
242.494000
21
701.953000
0
LINE
8
Layer 1
10
242.494000
20
701.953000
11
242.454000
21
701.861000
0
LINE
8
Layer 1
10
242.454000
20
701.861000
11
242.411000
21
701.771000
0
LINE
8
Layer 1
10
242.411000
20
701.771000
11
242.364000
21
701.683000
0
LINE
8
Layer 1
10
242.364000
20
701.683000
11
242.345000
21
701.648000
0
LINE
8
Layer 1
10
242.345000
20
701.648000
11
242.315000
21
701.596000
0
LINE
8
Layer 1
10
242.315000
20
701.596000
11
242.262000
21
701.511000
0
LINE
8
Layer 1
10
242.262000
20
701.511000
11
242.207000
21
701.428000
0
LINE
8
Layer 1
10
242.207000
20
701.428000
11
242.148000
21
701.347000
0
LINE
8
Layer 1
10
242.148000
20
701.347000
11
242.140000
21
701.336000
0
LINE
8
Layer 1
10
242.140000
20
701.336000
11
242.087000
21
701.268000
0
LINE
8
Layer 1
10
242.087000
20
701.268000
11
242.022000
21
701.192000
0
LINE
8
Layer 1
10
242.022000
20
701.192000
11
241.956000
21
701.118000
0
LINE
8
Layer 1
10
241.956000
20
701.118000
11
241.886000
21
701.046000
0
LINE
8
Layer 1
10
241.886000
20
701.046000
11
241.814000
21
700.977000
0
LINE
8
Layer 1
10
241.814000
20
700.977000
11
241.739000
21
700.911000
0
LINE
8
Layer 1
10
241.739000
20
700.911000
11
241.662000
21
700.847000
0
LINE
8
Layer 1
10
241.662000
20
700.847000
11
241.583000
21
700.787000
0
LINE
8
Layer 1
10
241.583000
20
700.787000
11
241.501000
21
700.729000
0
LINE
8
Layer 1
10
241.501000
20
700.729000
11
241.418000
21
700.674000
0
LINE
8
Layer 1
10
241.418000
20
700.674000
11
241.332000
21
700.622000
0
LINE
8
Layer 1
10
241.332000
20
700.622000
11
241.293000
21
700.600000
0
LINE
8
Layer 1
10
241.293000
20
700.600000
11
241.245000
21
700.573000
0
LINE
8
Layer 1
10
241.245000
20
700.573000
11
241.209000
21
700.555000
0
LINE
8
Layer 1
10
241.209000
20
700.555000
11
241.156000
21
700.528000
0
LINE
8
Layer 1
10
241.156000
20
700.528000
11
241.066000
21
700.486000
0
LINE
8
Layer 1
10
241.066000
20
700.486000
11
240.973000
21
700.447000
0
LINE
8
Layer 1
10
240.973000
20
700.447000
11
240.971000
21
700.446000
0
LINE
8
Layer 1
10
240.971000
20
700.446000
11
240.880000
21
700.412000
0
LINE
8
Layer 1
10
240.880000
20
700.412000
11
240.786000
21
700.380000
0
LINE
8
Layer 1
10
240.786000
20
700.380000
11
240.690000
21
700.351000
0
LINE
8
Layer 1
10
240.690000
20
700.351000
11
240.593000
21
700.326000
0
LINE
8
Layer 1
10
240.593000
20
700.326000
11
240.496000
21
700.304000
0
LINE
8
Layer 1
10
240.496000
20
700.304000
11
240.398000
21
700.286000
0
LINE
8
Layer 1
10
240.398000
20
700.286000
11
240.299000
21
700.272000
0
LINE
8
Layer 1
10
240.299000
20
700.272000
11
240.199000
21
700.261000
0
LINE
8
Layer 1
10
240.199000
20
700.261000
11
240.186000
21
700.260000
0
LINE
8
Layer 1
10
240.186000
20
700.260000
11
240.099000
21
700.254000
0
LINE
8
Layer 1
10
240.099000
20
700.254000
11
240.000000
21
700.250000
0
LINE
8
Layer 1
10
240.000000
20
700.250000
11
239.900000
21
700.250000
0
LINE
8
Layer 1
10
239.900000
20
605.250000
11
239.800000
21
605.254000
0
LINE
8
Layer 1
10
239.800000
20
605.254000
11
239.701000
21
605.261000
0
LINE
8
Layer 1
10
239.701000
20
605.261000
11
239.601000
21
605.272000
0
LINE
8
Layer 1
10
239.601000
20
605.272000
11
239.503000
21
605.286000
0
LINE
8
Layer 1
10
239.503000
20
605.286000
11
239.404000
21
605.304000
0
LINE
8
Layer 1
10
239.404000
20
605.304000
11
239.306000
21
605.326000
0
LINE
8
Layer 1
10
239.306000
20
605.326000
11
239.210000
21
605.351000
0
LINE
8
Layer 1
10
239.210000
20
605.351000
11
239.114000
21
605.380000
0
LINE
8
Layer 1
10
239.114000
20
605.380000
11
239.020000
21
605.412000
0
LINE
8
Layer 1
10
239.020000
20
605.412000
11
238.926000
21
605.447000
0
LINE
8
Layer 1
10
238.926000
20
605.447000
11
238.834000
21
605.486000
0
LINE
8
Layer 1
10
238.834000
20
605.486000
11
238.744000
21
605.528000
0
LINE
8
Layer 1
10
238.744000
20
605.528000
11
238.655000
21
605.574000
0
LINE
8
Layer 1
10
238.655000
20
605.574000
11
238.568000
21
605.622000
0
LINE
8
Layer 1
10
238.568000
20
605.622000
11
238.482000
21
605.674000
0
LINE
8
Layer 1
10
238.482000
20
605.674000
11
238.408000
21
605.723000
0
LINE
8
Layer 1
10
238.408000
20
605.723000
11
238.399000
21
605.729000
0
LINE
8
Layer 1
10
238.399000
20
605.729000
11
238.317000
21
605.787000
0
LINE
8
Layer 1
10
238.317000
20
605.787000
11
238.238000
21
605.847000
0
LINE
8
Layer 1
10
238.238000
20
605.847000
11
238.165000
21
605.908000
0
LINE
8
Layer 1
10
238.165000
20
605.908000
11
238.161000
21
605.911000
0
LINE
8
Layer 1
10
238.161000
20
605.911000
11
238.086000
21
605.977000
0
LINE
8
Layer 1
10
238.086000
20
605.977000
11
238.014000
21
606.046000
0
LINE
8
Layer 1
10
238.014000
20
606.046000
11
237.944000
21
606.118000
0
LINE
8
Layer 1
10
237.944000
20
606.118000
11
237.877000
21
606.192000
0
LINE
8
Layer 1
10
237.877000
20
606.192000
11
237.813000
21
606.268000
0
LINE
8
Layer 1
10
237.813000
20
606.268000
11
237.751000
21
606.347000
0
LINE
8
Layer 1
10
237.751000
20
606.347000
11
237.693000
21
606.428000
0
LINE
8
Layer 1
10
237.693000
20
606.428000
11
237.637000
21
606.511000
0
LINE
8
Layer 1
10
237.637000
20
606.511000
11
237.585000
21
606.596000
0
LINE
8
Layer 1
10
237.585000
20
606.596000
11
237.535000
21
606.683000
0
LINE
8
Layer 1
10
237.535000
20
606.683000
11
237.513000
21
606.725000
0
LINE
8
Layer 1
10
237.513000
20
606.725000
11
237.489000
21
606.771000
0
LINE
8
Layer 1
10
237.489000
20
606.771000
11
237.461000
21
606.831000
0
LINE
8
Layer 1
10
237.461000
20
606.831000
11
237.446000
21
606.862000
0
LINE
8
Layer 1
10
237.446000
20
606.862000
11
237.406000
21
606.954000
0
LINE
8
Layer 1
10
237.406000
20
606.954000
11
237.370000
21
607.046000
0
LINE
8
Layer 1
10
237.370000
20
607.046000
11
237.337000
21
607.141000
0
LINE
8
Layer 1
10
237.337000
20
607.141000
11
237.308000
21
607.236000
0
LINE
8
Layer 1
10
237.308000
20
607.236000
11
237.306000
21
607.244000
0
LINE
8
Layer 1
10
237.306000
20
607.244000
11
237.282000
21
607.333000
0
LINE
8
Layer 1
10
237.282000
20
607.333000
11
237.275000
21
607.362000
0
LINE
8
Layer 1
10
237.275000
20
607.362000
11
237.259000
21
607.430000
0
LINE
8
Layer 1
10
237.259000
20
607.430000
11
237.249000
21
607.482000
0
LINE
8
Layer 1
10
237.249000
20
607.482000
11
237.240000
21
607.528000
0
LINE
8
Layer 1
10
237.240000
20
607.528000
11
237.225000
21
607.627000
0
LINE
8
Layer 1
10
237.225000
20
607.627000
11
237.213000
21
607.726000
0
LINE
8
Layer 1
10
237.213000
20
607.726000
11
237.212000
21
607.744000
0
LINE
8
Layer 1
10
237.212000
20
607.744000
11
237.205000
21
607.825000
0
LINE
8
Layer 1
10
237.205000
20
607.825000
11
237.202000
21
607.887000
0
LINE
8
Layer 1
10
237.202000
20
607.887000
11
237.201000
21
607.925000
0
LINE
8
Layer 1
10
237.201000
20
607.925000
11
237.200000
21
608.025000
0
LINE
8
Layer 1
10
237.200000
20
608.025000
11
237.202000
21
608.125000
0
LINE
8
Layer 1
10
237.202000
20
608.125000
11
237.209000
21
608.225000
0
LINE
8
Layer 1
10
237.209000
20
608.225000
11
237.219000
21
608.324000
0
LINE
8
Layer 1
10
237.219000
20
608.324000
11
237.221000
21
608.338000
0
LINE
8
Layer 1
10
237.221000
20
608.338000
11
237.232000
21
608.423000
0
LINE
8
Layer 1
10
237.232000
20
608.423000
11
237.249000
21
608.521000
0
LINE
8
Layer 1
10
237.249000
20
608.521000
11
237.270000
21
608.619000
0
LINE
8
Layer 1
10
237.270000
20
608.619000
11
237.294000
21
608.716000
0
LINE
8
Layer 1
10
237.294000
20
608.716000
11
237.305000
21
608.753000
0
LINE
8
Layer 1
10
237.305000
20
608.753000
11
237.322000
21
608.812000
0
LINE
8
Layer 1
10
237.322000
20
608.812000
11
237.353000
21
608.907000
0
LINE
8
Layer 1
10
237.353000
20
608.907000
11
237.388000
21
609.000000
0
LINE
8
Layer 1
10
237.388000
20
609.000000
11
237.426000
21
609.093000
0
LINE
8
Layer 1
10
237.426000
20
609.093000
11
237.444000
21
609.132000
0
LINE
8
Layer 1
10
237.444000
20
609.132000
11
237.467000
21
609.184000
0
LINE
8
Layer 1
10
237.467000
20
609.184000
11
237.512000
21
609.273000
0
LINE
8
Layer 1
10
237.512000
20
609.273000
11
237.560000
21
609.361000
0
LINE
8
Layer 1
10
237.560000
20
609.361000
11
237.611000
21
609.447000
0
LINE
8
Layer 1
10
237.611000
20
609.447000
11
237.665000
21
609.531000
0
LINE
8
Layer 1
10
237.665000
20
609.531000
11
237.722000
21
609.613000
0
LINE
8
Layer 1
10
237.722000
20
609.613000
11
237.782000
21
609.693000
0
LINE
8
Layer 1
10
237.782000
20
609.693000
11
237.833000
21
609.755000
0
LINE
8
Layer 1
10
237.833000
20
609.755000
11
237.845000
21
609.770000
0
LINE
8
Layer 1
10
237.845000
20
609.770000
11
237.910000
21
609.845000
0
LINE
8
Layer 1
10
237.910000
20
609.845000
11
237.979000
21
609.918000
0
LINE
8
Layer 1
10
237.979000
20
609.918000
11
238.050000
21
609.988000
0
LINE
8
Layer 1
10
238.050000
20
609.988000
11
238.123000
21
610.056000
0
LINE
8
Layer 1
10
238.123000
20
610.056000
11
238.181000
21
610.106000
0
LINE
8
Layer 1
10
238.181000
20
610.106000
11
238.199000
21
610.121000
0
LINE
8
Layer 1
10
238.199000
20
610.121000
11
238.278000
21
610.184000
0
LINE
8
Layer 1
10
238.278000
20
610.184000
11
238.358000
21
610.243000
0
LINE
8
Layer 1
10
238.358000
20
610.243000
11
238.440000
21
610.299000
0
LINE
8
Layer 1
10
238.440000
20
610.299000
11
238.525000
21
610.352000
0
LINE
8
Layer 1
10
238.525000
20
610.352000
11
238.611000
21
610.402000
0
LINE
8
Layer 1
10
238.611000
20
610.402000
11
238.699000
21
610.450000
0
LINE
8
Layer 1
10
238.699000
20
610.450000
11
238.732000
21
610.466000
0
LINE
8
Layer 1
10
238.732000
20
610.466000
11
238.789000
21
610.493000
0
LINE
8
Layer 1
10
238.789000
20
610.493000
11
238.880000
21
610.534000
0
LINE
8
Layer 1
10
238.880000
20
610.534000
11
238.973000
21
610.571000
0
LINE
8
Layer 1
10
238.973000
20
610.571000
11
239.067000
21
610.605000
0
LINE
8
Layer 1
10
239.067000
20
610.605000
11
239.162000
21
610.635000
0
LINE
8
Layer 1
10
239.162000
20
610.635000
11
239.258000
21
610.662000
0
LINE
8
Layer 1
10
239.258000
20
610.662000
11
239.355000
21
610.685000
0
LINE
8
Layer 1
10
239.355000
20
610.685000
11
239.453000
21
610.705000
0
LINE
8
Layer 1
10
239.453000
20
610.705000
11
239.552000
21
610.722000
0
LINE
8
Layer 1
10
239.552000
20
610.722000
11
239.558000
21
610.722000
0
LINE
8
Layer 1
10
239.558000
20
610.722000
11
239.651000
21
610.734000
0
LINE
8
Layer 1
10
239.651000
20
610.734000
11
239.669000
21
610.736000
0
LINE
8
Layer 1
10
239.669000
20
610.736000
11
239.751000
21
610.743000
0
LINE
8
Layer 1
10
239.751000
20
610.743000
11
239.791000
21
610.745000
0
LINE
8
Layer 1
10
239.791000
20
610.745000
11
239.850000
21
610.749000
0
LINE
8
Layer 1
10
239.850000
20
610.749000
11
239.950000
21
610.750000
0
LINE
8
Layer 1
10
239.950000
20
610.750000
11
240.050000
21
610.749000
0
LINE
8
Layer 1
10
240.050000
20
610.749000
11
240.150000
21
610.743000
0
LINE
8
Layer 1
10
240.150000
20
610.743000
11
240.175000
21
610.741000
0
LINE
8
Layer 1
10
240.175000
20
610.741000
11
240.249000
21
610.734000
0
LINE
8
Layer 1
10
240.249000
20
610.734000
11
240.349000
21
610.721000
0
LINE
8
Layer 1
10
240.349000
20
610.721000
11
240.447000
21
610.705000
0
LINE
8
Layer 1
10
240.447000
20
610.705000
11
240.545000
21
610.685000
0
LINE
8
Layer 1
10
240.545000
20
610.685000
11
240.642000
21
610.662000
0
LINE
8
Layer 1
10
240.642000
20
610.662000
11
240.656000
21
610.658000
0
LINE
8
Layer 1
10
240.656000
20
610.658000
11
240.738000
21
610.635000
0
LINE
8
Layer 1
10
240.738000
20
610.635000
11
240.756000
21
610.629000
0
LINE
8
Layer 1
10
240.756000
20
610.629000
11
240.833000
21
610.605000
0
LINE
8
Layer 1
10
240.833000
20
610.605000
11
240.844000
21
610.601000
0
LINE
8
Layer 1
10
240.844000
20
610.601000
11
240.927000
21
610.571000
0
LINE
8
Layer 1
10
240.927000
20
610.571000
11
241.020000
21
610.534000
0
LINE
8
Layer 1
10
241.020000
20
610.534000
11
241.111000
21
610.493000
0
LINE
8
Layer 1
10
241.111000
20
610.493000
11
241.201000
21
610.449000
0
LINE
8
Layer 1
10
241.201000
20
610.449000
11
241.289000
21
610.402000
0
LINE
8
Layer 1
10
241.289000
20
610.402000
11
241.375000
21
610.352000
0
LINE
8
Layer 1
10
241.375000
20
610.352000
11
241.460000
21
610.299000
0
LINE
8
Layer 1
10
241.460000
20
610.299000
11
241.542000
21
610.243000
0
LINE
8
Layer 1
10
241.542000
20
610.243000
11
241.599000
21
610.201000
0
LINE
8
Layer 1
10
241.599000
20
610.201000
11
241.623000
21
610.183000
0
LINE
8
Layer 1
10
241.623000
20
610.183000
11
241.687000
21
610.132000
0
LINE
8
Layer 1
10
241.687000
20
610.132000
11
241.701000
21
610.121000
0
LINE
8
Layer 1
10
241.701000
20
610.121000
11
241.777000
21
610.056000
0
LINE
8
Layer 1
10
241.777000
20
610.056000
11
241.850000
21
609.989000
0
LINE
8
Layer 1
10
241.850000
20
609.989000
11
241.921000
21
609.918000
0
LINE
8
Layer 1
10
241.921000
20
609.918000
11
241.926000
21
609.913000
0
LINE
8
Layer 1
10
241.926000
20
609.913000
11
241.990000
21
609.845000
0
LINE
8
Layer 1
10
241.990000
20
609.845000
11
242.055000
21
609.770000
0
LINE
8
Layer 1
10
242.055000
20
609.770000
11
242.118000
21
609.692000
0
LINE
8
Layer 1
10
242.118000
20
609.692000
11
242.178000
21
609.613000
0
LINE
8
Layer 1
10
242.178000
20
609.613000
11
242.235000
21
609.531000
0
LINE
8
Layer 1
10
242.235000
20
609.531000
11
242.289000
21
609.447000
0
LINE
8
Layer 1
10
242.289000
20
609.447000
11
242.340000
21
609.361000
0
LINE
8
Layer 1
10
242.340000
20
609.361000
11
242.346000
21
609.351000
0
LINE
8
Layer 1
10
242.346000
20
609.351000
11
242.388000
21
609.273000
0
LINE
8
Layer 1
10
242.388000
20
609.273000
11
242.397000
21
609.254000
0
LINE
8
Layer 1
10
242.397000
20
609.254000
11
242.433000
21
609.183000
0
LINE
8
Layer 1
10
242.433000
20
609.183000
11
242.474000
21
609.093000
0
LINE
8
Layer 1
10
242.474000
20
609.093000
11
242.512000
21
609.000000
0
LINE
8
Layer 1
10
242.512000
20
609.000000
11
242.547000
21
608.907000
0
LINE
8
Layer 1
10
242.547000
20
608.907000
11
242.578000
21
608.812000
0
LINE
8
Layer 1
10
242.578000
20
608.812000
11
242.606000
21
608.716000
0
LINE
8
Layer 1
10
242.606000
20
608.716000
11
242.630000
21
608.619000
0
LINE
8
Layer 1
10
242.630000
20
608.619000
11
242.645000
21
608.550000
0
LINE
8
Layer 1
10
242.645000
20
608.550000
11
242.651000
21
608.521000
0
LINE
8
Layer 1
10
242.651000
20
608.521000
11
242.658000
21
608.478000
0
LINE
8
Layer 1
10
242.658000
20
608.478000
11
242.668000
21
608.423000
0
LINE
8
Layer 1
10
242.668000
20
608.423000
11
242.681000
21
608.324000
0
LINE
8
Layer 1
10
242.681000
20
608.324000
11
242.691000
21
608.224000
0
LINE
8
Layer 1
10
242.691000
20
608.224000
11
242.698000
21
608.125000
0
LINE
8
Layer 1
10
242.698000
20
608.125000
11
242.700000
21
608.025000
0
LINE
8
Layer 1
10
242.700000
20
608.025000
11
242.699000
21
607.925000
0
LINE
8
Layer 1
10
242.699000
20
607.925000
11
242.695000
21
607.825000
0
LINE
8
Layer 1
10
242.695000
20
607.825000
11
242.687000
21
607.726000
0
LINE
8
Layer 1
10
242.687000
20
607.726000
11
242.675000
21
607.626000
0
LINE
8
Layer 1
10
242.675000
20
607.626000
11
242.660000
21
607.528000
0
LINE
8
Layer 1
10
242.660000
20
607.528000
11
242.641000
21
607.430000
0
LINE
8
Layer 1
10
242.641000
20
607.430000
11
242.618000
21
607.332000
0
LINE
8
Layer 1
10
242.618000
20
607.332000
11
242.592000
21
607.236000
0
LINE
8
Layer 1
10
242.592000
20
607.236000
11
242.563000
21
607.140000
0
LINE
8
Layer 1
10
242.563000
20
607.140000
11
242.543000
21
607.083000
0
LINE
8
Layer 1
10
242.543000
20
607.083000
11
242.530000
21
607.046000
0
LINE
8
Layer 1
10
242.530000
20
607.046000
11
242.502000
21
606.974000
0
LINE
8
Layer 1
10
242.502000
20
606.974000
11
242.493000
21
606.953000
0
LINE
8
Layer 1
10
242.493000
20
606.953000
11
242.454000
21
606.861000
0
LINE
8
Layer 1
10
242.454000
20
606.861000
11
242.411000
21
606.771000
0
LINE
8
Layer 1
10
242.411000
20
606.771000
11
242.364000
21
606.683000
0
LINE
8
Layer 1
10
242.364000
20
606.683000
11
242.317000
21
606.599000
0
LINE
8
Layer 1
10
242.317000
20
606.599000
11
242.315000
21
606.596000
0
LINE
8
Layer 1
10
242.315000
20
606.596000
11
242.262000
21
606.511000
0
LINE
8
Layer 1
10
242.262000
20
606.511000
11
242.207000
21
606.428000
0
LINE
8
Layer 1
10
242.207000
20
606.428000
11
242.148000
21
606.347000
0
LINE
8
Layer 1
10
242.148000
20
606.347000
11
242.087000
21
606.268000
0
LINE
8
Layer 1
10
242.087000
20
606.268000
11
242.023000
21
606.192000
0
LINE
8
Layer 1
10
242.023000
20
606.192000
11
241.956000
21
606.118000
0
LINE
8
Layer 1
10
241.956000
20
606.118000
11
241.886000
21
606.046000
0
LINE
8
Layer 1
10
241.886000
20
606.046000
11
241.814000
21
605.977000
0
LINE
8
Layer 1
10
241.814000
20
605.977000
11
241.739000
21
605.911000
0
LINE
8
Layer 1
10
241.739000
20
605.911000
11
241.662000
21
605.847000
0
LINE
8
Layer 1
10
241.662000
20
605.847000
11
241.583000
21
605.786000
0
LINE
8
Layer 1
10
241.583000
20
605.786000
11
241.501000
21
605.729000
0
LINE
8
Layer 1
10
241.501000
20
605.729000
11
241.418000
21
605.674000
0
LINE
8
Layer 1
10
241.418000
20
605.674000
11
241.384000
21
605.654000
0
LINE
8
Layer 1
10
241.384000
20
605.654000
11
241.332000
21
605.622000
0
LINE
8
Layer 1
10
241.332000
20
605.622000
11
241.304000
21
605.606000
0
LINE
8
Layer 1
10
241.304000
20
605.606000
11
241.245000
21
605.573000
0
LINE
8
Layer 1
10
241.245000
20
605.573000
11
241.233000
21
605.567000
0
LINE
8
Layer 1
10
241.233000
20
605.567000
11
241.156000
21
605.528000
0
LINE
8
Layer 1
10
241.156000
20
605.528000
11
241.066000
21
605.486000
0
LINE
8
Layer 1
10
241.066000
20
605.486000
11
240.973000
21
605.447000
0
LINE
8
Layer 1
10
240.973000
20
605.447000
11
240.880000
21
605.412000
0
LINE
8
Layer 1
10
240.880000
20
605.412000
11
240.786000
21
605.380000
0
LINE
8
Layer 1
10
240.786000
20
605.380000
11
240.690000
21
605.351000
0
LINE
8
Layer 1
10
240.690000
20
605.351000
11
240.593000
21
605.326000
0
LINE
8
Layer 1
10
240.593000
20
605.326000
11
240.570000
21
605.321000
0
LINE
8
Layer 1
10
240.570000
20
605.321000
11
240.496000
21
605.304000
0
LINE
8
Layer 1
10
240.496000
20
605.304000
11
240.427000
21
605.292000
0
LINE
8
Layer 1
10
240.427000
20
605.292000
11
240.398000
21
605.286000
0
LINE
8
Layer 1
10
240.398000
20
605.286000
11
240.299000
21
605.272000
0
LINE
8
Layer 1
10
240.299000
20
605.272000
11
240.199000
21
605.261000
0
LINE
8
Layer 1
10
240.199000
20
605.261000
11
240.100000
21
605.254000
0
LINE
8
Layer 1
10
240.100000
20
605.254000
11
240.000000
21
605.250000
0
LINE
8
Layer 1
10
240.000000
20
605.250000
11
239.900000
21
605.250000
 0 
ENDSEC
 0 
EOF