999
"DXF R12 Output" (www.mydxf.blogspot.com)
 0 
SECTION
 2 
HEADER
 9 
$ACADVER
 1 
AC1009
 9 
$EXTMIN
 10 
 0 
 20 
 0 
 9 
$EXTMAX
 10 
 8.5 
 20 
 11 
 0 
ENDSEC
 0 
SECTION
 2 
ENTITIES
0
LINE
8
Layer 1
10
408.156000
20
255.012311
11
408.309000
21
255.048943
0
LINE
8
Layer 1
10
408.309000
20
255.048943
11
408.454000
21
255.108993
0
LINE
8
Layer 1
10
408.454000
20
255.108993
11
408.588000
21
255.190983
0
LINE
8
Layer 1
10
408.588000
20
255.190983
11
408.707000
21
255.292892
0
LINE
8
Layer 1
10
408.707000
20
255.292892
11
408.809000
21
255.412214
0
LINE
8
Layer 1
10
408.809000
20
255.412214
11
408.891000
21
255.546009
0
LINE
8
Layer 1
10
408.891000
20
255.546009
11
408.951000
21
255.690983
0
LINE
8
Layer 1
10
408.951000
20
255.690983
11
408.988000
21
255.843565
0
LINE
8
Layer 1
10
408.988000
20
255.843565
11
409.000000
21
256.000000
0
LINE
8
Layer 1
10
409.000000
20
256.000000
11
409.000000
21
508.300000
0
LINE
8
Layer 1
10
409.000000
20
508.300000
11
408.988000
21
508.456000
0
LINE
8
Layer 1
10
408.988000
20
508.456000
11
408.951000
21
508.609000
0
LINE
8
Layer 1
10
408.951000
20
508.609000
11
408.891000
21
508.754000
0
LINE
8
Layer 1
10
408.891000
20
508.754000
11
408.809000
21
508.888000
0
LINE
8
Layer 1
10
408.809000
20
508.888000
11
408.707000
21
509.007000
0
LINE
8
Layer 1
10
408.707000
20
509.007000
11
408.588000
21
509.109000
0
LINE
8
Layer 1
10
408.588000
20
509.109000
11
408.454000
21
509.191000
0
LINE
8
Layer 1
10
408.454000
20
509.191000
11
408.309000
21
509.251000
0
LINE
8
Layer 1
10
408.309000
20
509.251000
11
408.156000
21
509.288000
0
LINE
8
Layer 1
10
408.156000
20
509.288000
11
408.000000
21
509.300000
0
LINE
8
Layer 1
10
408.000000
20
509.300000
11
1.000000
21
509.300000
0
LINE
8
Layer 1
10
1.000000
20
509.300000
11
0.843565
21
509.288000
0
LINE
8
Layer 1
10
0.843565
20
509.288000
11
0.690983
21
509.251000
0
LINE
8
Layer 1
10
0.690983
20
509.251000
11
0.546009
21
509.191000
0
LINE
8
Layer 1
10
0.546009
20
509.191000
11
0.412214
21
509.109000
0
LINE
8
Layer 1
10
0.412214
20
509.109000
11
0.292892
21
509.007000
0
LINE
8
Layer 1
10
0.292892
20
509.007000
11
0.190983
21
508.888000
0
LINE
8
Layer 1
10
0.190983
20
508.888000
11
0.108993
21
508.754000
0
LINE
8
Layer 1
10
0.108993
20
508.754000
11
0.048943
21
508.609000
0
LINE
8
Layer 1
10
0.048943
20
508.609000
11
0.012311
21
508.456000
0
LINE
8
Layer 1
10
0.012311
20
508.456000
11
0.000000
21
508.300000
0
LINE
8
Layer 1
10
0.000000
20
508.300000
11
0.000000
21
256.000000
0
LINE
8
Layer 1
10
0.000000
20
256.000000
11
0.012311
21
255.843565
0
LINE
8
Layer 1
10
0.012311
20
255.843565
11
0.048943
21
255.690983
0
LINE
8
Layer 1
10
0.048943
20
255.690983
11
0.108993
21
255.546009
0
LINE
8
Layer 1
10
0.108993
20
255.546009
11
0.190983
21
255.412214
0
LINE
8
Layer 1
10
0.190983
20
255.412214
11
0.292892
21
255.292892
0
LINE
8
Layer 1
10
0.292892
20
255.292892
11
0.412214
21
255.190983
0
LINE
8
Layer 1
10
0.412214
20
255.190983
11
0.546009
21
255.108993
0
LINE
8
Layer 1
10
0.546009
20
255.108993
11
0.690983
21
255.048943
0
LINE
8
Layer 1
10
0.690983
20
255.048943
11
0.843565
21
255.012311
0
LINE
8
Layer 1
10
0.843565
20
255.012311
11
1.000000
21
255.000000
0
LINE
8
Layer 1
10
1.000000
20
255.000000
11
408.000000
21
255.000000
0
LINE
8
Layer 1
10
408.000000
20
255.000000
11
408.156000
21
255.012311
0
LINE
8
Layer 1
10
161.950000
20
492.050000
11
161.850000
21
492.054000
0
LINE
8
Layer 1
10
161.850000
20
492.054000
11
161.848000
21
492.055000
0
LINE
8
Layer 1
10
161.848000
20
492.055000
11
161.751000
21
492.063000
0
LINE
8
Layer 1
10
161.751000
20
492.063000
11
161.742000
21
492.064000
0
LINE
8
Layer 1
10
161.742000
20
492.064000
11
161.653000
21
492.076000
0
LINE
8
Layer 1
10
161.653000
20
492.076000
11
161.555000
21
492.094000
0
LINE
8
Layer 1
10
161.555000
20
492.094000
11
161.457000
21
492.116000
0
LINE
8
Layer 1
10
161.457000
20
492.116000
11
161.361000
21
492.142000
0
LINE
8
Layer 1
10
161.361000
20
492.142000
11
161.341000
21
492.148000
0
LINE
8
Layer 1
10
161.341000
20
492.148000
11
161.267000
21
492.172000
0
LINE
8
Layer 1
10
161.267000
20
492.172000
11
161.224000
21
492.188000
0
LINE
8
Layer 1
10
161.224000
20
492.188000
11
161.173000
21
492.207000
0
LINE
8
Layer 1
10
161.173000
20
492.207000
11
161.081000
21
492.246000
0
LINE
8
Layer 1
10
161.081000
20
492.246000
11
160.992000
21
492.288000
0
LINE
8
Layer 1
10
160.992000
20
492.288000
11
160.904000
21
492.335000
0
LINE
8
Layer 1
10
160.904000
20
492.335000
11
160.818000
21
492.385000
0
LINE
8
Layer 1
10
160.818000
20
492.385000
11
160.802000
21
492.395000
0
LINE
8
Layer 1
10
160.802000
20
492.395000
11
160.734000
21
492.439000
0
LINE
8
Layer 1
10
160.734000
20
492.439000
11
160.653000
21
492.497000
0
LINE
8
Layer 1
10
160.653000
20
492.497000
11
160.574000
21
492.559000
0
LINE
8
Layer 1
10
160.574000
20
492.559000
11
160.499000
21
492.623000
0
LINE
8
Layer 1
10
160.499000
20
492.623000
11
160.426000
21
492.691000
0
LINE
8
Layer 1
10
160.426000
20
492.691000
11
160.357000
21
492.762000
0
LINE
8
Layer 1
10
160.357000
20
492.762000
11
160.290000
21
492.837000
0
LINE
8
Layer 1
10
160.290000
20
492.837000
11
160.227000
21
492.913000
0
LINE
8
Layer 1
10
160.227000
20
492.913000
11
160.167000
21
492.994000
0
LINE
8
Layer 1
10
160.167000
20
492.994000
11
160.141000
21
493.033000
0
LINE
8
Layer 1
10
160.141000
20
493.033000
11
160.112000
21
493.076000
0
LINE
8
Layer 1
10
160.112000
20
493.076000
11
160.059000
21
493.161000
0
LINE
8
Layer 1
10
160.059000
20
493.161000
11
160.011000
21
493.248000
0
LINE
8
Layer 1
10
160.011000
20
493.248000
11
159.989000
21
493.290000
0
LINE
8
Layer 1
10
159.989000
20
493.290000
11
159.966000
21
493.336000
0
LINE
8
Layer 1
10
159.966000
20
493.336000
11
159.925000
21
493.428000
0
LINE
8
Layer 1
10
159.925000
20
493.428000
11
159.889000
21
493.520000
0
LINE
8
Layer 1
10
159.889000
20
493.520000
11
159.857000
21
493.614000
0
LINE
8
Layer 1
10
159.857000
20
493.614000
11
159.828000
21
493.710000
0
LINE
8
Layer 1
10
159.828000
20
493.710000
11
159.804000
21
493.806000
0
LINE
8
Layer 1
10
159.804000
20
493.806000
11
159.785000
21
493.904000
0
LINE
8
Layer 1
10
159.785000
20
493.904000
11
159.769000
21
494.002000
0
LINE
8
Layer 1
10
159.769000
20
494.002000
11
159.758000
21
494.101000
0
LINE
8
Layer 1
10
159.758000
20
494.101000
11
159.752000
21
494.200000
0
LINE
8
Layer 1
10
159.752000
20
494.200000
11
159.749000
21
494.300000
0
LINE
8
Layer 1
10
159.749000
20
494.300000
11
159.752000
21
494.399000
0
LINE
8
Layer 1
10
159.752000
20
494.399000
11
159.758000
21
494.499000
0
LINE
8
Layer 1
10
159.758000
20
494.499000
11
159.769000
21
494.598000
0
LINE
8
Layer 1
10
159.769000
20
494.598000
11
159.785000
21
494.696000
0
LINE
8
Layer 1
10
159.785000
20
494.696000
11
159.804000
21
494.794000
0
LINE
8
Layer 1
10
159.804000
20
494.794000
11
159.813000
21
494.829000
0
LINE
8
Layer 1
10
159.813000
20
494.829000
11
159.828000
21
494.891000
0
LINE
8
Layer 1
10
159.828000
20
494.891000
11
159.841000
21
494.933000
0
LINE
8
Layer 1
10
159.841000
20
494.933000
11
159.857000
21
494.986000
0
LINE
8
Layer 1
10
159.857000
20
494.986000
11
159.889000
21
495.080000
0
LINE
8
Layer 1
10
159.889000
20
495.080000
11
159.926000
21
495.173000
0
LINE
8
Layer 1
10
159.926000
20
495.173000
11
159.966000
21
495.264000
0
LINE
8
Layer 1
10
159.966000
20
495.264000
11
160.011000
21
495.353000
0
LINE
8
Layer 1
10
160.011000
20
495.353000
11
160.059000
21
495.440000
0
LINE
8
Layer 1
10
160.059000
20
495.440000
11
160.112000
21
495.524000
0
LINE
8
Layer 1
10
160.112000
20
495.524000
11
160.168000
21
495.607000
0
LINE
8
Layer 1
10
160.168000
20
495.607000
11
160.227000
21
495.687000
0
LINE
8
Layer 1
10
160.227000
20
495.687000
11
160.283000
21
495.754000
0
LINE
8
Layer 1
10
160.283000
20
495.754000
11
160.290000
21
495.763000
0
LINE
8
Layer 1
10
160.290000
20
495.763000
11
160.357000
21
495.838000
0
LINE
8
Layer 1
10
160.357000
20
495.838000
11
160.426000
21
495.909000
0
LINE
8
Layer 1
10
160.426000
20
495.909000
11
160.499000
21
495.977000
0
LINE
8
Layer 1
10
160.499000
20
495.977000
11
160.575000
21
496.042000
0
LINE
8
Layer 1
10
160.575000
20
496.042000
11
160.653000
21
496.103000
0
LINE
8
Layer 1
10
160.653000
20
496.103000
11
160.683000
21
496.124000
0
LINE
8
Layer 1
10
160.683000
20
496.124000
11
160.734000
21
496.161000
0
LINE
8
Layer 1
10
160.734000
20
496.161000
11
160.818000
21
496.215000
0
LINE
8
Layer 1
10
160.818000
20
496.215000
11
160.904000
21
496.265000
0
LINE
8
Layer 1
10
160.904000
20
496.265000
11
160.992000
21
496.312000
0
LINE
8
Layer 1
10
160.992000
20
496.312000
11
161.082000
21
496.355000
0
LINE
8
Layer 1
10
161.082000
20
496.355000
11
161.173000
21
496.393000
0
LINE
8
Layer 1
10
161.173000
20
496.393000
11
161.267000
21
496.428000
0
LINE
8
Layer 1
10
161.267000
20
496.428000
11
161.362000
21
496.458000
0
LINE
8
Layer 1
10
161.362000
20
496.458000
11
161.458000
21
496.484000
0
LINE
8
Layer 1
10
161.458000
20
496.484000
11
161.555000
21
496.506000
0
LINE
8
Layer 1
10
161.555000
20
496.506000
11
161.575000
21
496.510000
0
LINE
8
Layer 1
10
161.575000
20
496.510000
11
161.653000
21
496.524000
0
LINE
8
Layer 1
10
161.653000
20
496.524000
11
161.752000
21
496.537000
0
LINE
8
Layer 1
10
161.752000
20
496.537000
11
161.851000
21
496.546000
0
LINE
8
Layer 1
10
161.851000
20
496.546000
11
161.951000
21
496.550000
0
LINE
8
Layer 1
10
161.951000
20
496.550000
11
162.050000
21
496.550000
0
LINE
8
Layer 1
10
162.050000
20
496.550000
11
162.149000
21
496.546000
0
LINE
8
Layer 1
10
162.149000
20
496.546000
11
162.249000
21
496.537000
0
LINE
8
Layer 1
10
162.249000
20
496.537000
11
162.347000
21
496.524000
0
LINE
8
Layer 1
10
162.347000
20
496.524000
11
162.445000
21
496.506000
0
LINE
8
Layer 1
10
162.445000
20
496.506000
11
162.543000
21
496.484000
0
LINE
8
Layer 1
10
162.543000
20
496.484000
11
162.639000
21
496.458000
0
LINE
8
Layer 1
10
162.639000
20
496.458000
11
162.733000
21
496.428000
0
LINE
8
Layer 1
10
162.733000
20
496.428000
11
162.827000
21
496.393000
0
LINE
8
Layer 1
10
162.827000
20
496.393000
11
162.919000
21
496.354000
0
LINE
8
Layer 1
10
162.919000
20
496.354000
11
163.008000
21
496.312000
0
LINE
8
Layer 1
10
163.008000
20
496.312000
11
163.096000
21
496.265000
0
LINE
8
Layer 1
10
163.096000
20
496.265000
11
163.182000
21
496.215000
0
LINE
8
Layer 1
10
163.182000
20
496.215000
11
163.244000
21
496.175000
0
LINE
8
Layer 1
10
163.244000
20
496.175000
11
163.266000
21
496.161000
0
LINE
8
Layer 1
10
163.266000
20
496.161000
11
163.347000
21
496.103000
0
LINE
8
Layer 1
10
163.347000
20
496.103000
11
163.350000
21
496.101000
0
LINE
8
Layer 1
10
163.350000
20
496.101000
11
163.426000
21
496.041000
0
LINE
8
Layer 1
10
163.426000
20
496.041000
11
163.501000
21
495.977000
0
LINE
8
Layer 1
10
163.501000
20
495.977000
11
163.574000
21
495.909000
0
LINE
8
Layer 1
10
163.574000
20
495.909000
11
163.643000
21
495.838000
0
LINE
8
Layer 1
10
163.643000
20
495.838000
11
163.710000
21
495.764000
0
LINE
8
Layer 1
10
163.710000
20
495.764000
11
163.773000
21
495.686000
0
LINE
8
Layer 1
10
163.773000
20
495.686000
11
163.832000
21
495.607000
0
LINE
8
Layer 1
10
163.832000
20
495.607000
11
163.889000
21
495.524000
0
LINE
8
Layer 1
10
163.889000
20
495.524000
11
163.941000
21
495.440000
0
LINE
8
Layer 1
10
163.941000
20
495.440000
11
163.989000
21
495.352000
0
LINE
8
Layer 1
10
163.989000
20
495.352000
11
164.034000
21
495.264000
0
LINE
8
Layer 1
10
164.034000
20
495.264000
11
164.075000
21
495.172000
0
LINE
8
Layer 1
10
164.075000
20
495.172000
11
164.111000
21
495.080000
0
LINE
8
Layer 1
10
164.111000
20
495.080000
11
164.143000
21
494.986000
0
LINE
8
Layer 1
10
164.143000
20
494.986000
11
164.172000
21
494.891000
0
LINE
8
Layer 1
10
164.172000
20
494.891000
11
164.196000
21
494.794000
0
LINE
8
Layer 1
10
164.196000
20
494.794000
11
164.215000
21
494.696000
0
LINE
8
Layer 1
10
164.215000
20
494.696000
11
164.231000
21
494.598000
0
LINE
8
Layer 1
10
164.231000
20
494.598000
11
164.242000
21
494.499000
0
LINE
8
Layer 1
10
164.242000
20
494.499000
11
164.248000
21
494.400000
0
LINE
8
Layer 1
10
164.248000
20
494.400000
11
164.251000
21
494.300000
0
LINE
8
Layer 1
10
164.251000
20
494.300000
11
164.248000
21
494.201000
0
LINE
8
Layer 1
10
164.248000
20
494.201000
11
164.242000
21
494.101000
0
LINE
8
Layer 1
10
164.242000
20
494.101000
11
164.231000
21
494.002000
0
LINE
8
Layer 1
10
164.231000
20
494.002000
11
164.215000
21
493.904000
0
LINE
8
Layer 1
10
164.215000
20
493.904000
11
164.196000
21
493.806000
0
LINE
8
Layer 1
10
164.196000
20
493.806000
11
164.172000
21
493.710000
0
LINE
8
Layer 1
10
164.172000
20
493.710000
11
164.143000
21
493.614000
0
LINE
8
Layer 1
10
164.143000
20
493.614000
11
164.111000
21
493.520000
0
LINE
8
Layer 1
10
164.111000
20
493.520000
11
164.074000
21
493.427000
0
LINE
8
Layer 1
10
164.074000
20
493.427000
11
164.062000
21
493.400000
0
LINE
8
Layer 1
10
164.062000
20
493.400000
11
164.034000
21
493.336000
0
LINE
8
Layer 1
10
164.034000
20
493.336000
11
163.989000
21
493.247000
0
LINE
8
Layer 1
10
163.989000
20
493.247000
11
163.941000
21
493.160000
0
LINE
8
Layer 1
10
163.941000
20
493.160000
11
163.888000
21
493.076000
0
LINE
8
Layer 1
10
163.888000
20
493.076000
11
163.832000
21
492.993000
0
LINE
8
Layer 1
10
163.832000
20
492.993000
11
163.773000
21
492.914000
0
LINE
8
Layer 1
10
163.773000
20
492.914000
11
163.710000
21
492.836000
0
LINE
8
Layer 1
10
163.710000
20
492.836000
11
163.643000
21
492.762000
0
LINE
8
Layer 1
10
163.643000
20
492.762000
11
163.573000
21
492.691000
0
LINE
8
Layer 1
10
163.573000
20
492.691000
11
163.501000
21
492.623000
0
LINE
8
Layer 1
10
163.501000
20
492.623000
11
163.425000
21
492.558000
0
LINE
8
Layer 1
10
163.425000
20
492.558000
11
163.347000
21
492.497000
0
LINE
8
Layer 1
10
163.347000
20
492.497000
11
163.266000
21
492.439000
0
LINE
8
Layer 1
10
163.266000
20
492.439000
11
163.182000
21
492.385000
0
LINE
8
Layer 1
10
163.182000
20
492.385000
11
163.096000
21
492.334000
0
LINE
8
Layer 1
10
163.096000
20
492.334000
11
163.044000
21
492.307000
0
LINE
8
Layer 1
10
163.044000
20
492.307000
11
163.008000
21
492.288000
0
LINE
8
Layer 1
10
163.008000
20
492.288000
11
162.937000
21
492.254000
0
LINE
8
Layer 1
10
162.937000
20
492.254000
11
162.918000
21
492.245000
0
LINE
8
Layer 1
10
162.918000
20
492.245000
11
162.826000
21
492.207000
0
LINE
8
Layer 1
10
162.826000
20
492.207000
11
162.803000
21
492.198000
0
LINE
8
Layer 1
10
162.803000
20
492.198000
11
162.733000
21
492.172000
0
LINE
8
Layer 1
10
162.733000
20
492.172000
11
162.662000
21
492.150000
0
LINE
8
Layer 1
10
162.662000
20
492.150000
11
162.638000
21
492.142000
0
LINE
8
Layer 1
10
162.638000
20
492.142000
11
162.542000
21
492.116000
0
LINE
8
Layer 1
10
162.542000
20
492.116000
11
162.445000
21
492.094000
0
LINE
8
Layer 1
10
162.445000
20
492.094000
11
162.425000
21
492.090000
0
LINE
8
Layer 1
10
162.425000
20
492.090000
11
162.347000
21
492.076000
0
LINE
8
Layer 1
10
162.347000
20
492.076000
11
162.248000
21
492.063000
0
LINE
8
Layer 1
10
162.248000
20
492.063000
11
162.149000
21
492.054000
0
LINE
8
Layer 1
10
162.149000
20
492.054000
11
162.086000
21
492.052000
0
LINE
8
Layer 1
10
162.086000
20
492.052000
11
162.050000
21
492.050000
0
LINE
8
Layer 1
10
162.050000
20
492.050000
11
161.950000
21
492.050000
0
LINE
8
Layer 1
10
246.950000
20
492.050000
11
246.850000
21
492.054000
0
LINE
8
Layer 1
10
246.850000
20
492.054000
11
246.848000
21
492.055000
0
LINE
8
Layer 1
10
246.848000
20
492.055000
11
246.751000
21
492.063000
0
LINE
8
Layer 1
10
246.751000
20
492.063000
11
246.742000
21
492.064000
0
LINE
8
Layer 1
10
246.742000
20
492.064000
11
246.653000
21
492.076000
0
LINE
8
Layer 1
10
246.653000
20
492.076000
11
246.555000
21
492.094000
0
LINE
8
Layer 1
10
246.555000
20
492.094000
11
246.457000
21
492.116000
0
LINE
8
Layer 1
10
246.457000
20
492.116000
11
246.361000
21
492.142000
0
LINE
8
Layer 1
10
246.361000
20
492.142000
11
246.341000
21
492.148000
0
LINE
8
Layer 1
10
246.341000
20
492.148000
11
246.267000
21
492.172000
0
LINE
8
Layer 1
10
246.267000
20
492.172000
11
246.224000
21
492.188000
0
LINE
8
Layer 1
10
246.224000
20
492.188000
11
246.173000
21
492.207000
0
LINE
8
Layer 1
10
246.173000
20
492.207000
11
246.081000
21
492.246000
0
LINE
8
Layer 1
10
246.081000
20
492.246000
11
245.992000
21
492.288000
0
LINE
8
Layer 1
10
245.992000
20
492.288000
11
245.904000
21
492.335000
0
LINE
8
Layer 1
10
245.904000
20
492.335000
11
245.818000
21
492.385000
0
LINE
8
Layer 1
10
245.818000
20
492.385000
11
245.802000
21
492.395000
0
LINE
8
Layer 1
10
245.802000
20
492.395000
11
245.734000
21
492.439000
0
LINE
8
Layer 1
10
245.734000
20
492.439000
11
245.653000
21
492.497000
0
LINE
8
Layer 1
10
245.653000
20
492.497000
11
245.574000
21
492.559000
0
LINE
8
Layer 1
10
245.574000
20
492.559000
11
245.499000
21
492.623000
0
LINE
8
Layer 1
10
245.499000
20
492.623000
11
245.426000
21
492.691000
0
LINE
8
Layer 1
10
245.426000
20
492.691000
11
245.357000
21
492.762000
0
LINE
8
Layer 1
10
245.357000
20
492.762000
11
245.290000
21
492.837000
0
LINE
8
Layer 1
10
245.290000
20
492.837000
11
245.227000
21
492.913000
0
LINE
8
Layer 1
10
245.227000
20
492.913000
11
245.167000
21
492.994000
0
LINE
8
Layer 1
10
245.167000
20
492.994000
11
245.141000
21
493.033000
0
LINE
8
Layer 1
10
245.141000
20
493.033000
11
245.112000
21
493.076000
0
LINE
8
Layer 1
10
245.112000
20
493.076000
11
245.059000
21
493.161000
0
LINE
8
Layer 1
10
245.059000
20
493.161000
11
245.011000
21
493.248000
0
LINE
8
Layer 1
10
245.011000
20
493.248000
11
244.989000
21
493.290000
0
LINE
8
Layer 1
10
244.989000
20
493.290000
11
244.966000
21
493.336000
0
LINE
8
Layer 1
10
244.966000
20
493.336000
11
244.925000
21
493.428000
0
LINE
8
Layer 1
10
244.925000
20
493.428000
11
244.889000
21
493.520000
0
LINE
8
Layer 1
10
244.889000
20
493.520000
11
244.857000
21
493.614000
0
LINE
8
Layer 1
10
244.857000
20
493.614000
11
244.828000
21
493.710000
0
LINE
8
Layer 1
10
244.828000
20
493.710000
11
244.804000
21
493.806000
0
LINE
8
Layer 1
10
244.804000
20
493.806000
11
244.785000
21
493.904000
0
LINE
8
Layer 1
10
244.785000
20
493.904000
11
244.769000
21
494.002000
0
LINE
8
Layer 1
10
244.769000
20
494.002000
11
244.758000
21
494.101000
0
LINE
8
Layer 1
10
244.758000
20
494.101000
11
244.752000
21
494.200000
0
LINE
8
Layer 1
10
244.752000
20
494.200000
11
244.749000
21
494.300000
0
LINE
8
Layer 1
10
244.749000
20
494.300000
11
244.752000
21
494.399000
0
LINE
8
Layer 1
10
244.752000
20
494.399000
11
244.758000
21
494.499000
0
LINE
8
Layer 1
10
244.758000
20
494.499000
11
244.769000
21
494.598000
0
LINE
8
Layer 1
10
244.769000
20
494.598000
11
244.785000
21
494.696000
0
LINE
8
Layer 1
10
244.785000
20
494.696000
11
244.804000
21
494.794000
0
LINE
8
Layer 1
10
244.804000
20
494.794000
11
244.813000
21
494.829000
0
LINE
8
Layer 1
10
244.813000
20
494.829000
11
244.828000
21
494.891000
0
LINE
8
Layer 1
10
244.828000
20
494.891000
11
244.841000
21
494.933000
0
LINE
8
Layer 1
10
244.841000
20
494.933000
11
244.857000
21
494.986000
0
LINE
8
Layer 1
10
244.857000
20
494.986000
11
244.889000
21
495.080000
0
LINE
8
Layer 1
10
244.889000
20
495.080000
11
244.926000
21
495.173000
0
LINE
8
Layer 1
10
244.926000
20
495.173000
11
244.966000
21
495.264000
0
LINE
8
Layer 1
10
244.966000
20
495.264000
11
245.011000
21
495.353000
0
LINE
8
Layer 1
10
245.011000
20
495.353000
11
245.060000
21
495.440000
0
LINE
8
Layer 1
10
245.060000
20
495.440000
11
245.112000
21
495.524000
0
LINE
8
Layer 1
10
245.112000
20
495.524000
11
245.168000
21
495.607000
0
LINE
8
Layer 1
10
245.168000
20
495.607000
11
245.227000
21
495.687000
0
LINE
8
Layer 1
10
245.227000
20
495.687000
11
245.283000
21
495.754000
0
LINE
8
Layer 1
10
245.283000
20
495.754000
11
245.290000
21
495.763000
0
LINE
8
Layer 1
10
245.290000
20
495.763000
11
245.357000
21
495.838000
0
LINE
8
Layer 1
10
245.357000
20
495.838000
11
245.426000
21
495.909000
0
LINE
8
Layer 1
10
245.426000
20
495.909000
11
245.499000
21
495.977000
0
LINE
8
Layer 1
10
245.499000
20
495.977000
11
245.575000
21
496.042000
0
LINE
8
Layer 1
10
245.575000
20
496.042000
11
245.653000
21
496.103000
0
LINE
8
Layer 1
10
245.653000
20
496.103000
11
245.683000
21
496.124000
0
LINE
8
Layer 1
10
245.683000
20
496.124000
11
245.734000
21
496.161000
0
LINE
8
Layer 1
10
245.734000
20
496.161000
11
245.818000
21
496.215000
0
LINE
8
Layer 1
10
245.818000
20
496.215000
11
245.904000
21
496.265000
0
LINE
8
Layer 1
10
245.904000
20
496.265000
11
245.992000
21
496.312000
0
LINE
8
Layer 1
10
245.992000
20
496.312000
11
246.082000
21
496.355000
0
LINE
8
Layer 1
10
246.082000
20
496.355000
11
246.173000
21
496.393000
0
LINE
8
Layer 1
10
246.173000
20
496.393000
11
246.267000
21
496.428000
0
LINE
8
Layer 1
10
246.267000
20
496.428000
11
246.362000
21
496.458000
0
LINE
8
Layer 1
10
246.362000
20
496.458000
11
246.458000
21
496.484000
0
LINE
8
Layer 1
10
246.458000
20
496.484000
11
246.555000
21
496.506000
0
LINE
8
Layer 1
10
246.555000
20
496.506000
11
246.575000
21
496.510000
0
LINE
8
Layer 1
10
246.575000
20
496.510000
11
246.653000
21
496.524000
0
LINE
8
Layer 1
10
246.653000
20
496.524000
11
246.752000
21
496.537000
0
LINE
8
Layer 1
10
246.752000
20
496.537000
11
246.851000
21
496.546000
0
LINE
8
Layer 1
10
246.851000
20
496.546000
11
246.950000
21
496.550000
0
LINE
8
Layer 1
10
246.950000
20
496.550000
11
247.050000
21
496.550000
0
LINE
8
Layer 1
10
247.050000
20
496.550000
11
247.149000
21
496.546000
0
LINE
8
Layer 1
10
247.149000
20
496.546000
11
247.248000
21
496.537000
0
LINE
8
Layer 1
10
247.248000
20
496.537000
11
247.347000
21
496.524000
0
LINE
8
Layer 1
10
247.347000
20
496.524000
11
247.445000
21
496.506000
0
LINE
8
Layer 1
10
247.445000
20
496.506000
11
247.499000
21
496.494000
0
LINE
8
Layer 1
10
247.499000
20
496.494000
11
247.542000
21
496.484000
0
LINE
8
Layer 1
10
247.542000
20
496.484000
11
247.639000
21
496.458000
0
LINE
8
Layer 1
10
247.639000
20
496.458000
11
247.733000
21
496.428000
0
LINE
8
Layer 1
10
247.733000
20
496.428000
11
247.827000
21
496.393000
0
LINE
8
Layer 1
10
247.827000
20
496.393000
11
247.918000
21
496.355000
0
LINE
8
Layer 1
10
247.918000
20
496.355000
11
248.008000
21
496.312000
0
LINE
8
Layer 1
10
248.008000
20
496.312000
11
248.096000
21
496.265000
0
LINE
8
Layer 1
10
248.096000
20
496.265000
11
248.182000
21
496.215000
0
LINE
8
Layer 1
10
248.182000
20
496.215000
11
248.198000
21
496.205000
0
LINE
8
Layer 1
10
248.198000
20
496.205000
11
248.266000
21
496.161000
0
LINE
8
Layer 1
10
248.266000
20
496.161000
11
248.347000
21
496.103000
0
LINE
8
Layer 1
10
248.347000
20
496.103000
11
248.426000
21
496.041000
0
LINE
8
Layer 1
10
248.426000
20
496.041000
11
248.501000
21
495.977000
0
LINE
8
Layer 1
10
248.501000
20
495.977000
11
248.574000
21
495.909000
0
LINE
8
Layer 1
10
248.574000
20
495.909000
11
248.644000
21
495.837000
0
LINE
8
Layer 1
10
248.644000
20
495.837000
11
248.710000
21
495.763000
0
LINE
8
Layer 1
10
248.710000
20
495.763000
11
248.773000
21
495.687000
0
LINE
8
Layer 1
10
248.773000
20
495.687000
11
248.832000
21
495.607000
0
LINE
8
Layer 1
10
248.832000
20
495.607000
11
248.889000
21
495.524000
0
LINE
8
Layer 1
10
248.889000
20
495.524000
11
248.899000
21
495.507000
0
LINE
8
Layer 1
10
248.899000
20
495.507000
11
248.941000
21
495.439000
0
LINE
8
Layer 1
10
248.941000
20
495.439000
11
248.989000
21
495.353000
0
LINE
8
Layer 1
10
248.989000
20
495.353000
11
249.034000
21
495.263000
0
LINE
8
Layer 1
10
249.034000
20
495.263000
11
249.074000
21
495.173000
0
LINE
8
Layer 1
10
249.074000
20
495.173000
11
249.111000
21
495.080000
0
LINE
8
Layer 1
10
249.111000
20
495.080000
11
249.143000
21
494.986000
0
LINE
8
Layer 1
10
249.143000
20
494.986000
11
249.172000
21
494.891000
0
LINE
8
Layer 1
10
249.172000
20
494.891000
11
249.196000
21
494.794000
0
LINE
8
Layer 1
10
249.196000
20
494.794000
11
249.215000
21
494.696000
0
LINE
8
Layer 1
10
249.215000
20
494.696000
11
249.231000
21
494.598000
0
LINE
8
Layer 1
10
249.231000
20
494.598000
11
249.236000
21
494.548000
0
LINE
8
Layer 1
10
249.236000
20
494.548000
11
249.242000
21
494.499000
0
LINE
8
Layer 1
10
249.242000
20
494.499000
11
249.248000
21
494.400000
0
LINE
8
Layer 1
10
249.248000
20
494.400000
11
249.251000
21
494.300000
0
LINE
8
Layer 1
10
249.251000
20
494.300000
11
249.248000
21
494.201000
0
LINE
8
Layer 1
10
249.248000
20
494.201000
11
249.242000
21
494.101000
0
LINE
8
Layer 1
10
249.242000
20
494.101000
11
249.231000
21
494.002000
0
LINE
8
Layer 1
10
249.231000
20
494.002000
11
249.215000
21
493.904000
0
LINE
8
Layer 1
10
249.215000
20
493.904000
11
249.196000
21
493.806000
0
LINE
8
Layer 1
10
249.196000
20
493.806000
11
249.172000
21
493.710000
0
LINE
8
Layer 1
10
249.172000
20
493.710000
11
249.143000
21
493.614000
0
LINE
8
Layer 1
10
249.143000
20
493.614000
11
249.111000
21
493.520000
0
LINE
8
Layer 1
10
249.111000
20
493.520000
11
249.074000
21
493.427000
0
LINE
8
Layer 1
10
249.074000
20
493.427000
11
249.062000
21
493.400000
0
LINE
8
Layer 1
10
249.062000
20
493.400000
11
249.034000
21
493.336000
0
LINE
8
Layer 1
10
249.034000
20
493.336000
11
248.989000
21
493.247000
0
LINE
8
Layer 1
10
248.989000
20
493.247000
11
248.940000
21
493.160000
0
LINE
8
Layer 1
10
248.940000
20
493.160000
11
248.888000
21
493.076000
0
LINE
8
Layer 1
10
248.888000
20
493.076000
11
248.832000
21
492.993000
0
LINE
8
Layer 1
10
248.832000
20
492.993000
11
248.773000
21
492.914000
0
LINE
8
Layer 1
10
248.773000
20
492.914000
11
248.710000
21
492.836000
0
LINE
8
Layer 1
10
248.710000
20
492.836000
11
248.643000
21
492.762000
0
LINE
8
Layer 1
10
248.643000
20
492.762000
11
248.573000
21
492.691000
0
LINE
8
Layer 1
10
248.573000
20
492.691000
11
248.501000
21
492.623000
0
LINE
8
Layer 1
10
248.501000
20
492.623000
11
248.425000
21
492.558000
0
LINE
8
Layer 1
10
248.425000
20
492.558000
11
248.347000
21
492.497000
0
LINE
8
Layer 1
10
248.347000
20
492.497000
11
248.266000
21
492.439000
0
LINE
8
Layer 1
10
248.266000
20
492.439000
11
248.182000
21
492.385000
0
LINE
8
Layer 1
10
248.182000
20
492.385000
11
248.096000
21
492.334000
0
LINE
8
Layer 1
10
248.096000
20
492.334000
11
248.044000
21
492.307000
0
LINE
8
Layer 1
10
248.044000
20
492.307000
11
248.008000
21
492.288000
0
LINE
8
Layer 1
10
248.008000
20
492.288000
11
247.937000
21
492.254000
0
LINE
8
Layer 1
10
247.937000
20
492.254000
11
247.918000
21
492.245000
0
LINE
8
Layer 1
10
247.918000
20
492.245000
11
247.826000
21
492.207000
0
LINE
8
Layer 1
10
247.826000
20
492.207000
11
247.803000
21
492.198000
0
LINE
8
Layer 1
10
247.803000
20
492.198000
11
247.733000
21
492.172000
0
LINE
8
Layer 1
10
247.733000
20
492.172000
11
247.662000
21
492.150000
0
LINE
8
Layer 1
10
247.662000
20
492.150000
11
247.638000
21
492.142000
0
LINE
8
Layer 1
10
247.638000
20
492.142000
11
247.542000
21
492.116000
0
LINE
8
Layer 1
10
247.542000
20
492.116000
11
247.445000
21
492.094000
0
LINE
8
Layer 1
10
247.445000
20
492.094000
11
247.425000
21
492.090000
0
LINE
8
Layer 1
10
247.425000
20
492.090000
11
247.347000
21
492.076000
0
LINE
8
Layer 1
10
247.347000
20
492.076000
11
247.248000
21
492.063000
0
LINE
8
Layer 1
10
247.248000
20
492.063000
11
247.149000
21
492.054000
0
LINE
8
Layer 1
10
247.149000
20
492.054000
11
247.086000
21
492.052000
0
LINE
8
Layer 1
10
247.086000
20
492.052000
11
247.050000
21
492.050000
0
LINE
8
Layer 1
10
247.050000
20
492.050000
11
246.950000
21
492.050000
0
LINE
8
Layer 1
10
344.985000
20
268.603600
11
344.969000
21
268.702000
0
LINE
8
Layer 1
10
344.969000
20
268.702000
11
344.958000
21
268.801300
0
LINE
8
Layer 1
10
344.958000
20
268.801300
11
344.955000
21
268.850200
0
LINE
8
Layer 1
10
344.955000
20
268.850200
11
344.952000
21
268.900500
0
LINE
8
Layer 1
10
344.952000
20
268.900500
11
344.949000
21
269.000200
0
LINE
8
Layer 1
10
344.949000
20
269.000200
11
344.952000
21
269.099400
0
LINE
8
Layer 1
10
344.952000
20
269.099400
11
344.958000
21
269.198900
0
LINE
8
Layer 1
10
344.958000
20
269.198900
11
344.969000
21
269.298200
0
LINE
8
Layer 1
10
344.969000
20
269.298200
11
344.985000
21
269.396300
0
LINE
8
Layer 1
10
344.985000
20
269.396300
11
345.004000
21
269.494200
0
LINE
8
Layer 1
10
345.004000
20
269.494200
11
345.028000
21
269.590600
0
LINE
8
Layer 1
10
345.028000
20
269.590600
11
345.036000
21
269.617600
0
LINE
8
Layer 1
10
345.036000
20
269.617600
11
345.057000
21
269.686300
0
LINE
8
Layer 1
10
345.057000
20
269.686300
11
345.089000
21
269.780000
0
LINE
8
Layer 1
10
345.089000
20
269.780000
11
345.126000
21
269.872700
0
LINE
8
Layer 1
10
345.126000
20
269.872700
11
345.166000
21
269.963900
0
LINE
8
Layer 1
10
345.166000
20
269.963900
11
345.175000
21
269.981000
0
LINE
8
Layer 1
10
345.175000
20
269.981000
11
345.211000
21
270.052700
0
LINE
8
Layer 1
10
345.211000
20
270.052700
11
345.260000
21
270.139900
0
LINE
8
Layer 1
10
345.260000
20
270.139900
11
345.312000
21
270.224300
0
LINE
8
Layer 1
10
345.312000
20
270.224300
11
345.368000
21
270.307000
0
LINE
8
Layer 1
10
345.368000
20
270.307000
11
345.427000
21
270.386400
0
LINE
8
Layer 1
10
345.427000
20
270.386400
11
345.490000
21
270.463400
0
LINE
8
Layer 1
10
345.490000
20
270.463400
11
345.557000
21
270.537900
0
LINE
8
Layer 1
10
345.557000
20
270.537900
11
345.626000
21
270.608900
0
LINE
8
Layer 1
10
345.626000
20
270.608900
11
345.699000
21
270.676900
0
LINE
8
Layer 1
10
345.699000
20
270.676900
11
345.775000
21
270.741700
0
LINE
8
Layer 1
10
345.775000
20
270.741700
11
345.853000
21
270.803200
0
LINE
8
Layer 1
10
345.853000
20
270.803200
11
345.934000
21
270.860800
0
LINE
8
Layer 1
10
345.934000
20
270.860800
11
346.018000
21
270.915200
0
LINE
8
Layer 1
10
346.018000
20
270.915200
11
346.104000
21
270.965500
0
LINE
8
Layer 1
10
346.104000
20
270.965500
11
346.192000
21
271.011900
0
LINE
8
Layer 1
10
346.192000
20
271.011900
11
346.282000
21
271.054700
0
LINE
8
Layer 1
10
346.282000
20
271.054700
11
346.373000
21
271.093200
0
LINE
8
Layer 1
10
346.373000
20
271.093200
11
346.467000
21
271.127800
0
LINE
8
Layer 1
10
346.467000
20
271.127800
11
346.562000
21
271.158200
0
LINE
8
Layer 1
10
346.562000
20
271.158200
11
346.571000
21
271.160600
0
LINE
8
Layer 1
10
346.571000
20
271.160600
11
346.658000
21
271.184200
0
LINE
8
Layer 1
10
346.658000
20
271.184200
11
346.755000
21
271.206100
0
LINE
8
Layer 1
10
346.755000
20
271.206100
11
346.808000
21
271.215600
0
LINE
8
Layer 1
10
346.808000
20
271.215600
11
346.853000
21
271.223600
0
LINE
8
Layer 1
10
346.853000
20
271.223600
11
346.952000
21
271.236800
0
LINE
8
Layer 1
10
346.952000
20
271.236800
11
347.051000
21
271.245600
0
LINE
8
Layer 1
10
347.051000
20
271.245600
11
347.150000
21
271.250000
0
LINE
8
Layer 1
10
347.150000
20
271.250000
11
347.250000
21
271.250000
0
LINE
8
Layer 1
10
347.250000
20
271.250000
11
347.349000
21
271.245600
0
LINE
8
Layer 1
10
347.349000
20
271.245600
11
347.448000
21
271.236800
0
LINE
8
Layer 1
10
347.448000
20
271.236800
11
347.547000
21
271.223600
0
LINE
8
Layer 1
10
347.547000
20
271.223600
11
347.645000
21
271.206000
0
LINE
8
Layer 1
10
347.645000
20
271.206000
11
347.742000
21
271.184300
0
LINE
8
Layer 1
10
347.742000
20
271.184300
11
347.839000
21
271.158000
0
LINE
8
Layer 1
10
347.839000
20
271.158000
11
347.933000
21
271.127800
0
LINE
8
Layer 1
10
347.933000
20
271.127800
11
348.027000
21
271.093100
0
LINE
8
Layer 1
10
348.027000
20
271.093100
11
348.118000
21
271.054600
0
LINE
8
Layer 1
10
348.118000
20
271.054600
11
348.208000
21
271.012000
0
LINE
8
Layer 1
10
348.208000
20
271.012000
11
348.296000
21
270.965400
0
LINE
8
Layer 1
10
348.296000
20
270.965400
11
348.382000
21
270.914900
0
LINE
8
Layer 1
10
348.382000
20
270.914900
11
348.406000
21
270.899600
0
LINE
8
Layer 1
10
348.406000
20
270.899600
11
348.466000
21
270.860600
0
LINE
8
Layer 1
10
348.466000
20
270.860600
11
348.547000
21
270.803100
0
LINE
8
Layer 1
10
348.547000
20
270.803100
11
348.625000
21
270.741600
0
LINE
8
Layer 1
10
348.625000
20
270.741600
11
348.648000
21
270.722700
0
LINE
8
Layer 1
10
348.648000
20
270.722700
11
348.701000
21
270.676700
0
LINE
8
Layer 1
10
348.701000
20
270.676700
11
348.774000
21
270.609000
0
LINE
8
Layer 1
10
348.774000
20
270.609000
11
348.843000
21
270.537600
0
LINE
8
Layer 1
10
348.843000
20
270.537600
11
348.880000
21
270.497000
0
LINE
8
Layer 1
10
348.880000
20
270.497000
11
348.910000
21
270.463400
0
LINE
8
Layer 1
10
348.910000
20
270.463400
11
348.945000
21
270.420500
0
LINE
8
Layer 1
10
348.945000
20
270.420500
11
348.973000
21
270.386400
0
LINE
8
Layer 1
10
348.973000
20
270.386400
11
349.032000
21
270.306700
0
LINE
8
Layer 1
10
349.032000
20
270.306700
11
349.089000
21
270.224100
0
LINE
8
Layer 1
10
349.089000
20
270.224100
11
349.107000
21
270.193500
0
LINE
8
Layer 1
10
349.107000
20
270.193500
11
349.141000
21
270.139700
0
LINE
8
Layer 1
10
349.141000
20
270.139700
11
349.189000
21
270.052800
0
LINE
8
Layer 1
10
349.189000
20
270.052800
11
349.234000
21
269.963500
0
LINE
8
Layer 1
10
349.234000
20
269.963500
11
349.274000
21
269.872800
0
LINE
8
Layer 1
10
349.274000
20
269.872800
11
349.311000
21
269.780000
0
LINE
8
Layer 1
10
349.311000
20
269.780000
11
349.330000
21
269.726100
0
LINE
8
Layer 1
10
349.330000
20
269.726100
11
349.343000
21
269.686000
0
LINE
8
Layer 1
10
349.343000
20
269.686000
11
349.372000
21
269.590500
0
LINE
8
Layer 1
10
349.372000
20
269.590500
11
349.396000
21
269.493500
0
LINE
8
Layer 1
10
349.396000
20
269.493500
11
349.415000
21
269.396400
0
LINE
8
Layer 1
10
349.415000
20
269.396400
11
349.431000
21
269.297500
0
LINE
8
Layer 1
10
349.431000
20
269.297500
11
349.442000
21
269.198600
0
LINE
8
Layer 1
10
349.442000
20
269.198600
11
349.448000
21
269.099500
0
LINE
8
Layer 1
10
349.448000
20
269.099500
11
349.451000
21
268.999800
0
LINE
8
Layer 1
10
349.451000
20
268.999800
11
349.448000
21
268.900600
0
LINE
8
Layer 1
10
349.448000
20
268.900600
11
349.442000
21
268.800900
0
LINE
8
Layer 1
10
349.442000
20
268.800900
11
349.431000
21
268.702200
0
LINE
8
Layer 1
10
349.431000
20
268.702200
11
349.415000
21
268.603600
0
LINE
8
Layer 1
10
349.415000
20
268.603600
11
349.406000
21
268.556800
0
LINE
8
Layer 1
10
349.406000
20
268.556800
11
349.396000
21
268.506100
0
LINE
8
Layer 1
10
349.396000
20
268.506100
11
349.372000
21
268.409500
0
LINE
8
Layer 1
10
349.372000
20
268.409500
11
349.343000
21
268.313700
0
LINE
8
Layer 1
10
349.343000
20
268.313700
11
349.311000
21
268.220000
0
LINE
8
Layer 1
10
349.311000
20
268.220000
11
349.274000
21
268.126900
0
LINE
8
Layer 1
10
349.274000
20
268.126900
11
349.234000
21
268.036100
0
LINE
8
Layer 1
10
349.234000
20
268.036100
11
349.189000
21
267.947300
0
LINE
8
Layer 1
10
349.189000
20
267.947300
11
349.141000
21
267.860100
0
LINE
8
Layer 1
10
349.141000
20
267.860100
11
349.088000
21
267.775700
0
LINE
8
Layer 1
10
349.088000
20
267.775700
11
349.032000
21
267.693000
0
LINE
8
Layer 1
10
349.032000
20
267.693000
11
348.973000
21
267.613600
0
LINE
8
Layer 1
10
348.973000
20
267.613600
11
348.909000
21
267.536200
0
LINE
8
Layer 1
10
348.909000
20
267.536200
11
348.843000
21
267.462300
0
LINE
8
Layer 1
10
348.843000
20
267.462300
11
348.774000
21
267.391000
0
LINE
8
Layer 1
10
348.774000
20
267.391000
11
348.734000
21
267.353600
0
LINE
8
Layer 1
10
348.734000
20
267.353600
11
348.701000
21
267.323100
0
LINE
8
Layer 1
10
348.701000
20
267.323100
11
348.625000
21
267.258100
0
LINE
8
Layer 1
10
348.625000
20
267.258100
11
348.547000
21
267.197000
0
LINE
8
Layer 1
10
348.547000
20
267.197000
11
348.466000
21
267.139000
0
LINE
8
Layer 1
10
348.466000
20
267.139000
11
348.382000
21
267.085100
0
LINE
8
Layer 1
10
348.382000
20
267.085100
11
348.296000
21
267.034400
0
LINE
8
Layer 1
10
348.296000
20
267.034400
11
348.289000
21
267.030800
0
LINE
8
Layer 1
10
348.289000
20
267.030800
11
348.208000
21
266.988000
0
LINE
8
Layer 1
10
348.208000
20
266.988000
11
348.118000
21
266.945400
0
LINE
8
Layer 1
10
348.118000
20
266.945400
11
348.026000
21
266.906600
0
LINE
8
Layer 1
10
348.026000
20
266.906600
11
347.933000
21
266.872100
0
LINE
8
Layer 1
10
347.933000
20
266.872100
11
347.838000
21
266.841900
0
LINE
8
Layer 1
10
347.838000
20
266.841900
11
347.742000
21
266.815800
0
LINE
8
Layer 1
10
347.742000
20
266.815800
11
347.645000
21
266.793900
0
LINE
8
Layer 1
10
347.645000
20
266.793900
11
347.610000
21
266.787700
0
LINE
8
Layer 1
10
347.610000
20
266.787700
11
347.547000
21
266.776400
0
LINE
8
Layer 1
10
347.547000
20
266.776400
11
347.448000
21
266.763200
0
LINE
8
Layer 1
10
347.448000
20
266.763200
11
347.443000
21
266.762800
0
LINE
8
Layer 1
10
347.443000
20
266.762800
11
347.349000
21
266.754400
0
LINE
8
Layer 1
10
347.349000
20
266.754400
11
347.260000
21
266.750500
0
LINE
8
Layer 1
10
347.260000
20
266.750500
11
347.250000
21
266.750000
0
LINE
8
Layer 1
10
347.250000
20
266.750000
11
347.150000
21
266.750000
0
LINE
8
Layer 1
10
347.150000
20
266.750000
11
347.050000
21
266.754400
0
LINE
8
Layer 1
10
347.050000
20
266.754400
11
346.951000
21
266.763200
0
LINE
8
Layer 1
10
346.951000
20
266.763200
11
346.853000
21
266.776400
0
LINE
8
Layer 1
10
346.853000
20
266.776400
11
346.755000
21
266.793900
0
LINE
8
Layer 1
10
346.755000
20
266.793900
11
346.657000
21
266.815900
0
LINE
8
Layer 1
10
346.657000
20
266.815900
11
346.652000
21
266.817300
0
LINE
8
Layer 1
10
346.652000
20
266.817300
11
346.561000
21
266.841900
0
LINE
8
Layer 1
10
346.561000
20
266.841900
11
346.511000
21
266.858100
0
LINE
8
Layer 1
10
346.511000
20
266.858100
11
346.467000
21
266.872300
0
LINE
8
Layer 1
10
346.467000
20
266.872300
11
346.374000
21
266.906700
0
LINE
8
Layer 1
10
346.374000
20
266.906700
11
346.281000
21
266.945500
0
LINE
8
Layer 1
10
346.281000
20
266.945500
11
346.192000
21
266.988000
0
LINE
8
Layer 1
10
346.192000
20
266.988000
11
346.104000
21
267.034600
0
LINE
8
Layer 1
10
346.104000
20
267.034600
11
346.018000
21
267.085100
0
LINE
8
Layer 1
10
346.018000
20
267.085100
11
345.994000
21
267.100400
0
LINE
8
Layer 1
10
345.994000
20
267.100400
11
345.934000
21
267.139400
0
LINE
8
Layer 1
10
345.934000
20
267.139400
11
345.853000
21
267.196900
0
LINE
8
Layer 1
10
345.853000
20
267.196900
11
345.775000
21
267.258400
0
LINE
8
Layer 1
10
345.775000
20
267.258400
11
345.752000
21
267.277300
0
LINE
8
Layer 1
10
345.752000
20
267.277300
11
345.699000
21
267.323300
0
LINE
8
Layer 1
10
345.699000
20
267.323300
11
345.626000
21
267.391000
0
LINE
8
Layer 1
10
345.626000
20
267.391000
11
345.557000
21
267.462300
0
LINE
8
Layer 1
10
345.557000
20
267.462300
11
345.490000
21
267.536800
0
LINE
8
Layer 1
10
345.490000
20
267.536800
11
345.427000
21
267.613600
0
LINE
8
Layer 1
10
345.427000
20
267.613600
11
345.367000
21
267.693600
0
LINE
8
Layer 1
10
345.367000
20
267.693600
11
345.312000
21
267.775600
0
LINE
8
Layer 1
10
345.312000
20
267.775600
11
345.259000
21
267.860400
0
LINE
8
Layer 1
10
345.259000
20
267.860400
11
345.236000
21
267.903100
0
LINE
8
Layer 1
10
345.236000
20
267.903100
11
345.211000
21
267.947500
0
LINE
8
Layer 1
10
345.211000
20
267.947500
11
345.166000
21
268.036300
0
LINE
8
Layer 1
10
345.166000
20
268.036300
11
345.125000
21
268.127600
0
LINE
8
Layer 1
10
345.125000
20
268.127600
11
345.089000
21
268.219900
0
LINE
8
Layer 1
10
345.089000
20
268.219900
11
345.057000
21
268.314000
0
LINE
8
Layer 1
10
345.057000
20
268.314000
11
345.028000
21
268.409500
0
LINE
8
Layer 1
10
345.028000
20
268.409500
11
345.004000
21
268.506500
0
LINE
8
Layer 1
10
345.004000
20
268.506500
11
344.985000
21
268.603600
0
LINE
8
Layer 1
10
41.350400
20
266.754400
11
41.251300
21
266.763200
0
LINE
8
Layer 1
10
41.251300
20
266.763200
11
41.153000
21
266.776400
0
LINE
8
Layer 1
10
41.153000
20
266.776400
11
41.054800
21
266.793900
0
LINE
8
Layer 1
10
41.054800
20
266.793900
11
40.957400
21
266.815900
0
LINE
8
Layer 1
10
40.957400
20
266.815900
11
40.861400
21
266.842000
0
LINE
8
Layer 1
10
40.861400
20
266.842000
11
40.842600
21
266.848000
0
LINE
8
Layer 1
10
40.842600
20
266.848000
11
40.766600
21
266.872300
0
LINE
8
Layer 1
10
40.766600
20
266.872300
11
40.682800
21
266.903300
0
LINE
8
Layer 1
10
40.682800
20
266.903300
11
40.673500
21
266.906700
0
LINE
8
Layer 1
10
40.673500
20
266.906700
11
40.581300
21
266.945500
0
LINE
8
Layer 1
10
40.581300
20
266.945500
11
40.551900
21
266.959400
0
LINE
8
Layer 1
10
40.551900
20
266.959400
11
40.491700
21
266.988000
0
LINE
8
Layer 1
10
40.491700
20
266.988000
11
40.403600
21
267.034600
0
LINE
8
Layer 1
10
40.403600
20
267.034600
11
40.317400
21
267.085200
0
LINE
8
Layer 1
10
40.317400
20
267.085200
11
40.317000
21
267.085500
0
LINE
8
Layer 1
10
40.317000
20
267.085500
11
40.234000
21
267.139300
0
LINE
8
Layer 1
10
40.234000
20
267.139300
11
40.153200
21
267.196900
0
LINE
8
Layer 1
10
40.153200
20
267.196900
11
40.074400
21
267.258600
0
LINE
8
Layer 1
10
40.074400
20
267.258600
11
40.073600
21
267.259300
0
LINE
8
Layer 1
10
40.073600
20
267.259300
11
39.998800
21
267.323300
0
LINE
8
Layer 1
10
39.998800
20
267.323300
11
39.933400
21
267.384500
0
LINE
8
Layer 1
10
39.933400
20
267.384500
11
39.926400
21
267.391000
0
LINE
8
Layer 1
10
39.926400
20
267.391000
11
39.856700
21
267.462300
0
LINE
8
Layer 1
10
39.856700
20
267.462300
11
39.790100
21
267.536800
0
LINE
8
Layer 1
10
39.790100
20
267.536800
11
39.727300
21
267.613500
0
LINE
8
Layer 1
10
39.727300
20
267.613500
11
39.667400
21
267.693600
0
LINE
8
Layer 1
10
39.667400
20
267.693600
11
39.611700
21
267.775600
0
LINE
8
Layer 1
10
39.611700
20
267.775600
11
39.559200
21
267.860700
0
LINE
8
Layer 1
10
39.559200
20
267.860700
11
39.510700
21
267.947500
0
LINE
8
Layer 1
10
39.510700
20
267.947500
11
39.466200
21
268.036300
0
LINE
8
Layer 1
10
39.466200
20
268.036300
11
39.425400
21
268.127600
0
LINE
8
Layer 1
10
39.425400
20
268.127600
11
39.389000
21
268.219800
0
LINE
8
Layer 1
10
39.389000
20
268.219800
11
39.356500
21
268.314000
0
LINE
8
Layer 1
10
39.356500
20
268.314000
11
39.328300
21
268.409500
0
LINE
8
Layer 1
10
39.328300
20
268.409500
11
39.304200
21
268.506500
0
LINE
8
Layer 1
10
39.304200
20
268.506500
11
39.303800
21
268.508600
0
LINE
8
Layer 1
10
39.303800
20
268.508600
11
39.284600
21
268.604000
0
LINE
8
Layer 1
10
39.284600
20
268.604000
11
39.269300
21
268.702000
0
LINE
8
Layer 1
10
39.269300
20
268.702000
11
39.258200
21
268.801400
0
LINE
8
Layer 1
10
39.258200
20
268.801400
11
39.251700
21
268.900300
0
LINE
8
Layer 1
10
39.251700
20
268.900300
11
39.249500
21
269.000300
0
LINE
8
Layer 1
10
39.249500
20
269.000300
11
39.251600
21
269.099500
0
LINE
8
Layer 1
10
39.251600
20
269.099500
11
39.258300
21
269.198900
0
LINE
8
Layer 1
10
39.258300
20
269.198900
11
39.269300
21
269.298200
0
LINE
8
Layer 1
10
39.269300
20
269.298200
11
39.284600
21
269.396200
0
LINE
8
Layer 1
10
39.284600
20
269.396200
11
39.304400
21
269.494200
0
LINE
8
Layer 1
10
39.304400
20
269.494200
11
39.328400
21
269.590700
0
LINE
8
Layer 1
10
39.328400
20
269.590700
11
39.334500
21
269.611300
0
LINE
8
Layer 1
10
39.334500
20
269.611300
11
39.356600
21
269.686300
0
LINE
8
Layer 1
10
39.356600
20
269.686300
11
39.380900
21
269.756500
0
LINE
8
Layer 1
10
39.380900
20
269.756500
11
39.389000
21
269.780000
0
LINE
8
Layer 1
10
39.389000
20
269.780000
11
39.425600
21
269.872700
0
LINE
8
Layer 1
10
39.425600
20
269.872700
11
39.466400
21
269.963900
0
LINE
8
Layer 1
10
39.466400
20
269.963900
11
39.510800
21
270.052600
0
LINE
8
Layer 1
10
39.510800
20
270.052600
11
39.559500
21
270.139900
0
LINE
8
Layer 1
10
39.559500
20
270.139900
11
39.611600
21
270.224300
0
LINE
8
Layer 1
10
39.611600
20
270.224300
11
39.667800
21
270.306900
0
LINE
8
Layer 1
10
39.667800
20
270.306900
11
39.669900
21
270.309700
0
LINE
8
Layer 1
10
39.669900
20
270.309700
11
39.727300
21
270.386600
0
LINE
8
Layer 1
10
39.727300
20
270.386600
11
39.790200
21
270.463400
0
LINE
8
Layer 1
10
39.790200
20
270.463400
11
39.856900
21
270.537900
0
LINE
8
Layer 1
10
39.856900
20
270.537900
11
39.926200
21
270.608800
0
LINE
8
Layer 1
10
39.926200
20
270.608800
11
39.999000
21
270.676900
0
LINE
8
Layer 1
10
39.999000
20
270.676900
11
40.074700
21
270.741700
0
LINE
8
Layer 1
10
40.074700
20
270.741700
11
40.153400
21
270.803200
0
LINE
8
Layer 1
10
40.153400
20
270.803200
11
40.234100
21
270.860800
0
LINE
8
Layer 1
10
40.234100
20
270.860800
11
40.318000
21
270.915200
0
LINE
8
Layer 1
10
40.318000
20
270.915200
11
40.321600
21
270.917300
0
LINE
8
Layer 1
10
40.321600
20
270.917300
11
40.403800
21
270.965500
0
LINE
8
Layer 1
10
40.403800
20
270.965500
11
40.478400
21
271.005000
0
LINE
8
Layer 1
10
40.478400
20
271.005000
11
40.491500
21
271.011900
0
LINE
8
Layer 1
10
40.491500
20
271.011900
11
40.581900
21
271.054800
0
LINE
8
Layer 1
10
40.581900
20
271.054800
11
40.673300
21
271.093200
0
LINE
8
Layer 1
10
40.673300
20
271.093200
11
40.766800
21
271.127800
0
LINE
8
Layer 1
10
40.766800
20
271.127800
11
40.861900
21
271.158200
0
LINE
8
Layer 1
10
40.861900
20
271.158200
11
40.957600
21
271.184200
0
LINE
8
Layer 1
10
40.957600
20
271.184200
11
41.055200
21
271.206100
0
LINE
8
Layer 1
10
41.055200
20
271.206100
11
41.152700
21
271.223600
0
LINE
8
Layer 1
10
41.152700
20
271.223600
11
41.251900
21
271.236800
0
LINE
8
Layer 1
10
41.251900
20
271.236800
11
41.259700
21
271.237500
0
LINE
8
Layer 1
10
41.259700
20
271.237500
11
41.350600
21
271.245600
0
LINE
8
Layer 1
10
41.350600
20
271.245600
11
41.450600
21
271.250000
0
LINE
8
Layer 1
10
41.450600
20
271.250000
11
41.549700
21
271.250000
0
LINE
8
Layer 1
10
41.549700
20
271.250000
11
41.649300
21
271.245600
0
LINE
8
Layer 1
10
41.649300
20
271.245600
11
41.748800
21
271.236700
0
LINE
8
Layer 1
10
41.748800
20
271.236700
11
41.847000
21
271.223600
0
LINE
8
Layer 1
10
41.847000
20
271.223600
11
41.945200
21
271.206100
0
LINE
8
Layer 1
10
41.945200
20
271.206100
11
42.042600
21
271.184100
0
LINE
8
Layer 1
10
42.042600
20
271.184100
11
42.138600
21
271.158000
0
LINE
8
Layer 1
10
42.138600
20
271.158000
11
42.233100
21
271.127800
0
LINE
8
Layer 1
10
42.233100
20
271.127800
11
42.326600
21
271.093200
0
LINE
8
Layer 1
10
42.326600
20
271.093200
11
42.418700
21
271.054500
0
LINE
8
Layer 1
10
42.418700
20
271.054500
11
42.508300
21
271.012000
0
LINE
8
Layer 1
10
42.508300
20
271.012000
11
42.596400
21
270.965400
0
LINE
8
Layer 1
10
42.596400
20
270.965400
11
42.682600
21
270.914800
0
LINE
8
Layer 1
10
42.682600
20
270.914800
11
42.688900
21
270.910700
0
LINE
8
Layer 1
10
42.688900
20
270.910700
11
42.765700
21
270.860900
0
LINE
8
Layer 1
10
42.765700
20
270.860900
11
42.847200
21
270.802800
0
LINE
8
Layer 1
10
42.847200
20
270.802800
11
42.925500
21
270.741500
0
LINE
8
Layer 1
10
42.925500
20
270.741500
11
42.998700
21
270.678900
0
LINE
8
Layer 1
10
42.998700
20
270.678900
11
43.000900
21
270.677000
0
LINE
8
Layer 1
10
43.000900
20
270.677000
11
43.073900
21
270.608600
0
LINE
8
Layer 1
10
43.073900
20
270.608600
11
43.143200
21
270.537800
0
LINE
8
Layer 1
10
43.143200
20
270.537800
11
43.209700
21
270.463500
0
LINE
8
Layer 1
10
43.209700
20
270.463500
11
43.273000
21
270.386200
0
LINE
8
Layer 1
10
43.273000
20
270.386200
11
43.332300
21
270.306800
0
LINE
8
Layer 1
10
43.332300
20
270.306800
11
43.388500
21
270.224100
0
LINE
8
Layer 1
10
43.388500
20
270.224100
11
43.440600
21
270.139700
0
LINE
8
Layer 1
10
43.440600
20
270.139700
11
43.489300
21
270.052400
0
LINE
8
Layer 1
10
43.489300
20
270.052400
11
43.533800
21
269.963700
0
LINE
8
Layer 1
10
43.533800
20
269.963700
11
43.574600
21
269.872400
0
LINE
8
Layer 1
10
43.574600
20
269.872400
11
43.611000
21
269.780200
0
LINE
8
Layer 1
10
43.611000
20
269.780200
11
43.643500
21
269.686000
0
LINE
8
Layer 1
10
43.643500
20
269.686000
11
43.671700
21
269.590500
0
LINE
8
Layer 1
10
43.671700
20
269.590500
11
43.695800
21
269.493500
0
LINE
8
Layer 1
10
43.695800
20
269.493500
11
43.696200
21
269.491400
0
LINE
8
Layer 1
10
43.696200
20
269.491400
11
43.715400
21
269.396000
0
LINE
8
Layer 1
10
43.715400
20
269.396000
11
43.730700
21
269.298000
0
LINE
8
Layer 1
10
43.730700
20
269.298000
11
43.741800
21
269.198600
0
LINE
8
Layer 1
10
43.741800
20
269.198600
11
43.748300
21
269.099700
0
LINE
8
Layer 1
10
43.748300
20
269.099700
11
43.750500
21
268.999700
0
LINE
8
Layer 1
10
43.750500
20
268.999700
11
43.748400
21
268.900500
0
LINE
8
Layer 1
10
43.748400
20
268.900500
11
43.741700
21
268.800800
0
LINE
8
Layer 1
10
43.741700
20
268.800800
11
43.730800
21
268.702200
0
LINE
8
Layer 1
10
43.730800
20
268.702200
11
43.715300
21
268.603400
0
LINE
8
Layer 1
10
43.715300
20
268.603400
11
43.695700
21
268.506300
0
LINE
8
Layer 1
10
43.695700
20
268.506300
11
43.671700
21
268.409500
0
LINE
8
Layer 1
10
43.671700
20
268.409500
11
43.643300
21
268.313700
0
LINE
8
Layer 1
10
43.643300
20
268.313700
11
43.611000
21
268.220000
0
LINE
8
Layer 1
10
43.611000
20
268.220000
11
43.574300
21
268.126900
0
LINE
8
Layer 1
10
43.574300
20
268.126900
11
43.533700
21
268.036100
0
LINE
8
Layer 1
10
43.533700
20
268.036100
11
43.500600
21
267.970100
0
LINE
8
Layer 1
10
43.500600
20
267.970100
11
43.489200
21
267.947400
0
LINE
8
Layer 1
10
43.489200
20
267.947400
11
43.440500
21
267.860100
0
LINE
8
Layer 1
10
43.440500
20
267.860100
11
43.388400
21
267.775700
0
LINE
8
Layer 1
10
43.388400
20
267.775700
11
43.332200
21
267.693100
0
LINE
8
Layer 1
10
43.332200
20
267.693100
11
43.272800
21
267.613600
0
LINE
8
Layer 1
10
43.272800
20
267.613600
11
43.209500
21
267.536300
0
LINE
8
Layer 1
10
43.209500
20
267.536300
11
43.143400
21
267.462400
0
LINE
8
Layer 1
10
43.143400
20
267.462400
11
43.073400
21
267.390900
0
LINE
8
Layer 1
10
43.073400
20
267.390900
11
43.001100
21
267.323200
0
LINE
8
Layer 1
10
43.001100
20
267.323200
11
42.925100
21
267.258100
0
LINE
8
Layer 1
10
42.925100
20
267.258100
11
42.889900
21
267.230600
0
LINE
8
Layer 1
10
42.889900
20
267.230600
11
42.847000
21
267.197000
0
LINE
8
Layer 1
10
42.847000
20
267.197000
11
42.765500
21
267.139000
0
LINE
8
Layer 1
10
42.765500
20
267.139000
11
42.682400
21
267.085100
0
LINE
8
Layer 1
10
42.682400
20
267.085100
11
42.596100
21
267.034400
0
LINE
8
Layer 1
10
42.596100
20
267.034400
11
42.593100
21
267.032800
0
LINE
8
Layer 1
10
42.593100
20
267.032800
11
42.508200
21
266.987900
0
LINE
8
Layer 1
10
42.508200
20
266.987900
11
42.418500
21
266.945400
0
LINE
8
Layer 1
10
42.418500
20
266.945400
11
42.326300
21
266.906600
0
LINE
8
Layer 1
10
42.326300
20
266.906600
11
42.324200
21
266.905900
0
LINE
8
Layer 1
10
42.324200
20
266.905900
11
42.233000
21
266.872200
0
LINE
8
Layer 1
10
42.233000
20
266.872200
11
42.140100
21
266.842400
0
LINE
8
Layer 1
10
42.140100
20
266.842400
11
42.138500
21
266.841900
0
LINE
8
Layer 1
10
42.138500
20
266.841900
11
42.042300
21
266.815800
0
LINE
8
Layer 1
10
42.042300
20
266.815800
11
41.944800
21
266.793900
0
LINE
8
Layer 1
10
41.944800
20
266.793900
11
41.904600
21
266.786700
0
LINE
8
Layer 1
10
41.904600
20
266.786700
11
41.847200
21
266.776400
0
LINE
8
Layer 1
10
41.847200
20
266.776400
11
41.748100
21
266.763200
0
LINE
8
Layer 1
10
41.748100
20
266.763200
11
41.747700
21
266.763100
0
LINE
8
Layer 1
10
41.747700
20
266.763100
11
41.649000
21
266.754400
0
LINE
8
Layer 1
10
41.649000
20
266.754400
11
41.555200
21
266.750200
0
LINE
8
Layer 1
10
41.555200
20
266.750200
11
41.549900
21
266.750000
0
LINE
8
Layer 1
10
41.549900
20
266.750000
11
41.450200
21
266.750000
0
LINE
8
Layer 1
10
41.450200
20
266.750000
11
41.350400
21
266.754400
0
LINE
8
Layer 1
10
364.050000
20
266.754400
11
363.951000
21
266.763200
0
LINE
8
Layer 1
10
363.951000
20
266.763200
11
363.853000
21
266.776400
0
LINE
8
Layer 1
10
363.853000
20
266.776400
11
363.755000
21
266.793900
0
LINE
8
Layer 1
10
363.755000
20
266.793900
11
363.657000
21
266.815900
0
LINE
8
Layer 1
10
363.657000
20
266.815900
11
363.652000
21
266.817300
0
LINE
8
Layer 1
10
363.652000
20
266.817300
11
363.561000
21
266.841900
0
LINE
8
Layer 1
10
363.561000
20
266.841900
11
363.511000
21
266.858100
0
LINE
8
Layer 1
10
363.511000
20
266.858100
11
363.467000
21
266.872300
0
LINE
8
Layer 1
10
363.467000
20
266.872300
11
363.374000
21
266.906700
0
LINE
8
Layer 1
10
363.374000
20
266.906700
11
363.281000
21
266.945500
0
LINE
8
Layer 1
10
363.281000
20
266.945500
11
363.192000
21
266.988000
0
LINE
8
Layer 1
10
363.192000
20
266.988000
11
363.104000
21
267.034600
0
LINE
8
Layer 1
10
363.104000
20
267.034600
11
363.018000
21
267.085100
0
LINE
8
Layer 1
10
363.018000
20
267.085100
11
362.994000
21
267.100400
0
LINE
8
Layer 1
10
362.994000
20
267.100400
11
362.934000
21
267.139400
0
LINE
8
Layer 1
10
362.934000
20
267.139400
11
362.853000
21
267.196900
0
LINE
8
Layer 1
10
362.853000
20
267.196900
11
362.775000
21
267.258400
0
LINE
8
Layer 1
10
362.775000
20
267.258400
11
362.752000
21
267.277300
0
LINE
8
Layer 1
10
362.752000
20
267.277300
11
362.699000
21
267.323300
0
LINE
8
Layer 1
10
362.699000
20
267.323300
11
362.626000
21
267.391000
0
LINE
8
Layer 1
10
362.626000
20
267.391000
11
362.557000
21
267.462300
0
LINE
8
Layer 1
10
362.557000
20
267.462300
11
362.490000
21
267.536800
0
LINE
8
Layer 1
10
362.490000
20
267.536800
11
362.427000
21
267.613600
0
LINE
8
Layer 1
10
362.427000
20
267.613600
11
362.367000
21
267.693600
0
LINE
8
Layer 1
10
362.367000
20
267.693600
11
362.312000
21
267.775600
0
LINE
8
Layer 1
10
362.312000
20
267.775600
11
362.259000
21
267.860400
0
LINE
8
Layer 1
10
362.259000
20
267.860400
11
362.236000
21
267.903100
0
LINE
8
Layer 1
10
362.236000
20
267.903100
11
362.211000
21
267.947500
0
LINE
8
Layer 1
10
362.211000
20
267.947500
11
362.166000
21
268.036300
0
LINE
8
Layer 1
10
362.166000
20
268.036300
11
362.125000
21
268.127600
0
LINE
8
Layer 1
10
362.125000
20
268.127600
11
362.089000
21
268.219900
0
LINE
8
Layer 1
10
362.089000
20
268.219900
11
362.057000
21
268.314000
0
LINE
8
Layer 1
10
362.057000
20
268.314000
11
362.028000
21
268.409500
0
LINE
8
Layer 1
10
362.028000
20
268.409500
11
362.004000
21
268.506500
0
LINE
8
Layer 1
10
362.004000
20
268.506500
11
361.985000
21
268.603600
0
LINE
8
Layer 1
10
361.985000
20
268.603600
11
361.969000
21
268.702000
0
LINE
8
Layer 1
10
361.969000
20
268.702000
11
361.958000
21
268.801300
0
LINE
8
Layer 1
10
361.958000
20
268.801300
11
361.955000
21
268.850700
0
LINE
8
Layer 1
10
361.955000
20
268.850700
11
361.952000
21
268.900500
0
LINE
8
Layer 1
10
361.952000
20
268.900500
11
361.949000
21
269.000200
0
LINE
8
Layer 1
10
361.949000
20
269.000200
11
361.952000
21
269.099400
0
LINE
8
Layer 1
10
361.952000
20
269.099400
11
361.958000
21
269.198900
0
LINE
8
Layer 1
10
361.958000
20
269.198900
11
361.969000
21
269.298200
0
LINE
8
Layer 1
10
361.969000
20
269.298200
11
361.985000
21
269.396300
0
LINE
8
Layer 1
10
361.985000
20
269.396300
11
362.004000
21
269.494200
0
LINE
8
Layer 1
10
362.004000
20
269.494200
11
362.028000
21
269.590600
0
LINE
8
Layer 1
10
362.028000
20
269.590600
11
362.036000
21
269.617600
0
LINE
8
Layer 1
10
362.036000
20
269.617600
11
362.057000
21
269.686300
0
LINE
8
Layer 1
10
362.057000
20
269.686300
11
362.089000
21
269.780000
0
LINE
8
Layer 1
10
362.089000
20
269.780000
11
362.126000
21
269.872700
0
LINE
8
Layer 1
10
362.126000
20
269.872700
11
362.166000
21
269.963900
0
LINE
8
Layer 1
10
362.166000
20
269.963900
11
362.175000
21
269.981000
0
LINE
8
Layer 1
10
362.175000
20
269.981000
11
362.211000
21
270.052700
0
LINE
8
Layer 1
10
362.211000
20
270.052700
11
362.260000
21
270.139900
0
LINE
8
Layer 1
10
362.260000
20
270.139900
11
362.312000
21
270.224300
0
LINE
8
Layer 1
10
362.312000
20
270.224300
11
362.368000
21
270.307000
0
LINE
8
Layer 1
10
362.368000
20
270.307000
11
362.427000
21
270.386400
0
LINE
8
Layer 1
10
362.427000
20
270.386400
11
362.490000
21
270.463400
0
LINE
8
Layer 1
10
362.490000
20
270.463400
11
362.557000
21
270.537900
0
LINE
8
Layer 1
10
362.557000
20
270.537900
11
362.626000
21
270.608900
0
LINE
8
Layer 1
10
362.626000
20
270.608900
11
362.699000
21
270.676900
0
LINE
8
Layer 1
10
362.699000
20
270.676900
11
362.775000
21
270.741700
0
LINE
8
Layer 1
10
362.775000
20
270.741700
11
362.853000
21
270.803200
0
LINE
8
Layer 1
10
362.853000
20
270.803200
11
362.934000
21
270.860800
0
LINE
8
Layer 1
10
362.934000
20
270.860800
11
363.018000
21
270.915200
0
LINE
8
Layer 1
10
363.018000
20
270.915200
11
363.104000
21
270.965500
0
LINE
8
Layer 1
10
363.104000
20
270.965500
11
363.192000
21
271.011900
0
LINE
8
Layer 1
10
363.192000
20
271.011900
11
363.282000
21
271.054700
0
LINE
8
Layer 1
10
363.282000
20
271.054700
11
363.373000
21
271.093200
0
LINE
8
Layer 1
10
363.373000
20
271.093200
11
363.467000
21
271.127800
0
LINE
8
Layer 1
10
363.467000
20
271.127800
11
363.562000
21
271.158200
0
LINE
8
Layer 1
10
363.562000
20
271.158200
11
363.571000
21
271.160600
0
LINE
8
Layer 1
10
363.571000
20
271.160600
11
363.658000
21
271.184200
0
LINE
8
Layer 1
10
363.658000
20
271.184200
11
363.755000
21
271.206100
0
LINE
8
Layer 1
10
363.755000
20
271.206100
11
363.808000
21
271.215600
0
LINE
8
Layer 1
10
363.808000
20
271.215600
11
363.853000
21
271.223600
0
LINE
8
Layer 1
10
363.853000
20
271.223600
11
363.952000
21
271.236800
0
LINE
8
Layer 1
10
363.952000
20
271.236800
11
364.051000
21
271.245600
0
LINE
8
Layer 1
10
364.051000
20
271.245600
11
364.150000
21
271.250000
0
LINE
8
Layer 1
10
364.150000
20
271.250000
11
364.250000
21
271.250000
0
LINE
8
Layer 1
10
364.250000
20
271.250000
11
364.349000
21
271.245600
0
LINE
8
Layer 1
10
364.349000
20
271.245600
11
364.448000
21
271.236800
0
LINE
8
Layer 1
10
364.448000
20
271.236800
11
364.547000
21
271.223600
0
LINE
8
Layer 1
10
364.547000
20
271.223600
11
364.645000
21
271.206000
0
LINE
8
Layer 1
10
364.645000
20
271.206000
11
364.742000
21
271.184300
0
LINE
8
Layer 1
10
364.742000
20
271.184300
11
364.839000
21
271.158000
0
LINE
8
Layer 1
10
364.839000
20
271.158000
11
364.933000
21
271.127800
0
LINE
8
Layer 1
10
364.933000
20
271.127800
11
365.027000
21
271.093100
0
LINE
8
Layer 1
10
365.027000
20
271.093100
11
365.118000
21
271.054600
0
LINE
8
Layer 1
10
365.118000
20
271.054600
11
365.208000
21
271.012000
0
LINE
8
Layer 1
10
365.208000
20
271.012000
11
365.296000
21
270.965400
0
LINE
8
Layer 1
10
365.296000
20
270.965400
11
365.382000
21
270.914900
0
LINE
8
Layer 1
10
365.382000
20
270.914900
11
365.406000
21
270.899600
0
LINE
8
Layer 1
10
365.406000
20
270.899600
11
365.466000
21
270.860600
0
LINE
8
Layer 1
10
365.466000
20
270.860600
11
365.547000
21
270.803100
0
LINE
8
Layer 1
10
365.547000
20
270.803100
11
365.625000
21
270.741600
0
LINE
8
Layer 1
10
365.625000
20
270.741600
11
365.648000
21
270.722700
0
LINE
8
Layer 1
10
365.648000
20
270.722700
11
365.701000
21
270.676700
0
LINE
8
Layer 1
10
365.701000
20
270.676700
11
365.774000
21
270.609000
0
LINE
8
Layer 1
10
365.774000
20
270.609000
11
365.843000
21
270.537600
0
LINE
8
Layer 1
10
365.843000
20
270.537600
11
365.880000
21
270.497000
0
LINE
8
Layer 1
10
365.880000
20
270.497000
11
365.910000
21
270.463400
0
LINE
8
Layer 1
10
365.910000
20
270.463400
11
365.945000
21
270.420500
0
LINE
8
Layer 1
10
365.945000
20
270.420500
11
365.973000
21
270.386400
0
LINE
8
Layer 1
10
365.973000
20
270.386400
11
366.032000
21
270.306700
0
LINE
8
Layer 1
10
366.032000
20
270.306700
11
366.089000
21
270.224100
0
LINE
8
Layer 1
10
366.089000
20
270.224100
11
366.107000
21
270.193500
0
LINE
8
Layer 1
10
366.107000
20
270.193500
11
366.141000
21
270.139700
0
LINE
8
Layer 1
10
366.141000
20
270.139700
11
366.189000
21
270.052800
0
LINE
8
Layer 1
10
366.189000
20
270.052800
11
366.234000
21
269.963500
0
LINE
8
Layer 1
10
366.234000
20
269.963500
11
366.274000
21
269.872800
0
LINE
8
Layer 1
10
366.274000
20
269.872800
11
366.311000
21
269.780000
0
LINE
8
Layer 1
10
366.311000
20
269.780000
11
366.330000
21
269.726100
0
LINE
8
Layer 1
10
366.330000
20
269.726100
11
366.343000
21
269.686000
0
LINE
8
Layer 1
10
366.343000
20
269.686000
11
366.372000
21
269.590500
0
LINE
8
Layer 1
10
366.372000
20
269.590500
11
366.396000
21
269.493500
0
LINE
8
Layer 1
10
366.396000
20
269.493500
11
366.415000
21
269.396400
0
LINE
8
Layer 1
10
366.415000
20
269.396400
11
366.431000
21
269.297500
0
LINE
8
Layer 1
10
366.431000
20
269.297500
11
366.442000
21
269.198600
0
LINE
8
Layer 1
10
366.442000
20
269.198600
11
366.442000
21
269.198300
0
LINE
8
Layer 1
10
366.442000
20
269.198300
11
366.448000
21
269.099500
0
LINE
8
Layer 1
10
366.448000
20
269.099500
11
366.451000
21
268.999800
0
LINE
8
Layer 1
10
366.451000
20
268.999800
11
366.448000
21
268.900600
0
LINE
8
Layer 1
10
366.448000
20
268.900600
11
366.442000
21
268.800900
0
LINE
8
Layer 1
10
366.442000
20
268.800900
11
366.431000
21
268.702200
0
LINE
8
Layer 1
10
366.431000
20
268.702200
11
366.415000
21
268.603600
0
LINE
8
Layer 1
10
366.415000
20
268.603600
11
366.406000
21
268.556300
0
LINE
8
Layer 1
10
366.406000
20
268.556300
11
366.396000
21
268.506100
0
LINE
8
Layer 1
10
366.396000
20
268.506100
11
366.372000
21
268.409500
0
LINE
8
Layer 1
10
366.372000
20
268.409500
11
366.343000
21
268.313700
0
LINE
8
Layer 1
10
366.343000
20
268.313700
11
366.311000
21
268.220000
0
LINE
8
Layer 1
10
366.311000
20
268.220000
11
366.274000
21
268.126900
0
LINE
8
Layer 1
10
366.274000
20
268.126900
11
366.234000
21
268.036100
0
LINE
8
Layer 1
10
366.234000
20
268.036100
11
366.189000
21
267.947300
0
LINE
8
Layer 1
10
366.189000
20
267.947300
11
366.141000
21
267.860100
0
LINE
8
Layer 1
10
366.141000
20
267.860100
11
366.088000
21
267.775700
0
LINE
8
Layer 1
10
366.088000
20
267.775700
11
366.032000
21
267.693000
0
LINE
8
Layer 1
10
366.032000
20
267.693000
11
365.973000
21
267.613600
0
LINE
8
Layer 1
10
365.973000
20
267.613600
11
365.909000
21
267.536200
0
LINE
8
Layer 1
10
365.909000
20
267.536200
11
365.843000
21
267.462300
0
LINE
8
Layer 1
10
365.843000
20
267.462300
11
365.774000
21
267.391000
0
LINE
8
Layer 1
10
365.774000
20
267.391000
11
365.734000
21
267.353600
0
LINE
8
Layer 1
10
365.734000
20
267.353600
11
365.701000
21
267.323100
0
LINE
8
Layer 1
10
365.701000
20
267.323100
11
365.625000
21
267.258100
0
LINE
8
Layer 1
10
365.625000
20
267.258100
11
365.547000
21
267.197000
0
LINE
8
Layer 1
10
365.547000
20
267.197000
11
365.466000
21
267.139000
0
LINE
8
Layer 1
10
365.466000
20
267.139000
11
365.382000
21
267.085100
0
LINE
8
Layer 1
10
365.382000
20
267.085100
11
365.296000
21
267.034400
0
LINE
8
Layer 1
10
365.296000
20
267.034400
11
365.289000
21
267.030800
0
LINE
8
Layer 1
10
365.289000
20
267.030800
11
365.208000
21
266.988000
0
LINE
8
Layer 1
10
365.208000
20
266.988000
11
365.118000
21
266.945400
0
LINE
8
Layer 1
10
365.118000
20
266.945400
11
365.026000
21
266.906600
0
LINE
8
Layer 1
10
365.026000
20
266.906600
11
364.933000
21
266.872100
0
LINE
8
Layer 1
10
364.933000
20
266.872100
11
364.838000
21
266.841900
0
LINE
8
Layer 1
10
364.838000
20
266.841900
11
364.742000
21
266.815800
0
LINE
8
Layer 1
10
364.742000
20
266.815800
11
364.645000
21
266.793900
0
LINE
8
Layer 1
10
364.645000
20
266.793900
11
364.610000
21
266.787700
0
LINE
8
Layer 1
10
364.610000
20
266.787700
11
364.547000
21
266.776400
0
LINE
8
Layer 1
10
364.547000
20
266.776400
11
364.448000
21
266.763200
0
LINE
8
Layer 1
10
364.448000
20
266.763200
11
364.443000
21
266.762800
0
LINE
8
Layer 1
10
364.443000
20
266.762800
11
364.349000
21
266.754400
0
LINE
8
Layer 1
10
364.349000
20
266.754400
11
364.260000
21
266.750500
0
LINE
8
Layer 1
10
364.260000
20
266.750500
11
364.250000
21
266.750000
0
LINE
8
Layer 1
10
364.250000
20
266.750000
11
364.150000
21
266.750000
0
LINE
8
Layer 1
10
364.150000
20
266.750000
11
364.050000
21
266.754400
0
LINE
8
Layer 1
10
73.303800
20
268.508600
11
73.284600
21
268.604000
0
LINE
8
Layer 1
10
73.284600
20
268.604000
11
73.274100
21
268.671400
0
LINE
8
Layer 1
10
73.274100
20
268.671400
11
73.269300
21
268.702100
0
LINE
8
Layer 1
10
73.269300
20
268.702100
11
73.258200
21
268.801400
0
LINE
8
Layer 1
10
73.258200
20
268.801400
11
73.251700
21
268.900300
0
LINE
8
Layer 1
10
73.251700
20
268.900300
11
73.249500
21
269.000300
0
LINE
8
Layer 1
10
73.249500
20
269.000300
11
73.251600
21
269.099400
0
LINE
8
Layer 1
10
73.251600
20
269.099400
11
73.258300
21
269.198900
0
LINE
8
Layer 1
10
73.258300
20
269.198900
11
73.269300
21
269.298200
0
LINE
8
Layer 1
10
73.269300
20
269.298200
11
73.284600
21
269.396100
0
LINE
8
Layer 1
10
73.284600
20
269.396100
11
73.304400
21
269.494200
0
LINE
8
Layer 1
10
73.304400
20
269.494200
11
73.328400
21
269.590800
0
LINE
8
Layer 1
10
73.328400
20
269.590800
11
73.330900
21
269.599300
0
LINE
8
Layer 1
10
73.330900
20
269.599300
11
73.356600
21
269.686200
0
LINE
8
Layer 1
10
73.356600
20
269.686200
11
73.385600
21
269.770200
0
LINE
8
Layer 1
10
73.385600
20
269.770200
11
73.389000
21
269.780000
0
LINE
8
Layer 1
10
73.389000
20
269.780000
11
73.425600
21
269.872700
0
LINE
8
Layer 1
10
73.425600
20
269.872700
11
73.466300
21
269.963900
0
LINE
8
Layer 1
10
73.466300
20
269.963900
11
73.491200
21
270.013600
0
LINE
8
Layer 1
10
73.491200
20
270.013600
11
73.510800
21
270.052600
0
LINE
8
Layer 1
10
73.510800
20
270.052600
11
73.559500
21
270.139900
0
LINE
8
Layer 1
10
73.559500
20
270.139900
11
73.611600
21
270.224300
0
LINE
8
Layer 1
10
73.611600
20
270.224300
11
73.667800
21
270.306900
0
LINE
8
Layer 1
10
73.667800
20
270.306900
11
73.669500
21
270.309200
0
LINE
8
Layer 1
10
73.669500
20
270.309200
11
73.727400
21
270.386600
0
LINE
8
Layer 1
10
73.727400
20
270.386600
11
73.767200
21
270.435300
0
LINE
8
Layer 1
10
73.767200
20
270.435300
11
73.790200
21
270.463500
0
LINE
8
Layer 1
10
73.790200
20
270.463500
11
73.856900
21
270.537900
0
LINE
8
Layer 1
10
73.856900
20
270.537900
11
73.926300
21
270.608800
0
LINE
8
Layer 1
10
73.926300
20
270.608800
11
73.999000
21
270.676900
0
LINE
8
Layer 1
10
73.999000
20
270.676900
11
74.074700
21
270.741700
0
LINE
8
Layer 1
10
74.074700
20
270.741700
11
74.153400
21
270.803200
0
LINE
8
Layer 1
10
74.153400
20
270.803200
11
74.234100
21
270.860800
0
LINE
8
Layer 1
10
74.234100
20
270.860800
11
74.318000
21
270.915200
0
LINE
8
Layer 1
10
74.318000
20
270.915200
11
74.321700
21
270.917300
0
LINE
8
Layer 1
10
74.321700
20
270.917300
11
74.403800
21
270.965500
0
LINE
8
Layer 1
10
74.403800
20
270.965500
11
74.491500
21
271.011900
0
LINE
8
Layer 1
10
74.491500
20
271.011900
11
74.581900
21
271.054800
0
LINE
8
Layer 1
10
74.581900
20
271.054800
11
74.673300
21
271.093200
0
LINE
8
Layer 1
10
74.673300
20
271.093200
11
74.766800
21
271.127800
0
LINE
8
Layer 1
10
74.766800
20
271.127800
11
74.861900
21
271.158200
0
LINE
8
Layer 1
10
74.861900
20
271.158200
11
74.891600
21
271.166300
0
LINE
8
Layer 1
10
74.891600
20
271.166300
11
74.957600
21
271.184200
0
LINE
8
Layer 1
10
74.957600
20
271.184200
11
75.055200
21
271.206100
0
LINE
8
Layer 1
10
75.055200
20
271.206100
11
75.152700
21
271.223600
0
LINE
8
Layer 1
10
75.152700
20
271.223600
11
75.251600
21
271.236800
0
LINE
8
Layer 1
10
75.251600
20
271.236800
11
75.351100
21
271.245600
0
LINE
8
Layer 1
10
75.351100
20
271.245600
11
75.450100
21
271.250000
0
LINE
8
Layer 1
10
75.450100
20
271.250000
11
75.550100
21
271.250000
0
LINE
8
Layer 1
10
75.550100
20
271.250000
11
75.649200
21
271.245600
0
LINE
8
Layer 1
10
75.649200
20
271.245600
11
75.748400
21
271.236800
0
LINE
8
Layer 1
10
75.748400
20
271.236800
11
75.847500
21
271.223600
0
LINE
8
Layer 1
10
75.847500
20
271.223600
11
75.849600
21
271.223200
0
LINE
8
Layer 1
10
75.849600
20
271.223200
11
75.945400
21
271.206000
0
LINE
8
Layer 1
10
75.945400
20
271.206000
11
76.042200
21
271.184300
0
LINE
8
Layer 1
10
76.042200
20
271.184300
11
76.138700
21
271.158000
0
LINE
8
Layer 1
10
76.138700
20
271.158000
11
76.173300
21
271.146900
0
LINE
8
Layer 1
10
76.173300
20
271.146900
11
76.233100
21
271.127800
0
LINE
8
Layer 1
10
76.233100
20
271.127800
11
76.326900
21
271.093100
0
LINE
8
Layer 1
10
76.326900
20
271.093100
11
76.418300
21
271.054700
0
LINE
8
Layer 1
10
76.418300
20
271.054700
11
76.508400
21
271.012000
0
LINE
8
Layer 1
10
76.508400
20
271.012000
11
76.596400
21
270.965400
0
LINE
8
Layer 1
10
76.596400
20
270.965400
11
76.682600
21
270.914800
0
LINE
8
Layer 1
10
76.682600
20
270.914800
11
76.683000
21
270.914500
0
LINE
8
Layer 1
10
76.683000
20
270.914500
11
76.766000
21
270.860700
0
LINE
8
Layer 1
10
76.766000
20
270.860700
11
76.835200
21
270.811300
0
LINE
8
Layer 1
10
76.835200
20
270.811300
11
76.846800
21
270.803100
0
LINE
8
Layer 1
10
76.846800
20
270.803100
11
76.925600
21
270.741400
0
LINE
8
Layer 1
10
76.925600
20
270.741400
11
77.001200
21
270.676700
0
LINE
8
Layer 1
10
77.001200
20
270.676700
11
77.058200
21
270.623400
0
LINE
8
Layer 1
10
77.058200
20
270.623400
11
77.073600
21
270.609000
0
LINE
8
Layer 1
10
77.073600
20
270.609000
11
77.143500
21
270.537400
0
LINE
8
Layer 1
10
77.143500
20
270.537400
11
77.209800
21
270.463300
0
LINE
8
Layer 1
10
77.209800
20
270.463300
11
77.272700
21
270.386500
0
LINE
8
Layer 1
10
77.272700
20
270.386500
11
77.332400
21
270.306700
0
LINE
8
Layer 1
10
77.332400
20
270.306700
11
77.388500
21
270.224100
0
LINE
8
Layer 1
10
77.388500
20
270.224100
11
77.393100
21
270.216600
0
LINE
8
Layer 1
10
77.393100
20
270.216600
11
77.440800
21
270.139400
0
LINE
8
Layer 1
10
77.440800
20
270.139400
11
77.471900
21
270.083700
0
LINE
8
Layer 1
10
77.471900
20
270.083700
11
77.489200
21
270.052700
0
LINE
8
Layer 1
10
77.489200
20
270.052700
11
77.533900
21
269.963300
0
LINE
8
Layer 1
10
77.533900
20
269.963300
11
77.574400
21
269.872800
0
LINE
8
Layer 1
10
77.574400
20
269.872800
11
77.611100
21
269.779800
0
LINE
8
Layer 1
10
77.611100
20
269.779800
11
77.643400
21
269.686100
0
LINE
8
Layer 1
10
77.643400
20
269.686100
11
77.671700
21
269.590500
0
LINE
8
Layer 1
10
77.671700
20
269.590500
11
77.695800
21
269.493500
0
LINE
8
Layer 1
10
77.695800
20
269.493500
11
77.715400
21
269.396400
0
LINE
8
Layer 1
10
77.715400
20
269.396400
11
77.730800
21
269.297500
0
LINE
8
Layer 1
10
77.730800
20
269.297500
11
77.730800
21
269.297400
0
LINE
8
Layer 1
10
77.730800
20
269.297400
11
77.741700
21
269.198700
0
LINE
8
Layer 1
10
77.741700
20
269.198700
11
77.748300
21
269.100200
0
LINE
8
Layer 1
10
77.748300
20
269.100200
11
77.748300
21
269.099700
0
LINE
8
Layer 1
10
77.748300
20
269.099700
11
77.750500
21
268.999700
0
LINE
8
Layer 1
10
77.750500
20
268.999700
11
77.748400
21
268.900600
0
LINE
8
Layer 1
10
77.748400
20
268.900600
11
77.741700
21
268.800800
0
LINE
8
Layer 1
10
77.741700
20
268.800800
11
77.730800
21
268.702200
0
LINE
8
Layer 1
10
77.730800
20
268.702200
11
77.715300
21
268.603400
0
LINE
8
Layer 1
10
77.715300
20
268.603400
11
77.695700
21
268.506300
0
LINE
8
Layer 1
10
77.695700
20
268.506300
11
77.671700
21
268.409500
0
LINE
8
Layer 1
10
77.671700
20
268.409500
11
77.643300
21
268.313700
0
LINE
8
Layer 1
10
77.643300
20
268.313700
11
77.611000
21
268.220000
0
LINE
8
Layer 1
10
77.611000
20
268.220000
11
77.574300
21
268.127000
0
LINE
8
Layer 1
10
77.574300
20
268.127000
11
77.565300
21
268.106900
0
LINE
8
Layer 1
10
77.565300
20
268.106900
11
77.533700
21
268.036200
0
LINE
8
Layer 1
10
77.533700
20
268.036200
11
77.496600
21
267.962100
0
LINE
8
Layer 1
10
77.496600
20
267.962100
11
77.489200
21
267.947400
0
LINE
8
Layer 1
10
77.489200
20
267.947400
11
77.440500
21
267.860100
0
LINE
8
Layer 1
10
77.440500
20
267.860100
11
77.388400
21
267.775700
0
LINE
8
Layer 1
10
77.388400
20
267.775700
11
77.332200
21
267.693100
0
LINE
8
Layer 1
10
77.332200
20
267.693100
11
77.272900
21
267.613600
0
LINE
8
Layer 1
10
77.272900
20
267.613600
11
77.209500
21
267.536300
0
LINE
8
Layer 1
10
77.209500
20
267.536300
11
77.143400
21
267.462400
0
LINE
8
Layer 1
10
77.143400
20
267.462400
11
77.073400
21
267.390900
0
LINE
8
Layer 1
10
77.073400
20
267.390900
11
77.001100
21
267.323200
0
LINE
8
Layer 1
10
77.001100
20
267.323200
11
76.925000
21
267.258100
0
LINE
8
Layer 1
10
76.925000
20
267.258100
11
76.847000
21
267.197000
0
LINE
8
Layer 1
10
76.847000
20
267.197000
11
76.765500
21
267.139000
0
LINE
8
Layer 1
10
76.765500
20
267.139000
11
76.682300
21
267.085100
0
LINE
8
Layer 1
10
76.682300
20
267.085100
11
76.596100
21
267.034400
0
LINE
8
Layer 1
10
76.596100
20
267.034400
11
76.592700
21
267.032600
0
LINE
8
Layer 1
10
76.592700
20
267.032600
11
76.508200
21
266.987900
0
LINE
8
Layer 1
10
76.508200
20
266.987900
11
76.430000
21
266.950900
0
LINE
8
Layer 1
10
76.430000
20
266.950900
11
76.418500
21
266.945400
0
LINE
8
Layer 1
10
76.418500
20
266.945400
11
76.326300
21
266.906600
0
LINE
8
Layer 1
10
76.326300
20
266.906600
11
76.233000
21
266.872200
0
LINE
8
Layer 1
10
76.233000
20
266.872200
11
76.138500
21
266.841900
0
LINE
8
Layer 1
10
76.138500
20
266.841900
11
76.042300
21
266.815800
0
LINE
8
Layer 1
10
76.042300
20
266.815800
11
75.944800
21
266.793900
0
LINE
8
Layer 1
10
75.944800
20
266.793900
11
75.847200
21
266.776400
0
LINE
8
Layer 1
10
75.847200
20
266.776400
11
75.748100
21
266.763200
0
LINE
8
Layer 1
10
75.748100
20
266.763200
11
75.747700
21
266.763100
0
LINE
8
Layer 1
10
75.747700
20
266.763100
11
75.649000
21
266.754400
0
LINE
8
Layer 1
10
75.649000
20
266.754400
11
75.555100
21
266.750200
0
LINE
8
Layer 1
10
75.555100
20
266.750200
11
75.549900
21
266.750000
0
LINE
8
Layer 1
10
75.549900
20
266.750000
11
75.450200
21
266.750000
0
LINE
8
Layer 1
10
75.450200
20
266.750000
11
75.350400
21
266.754400
0
LINE
8
Layer 1
10
75.350400
20
266.754400
11
75.251300
21
266.763200
0
LINE
8
Layer 1
10
75.251300
20
266.763200
11
75.153000
21
266.776400
0
LINE
8
Layer 1
10
75.153000
20
266.776400
11
75.054800
21
266.793900
0
LINE
8
Layer 1
10
75.054800
20
266.793900
11
74.957400
21
266.815900
0
LINE
8
Layer 1
10
74.957400
20
266.815900
11
74.953400
21
266.816900
0
LINE
8
Layer 1
10
74.953400
20
266.816900
11
74.861400
21
266.842000
0
LINE
8
Layer 1
10
74.861400
20
266.842000
11
74.838300
21
266.849400
0
LINE
8
Layer 1
10
74.838300
20
266.849400
11
74.766500
21
266.872300
0
LINE
8
Layer 1
10
74.766500
20
266.872300
11
74.682700
21
266.903300
0
LINE
8
Layer 1
10
74.682700
20
266.903300
11
74.673500
21
266.906700
0
LINE
8
Layer 1
10
74.673500
20
266.906700
11
74.581300
21
266.945500
0
LINE
8
Layer 1
10
74.581300
20
266.945500
11
74.491700
21
266.988000
0
LINE
8
Layer 1
10
74.491700
20
266.988000
11
74.403600
21
267.034600
0
LINE
8
Layer 1
10
74.403600
20
267.034600
11
74.317400
21
267.085200
0
LINE
8
Layer 1
10
74.317400
20
267.085200
11
74.316900
21
267.085500
0
LINE
8
Layer 1
10
74.316900
20
267.085500
11
74.234000
21
267.139300
0
LINE
8
Layer 1
10
74.234000
20
267.139300
11
74.164800
21
267.188700
0
LINE
8
Layer 1
10
74.164800
20
267.188700
11
74.153200
21
267.196900
0
LINE
8
Layer 1
10
74.153200
20
267.196900
11
74.074400
21
267.258600
0
LINE
8
Layer 1
10
74.074400
20
267.258600
11
73.998800
21
267.323300
0
LINE
8
Layer 1
10
73.998800
20
267.323300
11
73.941800
21
267.376600
0
LINE
8
Layer 1
10
73.941800
20
267.376600
11
73.926400
21
267.391000
0
LINE
8
Layer 1
10
73.926400
20
267.391000
11
73.856700
21
267.462300
0
LINE
8
Layer 1
10
73.856700
20
267.462300
11
73.790100
21
267.536700
0
LINE
8
Layer 1
10
73.790100
20
267.536700
11
73.727300
21
267.613500
0
LINE
8
Layer 1
10
73.727300
20
267.613500
11
73.667400
21
267.693600
0
LINE
8
Layer 1
10
73.667400
20
267.693600
11
73.611600
21
267.775600
0
LINE
8
Layer 1
10
73.611600
20
267.775600
11
73.559200
21
267.860700
0
LINE
8
Layer 1
10
73.559200
20
267.860700
11
73.510700
21
267.947600
0
LINE
8
Layer 1
10
73.510700
20
267.947600
11
73.466200
21
268.036300
0
LINE
8
Layer 1
10
73.466200
20
268.036300
11
73.425400
21
268.127500
0
LINE
8
Layer 1
10
73.425400
20
268.127500
11
73.389000
21
268.219800
0
LINE
8
Layer 1
10
73.389000
20
268.219800
11
73.356500
21
268.314000
0
LINE
8
Layer 1
10
73.356500
20
268.314000
11
73.328300
21
268.409500
0
LINE
8
Layer 1
10
73.328300
20
268.409500
11
73.304200
21
268.506500
0
LINE
8
Layer 1
10
73.304200
20
268.506500
11
73.303800
21
268.508600
0
LINE
8
Layer 1
10
60.611000
20
268.220000
11
60.574300
21
268.126900
0
LINE
8
Layer 1
10
60.574300
20
268.126900
11
60.533700
21
268.036100
0
LINE
8
Layer 1
10
60.533700
20
268.036100
11
60.500600
21
267.970100
0
LINE
8
Layer 1
10
60.500600
20
267.970100
11
60.489200
21
267.947400
0
LINE
8
Layer 1
10
60.489200
20
267.947400
11
60.440500
21
267.860100
0
LINE
8
Layer 1
10
60.440500
20
267.860100
11
60.388400
21
267.775700
0
LINE
8
Layer 1
10
60.388400
20
267.775700
11
60.332200
21
267.693100
0
LINE
8
Layer 1
10
60.332200
20
267.693100
11
60.272800
21
267.613600
0
LINE
8
Layer 1
10
60.272800
20
267.613600
11
60.209500
21
267.536300
0
LINE
8
Layer 1
10
60.209500
20
267.536300
11
60.143400
21
267.462400
0
LINE
8
Layer 1
10
60.143400
20
267.462400
11
60.073400
21
267.390900
0
LINE
8
Layer 1
10
60.073400
20
267.390900
11
60.001100
21
267.323200
0
LINE
8
Layer 1
10
60.001100
20
267.323200
11
59.925100
21
267.258100
0
LINE
8
Layer 1
10
59.925100
20
267.258100
11
59.889900
21
267.230600
0
LINE
8
Layer 1
10
59.889900
20
267.230600
11
59.847000
21
267.197000
0
LINE
8
Layer 1
10
59.847000
20
267.197000
11
59.765500
21
267.139000
0
LINE
8
Layer 1
10
59.765500
20
267.139000
11
59.682400
21
267.085100
0
LINE
8
Layer 1
10
59.682400
20
267.085100
11
59.596100
21
267.034400
0
LINE
8
Layer 1
10
59.596100
20
267.034400
11
59.593100
21
267.032800
0
LINE
8
Layer 1
10
59.593100
20
267.032800
11
59.508200
21
266.987900
0
LINE
8
Layer 1
10
59.508200
20
266.987900
11
59.418500
21
266.945400
0
LINE
8
Layer 1
10
59.418500
20
266.945400
11
59.326300
21
266.906600
0
LINE
8
Layer 1
10
59.326300
20
266.906600
11
59.324200
21
266.905900
0
LINE
8
Layer 1
10
59.324200
20
266.905900
11
59.233000
21
266.872200
0
LINE
8
Layer 1
10
59.233000
20
266.872200
11
59.140100
21
266.842400
0
LINE
8
Layer 1
10
59.140100
20
266.842400
11
59.138500
21
266.841900
0
LINE
8
Layer 1
10
59.138500
20
266.841900
11
59.042300
21
266.815800
0
LINE
8
Layer 1
10
59.042300
20
266.815800
11
58.944800
21
266.793900
0
LINE
8
Layer 1
10
58.944800
20
266.793900
11
58.904600
21
266.786700
0
LINE
8
Layer 1
10
58.904600
20
266.786700
11
58.847200
21
266.776400
0
LINE
8
Layer 1
10
58.847200
20
266.776400
11
58.748100
21
266.763200
0
LINE
8
Layer 1
10
58.748100
20
266.763200
11
58.747700
21
266.763100
0
LINE
8
Layer 1
10
58.747700
20
266.763100
11
58.649000
21
266.754400
0
LINE
8
Layer 1
10
58.649000
20
266.754400
11
58.555200
21
266.750200
0
LINE
8
Layer 1
10
58.555200
20
266.750200
11
58.549900
21
266.750000
0
LINE
8
Layer 1
10
58.549900
20
266.750000
11
58.450200
21
266.750000
0
LINE
8
Layer 1
10
58.450200
20
266.750000
11
58.350400
21
266.754400
0
LINE
8
Layer 1
10
58.350400
20
266.754400
11
58.251300
21
266.763200
0
LINE
8
Layer 1
10
58.251300
20
266.763200
11
58.153000
21
266.776400
0
LINE
8
Layer 1
10
58.153000
20
266.776400
11
58.054800
21
266.793900
0
LINE
8
Layer 1
10
58.054800
20
266.793900
11
57.957400
21
266.815900
0
LINE
8
Layer 1
10
57.957400
20
266.815900
11
57.861400
21
266.842000
0
LINE
8
Layer 1
10
57.861400
20
266.842000
11
57.842600
21
266.848000
0
LINE
8
Layer 1
10
57.842600
20
266.848000
11
57.766600
21
266.872300
0
LINE
8
Layer 1
10
57.766600
20
266.872300
11
57.682800
21
266.903300
0
LINE
8
Layer 1
10
57.682800
20
266.903300
11
57.673500
21
266.906700
0
LINE
8
Layer 1
10
57.673500
20
266.906700
11
57.581300
21
266.945500
0
LINE
8
Layer 1
10
57.581300
20
266.945500
11
57.551900
21
266.959400
0
LINE
8
Layer 1
10
57.551900
20
266.959400
11
57.491700
21
266.988000
0
LINE
8
Layer 1
10
57.491700
20
266.988000
11
57.403600
21
267.034600
0
LINE
8
Layer 1
10
57.403600
20
267.034600
11
57.317400
21
267.085200
0
LINE
8
Layer 1
10
57.317400
20
267.085200
11
57.317000
21
267.085500
0
LINE
8
Layer 1
10
57.317000
20
267.085500
11
57.234000
21
267.139300
0
LINE
8
Layer 1
10
57.234000
20
267.139300
11
57.153200
21
267.196900
0
LINE
8
Layer 1
10
57.153200
20
267.196900
11
57.074400
21
267.258600
0
LINE
8
Layer 1
10
57.074400
20
267.258600
11
57.073600
21
267.259300
0
LINE
8
Layer 1
10
57.073600
20
267.259300
11
56.998800
21
267.323300
0
LINE
8
Layer 1
10
56.998800
20
267.323300
11
56.933400
21
267.384500
0
LINE
8
Layer 1
10
56.933400
20
267.384500
11
56.926400
21
267.391000
0
LINE
8
Layer 1
10
56.926400
20
267.391000
11
56.856700
21
267.462300
0
LINE
8
Layer 1
10
56.856700
20
267.462300
11
56.790100
21
267.536800
0
LINE
8
Layer 1
10
56.790100
20
267.536800
11
56.727300
21
267.613500
0
LINE
8
Layer 1
10
56.727300
20
267.613500
11
56.667400
21
267.693600
0
LINE
8
Layer 1
10
56.667400
20
267.693600
11
56.611700
21
267.775600
0
LINE
8
Layer 1
10
56.611700
20
267.775600
11
56.559200
21
267.860700
0
LINE
8
Layer 1
10
56.559200
20
267.860700
11
56.510700
21
267.947500
0
LINE
8
Layer 1
10
56.510700
20
267.947500
11
56.466200
21
268.036300
0
LINE
8
Layer 1
10
56.466200
20
268.036300
11
56.425400
21
268.127600
0
LINE
8
Layer 1
10
56.425400
20
268.127600
11
56.389000
21
268.219800
0
LINE
8
Layer 1
10
56.389000
20
268.219800
11
56.356500
21
268.314000
0
LINE
8
Layer 1
10
56.356500
20
268.314000
11
56.328300
21
268.409500
0
LINE
8
Layer 1
10
56.328300
20
268.409500
11
56.304200
21
268.506500
0
LINE
8
Layer 1
10
56.304200
20
268.506500
11
56.303800
21
268.508700
0
LINE
8
Layer 1
10
56.303800
20
268.508700
11
56.284600
21
268.604000
0
LINE
8
Layer 1
10
56.284600
20
268.604000
11
56.269300
21
268.702000
0
LINE
8
Layer 1
10
56.269300
20
268.702000
11
56.258200
21
268.801400
0
LINE
8
Layer 1
10
56.258200
20
268.801400
11
56.251700
21
268.900300
0
LINE
8
Layer 1
10
56.251700
20
268.900300
11
56.249500
21
269.000300
0
LINE
8
Layer 1
10
56.249500
20
269.000300
11
56.251600
21
269.099500
0
LINE
8
Layer 1
10
56.251600
20
269.099500
11
56.258300
21
269.198900
0
LINE
8
Layer 1
10
56.258300
20
269.198900
11
56.269300
21
269.298200
0
LINE
8
Layer 1
10
56.269300
20
269.298200
11
56.284600
21
269.396200
0
LINE
8
Layer 1
10
56.284600
20
269.396200
11
56.304400
21
269.494200
0
LINE
8
Layer 1
10
56.304400
20
269.494200
11
56.328400
21
269.590700
0
LINE
8
Layer 1
10
56.328400
20
269.590700
11
56.334500
21
269.611300
0
LINE
8
Layer 1
10
56.334500
20
269.611300
11
56.356600
21
269.686300
0
LINE
8
Layer 1
10
56.356600
20
269.686300
11
56.380900
21
269.756500
0
LINE
8
Layer 1
10
56.380900
20
269.756500
11
56.389000
21
269.780000
0
LINE
8
Layer 1
10
56.389000
20
269.780000
11
56.425600
21
269.872700
0
LINE
8
Layer 1
10
56.425600
20
269.872700
11
56.466300
21
269.963900
0
LINE
8
Layer 1
10
56.466300
20
269.963900
11
56.510800
21
270.052600
0
LINE
8
Layer 1
10
56.510800
20
270.052600
11
56.559500
21
270.139900
0
LINE
8
Layer 1
10
56.559500
20
270.139900
11
56.611600
21
270.224300
0
LINE
8
Layer 1
10
56.611600
20
270.224300
11
56.667800
21
270.306900
0
LINE
8
Layer 1
10
56.667800
20
270.306900
11
56.669900
21
270.309800
0
LINE
8
Layer 1
10
56.669900
20
270.309800
11
56.727300
21
270.386600
0
LINE
8
Layer 1
10
56.727300
20
270.386600
11
56.790200
21
270.463400
0
LINE
8
Layer 1
10
56.790200
20
270.463400
11
56.856900
21
270.537900
0
LINE
8
Layer 1
10
56.856900
20
270.537900
11
56.926200
21
270.608800
0
LINE
8
Layer 1
10
56.926200
20
270.608800
11
56.999000
21
270.676900
0
LINE
8
Layer 1
10
56.999000
20
270.676900
11
57.074700
21
270.741700
0
LINE
8
Layer 1
10
57.074700
20
270.741700
11
57.153400
21
270.803200
0
LINE
8
Layer 1
10
57.153400
20
270.803200
11
57.234100
21
270.860800
0
LINE
8
Layer 1
10
57.234100
20
270.860800
11
57.318000
21
270.915200
0
LINE
8
Layer 1
10
57.318000
20
270.915200
11
57.321600
21
270.917300
0
LINE
8
Layer 1
10
57.321600
20
270.917300
11
57.403800
21
270.965500
0
LINE
8
Layer 1
10
57.403800
20
270.965500
11
57.478500
21
271.005000
0
LINE
8
Layer 1
10
57.478500
20
271.005000
11
57.491500
21
271.011900
0
LINE
8
Layer 1
10
57.491500
20
271.011900
11
57.581900
21
271.054800
0
LINE
8
Layer 1
10
57.581900
20
271.054800
11
57.673300
21
271.093200
0
LINE
8
Layer 1
10
57.673300
20
271.093200
11
57.766800
21
271.127800
0
LINE
8
Layer 1
10
57.766800
20
271.127800
11
57.861900
21
271.158200
0
LINE
8
Layer 1
10
57.861900
20
271.158200
11
57.957600
21
271.184200
0
LINE
8
Layer 1
10
57.957600
20
271.184200
11
58.055200
21
271.206100
0
LINE
8
Layer 1
10
58.055200
20
271.206100
11
58.152700
21
271.223600
0
LINE
8
Layer 1
10
58.152700
20
271.223600
11
58.251600
21
271.236800
0
LINE
8
Layer 1
10
58.251600
20
271.236800
11
58.351100
21
271.245600
0
LINE
8
Layer 1
10
58.351100
20
271.245600
11
58.450100
21
271.250000
0
LINE
8
Layer 1
10
58.450100
20
271.250000
11
58.550100
21
271.250000
0
LINE
8
Layer 1
10
58.550100
20
271.250000
11
58.564900
21
271.249300
0
LINE
8
Layer 1
10
58.564900
20
271.249300
11
58.649200
21
271.245600
0
LINE
8
Layer 1
10
58.649200
20
271.245600
11
58.748400
21
271.236800
0
LINE
8
Layer 1
10
58.748400
20
271.236800
11
58.847500
21
271.223600
0
LINE
8
Layer 1
10
58.847500
20
271.223600
11
58.945400
21
271.206000
0
LINE
8
Layer 1
10
58.945400
20
271.206000
11
59.042200
21
271.184300
0
LINE
8
Layer 1
10
59.042200
20
271.184300
11
59.138700
21
271.158000
0
LINE
8
Layer 1
10
59.138700
20
271.158000
11
59.233100
21
271.127800
0
LINE
8
Layer 1
10
59.233100
20
271.127800
11
59.326900
21
271.093100
0
LINE
8
Layer 1
10
59.326900
20
271.093100
11
59.418300
21
271.054700
0
LINE
8
Layer 1
10
59.418300
20
271.054700
11
59.508400
21
271.012000
0
LINE
8
Layer 1
10
59.508400
20
271.012000
11
59.596400
21
270.965400
0
LINE
8
Layer 1
10
59.596400
20
270.965400
11
59.682600
21
270.914800
0
LINE
8
Layer 1
10
59.682600
20
270.914800
11
59.683000
21
270.914500
0
LINE
8
Layer 1
10
59.683000
20
270.914500
11
59.766000
21
270.860700
0
LINE
8
Layer 1
10
59.766000
20
270.860700
11
59.846800
21
270.803100
0
LINE
8
Layer 1
10
59.846800
20
270.803100
11
59.925600
21
270.741400
0
LINE
8
Layer 1
10
59.925600
20
270.741400
11
59.926400
21
270.740700
0
LINE
8
Layer 1
10
59.926400
20
270.740700
11
60.001200
21
270.676700
0
LINE
8
Layer 1
10
60.001200
20
270.676700
11
60.066600
21
270.615500
0
LINE
8
Layer 1
10
60.066600
20
270.615500
11
60.073600
21
270.609000
0
LINE
8
Layer 1
10
60.073600
20
270.609000
11
60.143500
21
270.537400
0
LINE
8
Layer 1
10
60.143500
20
270.537400
11
60.209900
21
270.463300
0
LINE
8
Layer 1
10
60.209900
20
270.463300
11
60.261600
21
270.400100
0
LINE
8
Layer 1
10
60.261600
20
270.400100
11
60.272700
21
270.386500
0
LINE
8
Layer 1
10
60.272700
20
270.386500
11
60.332400
21
270.306700
0
LINE
8
Layer 1
10
60.332400
20
270.306700
11
60.388500
21
270.224100
0
LINE
8
Layer 1
10
60.388500
20
270.224100
11
60.393100
21
270.216600
0
LINE
8
Layer 1
10
60.393100
20
270.216600
11
60.440800
21
270.139400
0
LINE
8
Layer 1
10
60.440800
20
270.139400
11
60.489100
21
270.052800
0
LINE
8
Layer 1
10
60.489100
20
270.052800
11
60.533900
21
269.963300
0
LINE
8
Layer 1
10
60.533900
20
269.963300
11
60.535300
21
269.960300
0
LINE
8
Layer 1
10
60.535300
20
269.960300
11
60.574400
21
269.872800
0
LINE
8
Layer 1
10
60.574400
20
269.872800
11
60.611100
21
269.779800
0
LINE
8
Layer 1
10
60.611100
20
269.779800
11
60.643400
21
269.686100
0
LINE
8
Layer 1
10
60.643400
20
269.686100
11
60.671700
21
269.590500
0
LINE
8
Layer 1
10
60.671700
20
269.590500
11
60.695800
21
269.493500
0
LINE
8
Layer 1
10
60.695800
20
269.493500
11
60.715400
21
269.396400
0
LINE
8
Layer 1
10
60.715400
20
269.396400
11
60.730800
21
269.297500
0
LINE
8
Layer 1
10
60.730800
20
269.297500
11
60.730800
21
269.297500
0
LINE
8
Layer 1
10
60.730800
20
269.297500
11
60.741800
21
269.198600
0
LINE
8
Layer 1
10
60.741800
20
269.198600
11
60.748300
21
269.100700
0
LINE
8
Layer 1
10
60.748300
20
269.100700
11
60.748300
21
269.099700
0
LINE
8
Layer 1
10
60.748300
20
269.099700
11
60.750500
21
268.999700
0
LINE
8
Layer 1
10
60.750500
20
268.999700
11
60.748400
21
268.900500
0
LINE
8
Layer 1
10
60.748400
20
268.900500
11
60.741700
21
268.800800
0
LINE
8
Layer 1
10
60.741700
20
268.800800
11
60.730800
21
268.702200
0
LINE
8
Layer 1
10
60.730800
20
268.702200
11
60.715300
21
268.603400
0
LINE
8
Layer 1
10
60.715300
20
268.603400
11
60.695700
21
268.506300
0
LINE
8
Layer 1
10
60.695700
20
268.506300
11
60.671700
21
268.409500
0
LINE
8
Layer 1
10
60.671700
20
268.409500
11
60.643300
21
268.313700
0
LINE
8
Layer 1
10
60.643300
20
268.313700
11
60.611000
21
268.220000
0
LINE
8
Layer 1
10
332.311000
20
268.220000
11
332.274000
21
268.126900
0
LINE
8
Layer 1
10
332.274000
20
268.126900
11
332.234000
21
268.036100
0
LINE
8
Layer 1
10
332.234000
20
268.036100
11
332.189000
21
267.947300
0
LINE
8
Layer 1
10
332.189000
20
267.947300
11
332.141000
21
267.860100
0
LINE
8
Layer 1
10
332.141000
20
267.860100
11
332.088000
21
267.775700
0
LINE
8
Layer 1
10
332.088000
20
267.775700
11
332.032000
21
267.693000
0
LINE
8
Layer 1
10
332.032000
20
267.693000
11
331.973000
21
267.613600
0
LINE
8
Layer 1
10
331.973000
20
267.613600
11
331.909000
21
267.536200
0
LINE
8
Layer 1
10
331.909000
20
267.536200
11
331.843000
21
267.462300
0
LINE
8
Layer 1
10
331.843000
20
267.462300
11
331.774000
21
267.391000
0
LINE
8
Layer 1
10
331.774000
20
267.391000
11
331.734000
21
267.353600
0
LINE
8
Layer 1
10
331.734000
20
267.353600
11
331.701000
21
267.323100
0
LINE
8
Layer 1
10
331.701000
20
267.323100
11
331.625000
21
267.258100
0
LINE
8
Layer 1
10
331.625000
20
267.258100
11
331.547000
21
267.197000
0
LINE
8
Layer 1
10
331.547000
20
267.197000
11
331.466000
21
267.139000
0
LINE
8
Layer 1
10
331.466000
20
267.139000
11
331.382000
21
267.085100
0
LINE
8
Layer 1
10
331.382000
20
267.085100
11
331.296000
21
267.034400
0
LINE
8
Layer 1
10
331.296000
20
267.034400
11
331.289000
21
267.030800
0
LINE
8
Layer 1
10
331.289000
20
267.030800
11
331.208000
21
266.988000
0
LINE
8
Layer 1
10
331.208000
20
266.988000
11
331.119000
21
266.945400
0
LINE
8
Layer 1
10
331.119000
20
266.945400
11
331.026000
21
266.906600
0
LINE
8
Layer 1
10
331.026000
20
266.906600
11
330.933000
21
266.872100
0
LINE
8
Layer 1
10
330.933000
20
266.872100
11
330.838000
21
266.841900
0
LINE
8
Layer 1
10
330.838000
20
266.841900
11
330.742000
21
266.815800
0
LINE
8
Layer 1
10
330.742000
20
266.815800
11
330.645000
21
266.793900
0
LINE
8
Layer 1
10
330.645000
20
266.793900
11
330.610000
21
266.787700
0
LINE
8
Layer 1
10
330.610000
20
266.787700
11
330.547000
21
266.776400
0
LINE
8
Layer 1
10
330.547000
20
266.776400
11
330.448000
21
266.763200
0
LINE
8
Layer 1
10
330.448000
20
266.763200
11
330.443000
21
266.762800
0
LINE
8
Layer 1
10
330.443000
20
266.762800
11
330.349000
21
266.754400
0
LINE
8
Layer 1
10
330.349000
20
266.754400
11
330.260000
21
266.750500
0
LINE
8
Layer 1
10
330.260000
20
266.750500
11
330.250000
21
266.750000
0
LINE
8
Layer 1
10
330.250000
20
266.750000
11
330.150000
21
266.750000
0
LINE
8
Layer 1
10
330.150000
20
266.750000
11
330.050000
21
266.754400
0
LINE
8
Layer 1
10
330.050000
20
266.754400
11
329.951000
21
266.763200
0
LINE
8
Layer 1
10
329.951000
20
266.763200
11
329.853000
21
266.776400
0
LINE
8
Layer 1
10
329.853000
20
266.776400
11
329.755000
21
266.793900
0
LINE
8
Layer 1
10
329.755000
20
266.793900
11
329.657000
21
266.815900
0
LINE
8
Layer 1
10
329.657000
20
266.815900
11
329.652000
21
266.817300
0
LINE
8
Layer 1
10
329.652000
20
266.817300
11
329.561000
21
266.841900
0
LINE
8
Layer 1
10
329.561000
20
266.841900
11
329.511000
21
266.858100
0
LINE
8
Layer 1
10
329.511000
20
266.858100
11
329.467000
21
266.872300
0
LINE
8
Layer 1
10
329.467000
20
266.872300
11
329.374000
21
266.906700
0
LINE
8
Layer 1
10
329.374000
20
266.906700
11
329.281000
21
266.945500
0
LINE
8
Layer 1
10
329.281000
20
266.945500
11
329.192000
21
266.988000
0
LINE
8
Layer 1
10
329.192000
20
266.988000
11
329.104000
21
267.034600
0
LINE
8
Layer 1
10
329.104000
20
267.034600
11
329.018000
21
267.085100
0
LINE
8
Layer 1
10
329.018000
20
267.085100
11
328.994000
21
267.100400
0
LINE
8
Layer 1
10
328.994000
20
267.100400
11
328.934000
21
267.139400
0
LINE
8
Layer 1
10
328.934000
20
267.139400
11
328.853000
21
267.196900
0
LINE
8
Layer 1
10
328.853000
20
267.196900
11
328.775000
21
267.258400
0
LINE
8
Layer 1
10
328.775000
20
267.258400
11
328.752000
21
267.277300
0
LINE
8
Layer 1
10
328.752000
20
267.277300
11
328.699000
21
267.323300
0
LINE
8
Layer 1
10
328.699000
20
267.323300
11
328.626000
21
267.391000
0
LINE
8
Layer 1
10
328.626000
20
267.391000
11
328.557000
21
267.462300
0
LINE
8
Layer 1
10
328.557000
20
267.462300
11
328.490000
21
267.536800
0
LINE
8
Layer 1
10
328.490000
20
267.536800
11
328.427000
21
267.613600
0
LINE
8
Layer 1
10
328.427000
20
267.613600
11
328.367000
21
267.693600
0
LINE
8
Layer 1
10
328.367000
20
267.693600
11
328.312000
21
267.775600
0
LINE
8
Layer 1
10
328.312000
20
267.775600
11
328.259000
21
267.860400
0
LINE
8
Layer 1
10
328.259000
20
267.860400
11
328.236000
21
267.903100
0
LINE
8
Layer 1
10
328.236000
20
267.903100
11
328.211000
21
267.947500
0
LINE
8
Layer 1
10
328.211000
20
267.947500
11
328.166000
21
268.036300
0
LINE
8
Layer 1
10
328.166000
20
268.036300
11
328.125000
21
268.127600
0
LINE
8
Layer 1
10
328.125000
20
268.127600
11
328.089000
21
268.219900
0
LINE
8
Layer 1
10
328.089000
20
268.219900
11
328.057000
21
268.314000
0
LINE
8
Layer 1
10
328.057000
20
268.314000
11
328.028000
21
268.409500
0
LINE
8
Layer 1
10
328.028000
20
268.409500
11
328.004000
21
268.506500
0
LINE
8
Layer 1
10
328.004000
20
268.506500
11
327.985000
21
268.603600
0
LINE
8
Layer 1
10
327.985000
20
268.603600
11
327.969000
21
268.702000
0
LINE
8
Layer 1
10
327.969000
20
268.702000
11
327.958000
21
268.801300
0
LINE
8
Layer 1
10
327.958000
20
268.801300
11
327.955000
21
268.850200
0
LINE
8
Layer 1
10
327.955000
20
268.850200
11
327.952000
21
268.900500
0
LINE
8
Layer 1
10
327.952000
20
268.900500
11
327.949000
21
269.000200
0
LINE
8
Layer 1
10
327.949000
20
269.000200
11
327.952000
21
269.099400
0
LINE
8
Layer 1
10
327.952000
20
269.099400
11
327.958000
21
269.198900
0
LINE
8
Layer 1
10
327.958000
20
269.198900
11
327.969000
21
269.298200
0
LINE
8
Layer 1
10
327.969000
20
269.298200
11
327.985000
21
269.396300
0
LINE
8
Layer 1
10
327.985000
20
269.396300
11
328.004000
21
269.494200
0
LINE
8
Layer 1
10
328.004000
20
269.494200
11
328.028000
21
269.590600
0
LINE
8
Layer 1
10
328.028000
20
269.590600
11
328.036000
21
269.617600
0
LINE
8
Layer 1
10
328.036000
20
269.617600
11
328.057000
21
269.686300
0
LINE
8
Layer 1
10
328.057000
20
269.686300
11
328.089000
21
269.780000
0
LINE
8
Layer 1
10
328.089000
20
269.780000
11
328.126000
21
269.872700
0
LINE
8
Layer 1
10
328.126000
20
269.872700
11
328.166000
21
269.963900
0
LINE
8
Layer 1
10
328.166000
20
269.963900
11
328.175000
21
269.981000
0
LINE
8
Layer 1
10
328.175000
20
269.981000
11
328.211000
21
270.052700
0
LINE
8
Layer 1
10
328.211000
20
270.052700
11
328.260000
21
270.139900
0
LINE
8
Layer 1
10
328.260000
20
270.139900
11
328.312000
21
270.224300
0
LINE
8
Layer 1
10
328.312000
20
270.224300
11
328.368000
21
270.307000
0
LINE
8
Layer 1
10
328.368000
20
270.307000
11
328.427000
21
270.386400
0
LINE
8
Layer 1
10
328.427000
20
270.386400
11
328.490000
21
270.463400
0
LINE
8
Layer 1
10
328.490000
20
270.463400
11
328.557000
21
270.537900
0
LINE
8
Layer 1
10
328.557000
20
270.537900
11
328.626000
21
270.608900
0
LINE
8
Layer 1
10
328.626000
20
270.608900
11
328.699000
21
270.676900
0
LINE
8
Layer 1
10
328.699000
20
270.676900
11
328.775000
21
270.741700
0
LINE
8
Layer 1
10
328.775000
20
270.741700
11
328.853000
21
270.803200
0
LINE
8
Layer 1
10
328.853000
20
270.803200
11
328.934000
21
270.860800
0
LINE
8
Layer 1
10
328.934000
20
270.860800
11
329.018000
21
270.915200
0
LINE
8
Layer 1
10
329.018000
20
270.915200
11
329.104000
21
270.965500
0
LINE
8
Layer 1
10
329.104000
20
270.965500
11
329.192000
21
271.011900
0
LINE
8
Layer 1
10
329.192000
20
271.011900
11
329.282000
21
271.054700
0
LINE
8
Layer 1
10
329.282000
20
271.054700
11
329.373000
21
271.093200
0
LINE
8
Layer 1
10
329.373000
20
271.093200
11
329.467000
21
271.127800
0
LINE
8
Layer 1
10
329.467000
20
271.127800
11
329.562000
21
271.158200
0
LINE
8
Layer 1
10
329.562000
20
271.158200
11
329.571000
21
271.160600
0
LINE
8
Layer 1
10
329.571000
20
271.160600
11
329.658000
21
271.184200
0
LINE
8
Layer 1
10
329.658000
20
271.184200
11
329.755000
21
271.206100
0
LINE
8
Layer 1
10
329.755000
20
271.206100
11
329.808000
21
271.215600
0
LINE
8
Layer 1
10
329.808000
20
271.215600
11
329.853000
21
271.223600
0
LINE
8
Layer 1
10
329.853000
20
271.223600
11
329.952000
21
271.236800
0
LINE
8
Layer 1
10
329.952000
20
271.236800
11
329.987000
21
271.240000
0
LINE
8
Layer 1
10
329.987000
20
271.240000
11
330.051000
21
271.245600
0
LINE
8
Layer 1
10
330.051000
20
271.245600
11
330.151000
21
271.250000
0
LINE
8
Layer 1
10
330.151000
20
271.250000
11
330.250000
21
271.250000
0
LINE
8
Layer 1
10
330.250000
20
271.250000
11
330.349000
21
271.245600
0
LINE
8
Layer 1
10
330.349000
20
271.245600
11
330.449000
21
271.236700
0
LINE
8
Layer 1
10
330.449000
20
271.236700
11
330.547000
21
271.223600
0
LINE
8
Layer 1
10
330.547000
20
271.223600
11
330.645000
21
271.206100
0
LINE
8
Layer 1
10
330.645000
20
271.206100
11
330.743000
21
271.184100
0
LINE
8
Layer 1
10
330.743000
20
271.184100
11
330.839000
21
271.158100
0
LINE
8
Layer 1
10
330.839000
20
271.158100
11
330.933000
21
271.127800
0
LINE
8
Layer 1
10
330.933000
20
271.127800
11
331.027000
21
271.093200
0
LINE
8
Layer 1
10
331.027000
20
271.093200
11
331.119000
21
271.054500
0
LINE
8
Layer 1
10
331.119000
20
271.054500
11
331.208000
21
271.012000
0
LINE
8
Layer 1
10
331.208000
20
271.012000
11
331.296000
21
270.965400
0
LINE
8
Layer 1
10
331.296000
20
270.965400
11
331.382000
21
270.914900
0
LINE
8
Layer 1
10
331.382000
20
270.914900
11
331.444000
21
270.875000
0
LINE
8
Layer 1
10
331.444000
20
270.875000
11
331.466000
21
270.860900
0
LINE
8
Layer 1
10
331.466000
20
270.860900
11
331.547000
21
270.802800
0
LINE
8
Layer 1
10
331.547000
20
270.802800
11
331.562000
21
270.791200
0
LINE
8
Layer 1
10
331.562000
20
270.791200
11
331.625000
21
270.741600
0
LINE
8
Layer 1
10
331.625000
20
270.741600
11
331.701000
21
270.677000
0
LINE
8
Layer 1
10
331.701000
20
270.677000
11
331.774000
21
270.608700
0
LINE
8
Layer 1
10
331.774000
20
270.608700
11
331.843000
21
270.537800
0
LINE
8
Layer 1
10
331.843000
20
270.537800
11
331.910000
21
270.463500
0
LINE
8
Layer 1
10
331.910000
20
270.463500
11
331.973000
21
270.386300
0
LINE
8
Layer 1
10
331.973000
20
270.386300
11
332.000000
21
270.349400
0
LINE
8
Layer 1
10
332.000000
20
270.349400
11
332.032000
21
270.306700
0
LINE
8
Layer 1
10
332.032000
20
270.306700
11
332.089000
21
270.224100
0
LINE
8
Layer 1
10
332.089000
20
270.224100
11
332.141000
21
270.139700
0
LINE
8
Layer 1
10
332.141000
20
270.139700
11
332.189000
21
270.052400
0
LINE
8
Layer 1
10
332.189000
20
270.052400
11
332.234000
21
269.963700
0
LINE
8
Layer 1
10
332.234000
20
269.963700
11
332.275000
21
269.872400
0
LINE
8
Layer 1
10
332.275000
20
269.872400
11
332.311000
21
269.780100
0
LINE
8
Layer 1
10
332.311000
20
269.780100
11
332.343000
21
269.686000
0
LINE
8
Layer 1
10
332.343000
20
269.686000
11
332.372000
21
269.590500
0
LINE
8
Layer 1
10
332.372000
20
269.590500
11
332.396000
21
269.493500
0
LINE
8
Layer 1
10
332.396000
20
269.493500
11
332.415000
21
269.396400
0
LINE
8
Layer 1
10
332.415000
20
269.396400
11
332.431000
21
269.298000
0
LINE
8
Layer 1
10
332.431000
20
269.298000
11
332.442000
21
269.198700
0
LINE
8
Layer 1
10
332.442000
20
269.198700
11
332.445000
21
269.149800
0
LINE
8
Layer 1
10
332.445000
20
269.149800
11
332.448000
21
269.099500
0
LINE
8
Layer 1
10
332.448000
20
269.099500
11
332.451000
21
268.999800
0
LINE
8
Layer 1
10
332.451000
20
268.999800
11
332.448000
21
268.900600
0
LINE
8
Layer 1
10
332.448000
20
268.900600
11
332.442000
21
268.800900
0
LINE
8
Layer 1
10
332.442000
20
268.800900
11
332.431000
21
268.702200
0
LINE
8
Layer 1
10
332.431000
20
268.702200
11
332.415000
21
268.603600
0
LINE
8
Layer 1
10
332.415000
20
268.603600
11
332.406000
21
268.556800
0
LINE
8
Layer 1
10
332.406000
20
268.556800
11
332.396000
21
268.506100
0
LINE
8
Layer 1
10
332.396000
20
268.506100
11
332.372000
21
268.409500
0
LINE
8
Layer 1
10
332.372000
20
268.409500
11
332.343000
21
268.313700
0
LINE
8
Layer 1
10
332.343000
20
268.313700
11
332.311000
21
268.220000
 0 
ENDSEC
 0 
EOF