999
"DXF R12 Output" (www.mydxf.blogspot.com)
 0 
SECTION
 2 
HEADER
 9 
$ACADVER
 1 
AC1009
 9 
$EXTMIN
 10 
 0 
 20 
 0 
 9 
$EXTMAX
 10 
 8.5 
 20 
 11 
 0 
ENDSEC
 0 
SECTION
 2 
ENTITIES
0
LINE
8
Layer 1
10
5.675980
20
748.217000
11
5.608120
21
748.168000
0
LINE
8
Layer 1
10
5.608120
20
748.168000
11
5.536350
21
748.124000
0
LINE
8
Layer 1
10
5.536350
20
748.124000
11
5.461170
21
748.087000
0
LINE
8
Layer 1
10
5.461170
20
748.087000
11
5.383110
21
748.056000
0
LINE
8
Layer 1
10
5.383110
20
748.056000
11
5.302730
21
748.032000
0
LINE
8
Layer 1
10
5.302730
20
748.032000
11
5.220580
21
748.014000
0
LINE
8
Layer 1
10
5.220580
20
748.014000
11
5.137260
21
748.004000
0
LINE
8
Layer 1
10
5.137260
20
748.004000
11
1.000000
21
748.000000
0
LINE
8
Layer 1
10
1.000000
20
748.000000
11
0.843565
21
747.988000
0
LINE
8
Layer 1
10
0.843565
20
747.988000
11
0.690983
21
747.951000
0
LINE
8
Layer 1
10
0.690983
20
747.951000
11
0.546009
21
747.891000
0
LINE
8
Layer 1
10
0.546009
20
747.891000
11
0.412214
21
747.809000
0
LINE
8
Layer 1
10
0.412214
20
747.809000
11
0.292892
21
747.707000
0
LINE
8
Layer 1
10
0.292892
20
747.707000
11
0.190983
21
747.588000
0
LINE
8
Layer 1
10
0.190983
20
747.588000
11
0.108993
21
747.454000
0
LINE
8
Layer 1
10
0.108993
20
747.454000
11
0.048943
21
747.309000
0
LINE
8
Layer 1
10
0.048943
20
747.309000
11
0.012311
21
747.156000
0
LINE
8
Layer 1
10
0.012311
20
747.156000
11
0.000000
21
747.000000
0
LINE
8
Layer 1
10
0.000000
20
747.000000
11
0.000000
21
399.000000
0
LINE
8
Layer 1
10
0.000000
20
399.000000
11
0.012311
21
398.843565
0
LINE
8
Layer 1
10
0.012311
20
398.843565
11
0.048943
21
398.690983
0
LINE
8
Layer 1
10
0.048943
20
398.690983
11
0.108993
21
398.546009
0
LINE
8
Layer 1
10
0.108993
20
398.546009
11
0.190983
21
398.412214
0
LINE
8
Layer 1
10
0.190983
20
398.412214
11
0.292892
21
398.292892
0
LINE
8
Layer 1
10
0.292892
20
398.292892
11
0.412214
21
398.190983
0
LINE
8
Layer 1
10
0.412214
20
398.190983
11
0.546009
21
398.108993
0
LINE
8
Layer 1
10
0.546009
20
398.108993
11
0.690983
21
398.048943
0
LINE
8
Layer 1
10
0.690983
20
398.048943
11
0.843565
21
398.012311
0
LINE
8
Layer 1
10
0.843565
20
398.012311
11
1.000000
21
398.000000
0
LINE
8
Layer 1
10
1.000000
20
398.000000
11
327.000000
21
398.000000
0
LINE
8
Layer 1
10
327.000000
20
398.000000
11
327.156000
21
398.012311
0
LINE
8
Layer 1
10
327.156000
20
398.012311
11
327.309000
21
398.048943
0
LINE
8
Layer 1
10
327.309000
20
398.048943
11
327.454000
21
398.108993
0
LINE
8
Layer 1
10
327.454000
20
398.108993
11
327.588000
21
398.190983
0
LINE
8
Layer 1
10
327.588000
20
398.190983
11
327.707000
21
398.292892
0
LINE
8
Layer 1
10
327.707000
20
398.292892
11
327.809000
21
398.412214
0
LINE
8
Layer 1
10
327.809000
20
398.412214
11
327.891000
21
398.546009
0
LINE
8
Layer 1
10
327.891000
20
398.546009
11
327.951000
21
398.690983
0
LINE
8
Layer 1
10
327.951000
20
398.690983
11
327.988000
21
398.843565
0
LINE
8
Layer 1
10
327.988000
20
398.843565
11
328.000000
21
399.000000
0
LINE
8
Layer 1
10
328.000000
20
399.000000
11
328.000000
21
747.000000
0
LINE
8
Layer 1
10
328.000000
20
747.000000
11
327.988000
21
747.156000
0
LINE
8
Layer 1
10
327.988000
20
747.156000
11
327.951000
21
747.309000
0
LINE
8
Layer 1
10
327.951000
20
747.309000
11
327.891000
21
747.454000
0
LINE
8
Layer 1
10
327.891000
20
747.454000
11
327.809000
21
747.588000
0
LINE
8
Layer 1
10
327.809000
20
747.588000
11
327.707000
21
747.707000
0
LINE
8
Layer 1
10
327.707000
20
747.707000
11
327.588000
21
747.809000
0
LINE
8
Layer 1
10
327.588000
20
747.809000
11
327.454000
21
747.891000
0
LINE
8
Layer 1
10
327.454000
20
747.891000
11
327.309000
21
747.951000
0
LINE
8
Layer 1
10
327.309000
20
747.951000
11
327.156000
21
747.988000
0
LINE
8
Layer 1
10
327.156000
20
747.988000
11
327.000000
21
748.000000
0
LINE
8
Layer 1
10
327.000000
20
748.000000
11
322.863000
21
748.004000
0
LINE
8
Layer 1
10
322.863000
20
748.004000
11
322.779000
21
748.014000
0
LINE
8
Layer 1
10
322.779000
20
748.014000
11
322.697000
21
748.032000
0
LINE
8
Layer 1
10
322.697000
20
748.032000
11
322.617000
21
748.056000
0
LINE
8
Layer 1
10
322.617000
20
748.056000
11
322.539000
21
748.087000
0
LINE
8
Layer 1
10
322.539000
20
748.087000
11
322.464000
21
748.124000
0
LINE
8
Layer 1
10
322.464000
20
748.124000
11
322.392000
21
748.168000
0
LINE
8
Layer 1
10
322.392000
20
748.168000
11
322.324000
21
748.217000
0
LINE
8
Layer 1
10
322.324000
20
748.217000
11
322.261000
21
748.272000
0
LINE
8
Layer 1
10
322.261000
20
748.272000
11
288.209000
21
786.271000
0
LINE
8
Layer 1
10
288.209000
20
786.271000
11
288.166000
21
786.331000
0
LINE
8
Layer 1
10
288.166000
20
786.331000
11
288.128000
21
786.393000
0
LINE
8
Layer 1
10
288.128000
20
786.393000
11
288.095000
21
786.458000
0
LINE
8
Layer 1
10
288.095000
20
786.458000
11
288.066000
21
786.525000
0
LINE
8
Layer 1
10
288.066000
20
786.525000
11
288.042000
21
786.594000
0
LINE
8
Layer 1
10
288.042000
20
786.594000
11
288.024000
21
786.665000
0
LINE
8
Layer 1
10
288.024000
20
786.665000
11
288.011000
21
786.737000
0
LINE
8
Layer 1
10
288.011000
20
786.737000
11
288.003000
21
786.810000
0
LINE
8
Layer 1
10
288.003000
20
786.810000
11
288.000000
21
795.000000
0
LINE
8
Layer 1
10
288.000000
20
795.000000
11
287.988000
21
795.156000
0
LINE
8
Layer 1
10
287.988000
20
795.156000
11
287.951000
21
795.309000
0
LINE
8
Layer 1
10
287.951000
20
795.309000
11
287.891000
21
795.454000
0
LINE
8
Layer 1
10
287.891000
20
795.454000
11
287.809000
21
795.588000
0
LINE
8
Layer 1
10
287.809000
20
795.588000
11
287.707000
21
795.707000
0
LINE
8
Layer 1
10
287.707000
20
795.707000
11
287.588000
21
795.809000
0
LINE
8
Layer 1
10
287.588000
20
795.809000
11
287.454000
21
795.891000
0
LINE
8
Layer 1
10
287.454000
20
795.891000
11
287.309000
21
795.951000
0
LINE
8
Layer 1
10
287.309000
20
795.951000
11
287.156000
21
795.988000
0
LINE
8
Layer 1
10
287.156000
20
795.988000
11
287.000000
21
796.000000
0
LINE
8
Layer 1
10
287.000000
20
796.000000
11
41.000000
21
796.000000
0
LINE
8
Layer 1
10
41.000000
20
796.000000
11
40.843600
21
795.988000
0
LINE
8
Layer 1
10
40.843600
20
795.988000
11
40.691000
21
795.951000
0
LINE
8
Layer 1
10
40.691000
20
795.951000
11
40.546000
21
795.891000
0
LINE
8
Layer 1
10
40.546000
20
795.891000
11
40.412200
21
795.809000
0
LINE
8
Layer 1
10
40.412200
20
795.809000
11
40.292900
21
795.707000
0
LINE
8
Layer 1
10
40.292900
20
795.707000
11
40.191000
21
795.588000
0
LINE
8
Layer 1
10
40.191000
20
795.588000
11
40.109000
21
795.454000
0
LINE
8
Layer 1
10
40.109000
20
795.454000
11
40.048900
21
795.309000
0
LINE
8
Layer 1
10
40.048900
20
795.309000
11
40.012300
21
795.156000
0
LINE
8
Layer 1
10
40.012300
20
795.156000
11
40.000000
21
795.000000
0
LINE
8
Layer 1
10
40.000000
20
795.000000
11
39.997300
21
786.810000
0
LINE
8
Layer 1
10
39.997300
20
786.810000
11
39.989300
21
786.737000
0
LINE
8
Layer 1
10
39.989300
20
786.737000
11
39.976100
21
786.665000
0
LINE
8
Layer 1
10
39.976100
20
786.665000
11
39.957600
21
786.594000
0
LINE
8
Layer 1
10
39.957600
20
786.594000
11
39.934000
21
786.525000
0
LINE
8
Layer 1
10
39.934000
20
786.525000
11
39.905400
21
786.458000
0
LINE
8
Layer 1
10
39.905400
20
786.458000
11
39.872000
21
786.393000
0
LINE
8
Layer 1
10
39.872000
20
786.393000
11
39.834000
21
786.331000
0
LINE
8
Layer 1
10
39.834000
20
786.331000
11
39.791500
21
786.271000
0
LINE
8
Layer 1
10
39.791500
20
786.271000
11
5.739450
21
748.272000
0
LINE
8
Layer 1
10
5.739450
20
748.272000
11
5.675980
21
748.217000
0
LINE
8
Layer 1
10
312.550000
20
736.300000
11
312.450000
21
736.306000
0
LINE
8
Layer 1
10
312.450000
20
736.306000
11
312.351000
21
736.318000
0
LINE
8
Layer 1
10
312.351000
20
736.318000
11
312.253000
21
736.335000
0
LINE
8
Layer 1
10
312.253000
20
736.335000
11
312.156000
21
736.358000
0
LINE
8
Layer 1
10
312.156000
20
736.358000
11
312.060000
21
736.387000
0
LINE
8
Layer 1
10
312.060000
20
736.387000
11
311.967000
21
736.422000
0
LINE
8
Layer 1
10
311.967000
20
736.422000
11
311.875000
21
736.462000
0
LINE
8
Layer 1
10
311.875000
20
736.462000
11
311.786000
21
736.507000
0
LINE
8
Layer 1
10
311.786000
20
736.507000
11
311.699000
21
736.557000
0
LINE
8
Layer 1
10
311.699000
20
736.557000
11
311.617000
21
736.612000
0
LINE
8
Layer 1
10
311.617000
20
736.612000
11
311.537000
21
736.673000
0
LINE
8
Layer 1
10
311.537000
20
736.673000
11
311.498000
21
736.705000
0
LINE
8
Layer 1
10
311.498000
20
736.705000
11
311.461000
21
736.737000
0
LINE
8
Layer 1
10
311.461000
20
736.737000
11
311.423000
21
736.773000
0
LINE
8
Layer 1
10
311.423000
20
736.773000
11
311.389000
21
736.806000
0
LINE
8
Layer 1
10
311.389000
20
736.806000
11
311.321000
21
736.879000
0
LINE
8
Layer 1
10
311.321000
20
736.879000
11
311.257000
21
736.957000
0
LINE
8
Layer 1
10
311.257000
20
736.957000
11
311.217000
21
737.012000
0
LINE
8
Layer 1
10
311.217000
20
737.012000
11
311.198000
21
737.037000
0
LINE
8
Layer 1
10
311.198000
20
737.037000
11
311.144000
21
737.121000
0
LINE
8
Layer 1
10
311.144000
20
737.121000
11
311.095000
21
737.208000
0
LINE
8
Layer 1
10
311.095000
20
737.208000
11
311.051000
21
737.298000
0
LINE
8
Layer 1
10
311.051000
20
737.298000
11
311.013000
21
737.390000
0
LINE
8
Layer 1
10
311.013000
20
737.390000
11
310.979000
21
737.484000
0
LINE
8
Layer 1
10
310.979000
20
737.484000
11
310.952000
21
737.580000
0
LINE
8
Layer 1
10
310.952000
20
737.580000
11
310.930000
21
737.677000
0
LINE
8
Layer 1
10
310.930000
20
737.677000
11
310.914000
21
737.776000
0
LINE
8
Layer 1
10
310.914000
20
737.776000
11
310.904000
21
737.875000
0
LINE
8
Layer 1
10
310.904000
20
737.875000
11
310.901000
21
737.950000
0
LINE
8
Layer 1
10
310.901000
20
737.950000
11
310.899000
21
737.975000
0
LINE
8
Layer 1
10
310.899000
20
737.975000
11
310.901000
21
738.075000
0
LINE
8
Layer 1
10
310.901000
20
738.075000
11
310.908000
21
738.174000
0
LINE
8
Layer 1
10
310.908000
20
738.174000
11
310.921000
21
738.274000
0
LINE
8
Layer 1
10
310.921000
20
738.274000
11
310.928000
21
738.309000
0
LINE
8
Layer 1
10
310.928000
20
738.309000
11
310.940000
21
738.371000
0
LINE
8
Layer 1
10
310.940000
20
738.371000
11
310.965000
21
738.468000
0
LINE
8
Layer 1
10
310.965000
20
738.468000
11
310.995000
21
738.563000
0
LINE
8
Layer 1
10
310.995000
20
738.563000
11
311.031000
21
738.657000
0
LINE
8
Layer 1
10
311.031000
20
738.657000
11
311.072000
21
738.748000
0
LINE
8
Layer 1
10
311.072000
20
738.748000
11
311.081000
21
738.764000
0
LINE
8
Layer 1
10
311.081000
20
738.764000
11
311.119000
21
738.836000
0
LINE
8
Layer 1
10
311.119000
20
738.836000
11
311.171000
21
738.922000
0
LINE
8
Layer 1
10
311.171000
20
738.922000
11
311.227000
21
739.004000
0
LINE
8
Layer 1
10
311.227000
20
739.004000
11
311.288000
21
739.083000
0
LINE
8
Layer 1
10
311.288000
20
739.083000
11
311.354000
21
739.158000
0
LINE
8
Layer 1
10
311.354000
20
739.158000
11
311.424000
21
739.229000
0
LINE
8
Layer 1
10
311.424000
20
739.229000
11
311.499000
21
739.296000
0
LINE
8
Layer 1
10
311.499000
20
739.296000
11
311.576000
21
739.358000
0
LINE
8
Layer 1
10
311.576000
20
739.358000
11
311.658000
21
739.416000
0
LINE
8
Layer 1
10
311.658000
20
739.416000
11
311.743000
21
739.469000
0
LINE
8
Layer 1
10
311.743000
20
739.469000
11
311.830000
21
739.516000
0
LINE
8
Layer 1
10
311.830000
20
739.516000
11
311.920000
21
739.559000
0
LINE
8
Layer 1
10
311.920000
20
739.559000
11
312.013000
21
739.596000
0
LINE
8
Layer 1
10
312.013000
20
739.596000
11
312.059000
21
739.612000
0
LINE
8
Layer 1
10
312.059000
20
739.612000
11
312.108000
21
739.628000
0
LINE
8
Layer 1
10
312.108000
20
739.628000
11
312.205000
21
739.654000
0
LINE
8
Layer 1
10
312.205000
20
739.654000
11
312.302000
21
739.674000
0
LINE
8
Layer 1
10
312.302000
20
739.674000
11
312.401000
21
739.689000
0
LINE
8
Layer 1
10
312.401000
20
739.689000
11
312.500000
21
739.698000
0
LINE
8
Layer 1
10
312.500000
20
739.698000
11
312.600000
21
739.701000
0
LINE
8
Layer 1
10
312.600000
20
739.701000
11
312.700000
21
739.698000
0
LINE
8
Layer 1
10
312.700000
20
739.698000
11
312.800000
21
739.689000
0
LINE
8
Layer 1
10
312.800000
20
739.689000
11
312.898000
21
739.674000
0
LINE
8
Layer 1
10
312.898000
20
739.674000
11
312.941000
21
739.665000
0
LINE
8
Layer 1
10
312.941000
20
739.665000
11
312.996000
21
739.654000
0
LINE
8
Layer 1
10
312.996000
20
739.654000
11
313.092000
21
739.628000
0
LINE
8
Layer 1
10
313.092000
20
739.628000
11
313.187000
21
739.596000
0
LINE
8
Layer 1
10
313.187000
20
739.596000
11
313.236000
21
739.577000
0
LINE
8
Layer 1
10
313.236000
20
739.577000
11
313.280000
21
739.559000
0
LINE
8
Layer 1
10
313.280000
20
739.559000
11
313.325000
21
739.538000
0
LINE
8
Layer 1
10
313.325000
20
739.538000
11
313.370000
21
739.516000
0
LINE
8
Layer 1
10
313.370000
20
739.516000
11
313.458000
21
739.469000
0
LINE
8
Layer 1
10
313.458000
20
739.469000
11
313.513000
21
739.434000
0
LINE
8
Layer 1
10
313.513000
20
739.434000
11
313.542000
21
739.416000
0
LINE
8
Layer 1
10
313.542000
20
739.416000
11
313.624000
21
739.358000
0
LINE
8
Layer 1
10
313.624000
20
739.358000
11
313.702000
21
739.296000
0
LINE
8
Layer 1
10
313.702000
20
739.296000
11
313.776000
21
739.229000
0
LINE
8
Layer 1
10
313.776000
20
739.229000
11
313.846000
21
739.157000
0
LINE
8
Layer 1
10
313.846000
20
739.157000
11
313.912000
21
739.083000
0
LINE
8
Layer 1
10
313.912000
20
739.083000
11
313.973000
21
739.003000
0
LINE
8
Layer 1
10
313.973000
20
739.003000
11
314.029000
21
738.921000
0
LINE
8
Layer 1
10
314.029000
20
738.921000
11
314.081000
21
738.836000
0
LINE
8
Layer 1
10
314.081000
20
738.836000
11
314.128000
21
738.747000
0
LINE
8
Layer 1
10
314.128000
20
738.747000
11
314.169000
21
738.657000
0
LINE
8
Layer 1
10
314.169000
20
738.657000
11
314.205000
21
738.563000
0
LINE
8
Layer 1
10
314.205000
20
738.563000
11
314.235000
21
738.468000
0
LINE
8
Layer 1
10
314.235000
20
738.468000
11
314.257000
21
738.381000
0
LINE
8
Layer 1
10
314.257000
20
738.381000
11
314.260000
21
738.372000
0
LINE
8
Layer 1
10
314.260000
20
738.372000
11
314.279000
21
738.273000
0
LINE
8
Layer 1
10
314.279000
20
738.273000
11
314.292000
21
738.174000
0
LINE
8
Layer 1
10
314.292000
20
738.174000
11
314.299000
21
738.075000
0
LINE
8
Layer 1
10
314.299000
20
738.075000
11
314.301000
21
737.975000
0
LINE
8
Layer 1
10
314.301000
20
737.975000
11
314.296000
21
737.875000
0
LINE
8
Layer 1
10
314.296000
20
737.875000
11
314.286000
21
737.776000
0
LINE
8
Layer 1
10
314.286000
20
737.776000
11
314.270000
21
737.677000
0
LINE
8
Layer 1
10
314.270000
20
737.677000
11
314.261000
21
737.636000
0
LINE
8
Layer 1
10
314.261000
20
737.636000
11
314.248000
21
737.580000
0
LINE
8
Layer 1
10
314.248000
20
737.580000
11
314.221000
21
737.484000
0
LINE
8
Layer 1
10
314.221000
20
737.484000
11
314.187000
21
737.389000
0
LINE
8
Layer 1
10
314.187000
20
737.389000
11
314.149000
21
737.298000
0
LINE
8
Layer 1
10
314.149000
20
737.298000
11
314.105000
21
737.208000
0
LINE
8
Layer 1
10
314.105000
20
737.208000
11
314.056000
21
737.121000
0
LINE
8
Layer 1
10
314.056000
20
737.121000
11
314.009000
21
737.048000
0
LINE
8
Layer 1
10
314.009000
20
737.048000
11
314.002000
21
737.037000
0
LINE
8
Layer 1
10
314.002000
20
737.037000
11
313.943000
21
736.956000
0
LINE
8
Layer 1
10
313.943000
20
736.956000
11
313.879000
21
736.879000
0
LINE
8
Layer 1
10
313.879000
20
736.879000
11
313.811000
21
736.806000
0
LINE
8
Layer 1
10
313.811000
20
736.806000
11
313.739000
21
736.737000
0
LINE
8
Layer 1
10
313.739000
20
736.737000
11
313.663000
21
736.672000
0
LINE
8
Layer 1
10
313.663000
20
736.672000
11
313.649000
21
736.662000
0
LINE
8
Layer 1
10
313.649000
20
736.662000
11
313.583000
21
736.612000
0
LINE
8
Layer 1
10
313.583000
20
736.612000
11
313.582000
21
736.611000
0
LINE
8
Layer 1
10
313.582000
20
736.611000
11
313.500000
21
736.557000
0
LINE
8
Layer 1
10
313.500000
20
736.557000
11
313.414000
21
736.507000
0
LINE
8
Layer 1
10
313.414000
20
736.507000
11
313.325000
21
736.462000
0
LINE
8
Layer 1
10
313.325000
20
736.462000
11
313.246000
21
736.427000
0
LINE
8
Layer 1
10
313.246000
20
736.427000
11
313.234000
21
736.422000
0
LINE
8
Layer 1
10
313.234000
20
736.422000
11
313.173000
21
736.399000
0
LINE
8
Layer 1
10
313.173000
20
736.399000
11
313.140000
21
736.387000
0
LINE
8
Layer 1
10
313.140000
20
736.387000
11
313.044000
21
736.358000
0
LINE
8
Layer 1
10
313.044000
20
736.358000
11
312.947000
21
736.335000
0
LINE
8
Layer 1
10
312.947000
20
736.335000
11
312.848000
21
736.318000
0
LINE
8
Layer 1
10
312.848000
20
736.318000
11
312.750000
21
736.306000
0
LINE
8
Layer 1
10
312.750000
20
736.306000
11
312.650000
21
736.300000
0
LINE
8
Layer 1
10
312.650000
20
736.300000
11
312.550000
21
736.300000
0
LINE
8
Layer 1
10
312.550000
20
723.170000
11
312.450000
21
723.176000
0
LINE
8
Layer 1
10
312.450000
20
723.176000
11
312.351000
21
723.188000
0
LINE
8
Layer 1
10
312.351000
20
723.188000
11
312.253000
21
723.205000
0
LINE
8
Layer 1
10
312.253000
20
723.205000
11
312.156000
21
723.228000
0
LINE
8
Layer 1
10
312.156000
20
723.228000
11
312.060000
21
723.257000
0
LINE
8
Layer 1
10
312.060000
20
723.257000
11
311.967000
21
723.292000
0
LINE
8
Layer 1
10
311.967000
20
723.292000
11
311.875000
21
723.332000
0
LINE
8
Layer 1
10
311.875000
20
723.332000
11
311.786000
21
723.377000
0
LINE
8
Layer 1
10
311.786000
20
723.377000
11
311.699000
21
723.427000
0
LINE
8
Layer 1
10
311.699000
20
723.427000
11
311.617000
21
723.482000
0
LINE
8
Layer 1
10
311.617000
20
723.482000
11
311.537000
21
723.543000
0
LINE
8
Layer 1
10
311.537000
20
723.543000
11
311.498000
21
723.575000
0
LINE
8
Layer 1
10
311.498000
20
723.575000
11
311.461000
21
723.607000
0
LINE
8
Layer 1
10
311.461000
20
723.607000
11
311.423000
21
723.643000
0
LINE
8
Layer 1
10
311.423000
20
723.643000
11
311.389000
21
723.676000
0
LINE
8
Layer 1
10
311.389000
20
723.676000
11
311.321000
21
723.749000
0
LINE
8
Layer 1
10
311.321000
20
723.749000
11
311.257000
21
723.827000
0
LINE
8
Layer 1
10
311.257000
20
723.827000
11
311.217000
21
723.882000
0
LINE
8
Layer 1
10
311.217000
20
723.882000
11
311.198000
21
723.907000
0
LINE
8
Layer 1
10
311.198000
20
723.907000
11
311.144000
21
723.991000
0
LINE
8
Layer 1
10
311.144000
20
723.991000
11
311.095000
21
724.078000
0
LINE
8
Layer 1
10
311.095000
20
724.078000
11
311.051000
21
724.168000
0
LINE
8
Layer 1
10
311.051000
20
724.168000
11
311.013000
21
724.260000
0
LINE
8
Layer 1
10
311.013000
20
724.260000
11
310.979000
21
724.354000
0
LINE
8
Layer 1
10
310.979000
20
724.354000
11
310.952000
21
724.450000
0
LINE
8
Layer 1
10
310.952000
20
724.450000
11
310.930000
21
724.547000
0
LINE
8
Layer 1
10
310.930000
20
724.547000
11
310.914000
21
724.646000
0
LINE
8
Layer 1
10
310.914000
20
724.646000
11
310.904000
21
724.745000
0
LINE
8
Layer 1
10
310.904000
20
724.745000
11
310.901000
21
724.820000
0
LINE
8
Layer 1
10
310.901000
20
724.820000
11
310.899000
21
724.845000
0
LINE
8
Layer 1
10
310.899000
20
724.845000
11
310.901000
21
724.945000
0
LINE
8
Layer 1
10
310.901000
20
724.945000
11
310.908000
21
725.044000
0
LINE
8
Layer 1
10
310.908000
20
725.044000
11
310.921000
21
725.144000
0
LINE
8
Layer 1
10
310.921000
20
725.144000
11
310.928000
21
725.179000
0
LINE
8
Layer 1
10
310.928000
20
725.179000
11
310.940000
21
725.241000
0
LINE
8
Layer 1
10
310.940000
20
725.241000
11
310.965000
21
725.338000
0
LINE
8
Layer 1
10
310.965000
20
725.338000
11
310.995000
21
725.433000
0
LINE
8
Layer 1
10
310.995000
20
725.433000
11
311.031000
21
725.527000
0
LINE
8
Layer 1
10
311.031000
20
725.527000
11
311.073000
21
725.618000
0
LINE
8
Layer 1
10
311.073000
20
725.618000
11
311.119000
21
725.706000
0
LINE
8
Layer 1
10
311.119000
20
725.706000
11
311.171000
21
725.792000
0
LINE
8
Layer 1
10
311.171000
20
725.792000
11
311.227000
21
725.874000
0
LINE
8
Layer 1
10
311.227000
20
725.874000
11
311.288000
21
725.953000
0
LINE
8
Layer 1
10
311.288000
20
725.953000
11
311.335000
21
726.006000
0
LINE
8
Layer 1
10
311.335000
20
726.006000
11
311.354000
21
726.028000
0
LINE
8
Layer 1
10
311.354000
20
726.028000
11
311.420000
21
726.095000
0
LINE
8
Layer 1
10
311.420000
20
726.095000
11
311.424000
21
726.099000
0
LINE
8
Layer 1
10
311.424000
20
726.099000
11
311.499000
21
726.166000
0
LINE
8
Layer 1
10
311.499000
20
726.166000
11
311.576000
21
726.228000
0
LINE
8
Layer 1
10
311.576000
20
726.228000
11
311.658000
21
726.286000
0
LINE
8
Layer 1
10
311.658000
20
726.286000
11
311.742000
21
726.339000
0
LINE
8
Layer 1
10
311.742000
20
726.339000
11
311.830000
21
726.386000
0
LINE
8
Layer 1
10
311.830000
20
726.386000
11
311.921000
21
726.429000
0
LINE
8
Layer 1
10
311.921000
20
726.429000
11
312.013000
21
726.466000
0
LINE
8
Layer 1
10
312.013000
20
726.466000
11
312.108000
21
726.498000
0
LINE
8
Layer 1
10
312.108000
20
726.498000
11
312.205000
21
726.524000
0
LINE
8
Layer 1
10
312.205000
20
726.524000
11
312.302000
21
726.544000
0
LINE
8
Layer 1
10
312.302000
20
726.544000
11
312.401000
21
726.559000
0
LINE
8
Layer 1
10
312.401000
20
726.559000
11
312.500000
21
726.568000
0
LINE
8
Layer 1
10
312.500000
20
726.568000
11
312.600000
21
726.571000
0
LINE
8
Layer 1
10
312.600000
20
726.571000
11
312.700000
21
726.568000
0
LINE
8
Layer 1
10
312.700000
20
726.568000
11
312.800000
21
726.559000
0
LINE
8
Layer 1
10
312.800000
20
726.559000
11
312.898000
21
726.544000
0
LINE
8
Layer 1
10
312.898000
20
726.544000
11
312.941000
21
726.535000
0
LINE
8
Layer 1
10
312.941000
20
726.535000
11
312.996000
21
726.524000
0
LINE
8
Layer 1
10
312.996000
20
726.524000
11
313.092000
21
726.498000
0
LINE
8
Layer 1
10
313.092000
20
726.498000
11
313.187000
21
726.466000
0
LINE
8
Layer 1
10
313.187000
20
726.466000
11
313.236000
21
726.447000
0
LINE
8
Layer 1
10
313.236000
20
726.447000
11
313.280000
21
726.429000
0
LINE
8
Layer 1
10
313.280000
20
726.429000
11
313.316000
21
726.412000
0
LINE
8
Layer 1
10
313.316000
20
726.412000
11
313.370000
21
726.386000
0
LINE
8
Layer 1
10
313.370000
20
726.386000
11
313.387000
21
726.377000
0
LINE
8
Layer 1
10
313.387000
20
726.377000
11
313.458000
21
726.339000
0
LINE
8
Layer 1
10
313.458000
20
726.339000
11
313.542000
21
726.286000
0
LINE
8
Layer 1
10
313.542000
20
726.286000
11
313.624000
21
726.228000
0
LINE
8
Layer 1
10
313.624000
20
726.228000
11
313.636000
21
726.219000
0
LINE
8
Layer 1
10
313.636000
20
726.219000
11
313.702000
21
726.165000
0
LINE
8
Layer 1
10
313.702000
20
726.165000
11
313.776000
21
726.099000
0
LINE
8
Layer 1
10
313.776000
20
726.099000
11
313.846000
21
726.027000
0
LINE
8
Layer 1
10
313.846000
20
726.027000
11
313.912000
21
725.953000
0
LINE
8
Layer 1
10
313.912000
20
725.953000
11
313.973000
21
725.873000
0
LINE
8
Layer 1
10
313.973000
20
725.873000
11
314.029000
21
725.791000
0
LINE
8
Layer 1
10
314.029000
20
725.791000
11
314.081000
21
725.706000
0
LINE
8
Layer 1
10
314.081000
20
725.706000
11
314.128000
21
725.617000
0
LINE
8
Layer 1
10
314.128000
20
725.617000
11
314.169000
21
725.527000
0
LINE
8
Layer 1
10
314.169000
20
725.527000
11
314.205000
21
725.433000
0
LINE
8
Layer 1
10
314.205000
20
725.433000
11
314.235000
21
725.338000
0
LINE
8
Layer 1
10
314.235000
20
725.338000
11
314.257000
21
725.251000
0
LINE
8
Layer 1
10
314.257000
20
725.251000
11
314.260000
21
725.242000
0
LINE
8
Layer 1
10
314.260000
20
725.242000
11
314.279000
21
725.143000
0
LINE
8
Layer 1
10
314.279000
20
725.143000
11
314.292000
21
725.044000
0
LINE
8
Layer 1
10
314.292000
20
725.044000
11
314.299000
21
724.945000
0
LINE
8
Layer 1
10
314.299000
20
724.945000
11
314.301000
21
724.845000
0
LINE
8
Layer 1
10
314.301000
20
724.845000
11
314.296000
21
724.745000
0
LINE
8
Layer 1
10
314.296000
20
724.745000
11
314.286000
21
724.646000
0
LINE
8
Layer 1
10
314.286000
20
724.646000
11
314.270000
21
724.547000
0
LINE
8
Layer 1
10
314.270000
20
724.547000
11
314.261000
21
724.506000
0
LINE
8
Layer 1
10
314.261000
20
724.506000
11
314.248000
21
724.450000
0
LINE
8
Layer 1
10
314.248000
20
724.450000
11
314.221000
21
724.354000
0
LINE
8
Layer 1
10
314.221000
20
724.354000
11
314.187000
21
724.260000
0
LINE
8
Layer 1
10
314.187000
20
724.260000
11
314.149000
21
724.168000
0
LINE
8
Layer 1
10
314.149000
20
724.168000
11
314.105000
21
724.078000
0
LINE
8
Layer 1
10
314.105000
20
724.078000
11
314.056000
21
723.991000
0
LINE
8
Layer 1
10
314.056000
20
723.991000
11
314.009000
21
723.918000
0
LINE
8
Layer 1
10
314.009000
20
723.918000
11
314.002000
21
723.907000
0
LINE
8
Layer 1
10
314.002000
20
723.907000
11
313.943000
21
723.826000
0
LINE
8
Layer 1
10
313.943000
20
723.826000
11
313.879000
21
723.749000
0
LINE
8
Layer 1
10
313.879000
20
723.749000
11
313.811000
21
723.676000
0
LINE
8
Layer 1
10
313.811000
20
723.676000
11
313.739000
21
723.607000
0
LINE
8
Layer 1
10
313.739000
20
723.607000
11
313.663000
21
723.542000
0
LINE
8
Layer 1
10
313.663000
20
723.542000
11
313.649000
21
723.532000
0
LINE
8
Layer 1
10
313.649000
20
723.532000
11
313.583000
21
723.482000
0
LINE
8
Layer 1
10
313.583000
20
723.482000
11
313.582000
21
723.481000
0
LINE
8
Layer 1
10
313.582000
20
723.481000
11
313.500000
21
723.427000
0
LINE
8
Layer 1
10
313.500000
20
723.427000
11
313.414000
21
723.377000
0
LINE
8
Layer 1
10
313.414000
20
723.377000
11
313.325000
21
723.332000
0
LINE
8
Layer 1
10
313.325000
20
723.332000
11
313.233000
21
723.292000
0
LINE
8
Layer 1
10
313.233000
20
723.292000
11
313.140000
21
723.257000
0
LINE
8
Layer 1
10
313.140000
20
723.257000
11
313.044000
21
723.228000
0
LINE
8
Layer 1
10
313.044000
20
723.228000
11
312.947000
21
723.205000
0
LINE
8
Layer 1
10
312.947000
20
723.205000
11
312.848000
21
723.188000
0
LINE
8
Layer 1
10
312.848000
20
723.188000
11
312.750000
21
723.176000
0
LINE
8
Layer 1
10
312.750000
20
723.176000
11
312.650000
21
723.170000
0
LINE
8
Layer 1
10
312.650000
20
723.170000
11
312.550000
21
723.170000
0
LINE
8
Layer 1
10
312.550000
20
710.040000
11
312.450000
21
710.046000
0
LINE
8
Layer 1
10
312.450000
20
710.046000
11
312.351000
21
710.058000
0
LINE
8
Layer 1
10
312.351000
20
710.058000
11
312.253000
21
710.075000
0
LINE
8
Layer 1
10
312.253000
20
710.075000
11
312.156000
21
710.098000
0
LINE
8
Layer 1
10
312.156000
20
710.098000
11
312.060000
21
710.127000
0
LINE
8
Layer 1
10
312.060000
20
710.127000
11
311.967000
21
710.162000
0
LINE
8
Layer 1
10
311.967000
20
710.162000
11
311.875000
21
710.202000
0
LINE
8
Layer 1
10
311.875000
20
710.202000
11
311.786000
21
710.247000
0
LINE
8
Layer 1
10
311.786000
20
710.247000
11
311.699000
21
710.297000
0
LINE
8
Layer 1
10
311.699000
20
710.297000
11
311.616000
21
710.353000
0
LINE
8
Layer 1
10
311.616000
20
710.353000
11
311.537000
21
710.412000
0
LINE
8
Layer 1
10
311.537000
20
710.412000
11
311.461000
21
710.477000
0
LINE
8
Layer 1
10
311.461000
20
710.477000
11
311.389000
21
710.546000
0
LINE
8
Layer 1
10
311.389000
20
710.546000
11
311.321000
21
710.619000
0
LINE
8
Layer 1
10
311.321000
20
710.619000
11
311.257000
21
710.697000
0
LINE
8
Layer 1
10
311.257000
20
710.697000
11
311.217000
21
710.752000
0
LINE
8
Layer 1
10
311.217000
20
710.752000
11
311.198000
21
710.777000
0
LINE
8
Layer 1
10
311.198000
20
710.777000
11
311.144000
21
710.861000
0
LINE
8
Layer 1
10
311.144000
20
710.861000
11
311.095000
21
710.948000
0
LINE
8
Layer 1
10
311.095000
20
710.948000
11
311.051000
21
711.038000
0
LINE
8
Layer 1
10
311.051000
20
711.038000
11
311.013000
21
711.130000
0
LINE
8
Layer 1
10
311.013000
20
711.130000
11
310.979000
21
711.224000
0
LINE
8
Layer 1
10
310.979000
20
711.224000
11
310.952000
21
711.320000
0
LINE
8
Layer 1
10
310.952000
20
711.320000
11
310.930000
21
711.417000
0
LINE
8
Layer 1
10
310.930000
20
711.417000
11
310.914000
21
711.516000
0
LINE
8
Layer 1
10
310.914000
20
711.516000
11
310.904000
21
711.615000
0
LINE
8
Layer 1
10
310.904000
20
711.615000
11
310.901000
21
711.690000
0
LINE
8
Layer 1
10
310.901000
20
711.690000
11
310.899000
21
711.715000
0
LINE
8
Layer 1
10
310.899000
20
711.715000
11
310.901000
21
711.815000
0
LINE
8
Layer 1
10
310.901000
20
711.815000
11
310.908000
21
711.914000
0
LINE
8
Layer 1
10
310.908000
20
711.914000
11
310.921000
21
712.014000
0
LINE
8
Layer 1
10
310.921000
20
712.014000
11
310.928000
21
712.048000
0
LINE
8
Layer 1
10
310.928000
20
712.048000
11
310.940000
21
712.111000
0
LINE
8
Layer 1
10
310.940000
20
712.111000
11
310.965000
21
712.208000
0
LINE
8
Layer 1
10
310.965000
20
712.208000
11
310.995000
21
712.303000
0
LINE
8
Layer 1
10
310.995000
20
712.303000
11
311.031000
21
712.397000
0
LINE
8
Layer 1
10
311.031000
20
712.397000
11
311.073000
21
712.488000
0
LINE
8
Layer 1
10
311.073000
20
712.488000
11
311.119000
21
712.576000
0
LINE
8
Layer 1
10
311.119000
20
712.576000
11
311.171000
21
712.662000
0
LINE
8
Layer 1
10
311.171000
20
712.662000
11
311.227000
21
712.744000
0
LINE
8
Layer 1
10
311.227000
20
712.744000
11
311.288000
21
712.823000
0
LINE
8
Layer 1
10
311.288000
20
712.823000
11
311.335000
21
712.876000
0
LINE
8
Layer 1
10
311.335000
20
712.876000
11
311.354000
21
712.898000
0
LINE
8
Layer 1
10
311.354000
20
712.898000
11
311.420000
21
712.965000
0
LINE
8
Layer 1
10
311.420000
20
712.965000
11
311.424000
21
712.969000
0
LINE
8
Layer 1
10
311.424000
20
712.969000
11
311.499000
21
713.036000
0
LINE
8
Layer 1
10
311.499000
20
713.036000
11
311.576000
21
713.098000
0
LINE
8
Layer 1
10
311.576000
20
713.098000
11
311.658000
21
713.156000
0
LINE
8
Layer 1
10
311.658000
20
713.156000
11
311.742000
21
713.209000
0
LINE
8
Layer 1
10
311.742000
20
713.209000
11
311.830000
21
713.257000
0
LINE
8
Layer 1
10
311.830000
20
713.257000
11
311.921000
21
713.299000
0
LINE
8
Layer 1
10
311.921000
20
713.299000
11
312.013000
21
713.336000
0
LINE
8
Layer 1
10
312.013000
20
713.336000
11
312.108000
21
713.368000
0
LINE
8
Layer 1
10
312.108000
20
713.368000
11
312.205000
21
713.394000
0
LINE
8
Layer 1
10
312.205000
20
713.394000
11
312.302000
21
713.414000
0
LINE
8
Layer 1
10
312.302000
20
713.414000
11
312.401000
21
713.429000
0
LINE
8
Layer 1
10
312.401000
20
713.429000
11
312.408000
21
713.430000
0
LINE
8
Layer 1
10
312.408000
20
713.430000
11
312.500000
21
713.438000
0
LINE
8
Layer 1
10
312.500000
20
713.438000
11
312.600000
21
713.441000
0
LINE
8
Layer 1
10
312.600000
20
713.441000
11
312.637000
21
713.440000
0
LINE
8
Layer 1
10
312.637000
20
713.440000
11
312.700000
21
713.438000
0
LINE
8
Layer 1
10
312.700000
20
713.438000
11
312.799000
21
713.429000
0
LINE
8
Layer 1
10
312.799000
20
713.429000
11
312.898000
21
713.414000
0
LINE
8
Layer 1
10
312.898000
20
713.414000
11
312.961000
21
713.401000
0
LINE
8
Layer 1
10
312.961000
20
713.401000
11
312.996000
21
713.394000
0
LINE
8
Layer 1
10
312.996000
20
713.394000
11
313.093000
21
713.368000
0
LINE
8
Layer 1
10
313.093000
20
713.368000
11
313.187000
21
713.336000
0
LINE
8
Layer 1
10
313.187000
20
713.336000
11
313.280000
21
713.299000
0
LINE
8
Layer 1
10
313.280000
20
713.299000
11
313.370000
21
713.256000
0
LINE
8
Layer 1
10
313.370000
20
713.256000
11
313.388000
21
713.247000
0
LINE
8
Layer 1
10
313.388000
20
713.247000
11
313.458000
21
713.209000
0
LINE
8
Layer 1
10
313.458000
20
713.209000
11
313.542000
21
713.156000
0
LINE
8
Layer 1
10
313.542000
20
713.156000
11
313.624000
21
713.098000
0
LINE
8
Layer 1
10
313.624000
20
713.098000
11
313.636000
21
713.089000
0
LINE
8
Layer 1
10
313.636000
20
713.089000
11
313.702000
21
713.035000
0
LINE
8
Layer 1
10
313.702000
20
713.035000
11
313.776000
21
712.969000
0
LINE
8
Layer 1
10
313.776000
20
712.969000
11
313.846000
21
712.897000
0
LINE
8
Layer 1
10
313.846000
20
712.897000
11
313.912000
21
712.823000
0
LINE
8
Layer 1
10
313.912000
20
712.823000
11
313.973000
21
712.743000
0
LINE
8
Layer 1
10
313.973000
20
712.743000
11
314.029000
21
712.661000
0
LINE
8
Layer 1
10
314.029000
20
712.661000
11
314.081000
21
712.576000
0
LINE
8
Layer 1
10
314.081000
20
712.576000
11
314.128000
21
712.487000
0
LINE
8
Layer 1
10
314.128000
20
712.487000
11
314.169000
21
712.397000
0
LINE
8
Layer 1
10
314.169000
20
712.397000
11
314.205000
21
712.303000
0
LINE
8
Layer 1
10
314.205000
20
712.303000
11
314.235000
21
712.208000
0
LINE
8
Layer 1
10
314.235000
20
712.208000
11
314.257000
21
712.121000
0
LINE
8
Layer 1
10
314.257000
20
712.121000
11
314.260000
21
712.112000
0
LINE
8
Layer 1
10
314.260000
20
712.112000
11
314.279000
21
712.013000
0
LINE
8
Layer 1
10
314.279000
20
712.013000
11
314.292000
21
711.914000
0
LINE
8
Layer 1
10
314.292000
20
711.914000
11
314.299000
21
711.815000
0
LINE
8
Layer 1
10
314.299000
20
711.815000
11
314.301000
21
711.715000
0
LINE
8
Layer 1
10
314.301000
20
711.715000
11
314.296000
21
711.615000
0
LINE
8
Layer 1
10
314.296000
20
711.615000
11
314.286000
21
711.516000
0
LINE
8
Layer 1
10
314.286000
20
711.516000
11
314.270000
21
711.417000
0
LINE
8
Layer 1
10
314.270000
20
711.417000
11
314.261000
21
711.376000
0
LINE
8
Layer 1
10
314.261000
20
711.376000
11
314.248000
21
711.320000
0
LINE
8
Layer 1
10
314.248000
20
711.320000
11
314.221000
21
711.224000
0
LINE
8
Layer 1
10
314.221000
20
711.224000
11
314.187000
21
711.130000
0
LINE
8
Layer 1
10
314.187000
20
711.130000
11
314.149000
21
711.038000
0
LINE
8
Layer 1
10
314.149000
20
711.038000
11
314.105000
21
710.948000
0
LINE
8
Layer 1
10
314.105000
20
710.948000
11
314.056000
21
710.861000
0
LINE
8
Layer 1
10
314.056000
20
710.861000
11
314.009000
21
710.788000
0
LINE
8
Layer 1
10
314.009000
20
710.788000
11
314.002000
21
710.777000
0
LINE
8
Layer 1
10
314.002000
20
710.777000
11
313.943000
21
710.696000
0
LINE
8
Layer 1
10
313.943000
20
710.696000
11
313.879000
21
710.620000
0
LINE
8
Layer 1
10
313.879000
20
710.620000
11
313.811000
21
710.546000
0
LINE
8
Layer 1
10
313.811000
20
710.546000
11
313.739000
21
710.477000
0
LINE
8
Layer 1
10
313.739000
20
710.477000
11
313.663000
21
710.412000
0
LINE
8
Layer 1
10
313.663000
20
710.412000
11
313.649000
21
710.402000
0
LINE
8
Layer 1
10
313.649000
20
710.402000
11
313.583000
21
710.352000
0
LINE
8
Layer 1
10
313.583000
20
710.352000
11
313.500000
21
710.297000
0
LINE
8
Layer 1
10
313.500000
20
710.297000
11
313.414000
21
710.247000
0
LINE
8
Layer 1
10
313.414000
20
710.247000
11
313.325000
21
710.202000
0
LINE
8
Layer 1
10
313.325000
20
710.202000
11
313.234000
21
710.162000
0
LINE
8
Layer 1
10
313.234000
20
710.162000
11
313.139000
21
710.127000
0
LINE
8
Layer 1
10
313.139000
20
710.127000
11
313.044000
21
710.098000
0
LINE
8
Layer 1
10
313.044000
20
710.098000
11
312.947000
21
710.075000
0
LINE
8
Layer 1
10
312.947000
20
710.075000
11
312.848000
21
710.058000
0
LINE
8
Layer 1
10
312.848000
20
710.058000
11
312.750000
21
710.046000
0
LINE
8
Layer 1
10
312.750000
20
710.046000
11
312.650000
21
710.040000
0
LINE
8
Layer 1
10
312.650000
20
710.040000
11
312.550000
21
710.040000
0
LINE
8
Layer 1
10
12.900600
20
637.252000
11
12.801100
21
637.258000
0
LINE
8
Layer 1
10
12.801100
20
637.258000
11
12.702000
21
637.269000
0
LINE
8
Layer 1
10
12.702000
20
637.269000
11
12.603900
21
637.285000
0
LINE
8
Layer 1
10
12.603900
20
637.285000
11
12.506000
21
637.304000
0
LINE
8
Layer 1
10
12.506000
20
637.304000
11
12.470200
21
637.313000
0
LINE
8
Layer 1
10
12.470200
20
637.313000
11
12.409400
21
637.328000
0
LINE
8
Layer 1
10
12.409400
20
637.328000
11
12.357900
21
637.344000
0
LINE
8
Layer 1
10
12.357900
20
637.344000
11
12.314000
21
637.357000
0
LINE
8
Layer 1
10
12.314000
20
637.357000
11
12.220000
21
637.389000
0
LINE
8
Layer 1
10
12.220000
20
637.389000
11
12.127300
21
637.426000
0
LINE
8
Layer 1
10
12.127300
20
637.426000
11
12.036100
21
637.466000
0
LINE
8
Layer 1
10
12.036100
20
637.466000
11
11.947400
21
637.511000
0
LINE
8
Layer 1
10
11.947400
20
637.511000
11
11.860100
21
637.560000
0
LINE
8
Layer 1
10
11.860100
20
637.560000
11
11.775700
21
637.612000
0
LINE
8
Layer 1
10
11.775700
20
637.612000
11
11.693000
21
637.668000
0
LINE
8
Layer 1
10
11.693000
20
637.668000
11
11.613400
21
637.727000
0
LINE
8
Layer 1
10
11.613400
20
637.727000
11
11.564500
21
637.767000
0
LINE
8
Layer 1
10
11.564500
20
637.767000
11
11.536500
21
637.790000
0
LINE
8
Layer 1
10
11.536500
20
637.790000
11
11.462100
21
637.857000
0
LINE
8
Layer 1
10
11.462100
20
637.857000
11
11.391200
21
637.926000
0
LINE
8
Layer 1
10
11.391200
20
637.926000
11
11.323100
21
637.999000
0
LINE
8
Layer 1
10
11.323100
20
637.999000
11
11.258300
21
638.075000
0
LINE
8
Layer 1
10
11.258300
20
638.075000
11
11.196800
21
638.153000
0
LINE
8
Layer 1
10
11.196800
20
638.153000
11
11.139200
21
638.234000
0
LINE
8
Layer 1
10
11.139200
20
638.234000
11
11.084800
21
638.318000
0
LINE
8
Layer 1
10
11.084800
20
638.318000
11
11.034400
21
638.404000
0
LINE
8
Layer 1
10
11.034400
20
638.404000
11
11.010700
21
638.449000
0
LINE
8
Layer 1
10
11.010700
20
638.449000
11
10.988000
21
638.492000
0
LINE
8
Layer 1
10
10.988000
20
638.492000
11
10.945200
21
638.582000
0
LINE
8
Layer 1
10
10.945200
20
638.582000
11
10.906800
21
638.673000
0
LINE
8
Layer 1
10
10.906800
20
638.673000
11
10.872200
21
638.767000
0
LINE
8
Layer 1
10
10.872200
20
638.767000
11
10.841800
21
638.862000
0
LINE
8
Layer 1
10
10.841800
20
638.862000
11
10.815800
21
638.958000
0
LINE
8
Layer 1
10
10.815800
20
638.958000
11
10.793900
21
639.055000
0
LINE
8
Layer 1
10
10.793900
20
639.055000
11
10.776400
21
639.153000
0
LINE
8
Layer 1
10
10.776400
20
639.153000
11
10.763200
21
639.252000
0
LINE
8
Layer 1
10
10.763200
20
639.252000
11
10.754400
21
639.351000
0
LINE
8
Layer 1
10
10.754400
20
639.351000
11
10.750000
21
639.450000
0
LINE
8
Layer 1
10
10.750000
20
639.450000
11
10.750000
21
639.550000
0
LINE
8
Layer 1
10
10.750000
20
639.550000
11
10.754400
21
639.649000
0
LINE
8
Layer 1
10
10.754400
20
639.649000
11
10.763200
21
639.748000
0
LINE
8
Layer 1
10
10.763200
20
639.748000
11
10.776400
21
639.847000
0
LINE
8
Layer 1
10
10.776400
20
639.847000
11
10.794000
21
639.945000
0
LINE
8
Layer 1
10
10.794000
20
639.945000
11
10.808100
21
640.008000
0
LINE
8
Layer 1
10
10.808100
20
640.008000
11
10.815800
21
640.042000
0
LINE
8
Layer 1
10
10.815800
20
640.042000
11
10.842000
21
640.139000
0
LINE
8
Layer 1
10
10.842000
20
640.139000
11
10.859800
21
640.194000
0
LINE
8
Layer 1
10
10.859800
20
640.194000
11
10.872200
21
640.233000
0
LINE
8
Layer 1
10
10.872200
20
640.233000
11
10.906900
21
640.327000
0
LINE
8
Layer 1
10
10.906900
20
640.327000
11
10.945300
21
640.418000
0
LINE
8
Layer 1
10
10.945300
20
640.418000
11
10.988000
21
640.508000
0
LINE
8
Layer 1
10
10.988000
20
640.508000
11
11.034600
21
640.596000
0
LINE
8
Layer 1
10
11.034600
20
640.596000
11
11.085200
21
640.683000
0
LINE
8
Layer 1
10
11.085200
20
640.683000
11
11.085400
21
640.683000
0
LINE
8
Layer 1
10
11.085400
20
640.683000
11
11.139400
21
640.766000
0
LINE
8
Layer 1
10
11.139400
20
640.766000
11
11.196900
21
640.847000
0
LINE
8
Layer 1
10
11.196900
20
640.847000
11
11.258600
21
640.926000
0
LINE
8
Layer 1
10
11.258600
20
640.926000
11
11.323100
21
641.001000
0
LINE
8
Layer 1
10
11.323100
20
641.001000
11
11.391000
21
641.074000
0
LINE
8
Layer 1
10
11.391000
20
641.074000
11
11.462600
21
641.144000
0
LINE
8
Layer 1
10
11.462600
20
641.144000
11
11.536800
21
641.210000
0
LINE
8
Layer 1
10
11.536800
20
641.210000
11
11.613500
21
641.273000
0
LINE
8
Layer 1
10
11.613500
20
641.273000
11
11.693300
21
641.332000
0
LINE
8
Layer 1
10
11.693300
20
641.332000
11
11.775900
21
641.389000
0
LINE
8
Layer 1
10
11.775900
20
641.389000
11
11.783400
21
641.393000
0
LINE
8
Layer 1
10
11.783400
20
641.393000
11
11.860600
21
641.441000
0
LINE
8
Layer 1
10
11.860600
20
641.441000
11
11.947200
21
641.489000
0
LINE
8
Layer 1
10
11.947200
20
641.489000
11
12.036700
21
641.534000
0
LINE
8
Layer 1
10
12.036700
20
641.534000
11
12.127200
21
641.574000
0
LINE
8
Layer 1
10
12.127200
20
641.574000
11
12.220200
21
641.611000
0
LINE
8
Layer 1
10
12.220200
20
641.611000
11
12.314000
21
641.643000
0
LINE
8
Layer 1
10
12.314000
20
641.643000
11
12.409500
21
641.672000
0
LINE
8
Layer 1
10
12.409500
20
641.672000
11
12.506500
21
641.696000
0
LINE
8
Layer 1
10
12.506500
20
641.696000
11
12.603700
21
641.715000
0
LINE
8
Layer 1
10
12.603700
20
641.715000
11
12.702300
21
641.731000
0
LINE
8
Layer 1
10
12.702300
20
641.731000
11
12.760800
21
641.737000
0
LINE
8
Layer 1
10
12.760800
20
641.737000
11
12.801100
21
641.742000
0
LINE
8
Layer 1
10
12.801100
20
641.742000
11
12.900300
21
641.748000
0
LINE
8
Layer 1
10
12.900300
20
641.748000
11
13.000300
21
641.751000
0
LINE
8
Layer 1
10
13.000300
20
641.751000
11
13.000300
21
641.751000
0
LINE
8
Layer 1
10
13.000300
20
641.751000
11
13.099400
21
641.748000
0
LINE
8
Layer 1
10
13.099400
20
641.748000
11
13.199200
21
641.742000
0
LINE
8
Layer 1
10
13.199200
20
641.742000
11
13.297800
21
641.731000
0
LINE
8
Layer 1
10
13.297800
20
641.731000
11
13.396400
21
641.715000
0
LINE
8
Layer 1
10
13.396400
20
641.715000
11
13.493700
21
641.696000
0
LINE
8
Layer 1
10
13.493700
20
641.696000
11
13.590500
21
641.672000
0
LINE
8
Layer 1
10
13.590500
20
641.672000
11
13.686200
21
641.643000
0
LINE
8
Layer 1
10
13.686200
20
641.643000
11
13.780000
21
641.611000
0
LINE
8
Layer 1
10
13.780000
20
641.611000
11
13.873000
21
641.574000
0
LINE
8
Layer 1
10
13.873000
20
641.574000
11
13.892800
21
641.565000
0
LINE
8
Layer 1
10
13.892800
20
641.565000
11
13.963800
21
641.534000
0
LINE
8
Layer 1
10
13.963800
20
641.534000
11
14.052600
21
641.489000
0
LINE
8
Layer 1
10
14.052600
20
641.489000
11
14.139900
21
641.440000
0
LINE
8
Layer 1
10
14.139900
20
641.440000
11
14.224300
21
641.388000
0
LINE
8
Layer 1
10
14.224300
20
641.388000
11
14.307000
21
641.332000
0
LINE
8
Layer 1
10
14.307000
20
641.332000
11
14.386400
21
641.273000
0
LINE
8
Layer 1
10
14.386400
20
641.273000
11
14.463700
21
641.210000
0
LINE
8
Layer 1
10
14.463700
20
641.210000
11
14.537600
21
641.143000
0
LINE
8
Layer 1
10
14.537600
20
641.143000
11
14.609100
21
641.073000
0
LINE
8
Layer 1
10
14.609100
20
641.073000
11
14.676900
21
641.001000
0
LINE
8
Layer 1
10
14.676900
20
641.001000
11
14.741900
21
640.925000
0
LINE
8
Layer 1
10
14.741900
20
640.925000
11
14.803000
21
640.847000
0
LINE
8
Layer 1
10
14.803000
20
640.847000
11
14.861000
21
640.766000
0
LINE
8
Layer 1
10
14.861000
20
640.766000
11
14.914900
21
640.682000
0
LINE
8
Layer 1
10
14.914900
20
640.682000
11
14.965600
21
640.596000
0
LINE
8
Layer 1
10
14.965600
20
640.596000
11
14.967300
21
640.593000
0
LINE
8
Layer 1
10
14.967300
20
640.593000
11
15.012100
21
640.508000
0
LINE
8
Layer 1
10
15.012100
20
640.508000
11
15.049200
21
640.430000
0
LINE
8
Layer 1
10
15.049200
20
640.430000
11
15.054600
21
640.418000
0
LINE
8
Layer 1
10
15.054600
20
640.418000
11
15.093300
21
640.326000
0
LINE
8
Layer 1
10
15.093300
20
640.326000
11
15.096500
21
640.318000
0
LINE
8
Layer 1
10
15.096500
20
640.318000
11
15.127800
21
640.233000
0
LINE
8
Layer 1
10
15.127800
20
640.233000
11
15.158100
21
640.139000
0
LINE
8
Layer 1
10
15.158100
20
640.139000
11
15.184200
21
640.042000
0
LINE
8
Layer 1
10
15.184200
20
640.042000
11
15.206100
21
639.945000
0
LINE
8
Layer 1
10
15.206100
20
639.945000
11
15.223600
21
639.847000
0
LINE
8
Layer 1
10
15.223600
20
639.847000
11
15.236800
21
639.748000
0
LINE
8
Layer 1
10
15.236800
20
639.748000
11
15.245600
21
639.649000
0
LINE
8
Layer 1
10
15.245600
20
639.649000
11
15.249500
21
639.562000
0
LINE
8
Layer 1
10
15.249500
20
639.562000
11
15.250000
21
639.550000
0
LINE
8
Layer 1
10
15.250000
20
639.550000
11
15.250000
21
639.450000
0
LINE
8
Layer 1
10
15.250000
20
639.450000
11
15.245600
21
639.350000
0
LINE
8
Layer 1
10
15.245600
20
639.350000
11
15.245200
21
639.347000
0
LINE
8
Layer 1
10
15.245200
20
639.347000
11
15.236800
21
639.251000
0
LINE
8
Layer 1
10
15.236800
20
639.251000
11
15.225900
21
639.170000
0
LINE
8
Layer 1
10
15.225900
20
639.170000
11
15.223600
21
639.153000
0
LINE
8
Layer 1
10
15.223600
20
639.153000
11
15.206100
21
639.055000
0
LINE
8
Layer 1
10
15.206100
20
639.055000
11
15.184100
21
638.957000
0
LINE
8
Layer 1
10
15.184100
20
638.957000
11
15.183100
21
638.953000
0
LINE
8
Layer 1
10
15.183100
20
638.953000
11
15.158000
21
638.861000
0
LINE
8
Layer 1
10
15.158000
20
638.861000
11
15.151400
21
638.841000
0
LINE
8
Layer 1
10
15.151400
20
638.841000
11
15.127700
21
638.766000
0
LINE
8
Layer 1
10
15.127700
20
638.766000
11
15.100000
21
638.692000
0
LINE
8
Layer 1
10
15.100000
20
638.692000
11
15.093300
21
638.673000
0
LINE
8
Layer 1
10
15.093300
20
638.673000
11
15.054500
21
638.581000
0
LINE
8
Layer 1
10
15.054500
20
638.581000
11
15.012000
21
638.492000
0
LINE
8
Layer 1
10
15.012000
20
638.492000
11
14.965400
21
638.404000
0
LINE
8
Layer 1
10
14.965400
20
638.404000
11
14.914800
21
638.317000
0
LINE
8
Layer 1
10
14.914800
20
638.317000
11
14.914600
21
638.317000
0
LINE
8
Layer 1
10
14.914600
20
638.317000
11
14.860600
21
638.234000
0
LINE
8
Layer 1
10
14.860600
20
638.234000
11
14.803100
21
638.153000
0
LINE
8
Layer 1
10
14.803100
20
638.153000
11
14.741400
21
638.074000
0
LINE
8
Layer 1
10
14.741400
20
638.074000
11
14.676900
21
637.999000
0
LINE
8
Layer 1
10
14.676900
20
637.999000
11
14.609000
21
637.926000
0
LINE
8
Layer 1
10
14.609000
20
637.926000
11
14.537700
21
637.857000
0
LINE
8
Layer 1
10
14.537700
20
637.857000
11
14.463200
21
637.790000
0
LINE
8
Layer 1
10
14.463200
20
637.790000
11
14.386500
21
637.727000
0
LINE
8
Layer 1
10
14.386500
20
637.727000
11
14.306400
21
637.667000
0
LINE
8
Layer 1
10
14.306400
20
637.667000
11
14.265800
21
637.640000
0
LINE
8
Layer 1
10
14.265800
20
637.640000
11
14.224400
21
637.612000
0
LINE
8
Layer 1
10
14.224400
20
637.612000
11
14.139300
21
637.559000
0
LINE
8
Layer 1
10
14.139300
20
637.559000
11
14.052500
21
637.511000
0
LINE
8
Layer 1
10
14.052500
20
637.511000
11
14.001100
21
637.485000
0
LINE
8
Layer 1
10
14.001100
20
637.485000
11
13.963600
21
637.466000
0
LINE
8
Layer 1
10
13.963600
20
637.466000
11
13.872400
21
637.425000
0
LINE
8
Layer 1
10
13.872400
20
637.425000
11
13.780200
21
637.389000
0
LINE
8
Layer 1
10
13.780200
20
637.389000
11
13.686000
21
637.357000
0
LINE
8
Layer 1
10
13.686000
20
637.357000
11
13.590500
21
637.328000
0
LINE
8
Layer 1
10
13.590500
20
637.328000
11
13.493500
21
637.304000
0
LINE
8
Layer 1
10
13.493500
20
637.304000
11
13.395900
21
637.285000
0
LINE
8
Layer 1
10
13.395900
20
637.285000
11
13.297900
21
637.269000
0
LINE
8
Layer 1
10
13.297900
20
637.269000
11
13.198700
21
637.258000
0
LINE
8
Layer 1
10
13.198700
20
637.258000
11
13.099700
21
637.252000
0
LINE
8
Layer 1
10
13.099700
20
637.252000
11
12.999700
21
637.249000
0
LINE
8
Layer 1
10
12.999700
20
637.249000
11
12.900600
21
637.252000
0
LINE
8
Layer 1
10
312.550000
20
584.430000
11
312.450000
21
584.436000
0
LINE
8
Layer 1
10
312.450000
20
584.436000
11
312.351000
21
584.448000
0
LINE
8
Layer 1
10
312.351000
20
584.448000
11
312.253000
21
584.465000
0
LINE
8
Layer 1
10
312.253000
20
584.465000
11
312.180000
21
584.483000
0
LINE
8
Layer 1
10
312.180000
20
584.483000
11
312.156000
21
584.488000
0
LINE
8
Layer 1
10
312.156000
20
584.488000
11
312.060000
21
584.517000
0
LINE
8
Layer 1
10
312.060000
20
584.517000
11
312.004000
21
584.538000
0
LINE
8
Layer 1
10
312.004000
20
584.538000
11
311.967000
21
584.552000
0
LINE
8
Layer 1
10
311.967000
20
584.552000
11
311.875000
21
584.592000
0
LINE
8
Layer 1
10
311.875000
20
584.592000
11
311.786000
21
584.637000
0
LINE
8
Layer 1
10
311.786000
20
584.637000
11
311.699000
21
584.687000
0
LINE
8
Layer 1
10
311.699000
20
584.687000
11
311.617000
21
584.742000
0
LINE
8
Layer 1
10
311.617000
20
584.742000
11
311.537000
21
584.803000
0
LINE
8
Layer 1
10
311.537000
20
584.803000
11
311.528000
21
584.810000
0
LINE
8
Layer 1
10
311.528000
20
584.810000
11
311.461000
21
584.867000
0
LINE
8
Layer 1
10
311.461000
20
584.867000
11
311.457000
21
584.871000
0
LINE
8
Layer 1
10
311.457000
20
584.871000
11
311.389000
21
584.936000
0
LINE
8
Layer 1
10
311.389000
20
584.936000
11
311.321000
21
585.009000
0
LINE
8
Layer 1
10
311.321000
20
585.009000
11
311.257000
21
585.087000
0
LINE
8
Layer 1
10
311.257000
20
585.087000
11
311.217000
21
585.142000
0
LINE
8
Layer 1
10
311.217000
20
585.142000
11
311.198000
21
585.167000
0
LINE
8
Layer 1
10
311.198000
20
585.167000
11
311.144000
21
585.251000
0
LINE
8
Layer 1
10
311.144000
20
585.251000
11
311.095000
21
585.338000
0
LINE
8
Layer 1
10
311.095000
20
585.338000
11
311.051000
21
585.428000
0
LINE
8
Layer 1
10
311.051000
20
585.428000
11
311.013000
21
585.520000
0
LINE
8
Layer 1
10
311.013000
20
585.520000
11
310.979000
21
585.614000
0
LINE
8
Layer 1
10
310.979000
20
585.614000
11
310.952000
21
585.710000
0
LINE
8
Layer 1
10
310.952000
20
585.710000
11
310.930000
21
585.807000
0
LINE
8
Layer 1
10
310.930000
20
585.807000
11
310.914000
21
585.906000
0
LINE
8
Layer 1
10
310.914000
20
585.906000
11
310.904000
21
586.005000
0
LINE
8
Layer 1
10
310.904000
20
586.005000
11
310.901000
21
586.079000
0
LINE
8
Layer 1
10
310.901000
20
586.079000
11
310.899000
21
586.105000
0
LINE
8
Layer 1
10
310.899000
20
586.105000
11
310.901000
21
586.205000
0
LINE
8
Layer 1
10
310.901000
20
586.205000
11
310.908000
21
586.304000
0
LINE
8
Layer 1
10
310.908000
20
586.304000
11
310.921000
21
586.404000
0
LINE
8
Layer 1
10
310.921000
20
586.404000
11
310.927000
21
586.431000
0
LINE
8
Layer 1
10
310.927000
20
586.431000
11
310.940000
21
586.501000
0
LINE
8
Layer 1
10
310.940000
20
586.501000
11
310.965000
21
586.598000
0
LINE
8
Layer 1
10
310.965000
20
586.598000
11
310.995000
21
586.693000
0
LINE
8
Layer 1
10
310.995000
20
586.693000
11
311.031000
21
586.787000
0
LINE
8
Layer 1
10
311.031000
20
586.787000
11
311.072000
21
586.878000
0
LINE
8
Layer 1
10
311.072000
20
586.878000
11
311.081000
21
586.894000
0
LINE
8
Layer 1
10
311.081000
20
586.894000
11
311.119000
21
586.966000
0
LINE
8
Layer 1
10
311.119000
20
586.966000
11
311.171000
21
587.051000
0
LINE
8
Layer 1
10
311.171000
20
587.051000
11
311.227000
21
587.134000
0
LINE
8
Layer 1
10
311.227000
20
587.134000
11
311.288000
21
587.213000
0
LINE
8
Layer 1
10
311.288000
20
587.213000
11
311.354000
21
587.288000
0
LINE
8
Layer 1
10
311.354000
20
587.288000
11
311.424000
21
587.359000
0
LINE
8
Layer 1
10
311.424000
20
587.359000
11
311.499000
21
587.426000
0
LINE
8
Layer 1
10
311.499000
20
587.426000
11
311.576000
21
587.488000
0
LINE
8
Layer 1
10
311.576000
20
587.488000
11
311.658000
21
587.546000
0
LINE
8
Layer 1
10
311.658000
20
587.546000
11
311.743000
21
587.599000
0
LINE
8
Layer 1
10
311.743000
20
587.599000
11
311.776000
21
587.617000
0
LINE
8
Layer 1
10
311.776000
20
587.617000
11
311.830000
21
587.646000
0
LINE
8
Layer 1
10
311.830000
20
587.646000
11
311.920000
21
587.689000
0
LINE
8
Layer 1
10
311.920000
20
587.689000
11
312.013000
21
587.726000
0
LINE
8
Layer 1
10
312.013000
20
587.726000
11
312.108000
21
587.758000
0
LINE
8
Layer 1
10
312.108000
20
587.758000
11
312.204000
21
587.784000
0
LINE
8
Layer 1
10
312.204000
20
587.784000
11
312.229000
21
587.789000
0
LINE
8
Layer 1
10
312.229000
20
587.789000
11
312.302000
21
587.804000
0
LINE
8
Layer 1
10
312.302000
20
587.804000
11
312.376000
21
587.815000
0
LINE
8
Layer 1
10
312.376000
20
587.815000
11
312.401000
21
587.819000
0
LINE
8
Layer 1
10
312.401000
20
587.819000
11
312.500000
21
587.828000
0
LINE
8
Layer 1
10
312.500000
20
587.828000
11
312.600000
21
587.831000
0
LINE
8
Layer 1
10
312.600000
20
587.831000
11
312.700000
21
587.828000
0
LINE
8
Layer 1
10
312.700000
20
587.828000
11
312.800000
21
587.819000
0
LINE
8
Layer 1
10
312.800000
20
587.819000
11
312.813000
21
587.817000
0
LINE
8
Layer 1
10
312.813000
20
587.817000
11
312.898000
21
587.804000
0
LINE
8
Layer 1
10
312.898000
20
587.804000
11
312.940000
21
587.796000
0
LINE
8
Layer 1
10
312.940000
20
587.796000
11
312.996000
21
587.784000
0
LINE
8
Layer 1
10
312.996000
20
587.784000
11
313.092000
21
587.758000
0
LINE
8
Layer 1
10
313.092000
20
587.758000
11
313.187000
21
587.726000
0
LINE
8
Layer 1
10
313.187000
20
587.726000
11
313.217000
21
587.714000
0
LINE
8
Layer 1
10
313.217000
20
587.714000
11
313.280000
21
587.689000
0
LINE
8
Layer 1
10
313.280000
20
587.689000
11
313.327000
21
587.667000
0
LINE
8
Layer 1
10
313.327000
20
587.667000
11
313.370000
21
587.647000
0
LINE
8
Layer 1
10
313.370000
20
587.647000
11
313.458000
21
587.599000
0
LINE
8
Layer 1
10
313.458000
20
587.599000
11
313.513000
21
587.564000
0
LINE
8
Layer 1
10
313.513000
20
587.564000
11
313.542000
21
587.546000
0
LINE
8
Layer 1
10
313.542000
20
587.546000
11
313.624000
21
587.488000
0
LINE
8
Layer 1
10
313.624000
20
587.488000
11
313.677000
21
587.446000
0
LINE
8
Layer 1
10
313.677000
20
587.446000
11
313.702000
21
587.426000
0
LINE
8
Layer 1
10
313.702000
20
587.426000
11
313.776000
21
587.359000
0
LINE
8
Layer 1
10
313.776000
20
587.359000
11
313.846000
21
587.287000
0
LINE
8
Layer 1
10
313.846000
20
587.287000
11
313.912000
21
587.213000
0
LINE
8
Layer 1
10
313.912000
20
587.213000
11
313.973000
21
587.133000
0
LINE
8
Layer 1
10
313.973000
20
587.133000
11
314.029000
21
587.051000
0
LINE
8
Layer 1
10
314.029000
20
587.051000
11
314.081000
21
586.966000
0
LINE
8
Layer 1
10
314.081000
20
586.966000
11
314.128000
21
586.877000
0
LINE
8
Layer 1
10
314.128000
20
586.877000
11
314.169000
21
586.787000
0
LINE
8
Layer 1
10
314.169000
20
586.787000
11
314.205000
21
586.693000
0
LINE
8
Layer 1
10
314.205000
20
586.693000
11
314.235000
21
586.598000
0
LINE
8
Layer 1
10
314.235000
20
586.598000
11
314.260000
21
586.502000
0
LINE
8
Layer 1
10
314.260000
20
586.502000
11
314.279000
21
586.403000
0
LINE
8
Layer 1
10
314.279000
20
586.403000
11
314.292000
21
586.304000
0
LINE
8
Layer 1
10
314.292000
20
586.304000
11
314.299000
21
586.205000
0
LINE
8
Layer 1
10
314.299000
20
586.205000
11
314.301000
21
586.105000
0
LINE
8
Layer 1
10
314.301000
20
586.105000
11
314.296000
21
586.005000
0
LINE
8
Layer 1
10
314.296000
20
586.005000
11
314.286000
21
585.906000
0
LINE
8
Layer 1
10
314.286000
20
585.906000
11
314.270000
21
585.807000
0
LINE
8
Layer 1
10
314.270000
20
585.807000
11
314.261000
21
585.770000
0
LINE
8
Layer 1
10
314.261000
20
585.770000
11
314.248000
21
585.710000
0
LINE
8
Layer 1
10
314.248000
20
585.710000
11
314.221000
21
585.614000
0
LINE
8
Layer 1
10
314.221000
20
585.614000
11
314.187000
21
585.520000
0
LINE
8
Layer 1
10
314.187000
20
585.520000
11
314.149000
21
585.428000
0
LINE
8
Layer 1
10
314.149000
20
585.428000
11
314.105000
21
585.338000
0
LINE
8
Layer 1
10
314.105000
20
585.338000
11
314.056000
21
585.251000
0
LINE
8
Layer 1
10
314.056000
20
585.251000
11
314.021000
21
585.196000
0
LINE
8
Layer 1
10
314.021000
20
585.196000
11
314.002000
21
585.167000
0
LINE
8
Layer 1
10
314.002000
20
585.167000
11
313.943000
21
585.086000
0
LINE
8
Layer 1
10
313.943000
20
585.086000
11
313.879000
21
585.009000
0
LINE
8
Layer 1
10
313.879000
20
585.009000
11
313.811000
21
584.936000
0
LINE
8
Layer 1
10
313.811000
20
584.936000
11
313.739000
21
584.867000
0
LINE
8
Layer 1
10
313.739000
20
584.867000
11
313.663000
21
584.802000
0
LINE
8
Layer 1
10
313.663000
20
584.802000
11
313.597000
21
584.752000
0
LINE
8
Layer 1
10
313.597000
20
584.752000
11
313.584000
21
584.742000
0
LINE
8
Layer 1
10
313.584000
20
584.742000
11
313.544000
21
584.716000
0
LINE
8
Layer 1
10
313.544000
20
584.716000
11
313.500000
21
584.687000
0
LINE
8
Layer 1
10
313.500000
20
584.687000
11
313.414000
21
584.637000
0
LINE
8
Layer 1
10
313.414000
20
584.637000
11
313.325000
21
584.591000
0
LINE
8
Layer 1
10
313.325000
20
584.591000
11
313.307000
21
584.584000
0
LINE
8
Layer 1
10
313.307000
20
584.584000
11
313.233000
21
584.552000
0
LINE
8
Layer 1
10
313.233000
20
584.552000
11
313.140000
21
584.517000
0
LINE
8
Layer 1
10
313.140000
20
584.517000
11
313.044000
21
584.488000
0
LINE
8
Layer 1
10
313.044000
20
584.488000
11
312.947000
21
584.465000
0
LINE
8
Layer 1
10
312.947000
20
584.465000
11
312.849000
21
584.448000
0
LINE
8
Layer 1
10
312.849000
20
584.448000
11
312.750000
21
584.436000
0
LINE
8
Layer 1
10
312.750000
20
584.436000
11
312.650000
21
584.430000
0
LINE
8
Layer 1
10
312.650000
20
584.430000
11
312.550000
21
584.430000
0
LINE
8
Layer 1
10
312.550000
20
571.300000
11
312.450000
21
571.306000
0
LINE
8
Layer 1
10
312.450000
20
571.306000
11
312.351000
21
571.318000
0
LINE
8
Layer 1
10
312.351000
20
571.318000
11
312.253000
21
571.335000
0
LINE
8
Layer 1
10
312.253000
20
571.335000
11
312.180000
21
571.353000
0
LINE
8
Layer 1
10
312.180000
20
571.353000
11
312.156000
21
571.358000
0
LINE
8
Layer 1
10
312.156000
20
571.358000
11
312.060000
21
571.387000
0
LINE
8
Layer 1
10
312.060000
20
571.387000
11
312.004000
21
571.408000
0
LINE
8
Layer 1
10
312.004000
20
571.408000
11
311.967000
21
571.422000
0
LINE
8
Layer 1
10
311.967000
20
571.422000
11
311.875000
21
571.462000
0
LINE
8
Layer 1
10
311.875000
20
571.462000
11
311.786000
21
571.507000
0
LINE
8
Layer 1
10
311.786000
20
571.507000
11
311.699000
21
571.557000
0
LINE
8
Layer 1
10
311.699000
20
571.557000
11
311.617000
21
571.612000
0
LINE
8
Layer 1
10
311.617000
20
571.612000
11
311.537000
21
571.673000
0
LINE
8
Layer 1
10
311.537000
20
571.673000
11
311.528000
21
571.680000
0
LINE
8
Layer 1
10
311.528000
20
571.680000
11
311.461000
21
571.737000
0
LINE
8
Layer 1
10
311.461000
20
571.737000
11
311.457000
21
571.741000
0
LINE
8
Layer 1
10
311.457000
20
571.741000
11
311.389000
21
571.806000
0
LINE
8
Layer 1
10
311.389000
20
571.806000
11
311.321000
21
571.879000
0
LINE
8
Layer 1
10
311.321000
20
571.879000
11
311.257000
21
571.957000
0
LINE
8
Layer 1
10
311.257000
20
571.957000
11
311.217000
21
572.012000
0
LINE
8
Layer 1
10
311.217000
20
572.012000
11
311.198000
21
572.037000
0
LINE
8
Layer 1
10
311.198000
20
572.037000
11
311.144000
21
572.121000
0
LINE
8
Layer 1
10
311.144000
20
572.121000
11
311.095000
21
572.208000
0
LINE
8
Layer 1
10
311.095000
20
572.208000
11
311.051000
21
572.298000
0
LINE
8
Layer 1
10
311.051000
20
572.298000
11
311.013000
21
572.390000
0
LINE
8
Layer 1
10
311.013000
20
572.390000
11
310.979000
21
572.484000
0
LINE
8
Layer 1
10
310.979000
20
572.484000
11
310.952000
21
572.580000
0
LINE
8
Layer 1
10
310.952000
20
572.580000
11
310.930000
21
572.677000
0
LINE
8
Layer 1
10
310.930000
20
572.677000
11
310.914000
21
572.776000
0
LINE
8
Layer 1
10
310.914000
20
572.776000
11
310.904000
21
572.875000
0
LINE
8
Layer 1
10
310.904000
20
572.875000
11
310.901000
21
572.949000
0
LINE
8
Layer 1
10
310.901000
20
572.949000
11
310.899000
21
572.975000
0
LINE
8
Layer 1
10
310.899000
20
572.975000
11
310.901000
21
573.075000
0
LINE
8
Layer 1
10
310.901000
20
573.075000
11
310.908000
21
573.174000
0
LINE
8
Layer 1
10
310.908000
20
573.174000
11
310.921000
21
573.274000
0
LINE
8
Layer 1
10
310.921000
20
573.274000
11
310.927000
21
573.301000
0
LINE
8
Layer 1
10
310.927000
20
573.301000
11
310.940000
21
573.371000
0
LINE
8
Layer 1
10
310.940000
20
573.371000
11
310.965000
21
573.468000
0
LINE
8
Layer 1
10
310.965000
20
573.468000
11
310.995000
21
573.563000
0
LINE
8
Layer 1
10
310.995000
20
573.563000
11
311.031000
21
573.657000
0
LINE
8
Layer 1
10
311.031000
20
573.657000
11
311.073000
21
573.748000
0
LINE
8
Layer 1
10
311.073000
20
573.748000
11
311.091000
21
573.782000
0
LINE
8
Layer 1
10
311.091000
20
573.782000
11
311.119000
21
573.836000
0
LINE
8
Layer 1
10
311.119000
20
573.836000
11
311.171000
21
573.921000
0
LINE
8
Layer 1
10
311.171000
20
573.921000
11
311.227000
21
574.004000
0
LINE
8
Layer 1
10
311.227000
20
574.004000
11
311.288000
21
574.083000
0
LINE
8
Layer 1
10
311.288000
20
574.083000
11
311.325000
21
574.124000
0
LINE
8
Layer 1
10
311.325000
20
574.124000
11
311.354000
21
574.158000
0
LINE
8
Layer 1
10
311.354000
20
574.158000
11
311.397000
21
574.201000
0
LINE
8
Layer 1
10
311.397000
20
574.201000
11
311.424000
21
574.229000
0
LINE
8
Layer 1
10
311.424000
20
574.229000
11
311.499000
21
574.296000
0
LINE
8
Layer 1
10
311.499000
20
574.296000
11
311.576000
21
574.358000
0
LINE
8
Layer 1
10
311.576000
20
574.358000
11
311.658000
21
574.416000
0
LINE
8
Layer 1
10
311.658000
20
574.416000
11
311.742000
21
574.469000
0
LINE
8
Layer 1
10
311.742000
20
574.469000
11
311.830000
21
574.516000
0
LINE
8
Layer 1
10
311.830000
20
574.516000
11
311.921000
21
574.559000
0
LINE
8
Layer 1
10
311.921000
20
574.559000
11
312.013000
21
574.596000
0
LINE
8
Layer 1
10
312.013000
20
574.596000
11
312.108000
21
574.628000
0
LINE
8
Layer 1
10
312.108000
20
574.628000
11
312.204000
21
574.654000
0
LINE
8
Layer 1
10
312.204000
20
574.654000
11
312.229000
21
574.659000
0
LINE
8
Layer 1
10
312.229000
20
574.659000
11
312.302000
21
574.674000
0
LINE
8
Layer 1
10
312.302000
20
574.674000
11
312.376000
21
574.685000
0
LINE
8
Layer 1
10
312.376000
20
574.685000
11
312.401000
21
574.689000
0
LINE
8
Layer 1
10
312.401000
20
574.689000
11
312.500000
21
574.698000
0
LINE
8
Layer 1
10
312.500000
20
574.698000
11
312.600000
21
574.701000
0
LINE
8
Layer 1
10
312.600000
20
574.701000
11
312.700000
21
574.698000
0
LINE
8
Layer 1
10
312.700000
20
574.698000
11
312.800000
21
574.689000
0
LINE
8
Layer 1
10
312.800000
20
574.689000
11
312.813000
21
574.687000
0
LINE
8
Layer 1
10
312.813000
20
574.687000
11
312.898000
21
574.674000
0
LINE
8
Layer 1
10
312.898000
20
574.674000
11
312.940000
21
574.666000
0
LINE
8
Layer 1
10
312.940000
20
574.666000
11
312.996000
21
574.654000
0
LINE
8
Layer 1
10
312.996000
20
574.654000
11
313.092000
21
574.628000
0
LINE
8
Layer 1
10
313.092000
20
574.628000
11
313.187000
21
574.596000
0
LINE
8
Layer 1
10
313.187000
20
574.596000
11
313.217000
21
574.584000
0
LINE
8
Layer 1
10
313.217000
20
574.584000
11
313.280000
21
574.559000
0
LINE
8
Layer 1
10
313.280000
20
574.559000
11
313.289000
21
574.555000
0
LINE
8
Layer 1
10
313.289000
20
574.555000
11
313.370000
21
574.516000
0
LINE
8
Layer 1
10
313.370000
20
574.516000
11
313.387000
21
574.507000
0
LINE
8
Layer 1
10
313.387000
20
574.507000
11
313.458000
21
574.469000
0
LINE
8
Layer 1
10
313.458000
20
574.469000
11
313.542000
21
574.416000
0
LINE
8
Layer 1
10
313.542000
20
574.416000
11
313.624000
21
574.358000
0
LINE
8
Layer 1
10
313.624000
20
574.358000
11
313.636000
21
574.349000
0
LINE
8
Layer 1
10
313.636000
20
574.349000
11
313.702000
21
574.295000
0
LINE
8
Layer 1
10
313.702000
20
574.295000
11
313.776000
21
574.229000
0
LINE
8
Layer 1
10
313.776000
20
574.229000
11
313.846000
21
574.157000
0
LINE
8
Layer 1
10
313.846000
20
574.157000
11
313.912000
21
574.083000
0
LINE
8
Layer 1
10
313.912000
20
574.083000
11
313.973000
21
574.003000
0
LINE
8
Layer 1
10
313.973000
20
574.003000
11
314.029000
21
573.921000
0
LINE
8
Layer 1
10
314.029000
20
573.921000
11
314.081000
21
573.836000
0
LINE
8
Layer 1
10
314.081000
20
573.836000
11
314.128000
21
573.747000
0
LINE
8
Layer 1
10
314.128000
20
573.747000
11
314.169000
21
573.657000
0
LINE
8
Layer 1
10
314.169000
20
573.657000
11
314.205000
21
573.563000
0
LINE
8
Layer 1
10
314.205000
20
573.563000
11
314.235000
21
573.468000
0
LINE
8
Layer 1
10
314.235000
20
573.468000
11
314.260000
21
573.372000
0
LINE
8
Layer 1
10
314.260000
20
573.372000
11
314.279000
21
573.273000
0
LINE
8
Layer 1
10
314.279000
20
573.273000
11
314.291000
21
573.179000
0
LINE
8
Layer 1
10
314.291000
20
573.179000
11
314.299000
21
573.075000
0
LINE
8
Layer 1
10
314.299000
20
573.075000
11
314.301000
21
572.975000
0
LINE
8
Layer 1
10
314.301000
20
572.975000
11
314.296000
21
572.875000
0
LINE
8
Layer 1
10
314.296000
20
572.875000
11
314.286000
21
572.776000
0
LINE
8
Layer 1
10
314.286000
20
572.776000
11
314.270000
21
572.677000
0
LINE
8
Layer 1
10
314.270000
20
572.677000
11
314.261000
21
572.640000
0
LINE
8
Layer 1
10
314.261000
20
572.640000
11
314.248000
21
572.580000
0
LINE
8
Layer 1
10
314.248000
20
572.580000
11
314.221000
21
572.484000
0
LINE
8
Layer 1
10
314.221000
20
572.484000
11
314.187000
21
572.390000
0
LINE
8
Layer 1
10
314.187000
20
572.390000
11
314.149000
21
572.298000
0
LINE
8
Layer 1
10
314.149000
20
572.298000
11
314.105000
21
572.208000
0
LINE
8
Layer 1
10
314.105000
20
572.208000
11
314.056000
21
572.121000
0
LINE
8
Layer 1
10
314.056000
20
572.121000
11
314.021000
21
572.066000
0
LINE
8
Layer 1
10
314.021000
20
572.066000
11
314.002000
21
572.037000
0
LINE
8
Layer 1
10
314.002000
20
572.037000
11
313.943000
21
571.956000
0
LINE
8
Layer 1
10
313.943000
20
571.956000
11
313.879000
21
571.880000
0
LINE
8
Layer 1
10
313.879000
20
571.880000
11
313.811000
21
571.806000
0
LINE
8
Layer 1
10
313.811000
20
571.806000
11
313.739000
21
571.737000
0
LINE
8
Layer 1
10
313.739000
20
571.737000
11
313.663000
21
571.672000
0
LINE
8
Layer 1
10
313.663000
20
571.672000
11
313.597000
21
571.622000
0
LINE
8
Layer 1
10
313.597000
20
571.622000
11
313.584000
21
571.612000
0
LINE
8
Layer 1
10
313.584000
20
571.612000
11
313.544000
21
571.586000
0
LINE
8
Layer 1
10
313.544000
20
571.586000
11
313.500000
21
571.557000
0
LINE
8
Layer 1
10
313.500000
20
571.557000
11
313.414000
21
571.507000
0
LINE
8
Layer 1
10
313.414000
20
571.507000
11
313.325000
21
571.462000
0
LINE
8
Layer 1
10
313.325000
20
571.462000
11
313.233000
21
571.422000
0
LINE
8
Layer 1
10
313.233000
20
571.422000
11
313.140000
21
571.387000
0
LINE
8
Layer 1
10
313.140000
20
571.387000
11
313.044000
21
571.358000
0
LINE
8
Layer 1
10
313.044000
20
571.358000
11
312.947000
21
571.335000
0
LINE
8
Layer 1
10
312.947000
20
571.335000
11
312.849000
21
571.318000
0
LINE
8
Layer 1
10
312.849000
20
571.318000
11
312.750000
21
571.306000
0
LINE
8
Layer 1
10
312.750000
20
571.306000
11
312.650000
21
571.300000
0
LINE
8
Layer 1
10
312.650000
20
571.300000
11
312.550000
21
571.300000
0
LINE
8
Layer 1
10
312.550000
20
558.170000
11
312.450000
21
558.176000
0
LINE
8
Layer 1
10
312.450000
20
558.176000
11
312.351000
21
558.188000
0
LINE
8
Layer 1
10
312.351000
20
558.188000
11
312.253000
21
558.205000
0
LINE
8
Layer 1
10
312.253000
20
558.205000
11
312.180000
21
558.223000
0
LINE
8
Layer 1
10
312.180000
20
558.223000
11
312.156000
21
558.228000
0
LINE
8
Layer 1
10
312.156000
20
558.228000
11
312.060000
21
558.257000
0
LINE
8
Layer 1
10
312.060000
20
558.257000
11
312.004000
21
558.278000
0
LINE
8
Layer 1
10
312.004000
20
558.278000
11
311.967000
21
558.292000
0
LINE
8
Layer 1
10
311.967000
20
558.292000
11
311.875000
21
558.332000
0
LINE
8
Layer 1
10
311.875000
20
558.332000
11
311.786000
21
558.377000
0
LINE
8
Layer 1
10
311.786000
20
558.377000
11
311.770000
21
558.386000
0
LINE
8
Layer 1
10
311.770000
20
558.386000
11
311.699000
21
558.427000
0
LINE
8
Layer 1
10
311.699000
20
558.427000
11
311.616000
21
558.483000
0
LINE
8
Layer 1
10
311.616000
20
558.483000
11
311.604000
21
558.492000
0
LINE
8
Layer 1
10
311.604000
20
558.492000
11
311.537000
21
558.543000
0
LINE
8
Layer 1
10
311.537000
20
558.543000
11
311.461000
21
558.607000
0
LINE
8
Layer 1
10
311.461000
20
558.607000
11
311.389000
21
558.676000
0
LINE
8
Layer 1
10
311.389000
20
558.676000
11
311.321000
21
558.749000
0
LINE
8
Layer 1
10
311.321000
20
558.749000
11
311.257000
21
558.827000
0
LINE
8
Layer 1
10
311.257000
20
558.827000
11
311.217000
21
558.882000
0
LINE
8
Layer 1
10
311.217000
20
558.882000
11
311.198000
21
558.907000
0
LINE
8
Layer 1
10
311.198000
20
558.907000
11
311.144000
21
558.991000
0
LINE
8
Layer 1
10
311.144000
20
558.991000
11
311.095000
21
559.078000
0
LINE
8
Layer 1
10
311.095000
20
559.078000
11
311.051000
21
559.168000
0
LINE
8
Layer 1
10
311.051000
20
559.168000
11
311.013000
21
559.260000
0
LINE
8
Layer 1
10
311.013000
20
559.260000
11
310.979000
21
559.354000
0
LINE
8
Layer 1
10
310.979000
20
559.354000
11
310.952000
21
559.450000
0
LINE
8
Layer 1
10
310.952000
20
559.450000
11
310.930000
21
559.547000
0
LINE
8
Layer 1
10
310.930000
20
559.547000
11
310.914000
21
559.646000
0
LINE
8
Layer 1
10
310.914000
20
559.646000
11
310.904000
21
559.745000
0
LINE
8
Layer 1
10
310.904000
20
559.745000
11
310.901000
21
559.819000
0
LINE
8
Layer 1
10
310.901000
20
559.819000
11
310.899000
21
559.845000
0
LINE
8
Layer 1
10
310.899000
20
559.845000
11
310.901000
21
559.945000
0
LINE
8
Layer 1
10
310.901000
20
559.945000
11
310.908000
21
560.044000
0
LINE
8
Layer 1
10
310.908000
20
560.044000
11
310.921000
21
560.144000
0
LINE
8
Layer 1
10
310.921000
20
560.144000
11
310.927000
21
560.171000
0
LINE
8
Layer 1
10
310.927000
20
560.171000
11
310.940000
21
560.241000
0
LINE
8
Layer 1
10
310.940000
20
560.241000
11
310.965000
21
560.338000
0
LINE
8
Layer 1
10
310.965000
20
560.338000
11
310.995000
21
560.433000
0
LINE
8
Layer 1
10
310.995000
20
560.433000
11
311.031000
21
560.527000
0
LINE
8
Layer 1
10
311.031000
20
560.527000
11
311.073000
21
560.618000
0
LINE
8
Layer 1
10
311.073000
20
560.618000
11
311.091000
21
560.652000
0
LINE
8
Layer 1
10
311.091000
20
560.652000
11
311.119000
21
560.706000
0
LINE
8
Layer 1
10
311.119000
20
560.706000
11
311.171000
21
560.791000
0
LINE
8
Layer 1
10
311.171000
20
560.791000
11
311.227000
21
560.874000
0
LINE
8
Layer 1
10
311.227000
20
560.874000
11
311.288000
21
560.953000
0
LINE
8
Layer 1
10
311.288000
20
560.953000
11
311.325000
21
560.994000
0
LINE
8
Layer 1
10
311.325000
20
560.994000
11
311.354000
21
561.028000
0
LINE
8
Layer 1
10
311.354000
20
561.028000
11
311.397000
21
561.071000
0
LINE
8
Layer 1
10
311.397000
20
561.071000
11
311.424000
21
561.099000
0
LINE
8
Layer 1
10
311.424000
20
561.099000
11
311.499000
21
561.166000
0
LINE
8
Layer 1
10
311.499000
20
561.166000
11
311.576000
21
561.228000
0
LINE
8
Layer 1
10
311.576000
20
561.228000
11
311.658000
21
561.286000
0
LINE
8
Layer 1
10
311.658000
20
561.286000
11
311.742000
21
561.339000
0
LINE
8
Layer 1
10
311.742000
20
561.339000
11
311.830000
21
561.386000
0
LINE
8
Layer 1
10
311.830000
20
561.386000
11
311.921000
21
561.429000
0
LINE
8
Layer 1
10
311.921000
20
561.429000
11
312.013000
21
561.466000
0
LINE
8
Layer 1
10
312.013000
20
561.466000
11
312.108000
21
561.498000
0
LINE
8
Layer 1
10
312.108000
20
561.498000
11
312.204000
21
561.524000
0
LINE
8
Layer 1
10
312.204000
20
561.524000
11
312.302000
21
561.544000
0
LINE
8
Layer 1
10
312.302000
20
561.544000
11
312.401000
21
561.559000
0
LINE
8
Layer 1
10
312.401000
20
561.559000
11
312.500000
21
561.568000
0
LINE
8
Layer 1
10
312.500000
20
561.568000
11
312.600000
21
561.571000
0
LINE
8
Layer 1
10
312.600000
20
561.571000
11
312.600000
21
561.571000
0
LINE
8
Layer 1
10
312.600000
20
561.571000
11
312.700000
21
561.568000
0
LINE
8
Layer 1
10
312.700000
20
561.568000
11
312.768000
21
561.562000
0
LINE
8
Layer 1
10
312.768000
20
561.562000
11
312.799000
21
561.559000
0
LINE
8
Layer 1
10
312.799000
20
561.559000
11
312.898000
21
561.544000
0
LINE
8
Layer 1
10
312.898000
20
561.544000
11
312.996000
21
561.524000
0
LINE
8
Layer 1
10
312.996000
20
561.524000
11
313.092000
21
561.498000
0
LINE
8
Layer 1
10
313.092000
20
561.498000
11
313.187000
21
561.466000
0
LINE
8
Layer 1
10
313.187000
20
561.466000
11
313.280000
21
561.429000
0
LINE
8
Layer 1
10
313.280000
20
561.429000
11
313.370000
21
561.386000
0
LINE
8
Layer 1
10
313.370000
20
561.386000
11
313.386000
21
561.377000
0
LINE
8
Layer 1
10
313.386000
20
561.377000
11
313.458000
21
561.339000
0
LINE
8
Layer 1
10
313.458000
20
561.339000
11
313.542000
21
561.286000
0
LINE
8
Layer 1
10
313.542000
20
561.286000
11
313.624000
21
561.228000
0
LINE
8
Layer 1
10
313.624000
20
561.228000
11
313.636000
21
561.219000
0
LINE
8
Layer 1
10
313.636000
20
561.219000
11
313.702000
21
561.165000
0
LINE
8
Layer 1
10
313.702000
20
561.165000
11
313.776000
21
561.099000
0
LINE
8
Layer 1
10
313.776000
20
561.099000
11
313.846000
21
561.027000
0
LINE
8
Layer 1
10
313.846000
20
561.027000
11
313.912000
21
560.953000
0
LINE
8
Layer 1
10
313.912000
20
560.953000
11
313.973000
21
560.873000
0
LINE
8
Layer 1
10
313.973000
20
560.873000
11
314.029000
21
560.791000
0
LINE
8
Layer 1
10
314.029000
20
560.791000
11
314.081000
21
560.706000
0
LINE
8
Layer 1
10
314.081000
20
560.706000
11
314.128000
21
560.617000
0
LINE
8
Layer 1
10
314.128000
20
560.617000
11
314.169000
21
560.527000
0
LINE
8
Layer 1
10
314.169000
20
560.527000
11
314.205000
21
560.433000
0
LINE
8
Layer 1
10
314.205000
20
560.433000
11
314.235000
21
560.338000
0
LINE
8
Layer 1
10
314.235000
20
560.338000
11
314.260000
21
560.242000
0
LINE
8
Layer 1
10
314.260000
20
560.242000
11
314.279000
21
560.143000
0
LINE
8
Layer 1
10
314.279000
20
560.143000
11
314.289000
21
560.067000
0
LINE
8
Layer 1
10
314.289000
20
560.067000
11
314.299000
21
559.945000
0
LINE
8
Layer 1
10
314.299000
20
559.945000
11
314.301000
21
559.845000
0
LINE
8
Layer 1
10
314.301000
20
559.845000
11
314.296000
21
559.745000
0
LINE
8
Layer 1
10
314.296000
20
559.745000
11
314.286000
21
559.646000
0
LINE
8
Layer 1
10
314.286000
20
559.646000
11
314.270000
21
559.547000
0
LINE
8
Layer 1
10
314.270000
20
559.547000
11
314.261000
21
559.510000
0
LINE
8
Layer 1
10
314.261000
20
559.510000
11
314.248000
21
559.450000
0
LINE
8
Layer 1
10
314.248000
20
559.450000
11
314.221000
21
559.354000
0
LINE
8
Layer 1
10
314.221000
20
559.354000
11
314.187000
21
559.260000
0
LINE
8
Layer 1
10
314.187000
20
559.260000
11
314.149000
21
559.168000
0
LINE
8
Layer 1
10
314.149000
20
559.168000
11
314.105000
21
559.078000
0
LINE
8
Layer 1
10
314.105000
20
559.078000
11
314.056000
21
558.991000
0
LINE
8
Layer 1
10
314.056000
20
558.991000
11
314.021000
21
558.936000
0
LINE
8
Layer 1
10
314.021000
20
558.936000
11
314.002000
21
558.907000
0
LINE
8
Layer 1
10
314.002000
20
558.907000
11
313.943000
21
558.826000
0
LINE
8
Layer 1
10
313.943000
20
558.826000
11
313.879000
21
558.749000
0
LINE
8
Layer 1
10
313.879000
20
558.749000
11
313.811000
21
558.676000
0
LINE
8
Layer 1
10
313.811000
20
558.676000
11
313.739000
21
558.607000
0
LINE
8
Layer 1
10
313.739000
20
558.607000
11
313.663000
21
558.542000
0
LINE
8
Layer 1
10
313.663000
20
558.542000
11
313.597000
21
558.493000
0
LINE
8
Layer 1
10
313.597000
20
558.493000
11
313.584000
21
558.482000
0
LINE
8
Layer 1
10
313.584000
20
558.482000
11
313.500000
21
558.427000
0
LINE
8
Layer 1
10
313.500000
20
558.427000
11
313.414000
21
558.377000
0
LINE
8
Layer 1
10
313.414000
20
558.377000
11
313.325000
21
558.331000
0
LINE
8
Layer 1
10
313.325000
20
558.331000
11
313.234000
21
558.292000
0
LINE
8
Layer 1
10
313.234000
20
558.292000
11
313.140000
21
558.257000
0
LINE
8
Layer 1
10
313.140000
20
558.257000
11
313.126000
21
558.253000
0
LINE
8
Layer 1
10
313.126000
20
558.253000
11
313.044000
21
558.228000
0
LINE
8
Layer 1
10
313.044000
20
558.228000
11
312.947000
21
558.205000
0
LINE
8
Layer 1
10
312.947000
20
558.205000
11
312.849000
21
558.188000
0
LINE
8
Layer 1
10
312.849000
20
558.188000
11
312.750000
21
558.176000
0
LINE
8
Layer 1
10
312.750000
20
558.176000
11
312.650000
21
558.170000
0
LINE
8
Layer 1
10
312.650000
20
558.170000
11
312.550000
21
558.170000
0
LINE
8
Layer 1
10
12.900600
20
552.252000
11
12.801100
21
552.258000
0
LINE
8
Layer 1
10
12.801100
20
552.258000
11
12.702000
21
552.269000
0
LINE
8
Layer 1
10
12.702000
20
552.269000
11
12.603900
21
552.285000
0
LINE
8
Layer 1
10
12.603900
20
552.285000
11
12.506000
21
552.304000
0
LINE
8
Layer 1
10
12.506000
20
552.304000
11
12.470200
21
552.313000
0
LINE
8
Layer 1
10
12.470200
20
552.313000
11
12.409400
21
552.328000
0
LINE
8
Layer 1
10
12.409400
20
552.328000
11
12.357900
21
552.344000
0
LINE
8
Layer 1
10
12.357900
20
552.344000
11
12.314000
21
552.357000
0
LINE
8
Layer 1
10
12.314000
20
552.357000
11
12.220000
21
552.389000
0
LINE
8
Layer 1
10
12.220000
20
552.389000
11
12.127300
21
552.426000
0
LINE
8
Layer 1
10
12.127300
20
552.426000
11
12.036100
21
552.466000
0
LINE
8
Layer 1
10
12.036100
20
552.466000
11
11.947400
21
552.511000
0
LINE
8
Layer 1
10
11.947400
20
552.511000
11
11.860100
21
552.559000
0
LINE
8
Layer 1
10
11.860100
20
552.559000
11
11.775700
21
552.612000
0
LINE
8
Layer 1
10
11.775700
20
552.612000
11
11.693000
21
552.668000
0
LINE
8
Layer 1
10
11.693000
20
552.668000
11
11.613400
21
552.727000
0
LINE
8
Layer 1
10
11.613400
20
552.727000
11
11.564500
21
552.767000
0
LINE
8
Layer 1
10
11.564500
20
552.767000
11
11.536500
21
552.790000
0
LINE
8
Layer 1
10
11.536500
20
552.790000
11
11.462100
21
552.857000
0
LINE
8
Layer 1
10
11.462100
20
552.857000
11
11.391200
21
552.926000
0
LINE
8
Layer 1
10
11.391200
20
552.926000
11
11.323100
21
552.999000
0
LINE
8
Layer 1
10
11.323100
20
552.999000
11
11.258300
21
553.075000
0
LINE
8
Layer 1
10
11.258300
20
553.075000
11
11.196800
21
553.153000
0
LINE
8
Layer 1
10
11.196800
20
553.153000
11
11.139200
21
553.234000
0
LINE
8
Layer 1
10
11.139200
20
553.234000
11
11.084800
21
553.318000
0
LINE
8
Layer 1
10
11.084800
20
553.318000
11
11.034400
21
553.404000
0
LINE
8
Layer 1
10
11.034400
20
553.404000
11
11.010700
21
553.449000
0
LINE
8
Layer 1
10
11.010700
20
553.449000
11
10.988000
21
553.492000
0
LINE
8
Layer 1
10
10.988000
20
553.492000
11
10.945200
21
553.582000
0
LINE
8
Layer 1
10
10.945200
20
553.582000
11
10.906800
21
553.673000
0
LINE
8
Layer 1
10
10.906800
20
553.673000
11
10.872200
21
553.767000
0
LINE
8
Layer 1
10
10.872200
20
553.767000
11
10.841800
21
553.862000
0
LINE
8
Layer 1
10
10.841800
20
553.862000
11
10.815800
21
553.958000
0
LINE
8
Layer 1
10
10.815800
20
553.958000
11
10.793900
21
554.055000
0
LINE
8
Layer 1
10
10.793900
20
554.055000
11
10.776400
21
554.153000
0
LINE
8
Layer 1
10
10.776400
20
554.153000
11
10.763200
21
554.252000
0
LINE
8
Layer 1
10
10.763200
20
554.252000
11
10.754400
21
554.351000
0
LINE
8
Layer 1
10
10.754400
20
554.351000
11
10.750000
21
554.451000
0
LINE
8
Layer 1
10
10.750000
20
554.451000
11
10.750000
21
554.550000
0
LINE
8
Layer 1
10
10.750000
20
554.550000
11
10.754400
21
554.649000
0
LINE
8
Layer 1
10
10.754400
20
554.649000
11
10.763300
21
554.749000
0
LINE
8
Layer 1
10
10.763300
20
554.749000
11
10.776400
21
554.847000
0
LINE
8
Layer 1
10
10.776400
20
554.847000
11
10.793900
21
554.945000
0
LINE
8
Layer 1
10
10.793900
20
554.945000
11
10.815900
21
555.043000
0
LINE
8
Layer 1
10
10.815900
20
555.043000
11
10.816900
21
555.047000
0
LINE
8
Layer 1
10
10.816900
20
555.047000
11
10.842000
21
555.139000
0
LINE
8
Layer 1
10
10.842000
20
555.139000
11
10.867000
21
555.217000
0
LINE
8
Layer 1
10
10.867000
20
555.217000
11
10.872200
21
555.233000
0
LINE
8
Layer 1
10
10.872200
20
555.233000
11
10.906800
21
555.327000
0
LINE
8
Layer 1
10
10.906800
20
555.327000
11
10.945500
21
555.419000
0
LINE
8
Layer 1
10
10.945500
20
555.419000
11
10.988000
21
555.508000
0
LINE
8
Layer 1
10
10.988000
20
555.508000
11
11.034600
21
555.596000
0
LINE
8
Layer 1
10
11.034600
20
555.596000
11
11.085200
21
555.683000
0
LINE
8
Layer 1
10
11.085200
20
555.683000
11
11.086200
21
555.684000
0
LINE
8
Layer 1
10
11.086200
20
555.684000
11
11.139100
21
555.766000
0
LINE
8
Layer 1
10
11.139100
20
555.766000
11
11.197200
21
555.847000
0
LINE
8
Layer 1
10
11.197200
20
555.847000
11
11.202900
21
555.854000
0
LINE
8
Layer 1
10
11.202900
20
555.854000
11
11.258500
21
555.926000
0
LINE
8
Layer 1
10
11.258500
20
555.926000
11
11.323000
21
556.001000
0
LINE
8
Layer 1
10
11.323000
20
556.001000
11
11.391300
21
556.074000
0
LINE
8
Layer 1
10
11.391300
20
556.074000
11
11.419100
21
556.101000
0
LINE
8
Layer 1
10
11.419100
20
556.101000
11
11.462300
21
556.143000
0
LINE
8
Layer 1
10
11.462300
20
556.143000
11
11.536500
21
556.210000
0
LINE
8
Layer 1
10
11.536500
20
556.210000
11
11.613700
21
556.273000
0
LINE
8
Layer 1
10
11.613700
20
556.273000
11
11.693200
21
556.332000
0
LINE
8
Layer 1
10
11.693200
20
556.332000
11
11.775900
21
556.389000
0
LINE
8
Layer 1
10
11.775900
20
556.389000
11
11.860300
21
556.441000
0
LINE
8
Layer 1
10
11.860300
20
556.441000
11
11.947600
21
556.489000
0
LINE
8
Layer 1
10
11.947600
20
556.489000
11
12.036400
21
556.534000
0
LINE
8
Layer 1
10
12.036400
20
556.534000
11
12.127600
21
556.575000
0
LINE
8
Layer 1
10
12.127600
20
556.575000
11
12.219800
21
556.611000
0
LINE
8
Layer 1
10
12.219800
20
556.611000
11
12.314000
21
556.643000
0
LINE
8
Layer 1
10
12.314000
20
556.643000
11
12.409500
21
556.672000
0
LINE
8
Layer 1
10
12.409500
20
556.672000
11
12.506500
21
556.696000
0
LINE
8
Layer 1
10
12.506500
20
556.696000
11
12.604100
21
556.715000
0
LINE
8
Layer 1
10
12.604100
20
556.715000
11
12.702100
21
556.731000
0
LINE
8
Layer 1
10
12.702100
20
556.731000
11
12.801300
21
556.742000
0
LINE
8
Layer 1
10
12.801300
20
556.742000
11
12.900300
21
556.748000
0
LINE
8
Layer 1
10
12.900300
20
556.748000
11
13.000300
21
556.751000
0
LINE
8
Layer 1
10
13.000300
20
556.751000
11
13.000300
21
556.751000
0
LINE
8
Layer 1
10
13.000300
20
556.751000
11
13.099400
21
556.748000
0
LINE
8
Layer 1
10
13.099400
20
556.748000
11
13.199200
21
556.742000
0
LINE
8
Layer 1
10
13.199200
20
556.742000
11
13.297800
21
556.731000
0
LINE
8
Layer 1
10
13.297800
20
556.731000
11
13.396400
21
556.715000
0
LINE
8
Layer 1
10
13.396400
20
556.715000
11
13.493700
21
556.696000
0
LINE
8
Layer 1
10
13.493700
20
556.696000
11
13.590500
21
556.672000
0
LINE
8
Layer 1
10
13.590500
20
556.672000
11
13.686200
21
556.643000
0
LINE
8
Layer 1
10
13.686200
20
556.643000
11
13.780000
21
556.611000
0
LINE
8
Layer 1
10
13.780000
20
556.611000
11
13.873000
21
556.574000
0
LINE
8
Layer 1
10
13.873000
20
556.574000
11
13.893100
21
556.565000
0
LINE
8
Layer 1
10
13.893100
20
556.565000
11
13.963800
21
556.534000
0
LINE
8
Layer 1
10
13.963800
20
556.534000
11
14.052600
21
556.489000
0
LINE
8
Layer 1
10
14.052600
20
556.489000
11
14.139900
21
556.441000
0
LINE
8
Layer 1
10
14.139900
20
556.441000
11
14.224300
21
556.388000
0
LINE
8
Layer 1
10
14.224300
20
556.388000
11
14.307000
21
556.332000
0
LINE
8
Layer 1
10
14.307000
20
556.332000
11
14.386400
21
556.273000
0
LINE
8
Layer 1
10
14.386400
20
556.273000
11
14.463700
21
556.210000
0
LINE
8
Layer 1
10
14.463700
20
556.210000
11
14.537600
21
556.143000
0
LINE
8
Layer 1
10
14.537600
20
556.143000
11
14.609100
21
556.073000
0
LINE
8
Layer 1
10
14.609100
20
556.073000
11
14.676900
21
556.001000
0
LINE
8
Layer 1
10
14.676900
20
556.001000
11
14.741900
21
555.925000
0
LINE
8
Layer 1
10
14.741900
20
555.925000
11
14.803000
21
555.847000
0
LINE
8
Layer 1
10
14.803000
20
555.847000
11
14.861000
21
555.766000
0
LINE
8
Layer 1
10
14.861000
20
555.766000
11
14.914900
21
555.682000
0
LINE
8
Layer 1
10
14.914900
20
555.682000
11
14.965600
21
555.596000
0
LINE
8
Layer 1
10
14.965600
20
555.596000
11
14.967300
21
555.593000
0
LINE
8
Layer 1
10
14.967300
20
555.593000
11
15.012100
21
555.508000
0
LINE
8
Layer 1
10
15.012100
20
555.508000
11
15.049200
21
555.430000
0
LINE
8
Layer 1
10
15.049200
20
555.430000
11
15.054600
21
555.418000
0
LINE
8
Layer 1
10
15.054600
20
555.418000
11
15.093300
21
555.326000
0
LINE
8
Layer 1
10
15.093300
20
555.326000
11
15.096500
21
555.318000
0
LINE
8
Layer 1
10
15.096500
20
555.318000
11
15.127800
21
555.233000
0
LINE
8
Layer 1
10
15.127800
20
555.233000
11
15.158100
21
555.139000
0
LINE
8
Layer 1
10
15.158100
20
555.139000
11
15.184200
21
555.042000
0
LINE
8
Layer 1
10
15.184200
20
555.042000
11
15.206100
21
554.945000
0
LINE
8
Layer 1
10
15.206100
20
554.945000
11
15.223600
21
554.847000
0
LINE
8
Layer 1
10
15.223600
20
554.847000
11
15.236800
21
554.748000
0
LINE
8
Layer 1
10
15.236800
20
554.748000
11
15.245600
21
554.649000
0
LINE
8
Layer 1
10
15.245600
20
554.649000
11
15.249500
21
554.562000
0
LINE
8
Layer 1
10
15.249500
20
554.562000
11
15.250000
21
554.550000
0
LINE
8
Layer 1
10
15.250000
20
554.550000
11
15.250000
21
554.450000
0
LINE
8
Layer 1
10
15.250000
20
554.450000
11
15.245600
21
554.350000
0
LINE
8
Layer 1
10
15.245600
20
554.350000
11
15.245200
21
554.347000
0
LINE
8
Layer 1
10
15.245200
20
554.347000
11
15.236800
21
554.251000
0
LINE
8
Layer 1
10
15.236800
20
554.251000
11
15.225900
21
554.170000
0
LINE
8
Layer 1
10
15.225900
20
554.170000
11
15.223600
21
554.153000
0
LINE
8
Layer 1
10
15.223600
20
554.153000
11
15.206100
21
554.055000
0
LINE
8
Layer 1
10
15.206100
20
554.055000
11
15.184100
21
553.957000
0
LINE
8
Layer 1
10
15.184100
20
553.957000
11
15.183100
21
553.953000
0
LINE
8
Layer 1
10
15.183100
20
553.953000
11
15.158000
21
553.861000
0
LINE
8
Layer 1
10
15.158000
20
553.861000
11
15.151400
21
553.841000
0
LINE
8
Layer 1
10
15.151400
20
553.841000
11
15.127700
21
553.766000
0
LINE
8
Layer 1
10
15.127700
20
553.766000
11
15.100000
21
553.692000
0
LINE
8
Layer 1
10
15.100000
20
553.692000
11
15.093300
21
553.673000
0
LINE
8
Layer 1
10
15.093300
20
553.673000
11
15.054500
21
553.581000
0
LINE
8
Layer 1
10
15.054500
20
553.581000
11
15.012000
21
553.492000
0
LINE
8
Layer 1
10
15.012000
20
553.492000
11
14.965400
21
553.404000
0
LINE
8
Layer 1
10
14.965400
20
553.404000
11
14.914800
21
553.317000
0
LINE
8
Layer 1
10
14.914800
20
553.317000
11
14.914700
21
553.317000
0
LINE
8
Layer 1
10
14.914700
20
553.317000
11
14.860600
21
553.234000
0
LINE
8
Layer 1
10
14.860600
20
553.234000
11
14.803100
21
553.153000
0
LINE
8
Layer 1
10
14.803100
20
553.153000
11
14.741400
21
553.074000
0
LINE
8
Layer 1
10
14.741400
20
553.074000
11
14.676900
21
552.999000
0
LINE
8
Layer 1
10
14.676900
20
552.999000
11
14.609000
21
552.926000
0
LINE
8
Layer 1
10
14.609000
20
552.926000
11
14.537700
21
552.857000
0
LINE
8
Layer 1
10
14.537700
20
552.857000
11
14.463200
21
552.790000
0
LINE
8
Layer 1
10
14.463200
20
552.790000
11
14.386500
21
552.727000
0
LINE
8
Layer 1
10
14.386500
20
552.727000
11
14.306400
21
552.667000
0
LINE
8
Layer 1
10
14.306400
20
552.667000
11
14.265800
21
552.640000
0
LINE
8
Layer 1
10
14.265800
20
552.640000
11
14.224400
21
552.612000
0
LINE
8
Layer 1
10
14.224400
20
552.612000
11
14.139300
21
552.559000
0
LINE
8
Layer 1
10
14.139300
20
552.559000
11
14.052500
21
552.511000
0
LINE
8
Layer 1
10
14.052500
20
552.511000
11
14.001100
21
552.485000
0
LINE
8
Layer 1
10
14.001100
20
552.485000
11
13.963600
21
552.466000
0
LINE
8
Layer 1
10
13.963600
20
552.466000
11
13.872400
21
552.425000
0
LINE
8
Layer 1
10
13.872400
20
552.425000
11
13.780200
21
552.389000
0
LINE
8
Layer 1
10
13.780200
20
552.389000
11
13.686000
21
552.357000
0
LINE
8
Layer 1
10
13.686000
20
552.357000
11
13.590500
21
552.328000
0
LINE
8
Layer 1
10
13.590500
20
552.328000
11
13.493500
21
552.304000
0
LINE
8
Layer 1
10
13.493500
20
552.304000
11
13.395900
21
552.285000
0
LINE
8
Layer 1
10
13.395900
20
552.285000
11
13.297900
21
552.269000
0
LINE
8
Layer 1
10
13.297900
20
552.269000
11
13.198700
21
552.258000
0
LINE
8
Layer 1
10
13.198700
20
552.258000
11
13.099700
21
552.252000
0
LINE
8
Layer 1
10
13.099700
20
552.252000
11
12.999700
21
552.249000
0
LINE
8
Layer 1
10
12.999700
20
552.249000
11
12.900600
21
552.252000
0
LINE
8
Layer 1
10
312.550000
20
432.560000
11
312.450000
21
432.565900
0
LINE
8
Layer 1
10
312.450000
20
432.565900
11
312.351000
21
432.577500
0
LINE
8
Layer 1
10
312.351000
20
432.577500
11
312.253000
21
432.595100
0
LINE
8
Layer 1
10
312.253000
20
432.595100
11
312.156000
21
432.618300
0
LINE
8
Layer 1
10
312.156000
20
432.618300
11
312.060000
21
432.647300
0
LINE
8
Layer 1
10
312.060000
20
432.647300
11
311.967000
21
432.681600
0
LINE
8
Layer 1
10
311.967000
20
432.681600
11
311.875000
21
432.721600
0
LINE
8
Layer 1
10
311.875000
20
432.721600
11
311.786000
21
432.766800
0
LINE
8
Layer 1
10
311.786000
20
432.766800
11
311.699000
21
432.817300
0
LINE
8
Layer 1
10
311.699000
20
432.817300
11
311.617000
21
432.872400
0
LINE
8
Layer 1
10
311.617000
20
432.872400
11
311.537000
21
432.932700
0
LINE
8
Layer 1
10
311.537000
20
432.932700
11
311.520000
21
432.946500
0
LINE
8
Layer 1
10
311.520000
20
432.946500
11
311.461000
21
432.997400
0
LINE
8
Layer 1
10
311.461000
20
432.997400
11
311.443000
21
433.014100
0
LINE
8
Layer 1
10
311.443000
20
433.014100
11
311.389000
21
433.066300
0
LINE
8
Layer 1
10
311.389000
20
433.066300
11
311.321000
21
433.139300
0
LINE
8
Layer 1
10
311.321000
20
433.139300
11
311.257000
21
433.216600
0
LINE
8
Layer 1
10
311.257000
20
433.216600
11
311.220000
21
433.267300
0
LINE
8
Layer 1
10
311.220000
20
433.267300
11
311.198000
21
433.297000
0
LINE
8
Layer 1
10
311.198000
20
433.297000
11
311.144000
21
433.381000
0
LINE
8
Layer 1
10
311.144000
20
433.381000
11
311.095000
21
433.467900
0
LINE
8
Layer 1
10
311.095000
20
433.467900
11
311.051000
21
433.557900
0
LINE
8
Layer 1
10
311.051000
20
433.557900
11
311.013000
21
433.649700
0
LINE
8
Layer 1
10
311.013000
20
433.649700
11
310.979000
21
433.743900
0
LINE
8
Layer 1
10
310.979000
20
433.743900
11
310.952000
21
433.840300
0
LINE
8
Layer 1
10
310.952000
20
433.840300
11
310.930000
21
433.937500
0
LINE
8
Layer 1
10
310.930000
20
433.937500
11
310.914000
21
434.035800
0
LINE
8
Layer 1
10
310.914000
20
434.035800
11
310.904000
21
434.135400
0
LINE
8
Layer 1
10
310.904000
20
434.135400
11
310.901000
21
434.210300
0
LINE
8
Layer 1
10
310.901000
20
434.210300
11
310.899000
21
434.235000
0
LINE
8
Layer 1
10
310.899000
20
434.235000
11
310.901000
21
434.335200
0
LINE
8
Layer 1
10
310.901000
20
434.335200
11
310.908000
21
434.434300
0
LINE
8
Layer 1
10
310.908000
20
434.434300
11
310.921000
21
434.533700
0
LINE
8
Layer 1
10
310.921000
20
434.533700
11
310.928000
21
434.568100
0
LINE
8
Layer 1
10
310.928000
20
434.568100
11
310.940000
21
434.631500
0
LINE
8
Layer 1
10
310.940000
20
434.631500
11
310.965000
21
434.728400
0
LINE
8
Layer 1
10
310.965000
20
434.728400
11
310.995000
21
434.823300
0
LINE
8
Layer 1
10
310.995000
20
434.823300
11
311.031000
21
434.916600
0
LINE
8
Layer 1
10
311.031000
20
434.916600
11
311.072000
21
435.007700
0
LINE
8
Layer 1
10
311.072000
20
435.007700
11
311.081000
21
435.024700
0
LINE
8
Layer 1
10
311.081000
20
435.024700
11
311.119000
21
435.096200
0
LINE
8
Layer 1
10
311.119000
20
435.096200
11
311.171000
21
435.181400
0
LINE
8
Layer 1
10
311.171000
20
435.181400
11
311.227000
21
435.263600
0
LINE
8
Layer 1
10
311.227000
20
435.263600
11
311.288000
21
435.342700
0
LINE
8
Layer 1
10
311.288000
20
435.342700
11
311.354000
21
435.417600
0
LINE
8
Layer 1
10
311.354000
20
435.417600
11
311.424000
21
435.488800
0
LINE
8
Layer 1
10
311.424000
20
435.488800
11
311.499000
21
435.555900
0
LINE
8
Layer 1
10
311.499000
20
435.555900
11
311.576000
21
435.618000
0
LINE
8
Layer 1
10
311.576000
20
435.618000
11
311.658000
21
435.675800
0
LINE
8
Layer 1
10
311.658000
20
435.675800
11
311.743000
21
435.728900
0
LINE
8
Layer 1
10
311.743000
20
435.728900
11
311.754000
21
435.735000
0
LINE
8
Layer 1
10
311.754000
20
435.735000
11
311.830000
21
435.776500
0
LINE
8
Layer 1
10
311.830000
20
435.776500
11
311.920000
21
435.819000
0
LINE
8
Layer 1
10
311.920000
20
435.819000
11
312.013000
21
435.856400
0
LINE
8
Layer 1
10
312.013000
20
435.856400
11
312.108000
21
435.887900
0
LINE
8
Layer 1
10
312.108000
20
435.887900
11
312.204000
21
435.914100
0
LINE
8
Layer 1
10
312.204000
20
435.914100
11
312.214000
21
435.916100
0
LINE
8
Layer 1
10
312.214000
20
435.916100
11
312.302000
21
435.934400
0
LINE
8
Layer 1
10
312.302000
20
435.934400
11
312.364000
21
435.943600
0
LINE
8
Layer 1
10
312.364000
20
435.943600
11
312.401000
21
435.949000
0
LINE
8
Layer 1
10
312.401000
20
435.949000
11
312.500000
21
435.957800
0
LINE
8
Layer 1
10
312.500000
20
435.957800
11
312.600000
21
435.960700
0
LINE
8
Layer 1
10
312.600000
20
435.960700
11
312.700000
21
435.957800
0
LINE
8
Layer 1
10
312.700000
20
435.957800
11
312.800000
21
435.949000
0
LINE
8
Layer 1
10
312.800000
20
435.949000
11
312.800000
21
435.948900
0
LINE
8
Layer 1
10
312.800000
20
435.948900
11
312.898000
21
435.934400
0
LINE
8
Layer 1
10
312.898000
20
435.934400
11
312.996000
21
435.914100
0
LINE
8
Layer 1
10
312.996000
20
435.914100
11
313.092000
21
435.888000
0
LINE
8
Layer 1
10
313.092000
20
435.888000
11
313.187000
21
435.856200
0
LINE
8
Layer 1
10
313.187000
20
435.856200
11
313.206000
21
435.848400
0
LINE
8
Layer 1
10
313.206000
20
435.848400
11
313.280000
21
435.819000
0
LINE
8
Layer 1
10
313.280000
20
435.819000
11
313.336000
21
435.792700
0
LINE
8
Layer 1
10
313.336000
20
435.792700
11
313.370000
21
435.776500
0
LINE
8
Layer 1
10
313.370000
20
435.776500
11
313.458000
21
435.728600
0
LINE
8
Layer 1
10
313.458000
20
435.728600
11
313.513000
21
435.694200
0
LINE
8
Layer 1
10
313.513000
20
435.694200
11
313.542000
21
435.675900
0
LINE
8
Layer 1
10
313.542000
20
435.675900
11
313.624000
21
435.617900
0
LINE
8
Layer 1
10
313.624000
20
435.617900
11
313.702000
21
435.555700
0
LINE
8
Layer 1
10
313.702000
20
435.555700
11
313.776000
21
435.488800
0
LINE
8
Layer 1
10
313.776000
20
435.488800
11
313.846000
21
435.417400
0
LINE
8
Layer 1
10
313.846000
20
435.417400
11
313.912000
21
435.342500
0
LINE
8
Layer 1
10
313.912000
20
435.342500
11
313.973000
21
435.263400
0
LINE
8
Layer 1
10
313.973000
20
435.263400
11
314.029000
21
435.181400
0
LINE
8
Layer 1
10
314.029000
20
435.181400
11
314.081000
21
435.095900
0
LINE
8
Layer 1
10
314.081000
20
435.095900
11
314.128000
21
435.007400
0
LINE
8
Layer 1
10
314.128000
20
435.007400
11
314.169000
21
434.916700
0
LINE
8
Layer 1
10
314.169000
20
434.916700
11
314.205000
21
434.823100
0
LINE
8
Layer 1
10
314.205000
20
434.823100
11
314.235000
21
434.728000
0
LINE
8
Layer 1
10
314.235000
20
434.728000
11
314.260000
21
434.631600
0
LINE
8
Layer 1
10
314.260000
20
434.631600
11
314.279000
21
434.533100
0
LINE
8
Layer 1
10
314.279000
20
434.533100
11
314.292000
21
434.434100
0
LINE
8
Layer 1
10
314.292000
20
434.434100
11
314.299000
21
434.334900
0
LINE
8
Layer 1
10
314.299000
20
434.334900
11
314.301000
21
434.235000
0
LINE
8
Layer 1
10
314.301000
20
434.235000
11
314.296000
21
434.135000
0
LINE
8
Layer 1
10
314.296000
20
434.135000
11
314.286000
21
434.036100
0
LINE
8
Layer 1
10
314.286000
20
434.036100
11
314.270000
21
433.937300
0
LINE
8
Layer 1
10
314.270000
20
433.937300
11
314.261000
21
433.897800
0
LINE
8
Layer 1
10
314.261000
20
433.897800
11
314.248000
21
433.839700
0
LINE
8
Layer 1
10
314.248000
20
433.839700
11
314.221000
21
433.744100
0
LINE
8
Layer 1
10
314.221000
20
433.744100
11
314.187000
21
433.649600
0
LINE
8
Layer 1
10
314.187000
20
433.649600
11
314.149000
21
433.557700
0
LINE
8
Layer 1
10
314.149000
20
433.557700
11
314.105000
21
433.467900
0
LINE
8
Layer 1
10
314.105000
20
433.467900
11
314.056000
21
433.380700
0
LINE
8
Layer 1
10
314.056000
20
433.380700
11
314.002000
21
433.297100
0
LINE
8
Layer 1
10
314.002000
20
433.297100
11
313.943000
21
433.216200
0
LINE
8
Layer 1
10
313.943000
20
433.216200
11
313.879000
21
433.139500
0
LINE
8
Layer 1
10
313.879000
20
433.139500
11
313.811000
21
433.066300
0
LINE
8
Layer 1
10
313.811000
20
433.066300
11
313.739000
21
432.997200
0
LINE
8
Layer 1
10
313.739000
20
432.997200
11
313.663000
21
432.932400
0
LINE
8
Layer 1
10
313.663000
20
432.932400
11
313.652000
21
432.923700
0
LINE
8
Layer 1
10
313.652000
20
432.923700
11
313.583000
21
432.872400
0
LINE
8
Layer 1
10
313.583000
20
432.872400
11
313.550000
21
432.850200
0
LINE
8
Layer 1
10
313.550000
20
432.850200
11
313.500000
21
432.817000
0
LINE
8
Layer 1
10
313.500000
20
432.817000
11
313.414000
21
432.766800
0
LINE
8
Layer 1
10
313.414000
20
432.766800
11
313.325000
21
432.721500
0
LINE
8
Layer 1
10
313.325000
20
432.721500
11
313.310000
21
432.715000
0
LINE
8
Layer 1
10
313.310000
20
432.715000
11
313.233000
21
432.681600
0
LINE
8
Layer 1
10
313.233000
20
432.681600
11
313.186000
21
432.664200
0
LINE
8
Layer 1
10
313.186000
20
432.664200
11
313.140000
21
432.647200
0
LINE
8
Layer 1
10
313.140000
20
432.647200
11
313.044000
21
432.618200
0
LINE
8
Layer 1
10
313.044000
20
432.618200
11
312.947000
21
432.595100
0
LINE
8
Layer 1
10
312.947000
20
432.595100
11
312.848000
21
432.577500
0
LINE
8
Layer 1
10
312.848000
20
432.577500
11
312.750000
21
432.565900
0
LINE
8
Layer 1
10
312.750000
20
432.565900
11
312.650000
21
432.560000
0
LINE
8
Layer 1
10
312.650000
20
432.560000
11
312.550000
21
432.560000
0
LINE
8
Layer 1
10
312.550000
20
419.430000
11
312.450000
21
419.435900
0
LINE
8
Layer 1
10
312.450000
20
419.435900
11
312.351000
21
419.447500
0
LINE
8
Layer 1
10
312.351000
20
419.447500
11
312.253000
21
419.465100
0
LINE
8
Layer 1
10
312.253000
20
419.465100
11
312.156000
21
419.488300
0
LINE
8
Layer 1
10
312.156000
20
419.488300
11
312.060000
21
419.517300
0
LINE
8
Layer 1
10
312.060000
20
419.517300
11
311.967000
21
419.551600
0
LINE
8
Layer 1
10
311.967000
20
419.551600
11
311.875000
21
419.591600
0
LINE
8
Layer 1
10
311.875000
20
419.591600
11
311.786000
21
419.636800
0
LINE
8
Layer 1
10
311.786000
20
419.636800
11
311.699000
21
419.687300
0
LINE
8
Layer 1
10
311.699000
20
419.687300
11
311.617000
21
419.742400
0
LINE
8
Layer 1
10
311.617000
20
419.742400
11
311.537000
21
419.802700
0
LINE
8
Layer 1
10
311.537000
20
419.802700
11
311.520000
21
419.817300
0
LINE
8
Layer 1
10
311.520000
20
419.817300
11
311.461000
21
419.867400
0
LINE
8
Layer 1
10
311.461000
20
419.867400
11
311.436000
21
419.891000
0
LINE
8
Layer 1
10
311.436000
20
419.891000
11
311.389000
21
419.936300
0
LINE
8
Layer 1
10
311.389000
20
419.936300
11
311.321000
21
420.009300
0
LINE
8
Layer 1
10
311.321000
20
420.009300
11
311.257000
21
420.086600
0
LINE
8
Layer 1
10
311.257000
20
420.086600
11
311.225000
21
420.130200
0
LINE
8
Layer 1
10
311.225000
20
420.130200
11
311.198000
21
420.167000
0
LINE
8
Layer 1
10
311.198000
20
420.167000
11
311.144000
21
420.251000
0
LINE
8
Layer 1
10
311.144000
20
420.251000
11
311.095000
21
420.337900
0
LINE
8
Layer 1
10
311.095000
20
420.337900
11
311.051000
21
420.427900
0
LINE
8
Layer 1
10
311.051000
20
420.427900
11
311.013000
21
420.519700
0
LINE
8
Layer 1
10
311.013000
20
420.519700
11
310.979000
21
420.614300
0
LINE
8
Layer 1
10
310.979000
20
420.614300
11
310.952000
21
420.710300
0
LINE
8
Layer 1
10
310.952000
20
420.710300
11
310.930000
21
420.807400
0
LINE
8
Layer 1
10
310.930000
20
420.807400
11
310.914000
21
420.905800
0
LINE
8
Layer 1
10
310.914000
20
420.905800
11
310.904000
21
421.005400
0
LINE
8
Layer 1
10
310.904000
20
421.005400
11
310.901000
21
421.080000
0
LINE
8
Layer 1
10
310.901000
20
421.080000
11
310.899000
21
421.105000
0
LINE
8
Layer 1
10
310.899000
20
421.105000
11
310.901000
21
421.205200
0
LINE
8
Layer 1
10
310.901000
20
421.205200
11
310.908000
21
421.304300
0
LINE
8
Layer 1
10
310.908000
20
421.304300
11
310.921000
21
421.403700
0
LINE
8
Layer 1
10
310.921000
20
421.403700
11
310.928000
21
421.437200
0
LINE
8
Layer 1
10
310.928000
20
421.437200
11
310.940000
21
421.501500
0
LINE
8
Layer 1
10
310.940000
20
421.501500
11
310.965000
21
421.598300
0
LINE
8
Layer 1
10
310.965000
20
421.598300
11
310.995000
21
421.693400
0
LINE
8
Layer 1
10
310.995000
20
421.693400
11
311.031000
21
421.786900
0
LINE
8
Layer 1
10
311.031000
20
421.786900
11
311.073000
21
421.877800
0
LINE
8
Layer 1
10
311.073000
20
421.877800
11
311.087000
21
421.905100
0
LINE
8
Layer 1
10
311.087000
20
421.905100
11
311.119000
21
421.965900
0
LINE
8
Layer 1
10
311.119000
20
421.965900
11
311.171000
21
422.051500
0
LINE
8
Layer 1
10
311.171000
20
422.051500
11
311.227000
21
422.133600
0
LINE
8
Layer 1
10
311.227000
20
422.133600
11
311.288000
21
422.212700
0
LINE
8
Layer 1
10
311.288000
20
422.212700
11
311.324000
21
422.253800
0
LINE
8
Layer 1
10
311.324000
20
422.253800
11
311.354000
21
422.287700
0
LINE
8
Layer 1
10
311.354000
20
422.287700
11
311.402000
21
422.336500
0
LINE
8
Layer 1
10
311.402000
20
422.336500
11
311.424000
21
422.358800
0
LINE
8
Layer 1
10
311.424000
20
422.358800
11
311.499000
21
422.425900
0
LINE
8
Layer 1
10
311.499000
20
422.425900
11
311.576000
21
422.488000
0
LINE
8
Layer 1
10
311.576000
20
422.488000
11
311.658000
21
422.546000
0
LINE
8
Layer 1
10
311.658000
20
422.546000
11
311.742000
21
422.598600
0
LINE
8
Layer 1
10
311.742000
20
422.598600
11
311.830000
21
422.646500
0
LINE
8
Layer 1
10
311.830000
20
422.646500
11
311.921000
21
422.689200
0
LINE
8
Layer 1
10
311.921000
20
422.689200
11
312.013000
21
422.726200
0
LINE
8
Layer 1
10
312.013000
20
422.726200
11
312.108000
21
422.758000
0
LINE
8
Layer 1
10
312.108000
20
422.758000
11
312.205000
21
422.784100
0
LINE
8
Layer 1
10
312.205000
20
422.784100
11
312.207000
21
422.784600
0
LINE
8
Layer 1
10
312.207000
20
422.784600
11
312.302000
21
422.804400
0
LINE
8
Layer 1
10
312.302000
20
422.804400
11
312.389000
21
422.817300
0
LINE
8
Layer 1
10
312.389000
20
422.817300
11
312.401000
21
422.819000
0
LINE
8
Layer 1
10
312.401000
20
422.819000
11
312.500000
21
422.827800
0
LINE
8
Layer 1
10
312.500000
20
422.827800
11
312.600000
21
422.830700
0
LINE
8
Layer 1
10
312.600000
20
422.830700
11
312.658000
21
422.829000
0
LINE
8
Layer 1
10
312.658000
20
422.829000
11
312.700000
21
422.827800
0
LINE
8
Layer 1
10
312.700000
20
422.827800
11
312.800000
21
422.819000
0
LINE
8
Layer 1
10
312.800000
20
422.819000
11
312.898000
21
422.804400
0
LINE
8
Layer 1
10
312.898000
20
422.804400
11
312.996000
21
422.784100
0
LINE
8
Layer 1
10
312.996000
20
422.784100
11
313.092000
21
422.758000
0
LINE
8
Layer 1
10
313.092000
20
422.758000
11
313.187000
21
422.726200
0
LINE
8
Layer 1
10
313.187000
20
422.726200
11
313.206000
21
422.718400
0
LINE
8
Layer 1
10
313.206000
20
422.718400
11
313.280000
21
422.689000
0
LINE
8
Layer 1
10
313.280000
20
422.689000
11
313.304000
21
422.677500
0
LINE
8
Layer 1
10
313.304000
20
422.677500
11
313.370000
21
422.646300
0
LINE
8
Layer 1
10
313.370000
20
422.646300
11
313.381000
21
422.640700
0
LINE
8
Layer 1
10
313.381000
20
422.640700
11
313.458000
21
422.598700
0
LINE
8
Layer 1
10
313.458000
20
422.598700
11
313.542000
21
422.545800
0
LINE
8
Layer 1
10
313.542000
20
422.545800
11
313.624000
21
422.487900
0
LINE
8
Layer 1
10
313.624000
20
422.487900
11
313.629000
21
422.483800
0
LINE
8
Layer 1
10
313.629000
20
422.483800
11
313.702000
21
422.425400
0
LINE
8
Layer 1
10
313.702000
20
422.425400
11
313.776000
21
422.358900
0
LINE
8
Layer 1
10
313.776000
20
422.358900
11
313.846000
21
422.287400
0
LINE
8
Layer 1
10
313.846000
20
422.287400
11
313.912000
21
422.212500
0
LINE
8
Layer 1
10
313.912000
20
422.212500
11
313.973000
21
422.133400
0
LINE
8
Layer 1
10
313.973000
20
422.133400
11
314.029000
21
422.051400
0
LINE
8
Layer 1
10
314.029000
20
422.051400
11
314.081000
21
421.965900
0
LINE
8
Layer 1
10
314.081000
20
421.965900
11
314.128000
21
421.877400
0
LINE
8
Layer 1
10
314.128000
20
421.877400
11
314.169000
21
421.786700
0
LINE
8
Layer 1
10
314.169000
20
421.786700
11
314.205000
21
421.693100
0
LINE
8
Layer 1
10
314.205000
20
421.693100
11
314.235000
21
421.598000
0
LINE
8
Layer 1
10
314.235000
20
421.598000
11
314.260000
21
421.501600
0
LINE
8
Layer 1
10
314.260000
20
421.501600
11
314.279000
21
421.403100
0
LINE
8
Layer 1
10
314.279000
20
421.403100
11
314.292000
21
421.304100
0
LINE
8
Layer 1
10
314.292000
20
421.304100
11
314.299000
21
421.204900
0
LINE
8
Layer 1
10
314.299000
20
421.204900
11
314.301000
21
421.105000
0
LINE
8
Layer 1
10
314.301000
20
421.105000
11
314.296000
21
421.005000
0
LINE
8
Layer 1
10
314.296000
20
421.005000
11
314.286000
21
420.906100
0
LINE
8
Layer 1
10
314.286000
20
420.906100
11
314.270000
21
420.807300
0
LINE
8
Layer 1
10
314.270000
20
420.807300
11
314.261000
21
420.768400
0
LINE
8
Layer 1
10
314.261000
20
420.768400
11
314.248000
21
420.709700
0
LINE
8
Layer 1
10
314.248000
20
420.709700
11
314.221000
21
420.614100
0
LINE
8
Layer 1
10
314.221000
20
420.614100
11
314.187000
21
420.519600
0
LINE
8
Layer 1
10
314.187000
20
420.519600
11
314.149000
21
420.427700
0
LINE
8
Layer 1
10
314.149000
20
420.427700
11
314.105000
21
420.337900
0
LINE
8
Layer 1
10
314.105000
20
420.337900
11
314.056000
21
420.250700
0
LINE
8
Layer 1
10
314.056000
20
420.250700
11
314.002000
21
420.167100
0
LINE
8
Layer 1
10
314.002000
20
420.167100
11
313.943000
21
420.086200
0
LINE
8
Layer 1
10
313.943000
20
420.086200
11
313.879000
21
420.009500
0
LINE
8
Layer 1
10
313.879000
20
420.009500
11
313.811000
21
419.936300
0
LINE
8
Layer 1
10
313.811000
20
419.936300
11
313.739000
21
419.867200
0
LINE
8
Layer 1
10
313.739000
20
419.867200
11
313.663000
21
419.802300
0
LINE
8
Layer 1
10
313.663000
20
419.802300
11
313.658000
21
419.799000
0
LINE
8
Layer 1
10
313.658000
20
419.799000
11
313.583000
21
419.742400
0
LINE
8
Layer 1
10
313.583000
20
419.742400
11
313.548000
21
419.718700
0
LINE
8
Layer 1
10
313.548000
20
419.718700
11
313.500000
21
419.687000
0
LINE
8
Layer 1
10
313.500000
20
419.687000
11
313.414000
21
419.636800
0
LINE
8
Layer 1
10
313.414000
20
419.636800
11
313.325000
21
419.591600
0
LINE
8
Layer 1
10
313.325000
20
419.591600
11
313.233000
21
419.551500
0
LINE
8
Layer 1
10
313.233000
20
419.551500
11
313.140000
21
419.517200
0
LINE
8
Layer 1
10
313.140000
20
419.517200
11
313.044000
21
419.488200
0
LINE
8
Layer 1
10
313.044000
20
419.488200
11
312.947000
21
419.465100
0
LINE
8
Layer 1
10
312.947000
20
419.465100
11
312.848000
21
419.447500
0
LINE
8
Layer 1
10
312.848000
20
419.447500
11
312.819000
21
419.444000
0
LINE
8
Layer 1
10
312.819000
20
419.444000
11
312.750000
21
419.435900
0
LINE
8
Layer 1
10
312.750000
20
419.435900
11
312.650000
21
419.430000
0
LINE
8
Layer 1
10
312.650000
20
419.430000
11
312.550000
21
419.430000
0
LINE
8
Layer 1
10
312.550000
20
406.300000
11
312.450000
21
406.305900
0
LINE
8
Layer 1
10
312.450000
20
406.305900
11
312.351000
21
406.317550
0
LINE
8
Layer 1
10
312.351000
20
406.317550
11
312.253000
21
406.335140
0
LINE
8
Layer 1
10
312.253000
20
406.335140
11
312.156000
21
406.358270
0
LINE
8
Layer 1
10
312.156000
20
406.358270
11
312.060000
21
406.387300
0
LINE
8
Layer 1
10
312.060000
20
406.387300
11
311.967000
21
406.421620
0
LINE
8
Layer 1
10
311.967000
20
406.421620
11
311.875000
21
406.461560
0
LINE
8
Layer 1
10
311.875000
20
406.461560
11
311.786000
21
406.506910
0
LINE
8
Layer 1
10
311.786000
20
406.506910
11
311.778000
21
406.511620
0
LINE
8
Layer 1
10
311.778000
20
406.511620
11
311.699000
21
406.557300
0
LINE
8
Layer 1
10
311.699000
20
406.557300
11
311.616000
21
406.612620
0
LINE
8
Layer 1
10
311.616000
20
406.612620
11
311.549000
21
406.663030
0
LINE
8
Layer 1
10
311.549000
20
406.663030
11
311.537000
21
406.672480
0
LINE
8
Layer 1
10
311.537000
20
406.672480
11
311.461000
21
406.737460
0
LINE
8
Layer 1
10
311.461000
20
406.737460
11
311.389000
21
406.806290
0
LINE
8
Layer 1
10
311.389000
20
406.806290
11
311.321000
21
406.879330
0
LINE
8
Layer 1
10
311.321000
20
406.879330
11
311.257000
21
406.956610
0
LINE
8
Layer 1
10
311.257000
20
406.956610
11
311.225000
21
407.000250
0
LINE
8
Layer 1
10
311.225000
20
407.000250
11
311.198000
21
407.037030
0
LINE
8
Layer 1
10
311.198000
20
407.037030
11
311.144000
21
407.120970
0
LINE
8
Layer 1
10
311.144000
20
407.120970
11
311.095000
21
407.207930
0
LINE
8
Layer 1
10
311.095000
20
407.207930
11
311.051000
21
407.297940
0
LINE
8
Layer 1
10
311.051000
20
407.297940
11
311.013000
21
407.389740
0
LINE
8
Layer 1
10
311.013000
20
407.389740
11
310.979000
21
407.483950
0
LINE
8
Layer 1
10
310.979000
20
407.483950
11
310.952000
21
407.580290
0
LINE
8
Layer 1
10
310.952000
20
407.580290
11
310.930000
21
407.677450
0
LINE
8
Layer 1
10
310.930000
20
407.677450
11
310.914000
21
407.775830
0
LINE
8
Layer 1
10
310.914000
20
407.775830
11
310.904000
21
407.875360
0
LINE
8
Layer 1
10
310.904000
20
407.875360
11
310.901000
21
407.950160
0
LINE
8
Layer 1
10
310.901000
20
407.950160
11
310.899000
21
407.975000
0
LINE
8
Layer 1
10
310.899000
20
407.975000
11
310.901000
21
408.075200
0
LINE
8
Layer 1
10
310.901000
20
408.075200
11
310.908000
21
408.174300
0
LINE
8
Layer 1
10
310.908000
20
408.174300
11
310.921000
21
408.273700
0
LINE
8
Layer 1
10
310.921000
20
408.273700
11
310.928000
21
408.308600
0
LINE
8
Layer 1
10
310.928000
20
408.308600
11
310.940000
21
408.371500
0
LINE
8
Layer 1
10
310.940000
20
408.371500
11
310.965000
21
408.468300
0
LINE
8
Layer 1
10
310.965000
20
408.468300
11
310.995000
21
408.563400
0
LINE
8
Layer 1
10
310.995000
20
408.563400
11
311.031000
21
408.656900
0
LINE
8
Layer 1
10
311.031000
20
408.656900
11
311.073000
21
408.747800
0
LINE
8
Layer 1
10
311.073000
20
408.747800
11
311.086000
21
408.773800
0
LINE
8
Layer 1
10
311.086000
20
408.773800
11
311.119000
21
408.835900
0
LINE
8
Layer 1
10
311.119000
20
408.835900
11
311.171000
21
408.921500
0
LINE
8
Layer 1
10
311.171000
20
408.921500
11
311.227000
21
409.003600
0
LINE
8
Layer 1
10
311.227000
20
409.003600
11
311.288000
21
409.082700
0
LINE
8
Layer 1
10
311.288000
20
409.082700
11
311.324000
21
409.122800
0
LINE
8
Layer 1
10
311.324000
20
409.122800
11
311.354000
21
409.157700
0
LINE
8
Layer 1
10
311.354000
20
409.157700
11
311.402000
21
409.206500
0
LINE
8
Layer 1
10
311.402000
20
409.206500
11
311.424000
21
409.228800
0
LINE
8
Layer 1
10
311.424000
20
409.228800
11
311.499000
21
409.295900
0
LINE
8
Layer 1
10
311.499000
20
409.295900
11
311.576000
21
409.358000
0
LINE
8
Layer 1
10
311.576000
20
409.358000
11
311.658000
21
409.416000
0
LINE
8
Layer 1
10
311.658000
20
409.416000
11
311.742000
21
409.468600
0
LINE
8
Layer 1
10
311.742000
20
409.468600
11
311.830000
21
409.516500
0
LINE
8
Layer 1
10
311.830000
20
409.516500
11
311.921000
21
409.559200
0
LINE
8
Layer 1
10
311.921000
20
409.559200
11
312.013000
21
409.596200
0
LINE
8
Layer 1
10
312.013000
20
409.596200
11
312.108000
21
409.628000
0
LINE
8
Layer 1
10
312.108000
20
409.628000
11
312.205000
21
409.654100
0
LINE
8
Layer 1
10
312.205000
20
409.654100
11
312.230000
21
409.659500
0
LINE
8
Layer 1
10
312.230000
20
409.659500
11
312.302000
21
409.674400
0
LINE
8
Layer 1
10
312.302000
20
409.674400
11
312.401000
21
409.689000
0
LINE
8
Layer 1
10
312.401000
20
409.689000
11
312.475000
21
409.695600
0
LINE
8
Layer 1
10
312.475000
20
409.695600
11
312.500000
21
409.697800
0
LINE
8
Layer 1
10
312.500000
20
409.697800
11
312.600000
21
409.700700
0
LINE
8
Layer 1
10
312.600000
20
409.700700
11
312.700000
21
409.697800
0
LINE
8
Layer 1
10
312.700000
20
409.697800
11
312.799000
21
409.689000
0
LINE
8
Layer 1
10
312.799000
20
409.689000
11
312.898000
21
409.674300
0
LINE
8
Layer 1
10
312.898000
20
409.674300
11
312.996000
21
409.654100
0
LINE
8
Layer 1
10
312.996000
20
409.654100
11
313.093000
21
409.627900
0
LINE
8
Layer 1
10
313.093000
20
409.627900
11
313.187000
21
409.596300
0
LINE
8
Layer 1
10
313.187000
20
409.596300
11
313.280000
21
409.558900
0
LINE
8
Layer 1
10
313.280000
20
409.558900
11
313.370000
21
409.516300
0
LINE
8
Layer 1
10
313.370000
20
409.516300
11
313.380000
21
409.510700
0
LINE
8
Layer 1
10
313.380000
20
409.510700
11
313.458000
21
409.468700
0
LINE
8
Layer 1
10
313.458000
20
409.468700
11
313.542000
21
409.415800
0
LINE
8
Layer 1
10
313.542000
20
409.415800
11
313.624000
21
409.357900
0
LINE
8
Layer 1
10
313.624000
20
409.357900
11
313.631000
21
409.352400
0
LINE
8
Layer 1
10
313.631000
20
409.352400
11
313.702000
21
409.295400
0
LINE
8
Layer 1
10
313.702000
20
409.295400
11
313.776000
21
409.228900
0
LINE
8
Layer 1
10
313.776000
20
409.228900
11
313.846000
21
409.157400
0
LINE
8
Layer 1
10
313.846000
20
409.157400
11
313.912000
21
409.082500
0
LINE
8
Layer 1
10
313.912000
20
409.082500
11
313.973000
21
409.003400
0
LINE
8
Layer 1
10
313.973000
20
409.003400
11
314.029000
21
408.921400
0
LINE
8
Layer 1
10
314.029000
20
408.921400
11
314.081000
21
408.835900
0
LINE
8
Layer 1
10
314.081000
20
408.835900
11
314.128000
21
408.747400
0
LINE
8
Layer 1
10
314.128000
20
408.747400
11
314.169000
21
408.656700
0
LINE
8
Layer 1
10
314.169000
20
408.656700
11
314.205000
21
408.563100
0
LINE
8
Layer 1
10
314.205000
20
408.563100
11
314.235000
21
408.468100
0
LINE
8
Layer 1
10
314.235000
20
408.468100
11
314.260000
21
408.371600
0
LINE
8
Layer 1
10
314.260000
20
408.371600
11
314.279000
21
408.273100
0
LINE
8
Layer 1
10
314.279000
20
408.273100
11
314.292000
21
408.174100
0
LINE
8
Layer 1
10
314.292000
20
408.174100
11
314.299000
21
408.074900
0
LINE
8
Layer 1
10
314.299000
20
408.074900
11
314.301000
21
407.975030
0
LINE
8
Layer 1
10
314.301000
20
407.975030
11
314.296000
21
407.875020
0
LINE
8
Layer 1
10
314.296000
20
407.875020
11
314.286000
21
407.776060
0
LINE
8
Layer 1
10
314.286000
20
407.776060
11
314.270000
21
407.677290
0
LINE
8
Layer 1
10
314.270000
20
407.677290
11
314.261000
21
407.638100
0
LINE
8
Layer 1
10
314.261000
20
407.638100
11
314.248000
21
407.579710
0
LINE
8
Layer 1
10
314.248000
20
407.579710
11
314.221000
21
407.484060
0
LINE
8
Layer 1
10
314.221000
20
407.484060
11
314.187000
21
407.389590
0
LINE
8
Layer 1
10
314.187000
20
407.389590
11
314.149000
21
407.297730
0
LINE
8
Layer 1
10
314.149000
20
407.297730
11
314.105000
21
407.207930
0
LINE
8
Layer 1
10
314.105000
20
407.207930
11
314.056000
21
407.120740
0
LINE
8
Layer 1
10
314.056000
20
407.120740
11
314.002000
21
407.037140
0
LINE
8
Layer 1
10
314.002000
20
407.037140
11
313.943000
21
406.956230
0
LINE
8
Layer 1
10
313.943000
20
406.956230
11
313.879000
21
406.879500
0
LINE
8
Layer 1
10
313.879000
20
406.879500
11
313.811000
21
406.806260
0
LINE
8
Layer 1
10
313.811000
20
406.806260
11
313.739000
21
406.737220
0
LINE
8
Layer 1
10
313.739000
20
406.737220
11
313.663000
21
406.672350
0
LINE
8
Layer 1
10
313.663000
20
406.672350
11
313.654000
21
406.665700
0
LINE
8
Layer 1
10
313.654000
20
406.665700
11
313.583000
21
406.612390
0
LINE
8
Layer 1
10
313.583000
20
406.612390
11
313.500000
21
406.557170
0
LINE
8
Layer 1
10
313.500000
20
406.557170
11
313.414000
21
406.506620
0
LINE
8
Layer 1
10
313.414000
20
406.506620
11
313.397000
21
406.498090
0
LINE
8
Layer 1
10
313.397000
20
406.498090
11
313.325000
21
406.461540
0
LINE
8
Layer 1
10
313.325000
20
406.461540
11
313.234000
21
406.421700
0
LINE
8
Layer 1
10
313.234000
20
406.421700
11
313.139000
21
406.387100
0
LINE
8
Layer 1
10
313.139000
20
406.387100
11
313.044000
21
406.358240
0
LINE
8
Layer 1
10
313.044000
20
406.358240
11
312.980000
21
406.342910
0
LINE
8
Layer 1
10
312.980000
20
406.342910
11
312.947000
21
406.335080
0
LINE
8
Layer 1
10
312.947000
20
406.335080
11
312.848000
21
406.317520
0
LINE
8
Layer 1
10
312.848000
20
406.317520
11
312.792000
21
406.310850
0
LINE
8
Layer 1
10
312.792000
20
406.310850
11
312.750000
21
406.305870
0
LINE
8
Layer 1
10
312.750000
20
406.305870
11
312.650000
21
406.300000
0
LINE
8
Layer 1
10
312.650000
20
406.300000
11
312.550000
21
406.300000
 0 
ENDSEC
 0 
EOF